<?xml version="1.0" encoding="utf-8" standalone="no"?>
<!DOCTYPE svg PUBLIC "-//W3C//DTD SVG 1.1//EN"
  "http://www.w3.org/Graphics/SVG/1.1/DTD/svg11.dtd">
<svg xmlns:xlink="http://www.w3.org/1999/xlink" width="432pt" height="288pt" viewBox="0 0 432 288" xmlns="http://www.w3.org/2000/svg" version="1.1">
 <metadata>
  <rdf:RDF xmlns:dc="http://purl.org/dc/elements/1.1/" xmlns:cc="http://creativecommons.org/ns#" xmlns:rdf="http://www.w3.org/1999/02/22-rdf-syntax-ns#">
   <cc:Work>
    <dc:type rdf:resource="http://purl.org/dc/dcmitype/StillImage"/>
    <dc:date>2022-08-12T11:38:00.783880</dc:date>
    <dc:format>image/svg+xml</dc:format>
    <dc:creator>
     <cc:Agent>
      <dc:title>Matplotlib v3.5.2, https://matplotlib.org/</dc:title>
     </cc:Agent>
    </dc:creator>
   </cc:Work>
  </rdf:RDF>
 </metadata>
 <defs>
  <style type="text/css">*{stroke-linejoin: round; stroke-linecap: butt}</style>
 </defs>
 <g id="figure_1">
  <g id="patch_1">
   <path d="M 0 288 
L 432 288 
L 432 0 
L 0 0 
L 0 288 
z
" style="fill: none"/>
  </g>
  <g id="axes_1">
   <g id="patch_2">
    <path d="M 54 252 
L 388.8 252 
L 388.8 34.56 
L 54 34.56 
z
" style="fill: #ffffff"/>
   </g>
   <g id="patch_3">
    <path d="M 69.218182 252 
L 79.363636 252 
L 79.363636 205.980952 
L 69.218182 205.980952 
z
" clip-path="url(#p557d580e5d)"/>
   </g>
   <g id="patch_4">
    <path d="M 79.363636 252 
L 89.509091 252 
L 89.509091 217.485714 
L 79.363636 217.485714 
z
" clip-path="url(#p557d580e5d)"/>
   </g>
   <g id="patch_5">
    <path d="M 89.509091 252 
L 99.654545 252 
L 99.654545 113.942857 
L 89.509091 113.942857 
z
" clip-path="url(#p557d580e5d)"/>
   </g>
   <g id="patch_6">
    <path d="M 99.654545 252 
L 109.8 252 
L 109.8 102.438095 
L 99.654545 102.438095 
z
" clip-path="url(#p557d580e5d)"/>
   </g>
   <g id="patch_7">
    <path d="M 109.8 252 
L 119.945455 252 
L 119.945455 90.933333 
L 109.8 90.933333 
z
" clip-path="url(#p557d580e5d)"/>
   </g>
   <g id="patch_8">
    <path d="M 119.945455 252 
L 130.090909 252 
L 130.090909 44.914286 
L 119.945455 44.914286 
z
" clip-path="url(#p557d580e5d)"/>
   </g>
   <g id="patch_9">
    <path d="M 130.090909 252 
L 140.236364 252 
L 140.236364 182.971429 
L 130.090909 182.971429 
z
" clip-path="url(#p557d580e5d)"/>
   </g>
   <g id="patch_10">
    <path d="M 140.236364 252 
L 150.381818 252 
L 150.381818 148.457143 
L 140.236364 148.457143 
z
" clip-path="url(#p557d580e5d)"/>
   </g>
   <g id="patch_11">
    <path d="M 150.381818 252 
L 160.527273 252 
L 160.527273 182.971429 
L 150.381818 182.971429 
z
" clip-path="url(#p557d580e5d)"/>
   </g>
   <g id="patch_12">
    <path d="M 160.527273 252 
L 170.672727 252 
L 170.672727 159.961905 
L 160.527273 159.961905 
z
" clip-path="url(#p557d580e5d)"/>
   </g>
   <g id="patch_13">
    <path d="M 170.672727 252 
L 180.818182 252 
L 180.818182 217.485714 
L 170.672727 217.485714 
z
" clip-path="url(#p557d580e5d)"/>
   </g>
   <g id="patch_14">
    <path d="M 180.818182 252 
L 190.963636 252 
L 190.963636 217.485714 
L 180.818182 217.485714 
z
" clip-path="url(#p557d580e5d)"/>
   </g>
   <g id="patch_15">
    <path d="M 190.963636 252 
L 201.109091 252 
L 201.109091 205.980952 
L 190.963636 205.980952 
z
" clip-path="url(#p557d580e5d)"/>
   </g>
   <g id="patch_16">
    <path d="M 201.109091 252 
L 211.254545 252 
L 211.254545 240.495238 
L 201.109091 240.495238 
z
" clip-path="url(#p557d580e5d)"/>
   </g>
   <g id="patch_17">
    <path d="M 211.254545 252 
L 221.4 252 
L 221.4 252 
L 211.254545 252 
z
" clip-path="url(#p557d580e5d)"/>
   </g>
   <g id="patch_18">
    <path d="M 221.4 252 
L 231.545455 252 
L 231.545455 228.990476 
L 221.4 228.990476 
z
" clip-path="url(#p557d580e5d)"/>
   </g>
   <g id="patch_19">
    <path d="M 231.545455 252 
L 241.690909 252 
L 241.690909 240.495238 
L 231.545455 240.495238 
z
" clip-path="url(#p557d580e5d)"/>
   </g>
   <g id="patch_20">
    <path d="M 241.690909 252 
L 251.836364 252 
L 251.836364 228.990476 
L 241.690909 228.990476 
z
" clip-path="url(#p557d580e5d)"/>
   </g>
   <g id="patch_21">
    <path d="M 251.836364 252 
L 261.981818 252 
L 261.981818 252 
L 251.836364 252 
z
" clip-path="url(#p557d580e5d)"/>
   </g>
   <g id="patch_22">
    <path d="M 261.981818 252 
L 272.127273 252 
L 272.127273 252 
L 261.981818 252 
z
" clip-path="url(#p557d580e5d)"/>
   </g>
   <g id="patch_23">
    <path d="M 272.127273 252 
L 282.272727 252 
L 282.272727 240.495238 
L 272.127273 240.495238 
z
" clip-path="url(#p557d580e5d)"/>
   </g>
   <g id="patch_24">
    <path d="M 282.272727 252 
L 292.418182 252 
L 292.418182 252 
L 282.272727 252 
z
" clip-path="url(#p557d580e5d)"/>
   </g>
   <g id="patch_25">
    <path d="M 292.418182 252 
L 302.563636 252 
L 302.563636 240.495238 
L 292.418182 240.495238 
z
" clip-path="url(#p557d580e5d)"/>
   </g>
   <g id="patch_26">
    <path d="M 302.563636 252 
L 312.709091 252 
L 312.709091 252 
L 302.563636 252 
z
" clip-path="url(#p557d580e5d)"/>
   </g>
   <g id="patch_27">
    <path d="M 312.709091 252 
L 322.854545 252 
L 322.854545 240.495238 
L 312.709091 240.495238 
z
" clip-path="url(#p557d580e5d)"/>
   </g>
   <g id="patch_28">
    <path d="M 322.854545 252 
L 333 252 
L 333 252 
L 322.854545 252 
z
" clip-path="url(#p557d580e5d)"/>
   </g>
   <g id="patch_29">
    <path d="M 333 252 
L 343.145455 252 
L 343.145455 252 
L 333 252 
z
" clip-path="url(#p557d580e5d)"/>
   </g>
   <g id="patch_30">
    <path d="M 343.145455 252 
L 353.290909 252 
L 353.290909 252 
L 343.145455 252 
z
" clip-path="url(#p557d580e5d)"/>
   </g>
   <g id="patch_31">
    <path d="M 353.290909 252 
L 363.436364 252 
L 363.436364 252 
L 353.290909 252 
z
" clip-path="url(#p557d580e5d)"/>
   </g>
   <g id="patch_32">
    <path d="M 363.436364 252 
L 373.581818 252 
L 373.581818 240.495238 
L 363.436364 240.495238 
z
" clip-path="url(#p557d580e5d)"/>
   </g>
   <g id="matplotlib.axis_1">
    <g id="xtick_1">
     <g id="line2d_1">
      <defs>
       <path id="mf9c40c5c5e" d="M 0 0 
L 0 3.5 
" style="stroke: #000000"/>
      </defs>
      <g>
       <use xlink:href="#mf9c40c5c5e" x="133.693968" y="252" style="stroke: #000000"/>
      </g>
     </g>
     <g id="text_1">
      <!-- 20 -->
      <g transform="translate(125.352561 269.736719)scale(0.15 -0.15)">
       <defs>
        <path id="ArialMT-32" d="M 3222 541 
L 3222 0 
L 194 0 
Q 188 203 259 391 
Q 375 700 629 1000 
Q 884 1300 1366 1694 
Q 2113 2306 2375 2664 
Q 2638 3022 2638 3341 
Q 2638 3675 2398 3904 
Q 2159 4134 1775 4134 
Q 1369 4134 1125 3890 
Q 881 3647 878 3216 
L 300 3275 
Q 359 3922 746 4261 
Q 1134 4600 1788 4600 
Q 2447 4600 2831 4234 
Q 3216 3869 3216 3328 
Q 3216 3053 3103 2787 
Q 2991 2522 2730 2228 
Q 2469 1934 1863 1422 
Q 1356 997 1212 845 
Q 1069 694 975 541 
L 3222 541 
z
" transform="scale(0.015625)"/>
        <path id="ArialMT-30" d="M 266 2259 
Q 266 3072 433 3567 
Q 600 4063 929 4331 
Q 1259 4600 1759 4600 
Q 2128 4600 2406 4451 
Q 2684 4303 2865 4023 
Q 3047 3744 3150 3342 
Q 3253 2941 3253 2259 
Q 3253 1453 3087 958 
Q 2922 463 2592 192 
Q 2263 -78 1759 -78 
Q 1097 -78 719 397 
Q 266 969 266 2259 
z
M 844 2259 
Q 844 1131 1108 757 
Q 1372 384 1759 384 
Q 2147 384 2411 759 
Q 2675 1134 2675 2259 
Q 2675 3391 2411 3762 
Q 2147 4134 1753 4134 
Q 1366 4134 1134 3806 
Q 844 3388 844 2259 
z
" transform="scale(0.015625)"/>
       </defs>
       <use xlink:href="#ArialMT-32"/>
       <use xlink:href="#ArialMT-30" x="55.615234"/>
      </g>
     </g>
    </g>
    <g id="xtick_2">
     <g id="line2d_2">
      <g>
       <use xlink:href="#mf9c40c5c5e" x="228.5113" y="252" style="stroke: #000000"/>
      </g>
     </g>
     <g id="text_2">
      <!-- 40 -->
      <g transform="translate(220.169894 269.736719)scale(0.15 -0.15)">
       <defs>
        <path id="ArialMT-34" d="M 2069 0 
L 2069 1097 
L 81 1097 
L 81 1613 
L 2172 4581 
L 2631 4581 
L 2631 1613 
L 3250 1613 
L 3250 1097 
L 2631 1097 
L 2631 0 
L 2069 0 
z
M 2069 1613 
L 2069 3678 
L 634 1613 
L 2069 1613 
z
" transform="scale(0.015625)"/>
       </defs>
       <use xlink:href="#ArialMT-34"/>
       <use xlink:href="#ArialMT-30" x="55.615234"/>
      </g>
     </g>
    </g>
    <g id="xtick_3">
     <g id="line2d_3">
      <g>
       <use xlink:href="#mf9c40c5c5e" x="323.328632" y="252" style="stroke: #000000"/>
      </g>
     </g>
     <g id="text_3">
      <!-- 60 -->
      <g transform="translate(314.987226 269.736719)scale(0.15 -0.15)">
       <defs>
        <path id="ArialMT-36" d="M 3184 3459 
L 2625 3416 
Q 2550 3747 2413 3897 
Q 2184 4138 1850 4138 
Q 1581 4138 1378 3988 
Q 1113 3794 959 3422 
Q 806 3050 800 2363 
Q 1003 2672 1297 2822 
Q 1591 2972 1913 2972 
Q 2475 2972 2870 2558 
Q 3266 2144 3266 1488 
Q 3266 1056 3080 686 
Q 2894 316 2569 119 
Q 2244 -78 1831 -78 
Q 1128 -78 684 439 
Q 241 956 241 2144 
Q 241 3472 731 4075 
Q 1159 4600 1884 4600 
Q 2425 4600 2770 4297 
Q 3116 3994 3184 3459 
z
M 888 1484 
Q 888 1194 1011 928 
Q 1134 663 1356 523 
Q 1578 384 1822 384 
Q 2178 384 2434 671 
Q 2691 959 2691 1453 
Q 2691 1928 2437 2201 
Q 2184 2475 1800 2475 
Q 1419 2475 1153 2201 
Q 888 1928 888 1484 
z
" transform="scale(0.015625)"/>
       </defs>
       <use xlink:href="#ArialMT-36"/>
       <use xlink:href="#ArialMT-30" x="55.615234"/>
      </g>
     </g>
    </g>
    <g id="text_4">
     <!-- x -->
     <g transform="translate(217.65 287.454687)scale(0.15 -0.15)">
      <defs>
       <path id="ArialMT-78" d="M 47 0 
L 1259 1725 
L 138 3319 
L 841 3319 
L 1350 2541 
Q 1494 2319 1581 2169 
Q 1719 2375 1834 2534 
L 2394 3319 
L 3066 3319 
L 1919 1756 
L 3153 0 
L 2463 0 
L 1781 1031 
L 1600 1309 
L 728 0 
L 47 0 
z
" transform="scale(0.015625)"/>
      </defs>
      <use xlink:href="#ArialMT-78"/>
     </g>
    </g>
   </g>
   <g id="matplotlib.axis_2">
    <g id="ytick_1">
     <g id="line2d_4">
      <defs>
       <path id="m26bb083eaf" d="M 0 0 
L 3.5 0 
" style="stroke: #000000"/>
      </defs>
      <g>
       <use xlink:href="#m26bb083eaf" x="54" y="252" style="stroke: #000000"/>
      </g>
     </g>
     <g id="text_5">
      <!-- 0 -->
      <g transform="translate(42.158594 257.368359)scale(0.15 -0.15)">
       <use xlink:href="#ArialMT-30"/>
      </g>
     </g>
    </g>
    <g id="ytick_2">
     <g id="line2d_5">
      <g>
       <use xlink:href="#m26bb083eaf" x="54" y="194.47619" style="stroke: #000000"/>
      </g>
     </g>
     <g id="text_6">
      <!-- 5 -->
      <g transform="translate(42.158594 199.84455)scale(0.15 -0.15)">
       <defs>
        <path id="ArialMT-35" d="M 266 1200 
L 856 1250 
Q 922 819 1161 601 
Q 1400 384 1738 384 
Q 2144 384 2425 690 
Q 2706 997 2706 1503 
Q 2706 1984 2436 2262 
Q 2166 2541 1728 2541 
Q 1456 2541 1237 2417 
Q 1019 2294 894 2097 
L 366 2166 
L 809 4519 
L 3088 4519 
L 3088 3981 
L 1259 3981 
L 1013 2750 
Q 1425 3038 1878 3038 
Q 2478 3038 2890 2622 
Q 3303 2206 3303 1553 
Q 3303 931 2941 478 
Q 2500 -78 1738 -78 
Q 1113 -78 717 272 
Q 322 622 266 1200 
z
" transform="scale(0.015625)"/>
       </defs>
       <use xlink:href="#ArialMT-35"/>
      </g>
     </g>
    </g>
    <g id="ytick_3">
     <g id="line2d_6">
      <g>
       <use xlink:href="#m26bb083eaf" x="54" y="136.952381" style="stroke: #000000"/>
      </g>
     </g>
     <g id="text_7">
      <!-- 10 -->
      <g transform="translate(33.817188 142.32074)scale(0.15 -0.15)">
       <defs>
        <path id="ArialMT-31" d="M 2384 0 
L 1822 0 
L 1822 3584 
Q 1619 3391 1289 3197 
Q 959 3003 697 2906 
L 697 3450 
Q 1169 3672 1522 3987 
Q 1875 4303 2022 4600 
L 2384 4600 
L 2384 0 
z
" transform="scale(0.015625)"/>
       </defs>
       <use xlink:href="#ArialMT-31"/>
       <use xlink:href="#ArialMT-30" x="55.615234"/>
      </g>
     </g>
    </g>
    <g id="ytick_4">
     <g id="line2d_7">
      <g>
       <use xlink:href="#m26bb083eaf" x="54" y="79.428571" style="stroke: #000000"/>
      </g>
     </g>
     <g id="text_8">
      <!-- 15 -->
      <g transform="translate(33.817188 84.796931)scale(0.15 -0.15)">
       <use xlink:href="#ArialMT-31"/>
       <use xlink:href="#ArialMT-35" x="55.615234"/>
      </g>
     </g>
    </g>
    <g id="ytick_5">
     <g id="line2d_8">
      <defs>
       <path id="m9a742119fb" d="M 0 0 
L 2 0 
" style="stroke: #000000; stroke-width: 0.6"/>
      </defs>
      <g>
       <use xlink:href="#m9a742119fb" x="54" y="240.495238" style="stroke: #000000; stroke-width: 0.6"/>
      </g>
     </g>
    </g>
    <g id="ytick_6">
     <g id="line2d_9">
      <g>
       <use xlink:href="#m9a742119fb" x="54" y="228.990476" style="stroke: #000000; stroke-width: 0.6"/>
      </g>
     </g>
    </g>
    <g id="ytick_7">
     <g id="line2d_10">
      <g>
       <use xlink:href="#m9a742119fb" x="54" y="217.485714" style="stroke: #000000; stroke-width: 0.6"/>
      </g>
     </g>
    </g>
    <g id="ytick_8">
     <g id="line2d_11">
      <g>
       <use xlink:href="#m9a742119fb" x="54" y="205.980952" style="stroke: #000000; stroke-width: 0.6"/>
      </g>
     </g>
    </g>
    <g id="ytick_9">
     <g id="line2d_12">
      <g>
       <use xlink:href="#m9a742119fb" x="54" y="182.971429" style="stroke: #000000; stroke-width: 0.6"/>
      </g>
     </g>
    </g>
    <g id="ytick_10">
     <g id="line2d_13">
      <g>
       <use xlink:href="#m9a742119fb" x="54" y="171.466667" style="stroke: #000000; stroke-width: 0.6"/>
      </g>
     </g>
    </g>
    <g id="ytick_11">
     <g id="line2d_14">
      <g>
       <use xlink:href="#m9a742119fb" x="54" y="159.961905" style="stroke: #000000; stroke-width: 0.6"/>
      </g>
     </g>
    </g>
    <g id="ytick_12">
     <g id="line2d_15">
      <g>
       <use xlink:href="#m9a742119fb" x="54" y="148.457143" style="stroke: #000000; stroke-width: 0.6"/>
      </g>
     </g>
    </g>
    <g id="ytick_13">
     <g id="line2d_16">
      <g>
       <use xlink:href="#m9a742119fb" x="54" y="125.447619" style="stroke: #000000; stroke-width: 0.6"/>
      </g>
     </g>
    </g>
    <g id="ytick_14">
     <g id="line2d_17">
      <g>
       <use xlink:href="#m9a742119fb" x="54" y="113.942857" style="stroke: #000000; stroke-width: 0.6"/>
      </g>
     </g>
    </g>
    <g id="ytick_15">
     <g id="line2d_18">
      <g>
       <use xlink:href="#m9a742119fb" x="54" y="102.438095" style="stroke: #000000; stroke-width: 0.6"/>
      </g>
     </g>
    </g>
    <g id="ytick_16">
     <g id="line2d_19">
      <g>
       <use xlink:href="#m9a742119fb" x="54" y="90.933333" style="stroke: #000000; stroke-width: 0.6"/>
      </g>
     </g>
    </g>
    <g id="ytick_17">
     <g id="line2d_20">
      <g>
       <use xlink:href="#m9a742119fb" x="54" y="67.92381" style="stroke: #000000; stroke-width: 0.6"/>
      </g>
     </g>
    </g>
    <g id="ytick_18">
     <g id="line2d_21">
      <g>
       <use xlink:href="#m9a742119fb" x="54" y="56.419048" style="stroke: #000000; stroke-width: 0.6"/>
      </g>
     </g>
    </g>
    <g id="ytick_19">
     <g id="line2d_22">
      <g>
       <use xlink:href="#m9a742119fb" x="54" y="44.914286" style="stroke: #000000; stroke-width: 0.6"/>
      </g>
     </g>
    </g>
    <g id="text_9">
     <!-- Frequency -->
     <g transform="translate(26.660156 178.711641)rotate(-90)scale(0.15 -0.15)">
      <defs>
       <path id="ArialMT-46" d="M 525 0 
L 525 4581 
L 3616 4581 
L 3616 4041 
L 1131 4041 
L 1131 2622 
L 3281 2622 
L 3281 2081 
L 1131 2081 
L 1131 0 
L 525 0 
z
" transform="scale(0.015625)"/>
       <path id="ArialMT-72" d="M 416 0 
L 416 3319 
L 922 3319 
L 922 2816 
Q 1116 3169 1280 3281 
Q 1444 3394 1641 3394 
Q 1925 3394 2219 3213 
L 2025 2691 
Q 1819 2813 1613 2813 
Q 1428 2813 1281 2702 
Q 1134 2591 1072 2394 
Q 978 2094 978 1738 
L 978 0 
L 416 0 
z
" transform="scale(0.015625)"/>
       <path id="ArialMT-65" d="M 2694 1069 
L 3275 997 
Q 3138 488 2766 206 
Q 2394 -75 1816 -75 
Q 1088 -75 661 373 
Q 234 822 234 1631 
Q 234 2469 665 2931 
Q 1097 3394 1784 3394 
Q 2450 3394 2872 2941 
Q 3294 2488 3294 1666 
Q 3294 1616 3291 1516 
L 816 1516 
Q 847 969 1125 678 
Q 1403 388 1819 388 
Q 2128 388 2347 550 
Q 2566 713 2694 1069 
z
M 847 1978 
L 2700 1978 
Q 2663 2397 2488 2606 
Q 2219 2931 1791 2931 
Q 1403 2931 1139 2672 
Q 875 2413 847 1978 
z
" transform="scale(0.015625)"/>
       <path id="ArialMT-71" d="M 2538 -1272 
L 2538 353 
Q 2406 169 2170 47 
Q 1934 -75 1669 -75 
Q 1078 -75 651 397 
Q 225 869 225 1691 
Q 225 2191 398 2587 
Q 572 2984 901 3189 
Q 1231 3394 1625 3394 
Q 2241 3394 2594 2875 
L 2594 3319 
L 3100 3319 
L 3100 -1272 
L 2538 -1272 
z
M 803 1669 
Q 803 1028 1072 708 
Q 1341 388 1716 388 
Q 2075 388 2334 692 
Q 2594 997 2594 1619 
Q 2594 2281 2320 2615 
Q 2047 2950 1678 2950 
Q 1313 2950 1058 2639 
Q 803 2328 803 1669 
z
" transform="scale(0.015625)"/>
       <path id="ArialMT-75" d="M 2597 0 
L 2597 488 
Q 2209 -75 1544 -75 
Q 1250 -75 995 37 
Q 741 150 617 320 
Q 494 491 444 738 
Q 409 903 409 1263 
L 409 3319 
L 972 3319 
L 972 1478 
Q 972 1038 1006 884 
Q 1059 663 1231 536 
Q 1403 409 1656 409 
Q 1909 409 2131 539 
Q 2353 669 2445 892 
Q 2538 1116 2538 1541 
L 2538 3319 
L 3100 3319 
L 3100 0 
L 2597 0 
z
" transform="scale(0.015625)"/>
       <path id="ArialMT-6e" d="M 422 0 
L 422 3319 
L 928 3319 
L 928 2847 
Q 1294 3394 1984 3394 
Q 2284 3394 2536 3286 
Q 2788 3178 2913 3003 
Q 3038 2828 3088 2588 
Q 3119 2431 3119 2041 
L 3119 0 
L 2556 0 
L 2556 2019 
Q 2556 2363 2490 2533 
Q 2425 2703 2258 2804 
Q 2091 2906 1866 2906 
Q 1506 2906 1245 2678 
Q 984 2450 984 1813 
L 984 0 
L 422 0 
z
" transform="scale(0.015625)"/>
       <path id="ArialMT-63" d="M 2588 1216 
L 3141 1144 
Q 3050 572 2676 248 
Q 2303 -75 1759 -75 
Q 1078 -75 664 370 
Q 250 816 250 1647 
Q 250 2184 428 2587 
Q 606 2991 970 3192 
Q 1334 3394 1763 3394 
Q 2303 3394 2647 3120 
Q 2991 2847 3088 2344 
L 2541 2259 
Q 2463 2594 2264 2762 
Q 2066 2931 1784 2931 
Q 1359 2931 1093 2626 
Q 828 2322 828 1663 
Q 828 994 1084 691 
Q 1341 388 1753 388 
Q 2084 388 2306 591 
Q 2528 794 2588 1216 
z
" transform="scale(0.015625)"/>
       <path id="ArialMT-79" d="M 397 -1278 
L 334 -750 
Q 519 -800 656 -800 
Q 844 -800 956 -737 
Q 1069 -675 1141 -563 
Q 1194 -478 1313 -144 
Q 1328 -97 1363 -6 
L 103 3319 
L 709 3319 
L 1400 1397 
Q 1534 1031 1641 628 
Q 1738 1016 1872 1384 
L 2581 3319 
L 3144 3319 
L 1881 -56 
Q 1678 -603 1566 -809 
Q 1416 -1088 1222 -1217 
Q 1028 -1347 759 -1347 
Q 597 -1347 397 -1278 
z
" transform="scale(0.015625)"/>
      </defs>
      <use xlink:href="#ArialMT-46"/>
      <use xlink:href="#ArialMT-72" x="61.083984"/>
      <use xlink:href="#ArialMT-65" x="94.384766"/>
      <use xlink:href="#ArialMT-71" x="150"/>
      <use xlink:href="#ArialMT-75" x="205.615234"/>
      <use xlink:href="#ArialMT-65" x="261.230469"/>
      <use xlink:href="#ArialMT-6e" x="316.845703"/>
      <use xlink:href="#ArialMT-63" x="372.460938"/>
      <use xlink:href="#ArialMT-79" x="422.460938"/>
     </g>
    </g>
   </g>
   <g id="patch_33">
    <path d="M 54 252 
L 54 34.56 
" style="fill: none; stroke: #000000; stroke-linejoin: miter; stroke-linecap: square"/>
   </g>
   <g id="patch_34">
    <path d="M 388.8 252 
L 388.8 34.56 
" style="fill: none; stroke: #000000; stroke-linejoin: miter; stroke-linecap: square"/>
   </g>
   <g id="patch_35">
    <path d="M 54 252 
L 388.8 252 
" style="fill: none; stroke: #000000; stroke-linejoin: miter; stroke-linecap: square"/>
   </g>
   <g id="patch_36">
    <path d="M 54 34.56 
L 388.8 34.56 
" style="fill: none; stroke: #000000; stroke-linejoin: miter; stroke-linecap: square"/>
   </g>
   <g id="text_10">
    <!-- 札幌 -->
    <g transform="translate(203.4 28.56)scale(0.18 -0.18)">
     <defs>
      <path id="MS-Gothic-672d" d="M 2250 -475 
L 1750 -475 
L 1750 2000 
Q 1575 1450 775 650 
L 425 1200 
Q 1275 1825 1750 3275 
L 675 3275 
L 675 3825 
L 1750 3825 
L 1750 5050 
L 2225 5050 
Q 2475 5000 2250 4850 
L 2250 3825 
L 3375 3825 
L 3375 3275 
L 2250 3275 
L 2250 2675 
Q 2975 2300 3425 1950 
L 3150 1350 
Q 2700 1775 2250 2075 
L 2250 -475 
z
M 6075 825 
L 5925 175 
Q 5800 -375 5175 -375 
L 4325 -375 
Q 3875 -375 3875 100 
L 3875 4925 
L 4425 4925 
Q 4675 4875 4450 4725 
L 4450 375 
Q 4450 175 4625 175 
L 5075 175 
Q 5325 175 5375 400 
L 5500 1050 
L 6075 825 
z
" transform="scale(0.015625)"/>
      <path id="MS-Gothic-5e4c" d="M 4450 1450 
L 3875 1450 
L 3875 775 
Q 3875 -250 2325 -650 
L 2175 -150 
Q 3450 100 3450 850 
L 3450 1450 
L 2625 1450 
L 2625 1850 
L 4050 1850 
L 4050 2950 
L 3475 2950 
L 2925 2950 
L 2925 5000 
L 5650 5000 
L 5650 2950 
L 4475 2950 
L 4475 1850 
L 6075 1850 
L 6075 1450 
L 4875 1450 
L 4875 125 
Q 4875 -50 5050 -50 
L 5375 -50 
Q 5525 -50 5575 150 
L 5650 475 
L 6125 375 
L 6000 -175 
Q 5900 -450 5675 -450 
L 4900 -450 
Q 4450 -450 4450 0 
L 4450 1450 
z
M 5525 2525 
Q 5425 2250 5250 1975 
L 4850 2150 
Q 5025 2450 5175 2825 
L 5600 2650 
Q 5700 2550 5525 2525 
z
M 3350 2825 
Q 3575 2575 3750 2225 
L 3350 1975 
Q 3175 2350 2975 2575 
L 3350 2825 
z
M 3350 4600 
L 3350 4175 
L 5225 4175 
L 5225 4600 
L 3350 4600 
z
M 5225 3775 
L 3350 3775 
L 3350 3350 
L 5225 3350 
L 5225 3775 
z
M 2450 3975 
L 2450 1275 
Q 2450 900 2175 900 
L 1850 900 
L 1800 1300 
L 1925 1300 
Q 2025 1300 2025 1400 
L 2025 3575 
L 1675 3575 
L 1675 -575 
L 1250 -575 
L 1250 3575 
L 925 3575 
L 925 875 
L 500 875 
L 500 3975 
L 1250 3975 
L 1250 5150 
L 1650 5150 
Q 1850 5125 1675 5000 
L 1675 3975 
L 2450 3975 
z
" transform="scale(0.015625)"/>
     </defs>
     <use xlink:href="#MS-Gothic-672d"/>
     <use xlink:href="#MS-Gothic-5e4c" x="100"/>
    </g>
   </g>
  </g>
 </g>
 <defs>
  <clipPath id="p557d580e5d">
   <rect x="54" y="34.56" width="334.8" height="217.44"/>
  </clipPath>
 </defs>
</svg>
