<?xml version="1.0" encoding="utf-8" standalone="no"?>
<!DOCTYPE svg PUBLIC "-//W3C//DTD SVG 1.1//EN"
  "http://www.w3.org/Graphics/SVG/1.1/DTD/svg11.dtd">
<svg xmlns:xlink="http://www.w3.org/1999/xlink" width="460.8pt" height="432pt" viewBox="0 0 460.8 432" xmlns="http://www.w3.org/2000/svg" version="1.1">
 <metadata>
  <rdf:RDF xmlns:dc="http://purl.org/dc/elements/1.1/" xmlns:cc="http://creativecommons.org/ns#" xmlns:rdf="http://www.w3.org/1999/02/22-rdf-syntax-ns#">
   <cc:Work>
    <dc:type rdf:resource="http://purl.org/dc/dcmitype/StillImage"/>
    <dc:date>2022-08-12T11:38:01.155875</dc:date>
    <dc:format>image/svg+xml</dc:format>
    <dc:creator>
     <cc:Agent>
      <dc:title>Matplotlib v3.5.2, https://matplotlib.org/</dc:title>
     </cc:Agent>
    </dc:creator>
   </cc:Work>
  </rdf:RDF>
 </metadata>
 <defs>
  <style type="text/css">*{stroke-linejoin: round; stroke-linecap: butt}</style>
 </defs>
 <g id="figure_1">
  <g id="patch_1">
   <path d="M 0 432 
L 460.8 432 
L 460.8 0 
L 0 0 
z
" style="fill: #ffffff"/>
  </g>
  <g id="axes_1">
   <g id="patch_2">
    <path d="M 46.08 172.8 
L 414.72 172.8 
L 414.72 43.2 
L 46.08 43.2 
z
" style="fill: #ffffff"/>
   </g>
   <g id="PathCollection_1">
    <defs>
     <path id="m3cafbec9c6" style="stroke: #000000; stroke-opacity: 0.8"/>
    </defs>
    <g clip-path="url(#p02bf21911d)">
     <use xlink:href="#m3cafbec9c6" x="62.836364" y="158.657234" style="fill-opacity: 0.8; stroke: #000000; stroke-opacity: 0.8"/>
     <use xlink:href="#m3cafbec9c6" x="65.828571" y="72.471171" style="fill-opacity: 0.8; stroke: #000000; stroke-opacity: 0.8"/>
     <use xlink:href="#m3cafbec9c6" x="68.820779" y="154.531305" style="fill-opacity: 0.8; stroke: #000000; stroke-opacity: 0.8"/>
     <use xlink:href="#m3cafbec9c6" x="71.812987" y="155.448178" style="fill-opacity: 0.8; stroke: #000000; stroke-opacity: 0.8"/>
     <use xlink:href="#m3cafbec9c6" x="74.805195" y="156.823488" style="fill-opacity: 0.8; stroke: #000000; stroke-opacity: 0.8"/>
     <use xlink:href="#m3cafbec9c6" x="77.797403" y="88.974885" style="fill-opacity: 0.8; stroke: #000000; stroke-opacity: 0.8"/>
     <use xlink:href="#m3cafbec9c6" x="80.78961" y="144.904139" style="fill-opacity: 0.8; stroke: #000000; stroke-opacity: 0.8"/>
     <use xlink:href="#m3cafbec9c6" x="83.781818" y="133.901663" style="fill-opacity: 0.8; stroke: #000000; stroke-opacity: 0.8"/>
     <use xlink:href="#m3cafbec9c6" x="86.774026" y="126.108242" style="fill-opacity: 0.8; stroke: #000000; stroke-opacity: 0.8"/>
     <use xlink:href="#m3cafbec9c6" x="89.766234" y="109.146091" style="fill-opacity: 0.8; stroke: #000000; stroke-opacity: 0.8"/>
     <use xlink:href="#m3cafbec9c6" x="92.758442" y="135.276972" style="fill-opacity: 0.8; stroke: #000000; stroke-opacity: 0.8"/>
     <use xlink:href="#m3cafbec9c6" x="95.750649" y="127.941988" style="fill-opacity: 0.8; stroke: #000000; stroke-opacity: 0.8"/>
     <use xlink:href="#m3cafbec9c6" x="98.742857" y="145.362575" style="fill-opacity: 0.8; stroke: #000000; stroke-opacity: 0.8"/>
     <use xlink:href="#m3cafbec9c6" x="101.735065" y="95.392996" style="fill-opacity: 0.8; stroke: #000000; stroke-opacity: 0.8"/>
     <use xlink:href="#m3cafbec9c6" x="104.727273" y="132.067917" style="fill-opacity: 0.8; stroke: #000000; stroke-opacity: 0.8"/>
     <use xlink:href="#m3cafbec9c6" x="107.719481" y="159.574107" style="fill-opacity: 0.8; stroke: #000000; stroke-opacity: 0.8"/>
     <use xlink:href="#m3cafbec9c6" x="110.711688" y="122.44075" style="fill-opacity: 0.8; stroke: #000000; stroke-opacity: 0.8"/>
     <use xlink:href="#m3cafbec9c6" x="113.703896" y="145.821012" style="fill-opacity: 0.8; stroke: #000000; stroke-opacity: 0.8"/>
     <use xlink:href="#m3cafbec9c6" x="116.696104" y="152.239123" style="fill-opacity: 0.8; stroke: #000000; stroke-opacity: 0.8"/>
     <use xlink:href="#m3cafbec9c6" x="119.688312" y="138.944464" style="fill-opacity: 0.8; stroke: #000000; stroke-opacity: 0.8"/>
     <use xlink:href="#m3cafbec9c6" x="122.680519" y="143.070393" style="fill-opacity: 0.8; stroke: #000000; stroke-opacity: 0.8"/>
     <use xlink:href="#m3cafbec9c6" x="125.672727" y="155.448178" style="fill-opacity: 0.8; stroke: #000000; stroke-opacity: 0.8"/>
     <use xlink:href="#m3cafbec9c6" x="128.664935" y="136.652282" style="fill-opacity: 0.8; stroke: #000000; stroke-opacity: 0.8"/>
     <use xlink:href="#m3cafbec9c6" x="131.657143" y="112.813583" style="fill-opacity: 0.8; stroke: #000000; stroke-opacity: 0.8"/>
     <use xlink:href="#m3cafbec9c6" x="134.649351" y="135.735409" style="fill-opacity: 0.8; stroke: #000000; stroke-opacity: 0.8"/>
     <use xlink:href="#m3cafbec9c6" x="137.641558" y="72.012734" style="fill-opacity: 0.8; stroke: #000000; stroke-opacity: 0.8"/>
     <use xlink:href="#m3cafbec9c6" x="140.633766" y="144.445702" style="fill-opacity: 0.8; stroke: #000000; stroke-opacity: 0.8"/>
     <use xlink:href="#m3cafbec9c6" x="143.625974" y="129.775734" style="fill-opacity: 0.8; stroke: #000000; stroke-opacity: 0.8"/>
     <use xlink:href="#m3cafbec9c6" x="146.618182" y="130.692607" style="fill-opacity: 0.8; stroke: #000000; stroke-opacity: 0.8"/>
     <use xlink:href="#m3cafbec9c6" x="149.61039" y="130.692607" style="fill-opacity: 0.8; stroke: #000000; stroke-opacity: 0.8"/>
     <use xlink:href="#m3cafbec9c6" x="152.602597" y="140.319774" style="fill-opacity: 0.8; stroke: #000000; stroke-opacity: 0.8"/>
     <use xlink:href="#m3cafbec9c6" x="155.594805" y="147.654758" style="fill-opacity: 0.8; stroke: #000000; stroke-opacity: 0.8"/>
     <use xlink:href="#m3cafbec9c6" x="158.587013" y="152.697559" style="fill-opacity: 0.8; stroke: #000000; stroke-opacity: 0.8"/>
     <use xlink:href="#m3cafbec9c6" x="161.579221" y="49.549346" style="fill-opacity: 0.8; stroke: #000000; stroke-opacity: 0.8"/>
     <use xlink:href="#m3cafbec9c6" x="164.571429" y="151.32225" style="fill-opacity: 0.8; stroke: #000000; stroke-opacity: 0.8"/>
     <use xlink:href="#m3cafbec9c6" x="167.563636" y="144.904139" style="fill-opacity: 0.8; stroke: #000000; stroke-opacity: 0.8"/>
     <use xlink:href="#m3cafbec9c6" x="170.555844" y="156.365051" style="fill-opacity: 0.8; stroke: #000000; stroke-opacity: 0.8"/>
     <use xlink:href="#m3cafbec9c6" x="173.548052" y="110.979837" style="fill-opacity: 0.8; stroke: #000000; stroke-opacity: 0.8"/>
     <use xlink:href="#m3cafbec9c6" x="176.54026" y="166.909091" style="fill-opacity: 0.8; stroke: #000000; stroke-opacity: 0.8"/>
     <use xlink:href="#m3cafbec9c6" x="179.532468" y="141.695083" style="fill-opacity: 0.8; stroke: #000000; stroke-opacity: 0.8"/>
     <use xlink:href="#m3cafbec9c6" x="182.524675" y="110.979837" style="fill-opacity: 0.8; stroke: #000000; stroke-opacity: 0.8"/>
     <use xlink:href="#m3cafbec9c6" x="185.516883" y="144.904139" style="fill-opacity: 0.8; stroke: #000000; stroke-opacity: 0.8"/>
     <use xlink:href="#m3cafbec9c6" x="188.509091" y="136.193845" style="fill-opacity: 0.8; stroke: #000000; stroke-opacity: 0.8"/>
     <use xlink:href="#m3cafbec9c6" x="191.501299" y="121.06544" style="fill-opacity: 0.8; stroke: #000000; stroke-opacity: 0.8"/>
     <use xlink:href="#m3cafbec9c6" x="194.493506" y="127.941988" style="fill-opacity: 0.8; stroke: #000000; stroke-opacity: 0.8"/>
     <use xlink:href="#m3cafbec9c6" x="197.485714" y="159.11567" style="fill-opacity: 0.8; stroke: #000000; stroke-opacity: 0.8"/>
     <use xlink:href="#m3cafbec9c6" x="200.477922" y="51.841528" style="fill-opacity: 0.8; stroke: #000000; stroke-opacity: 0.8"/>
     <use xlink:href="#m3cafbec9c6" x="203.47013" y="128.858861" style="fill-opacity: 0.8; stroke: #000000; stroke-opacity: 0.8"/>
     <use xlink:href="#m3cafbec9c6" x="206.462338" y="78.889282" style="fill-opacity: 0.8; stroke: #000000; stroke-opacity: 0.8"/>
     <use xlink:href="#m3cafbec9c6" x="209.454545" y="144.904139" style="fill-opacity: 0.8; stroke: #000000; stroke-opacity: 0.8"/>
     <use xlink:href="#m3cafbec9c6" x="212.446753" y="145.821012" style="fill-opacity: 0.8; stroke: #000000; stroke-opacity: 0.8"/>
     <use xlink:href="#m3cafbec9c6" x="215.438961" y="119.231694" style="fill-opacity: 0.8; stroke: #000000; stroke-opacity: 0.8"/>
     <use xlink:href="#m3cafbec9c6" x="218.431169" y="138.027591" style="fill-opacity: 0.8; stroke: #000000; stroke-opacity: 0.8"/>
     <use xlink:href="#m3cafbec9c6" x="221.423377" y="165.533781" style="fill-opacity: 0.8; stroke: #000000; stroke-opacity: 0.8"/>
     <use xlink:href="#m3cafbec9c6" x="224.415584" y="141.695083" style="fill-opacity: 0.8; stroke: #000000; stroke-opacity: 0.8"/>
     <use xlink:href="#m3cafbec9c6" x="227.407792" y="156.365051" style="fill-opacity: 0.8; stroke: #000000; stroke-opacity: 0.8"/>
     <use xlink:href="#m3cafbec9c6" x="230.4" y="101.811107" style="fill-opacity: 0.8; stroke: #000000; stroke-opacity: 0.8"/>
     <use xlink:href="#m3cafbec9c6" x="233.392208" y="85.76583" style="fill-opacity: 0.8; stroke: #000000; stroke-opacity: 0.8"/>
     <use xlink:href="#m3cafbec9c6" x="236.384416" y="131.60948" style="fill-opacity: 0.8; stroke: #000000; stroke-opacity: 0.8"/>
     <use xlink:href="#m3cafbec9c6" x="239.376623" y="143.070393" style="fill-opacity: 0.8; stroke: #000000; stroke-opacity: 0.8"/>
     <use xlink:href="#m3cafbec9c6" x="242.368831" y="161.407853" style="fill-opacity: 0.8; stroke: #000000; stroke-opacity: 0.8"/>
     <use xlink:href="#m3cafbec9c6" x="245.361039" y="113.27202" style="fill-opacity: 0.8; stroke: #000000; stroke-opacity: 0.8"/>
     <use xlink:href="#m3cafbec9c6" x="248.353247" y="115.564202" style="fill-opacity: 0.8; stroke: #000000; stroke-opacity: 0.8"/>
     <use xlink:href="#m3cafbec9c6" x="251.345455" y="92.642377" style="fill-opacity: 0.8; stroke: #000000; stroke-opacity: 0.8"/>
     <use xlink:href="#m3cafbec9c6" x="254.337662" y="156.823488" style="fill-opacity: 0.8; stroke: #000000; stroke-opacity: 0.8"/>
     <use xlink:href="#m3cafbec9c6" x="257.32987" y="49.090909" style="fill-opacity: 0.8; stroke: #000000; stroke-opacity: 0.8"/>
     <use xlink:href="#m3cafbec9c6" x="260.322078" y="156.823488" style="fill-opacity: 0.8; stroke: #000000; stroke-opacity: 0.8"/>
     <use xlink:href="#m3cafbec9c6" x="263.314286" y="117.856385" style="fill-opacity: 0.8; stroke: #000000; stroke-opacity: 0.8"/>
     <use xlink:href="#m3cafbec9c6" x="266.306494" y="163.700035" style="fill-opacity: 0.8; stroke: #000000; stroke-opacity: 0.8"/>
     <use xlink:href="#m3cafbec9c6" x="269.298701" y="147.654758" style="fill-opacity: 0.8; stroke: #000000; stroke-opacity: 0.8"/>
     <use xlink:href="#m3cafbec9c6" x="272.290909" y="147.654758" style="fill-opacity: 0.8; stroke: #000000; stroke-opacity: 0.8"/>
     <use xlink:href="#m3cafbec9c6" x="275.283117" y="149.94694" style="fill-opacity: 0.8; stroke: #000000; stroke-opacity: 0.8"/>
     <use xlink:href="#m3cafbec9c6" x="278.275325" y="136.193845" style="fill-opacity: 0.8; stroke: #000000; stroke-opacity: 0.8"/>
     <use xlink:href="#m3cafbec9c6" x="281.267532" y="138.486028" style="fill-opacity: 0.8; stroke: #000000; stroke-opacity: 0.8"/>
     <use xlink:href="#m3cafbec9c6" x="284.25974" y="129.317297" style="fill-opacity: 0.8; stroke: #000000; stroke-opacity: 0.8"/>
     <use xlink:href="#m3cafbec9c6" x="287.251948" y="152.239123" style="fill-opacity: 0.8; stroke: #000000; stroke-opacity: 0.8"/>
     <use xlink:href="#m3cafbec9c6" x="290.244156" y="124.732932" style="fill-opacity: 0.8; stroke: #000000; stroke-opacity: 0.8"/>
     <use xlink:href="#m3cafbec9c6" x="293.236364" y="106.395472" style="fill-opacity: 0.8; stroke: #000000; stroke-opacity: 0.8"/>
     <use xlink:href="#m3cafbec9c6" x="296.228571" y="136.193845" style="fill-opacity: 0.8; stroke: #000000; stroke-opacity: 0.8"/>
     <use xlink:href="#m3cafbec9c6" x="299.220779" y="138.486028" style="fill-opacity: 0.8; stroke: #000000; stroke-opacity: 0.8"/>
     <use xlink:href="#m3cafbec9c6" x="302.212987" y="163.700035" style="fill-opacity: 0.8; stroke: #000000; stroke-opacity: 0.8"/>
     <use xlink:href="#m3cafbec9c6" x="305.205195" y="165.992218" style="fill-opacity: 0.8; stroke: #000000; stroke-opacity: 0.8"/>
     <use xlink:href="#m3cafbec9c6" x="308.197403" y="156.823488" style="fill-opacity: 0.8; stroke: #000000; stroke-opacity: 0.8"/>
     <use xlink:href="#m3cafbec9c6" x="311.18961" y="129.317297" style="fill-opacity: 0.8; stroke: #000000; stroke-opacity: 0.8"/>
     <use xlink:href="#m3cafbec9c6" x="314.181818" y="127.025115" style="fill-opacity: 0.8; stroke: #000000; stroke-opacity: 0.8"/>
     <use xlink:href="#m3cafbec9c6" x="317.174026" y="156.823488" style="fill-opacity: 0.8; stroke: #000000; stroke-opacity: 0.8"/>
     <use xlink:href="#m3cafbec9c6" x="320.166234" y="83.473647" style="fill-opacity: 0.8; stroke: #000000; stroke-opacity: 0.8"/>
     <use xlink:href="#m3cafbec9c6" x="323.158442" y="133.901663" style="fill-opacity: 0.8; stroke: #000000; stroke-opacity: 0.8"/>
     <use xlink:href="#m3cafbec9c6" x="326.150649" y="149.94694" style="fill-opacity: 0.8; stroke: #000000; stroke-opacity: 0.8"/>
     <use xlink:href="#m3cafbec9c6" x="329.142857" y="122.44075" style="fill-opacity: 0.8; stroke: #000000; stroke-opacity: 0.8"/>
     <use xlink:href="#m3cafbec9c6" x="332.135065" y="120.148567" style="fill-opacity: 0.8; stroke: #000000; stroke-opacity: 0.8"/>
     <use xlink:href="#m3cafbec9c6" x="335.127273" y="154.531305" style="fill-opacity: 0.8; stroke: #000000; stroke-opacity: 0.8"/>
     <use xlink:href="#m3cafbec9c6" x="338.119481" y="154.531305" style="fill-opacity: 0.8; stroke: #000000; stroke-opacity: 0.8"/>
     <use xlink:href="#m3cafbec9c6" x="341.111688" y="156.823488" style="fill-opacity: 0.8; stroke: #000000; stroke-opacity: 0.8"/>
     <use xlink:href="#m3cafbec9c6" x="344.103896" y="159.11567" style="fill-opacity: 0.8; stroke: #000000; stroke-opacity: 0.8"/>
     <use xlink:href="#m3cafbec9c6" x="347.096104" y="138.486028" style="fill-opacity: 0.8; stroke: #000000; stroke-opacity: 0.8"/>
     <use xlink:href="#m3cafbec9c6" x="350.088312" y="154.531305" style="fill-opacity: 0.8; stroke: #000000; stroke-opacity: 0.8"/>
     <use xlink:href="#m3cafbec9c6" x="353.080519" y="129.317297" style="fill-opacity: 0.8; stroke: #000000; stroke-opacity: 0.8"/>
     <use xlink:href="#m3cafbec9c6" x="356.072727" y="161.407853" style="fill-opacity: 0.8; stroke: #000000; stroke-opacity: 0.8"/>
     <use xlink:href="#m3cafbec9c6" x="359.064935" y="124.732932" style="fill-opacity: 0.8; stroke: #000000; stroke-opacity: 0.8"/>
     <use xlink:href="#m3cafbec9c6" x="362.057143" y="156.823488" style="fill-opacity: 0.8; stroke: #000000; stroke-opacity: 0.8"/>
     <use xlink:href="#m3cafbec9c6" x="365.049351" y="145.362575" style="fill-opacity: 0.8; stroke: #000000; stroke-opacity: 0.8"/>
     <use xlink:href="#m3cafbec9c6" x="368.041558" y="159.11567" style="fill-opacity: 0.8; stroke: #000000; stroke-opacity: 0.8"/>
     <use xlink:href="#m3cafbec9c6" x="371.033766" y="127.025115" style="fill-opacity: 0.8; stroke: #000000; stroke-opacity: 0.8"/>
     <use xlink:href="#m3cafbec9c6" x="374.025974" y="129.317297" style="fill-opacity: 0.8; stroke: #000000; stroke-opacity: 0.8"/>
     <use xlink:href="#m3cafbec9c6" x="377.018182" y="154.531305" style="fill-opacity: 0.8; stroke: #000000; stroke-opacity: 0.8"/>
     <use xlink:href="#m3cafbec9c6" x="380.01039" y="165.992218" style="fill-opacity: 0.8; stroke: #000000; stroke-opacity: 0.8"/>
     <use xlink:href="#m3cafbec9c6" x="383.002597" y="161.407853" style="fill-opacity: 0.8; stroke: #000000; stroke-opacity: 0.8"/>
     <use xlink:href="#m3cafbec9c6" x="385.994805" y="140.77821" style="fill-opacity: 0.8; stroke: #000000; stroke-opacity: 0.8"/>
     <use xlink:href="#m3cafbec9c6" x="388.987013" y="149.94694" style="fill-opacity: 0.8; stroke: #000000; stroke-opacity: 0.8"/>
     <use xlink:href="#m3cafbec9c6" x="391.979221" y="149.94694" style="fill-opacity: 0.8; stroke: #000000; stroke-opacity: 0.8"/>
     <use xlink:href="#m3cafbec9c6" x="394.971429" y="140.77821" style="fill-opacity: 0.8; stroke: #000000; stroke-opacity: 0.8"/>
     <use xlink:href="#m3cafbec9c6" x="397.963636" y="161.407853" style="fill-opacity: 0.8; stroke: #000000; stroke-opacity: 0.8"/>
    </g>
   </g>
   <g id="PolyCollection_1">
    <path d="M 62.836364 116.417978 
L 62.836364 134.932871 
L 66.221488 134.973653 
L 69.606612 135.101853 
L 72.991736 135.229252 
L 76.37686 135.300773 
L 79.761983 135.372293 
L 83.147107 135.443814 
L 86.532231 135.515334 
L 89.917355 135.586855 
L 93.302479 135.65726 
L 96.687603 135.72698 
L 100.072727 135.795545 
L 103.457851 135.864107 
L 106.842975 135.93267 
L 110.228099 136.001232 
L 113.613223 136.069794 
L 116.998347 136.104567 
L 120.383471 136.185128 
L 123.768595 136.26569 
L 127.153719 136.346251 
L 130.538843 136.419905 
L 133.923967 136.490205 
L 137.309091 136.560504 
L 140.694215 136.669676 
L 144.079339 136.740609 
L 147.464463 136.774496 
L 150.849587 136.8417 
L 154.234711 136.966411 
L 157.619835 137.054169 
L 161.004959 137.097567 
L 164.390083 137.17554 
L 167.775207 137.24666 
L 171.160331 137.348968 
L 174.545455 137.478208 
L 177.930579 137.596007 
L 181.315702 137.672049 
L 184.700826 137.731136 
L 188.08595 137.805299 
L 191.471074 137.923919 
L 194.856198 138.06725 
L 198.241322 138.209322 
L 201.626446 138.298319 
L 205.01157 138.442915 
L 208.396694 138.587512 
L 211.781818 138.732108 
L 215.166942 138.876704 
L 218.552066 139.017561 
L 221.93719 139.164943 
L 225.322314 139.250854 
L 228.707438 139.311598 
L 232.092562 139.459231 
L 235.477686 139.606807 
L 238.86281 139.800949 
L 242.247934 139.901133 
L 245.633058 140.024977 
L 249.018182 140.192257 
L 252.403306 140.273497 
L 255.78843 140.438209 
L 259.173554 140.552873 
L 262.558678 140.706378 
L 265.943802 140.893678 
L 269.328926 141.076862 
L 272.71405 141.20946 
L 276.099174 141.383841 
L 279.484298 141.639291 
L 282.869421 141.803804 
L 286.254545 141.970085 
L 289.639669 142.200955 
L 293.024793 142.460503 
L 296.409917 142.674026 
L 299.795041 142.886533 
L 303.180165 143.067698 
L 306.565289 143.2293 
L 309.950413 143.447386 
L 313.335537 143.636225 
L 316.720661 143.874835 
L 320.105785 144.185987 
L 323.490909 144.499055 
L 326.876033 144.812892 
L 330.261157 145.077822 
L 333.646281 145.267741 
L 337.031405 145.43965 
L 340.416529 145.662141 
L 343.801653 145.981434 
L 347.186777 146.284321 
L 350.571901 146.598798 
L 353.957025 146.913276 
L 357.342149 147.210036 
L 360.727273 147.476717 
L 364.112397 147.718283 
L 367.497521 148.007686 
L 370.882645 148.271825 
L 374.267769 148.459907 
L 377.652893 148.734058 
L 381.038017 148.978647 
L 384.42314 149.307453 
L 387.808264 149.604603 
L 391.193388 149.987301 
L 394.578512 150.371966 
L 397.963636 150.749333 
L 397.963636 136.689756 
L 397.963636 136.689756 
L 394.578512 136.653169 
L 391.193388 136.626225 
L 387.808264 136.599282 
L 384.42314 136.553711 
L 381.038017 136.440388 
L 377.652893 136.353723 
L 374.267769 136.227354 
L 370.882645 136.148728 
L 367.497521 136.033195 
L 364.112397 135.924111 
L 360.727273 135.846912 
L 357.342149 135.751338 
L 353.957025 135.623483 
L 350.571901 135.609732 
L 347.186777 135.503867 
L 343.801653 135.439594 
L 340.416529 135.384027 
L 337.031405 135.304786 
L 333.646281 135.231883 
L 330.261157 135.156047 
L 326.876033 135.076216 
L 323.490909 134.899456 
L 320.105785 134.820934 
L 316.720661 134.703827 
L 313.335537 134.554134 
L 309.950413 134.47201 
L 306.565289 134.304281 
L 303.180165 134.210411 
L 299.795041 134.10363 
L 296.409917 133.961424 
L 293.024793 133.833191 
L 289.639669 133.740808 
L 286.254545 133.627172 
L 282.869421 133.414525 
L 279.484298 133.224904 
L 276.099174 133.022054 
L 272.71405 132.836935 
L 269.328926 132.71483 
L 265.943802 132.59587 
L 262.558678 132.429875 
L 259.173554 132.315535 
L 255.78843 132.138206 
L 252.403306 131.912682 
L 249.018182 131.69239 
L 245.633058 131.478391 
L 242.247934 131.302028 
L 238.86281 131.156821 
L 235.477686 130.991089 
L 232.092562 130.758653 
L 228.707438 130.496062 
L 225.322314 130.293753 
L 221.93719 130.054544 
L 218.552066 129.819247 
L 215.166942 129.582128 
L 211.781818 129.359913 
L 208.396694 129.080224 
L 205.01157 128.783875 
L 201.626446 128.522274 
L 198.241322 128.270832 
L 194.856198 128.003402 
L 191.471074 127.790243 
L 188.08595 127.499977 
L 184.700826 127.282173 
L 181.315702 126.978299 
L 177.930579 126.72047 
L 174.545455 126.462641 
L 171.160331 126.204942 
L 167.775207 125.95063 
L 164.390083 125.696318 
L 161.004959 125.432181 
L 157.619835 125.155192 
L 154.234711 124.804019 
L 150.849587 124.488927 
L 147.464463 124.174847 
L 144.079339 123.858201 
L 140.694215 123.514904 
L 137.309091 123.170578 
L 133.923967 122.828218 
L 130.538843 122.53701 
L 127.153719 122.285673 
L 123.768595 121.97093 
L 120.383471 121.657045 
L 116.998347 121.343218 
L 113.613223 121.030199 
L 110.228099 120.741204 
L 106.842975 120.482089 
L 103.457851 120.162645 
L 100.072727 119.836139 
L 96.687603 119.509686 
L 93.302479 119.207884 
L 89.917355 118.914668 
L 86.532231 118.621453 
L 83.147107 118.328248 
L 79.761983 118.035624 
L 76.37686 117.726513 
L 72.991736 117.379826 
L 69.606612 117.046872 
L 66.221488 116.710804 
L 62.836364 116.417978 
z
" clip-path="url(#p02bf21911d)" style="fill-opacity: 0.15"/>
   </g>
   <g id="matplotlib.axis_1">
    <g id="xtick_1">
     <g id="line2d_1">
      <defs>
       <path id="m2a09fc4230" d="M 0 0 
L 0 3.5 
" style="stroke: #000000"/>
      </defs>
      <g>
       <use xlink:href="#m2a09fc4230" x="92.758442" y="172.8" style="stroke: #000000"/>
      </g>
     </g>
     <g id="text_1">
      <!-- 1920 -->
      <g transform="translate(76.075629 190.536719)scale(0.15 -0.15)">
       <defs>
        <path id="ArialMT-31" d="M 2384 0 
L 1822 0 
L 1822 3584 
Q 1619 3391 1289 3197 
Q 959 3003 697 2906 
L 697 3450 
Q 1169 3672 1522 3987 
Q 1875 4303 2022 4600 
L 2384 4600 
L 2384 0 
z
" transform="scale(0.015625)"/>
        <path id="ArialMT-39" d="M 350 1059 
L 891 1109 
Q 959 728 1153 556 
Q 1347 384 1650 384 
Q 1909 384 2104 503 
Q 2300 622 2425 820 
Q 2550 1019 2634 1356 
Q 2719 1694 2719 2044 
Q 2719 2081 2716 2156 
Q 2547 1888 2255 1720 
Q 1963 1553 1622 1553 
Q 1053 1553 659 1965 
Q 266 2378 266 3053 
Q 266 3750 677 4175 
Q 1088 4600 1706 4600 
Q 2153 4600 2523 4359 
Q 2894 4119 3086 3673 
Q 3278 3228 3278 2384 
Q 3278 1506 3087 986 
Q 2897 466 2520 194 
Q 2144 -78 1638 -78 
Q 1100 -78 759 220 
Q 419 519 350 1059 
z
M 2653 3081 
Q 2653 3566 2395 3850 
Q 2138 4134 1775 4134 
Q 1400 4134 1122 3828 
Q 844 3522 844 3034 
Q 844 2597 1108 2323 
Q 1372 2050 1759 2050 
Q 2150 2050 2401 2323 
Q 2653 2597 2653 3081 
z
" transform="scale(0.015625)"/>
        <path id="ArialMT-32" d="M 3222 541 
L 3222 0 
L 194 0 
Q 188 203 259 391 
Q 375 700 629 1000 
Q 884 1300 1366 1694 
Q 2113 2306 2375 2664 
Q 2638 3022 2638 3341 
Q 2638 3675 2398 3904 
Q 2159 4134 1775 4134 
Q 1369 4134 1125 3890 
Q 881 3647 878 3216 
L 300 3275 
Q 359 3922 746 4261 
Q 1134 4600 1788 4600 
Q 2447 4600 2831 4234 
Q 3216 3869 3216 3328 
Q 3216 3053 3103 2787 
Q 2991 2522 2730 2228 
Q 2469 1934 1863 1422 
Q 1356 997 1212 845 
Q 1069 694 975 541 
L 3222 541 
z
" transform="scale(0.015625)"/>
        <path id="ArialMT-30" d="M 266 2259 
Q 266 3072 433 3567 
Q 600 4063 929 4331 
Q 1259 4600 1759 4600 
Q 2128 4600 2406 4451 
Q 2684 4303 2865 4023 
Q 3047 3744 3150 3342 
Q 3253 2941 3253 2259 
Q 3253 1453 3087 958 
Q 2922 463 2592 192 
Q 2263 -78 1759 -78 
Q 1097 -78 719 397 
Q 266 969 266 2259 
z
M 844 2259 
Q 844 1131 1108 757 
Q 1372 384 1759 384 
Q 2147 384 2411 759 
Q 2675 1134 2675 2259 
Q 2675 3391 2411 3762 
Q 2147 4134 1753 4134 
Q 1366 4134 1134 3806 
Q 844 3388 844 2259 
z
" transform="scale(0.015625)"/>
       </defs>
       <use xlink:href="#ArialMT-31"/>
       <use xlink:href="#ArialMT-39" x="55.615234"/>
       <use xlink:href="#ArialMT-32" x="111.230469"/>
       <use xlink:href="#ArialMT-30" x="166.845703"/>
      </g>
     </g>
    </g>
    <g id="xtick_2">
     <g id="line2d_2">
      <g>
       <use xlink:href="#m2a09fc4230" x="152.602597" y="172.8" style="stroke: #000000"/>
      </g>
     </g>
     <g id="text_2">
      <!-- 1940 -->
      <g transform="translate(135.919785 190.536719)scale(0.15 -0.15)">
       <defs>
        <path id="ArialMT-34" d="M 2069 0 
L 2069 1097 
L 81 1097 
L 81 1613 
L 2172 4581 
L 2631 4581 
L 2631 1613 
L 3250 1613 
L 3250 1097 
L 2631 1097 
L 2631 0 
L 2069 0 
z
M 2069 1613 
L 2069 3678 
L 634 1613 
L 2069 1613 
z
" transform="scale(0.015625)"/>
       </defs>
       <use xlink:href="#ArialMT-31"/>
       <use xlink:href="#ArialMT-39" x="55.615234"/>
       <use xlink:href="#ArialMT-34" x="111.230469"/>
       <use xlink:href="#ArialMT-30" x="166.845703"/>
      </g>
     </g>
    </g>
    <g id="xtick_3">
     <g id="line2d_3">
      <g>
       <use xlink:href="#m2a09fc4230" x="212.446753" y="172.8" style="stroke: #000000"/>
      </g>
     </g>
     <g id="text_3">
      <!-- 1960 -->
      <g transform="translate(195.763941 190.536719)scale(0.15 -0.15)">
       <defs>
        <path id="ArialMT-36" d="M 3184 3459 
L 2625 3416 
Q 2550 3747 2413 3897 
Q 2184 4138 1850 4138 
Q 1581 4138 1378 3988 
Q 1113 3794 959 3422 
Q 806 3050 800 2363 
Q 1003 2672 1297 2822 
Q 1591 2972 1913 2972 
Q 2475 2972 2870 2558 
Q 3266 2144 3266 1488 
Q 3266 1056 3080 686 
Q 2894 316 2569 119 
Q 2244 -78 1831 -78 
Q 1128 -78 684 439 
Q 241 956 241 2144 
Q 241 3472 731 4075 
Q 1159 4600 1884 4600 
Q 2425 4600 2770 4297 
Q 3116 3994 3184 3459 
z
M 888 1484 
Q 888 1194 1011 928 
Q 1134 663 1356 523 
Q 1578 384 1822 384 
Q 2178 384 2434 671 
Q 2691 959 2691 1453 
Q 2691 1928 2437 2201 
Q 2184 2475 1800 2475 
Q 1419 2475 1153 2201 
Q 888 1928 888 1484 
z
" transform="scale(0.015625)"/>
       </defs>
       <use xlink:href="#ArialMT-31"/>
       <use xlink:href="#ArialMT-39" x="55.615234"/>
       <use xlink:href="#ArialMT-36" x="111.230469"/>
       <use xlink:href="#ArialMT-30" x="166.845703"/>
      </g>
     </g>
    </g>
    <g id="xtick_4">
     <g id="line2d_4">
      <g>
       <use xlink:href="#m2a09fc4230" x="272.290909" y="172.8" style="stroke: #000000"/>
      </g>
     </g>
     <g id="text_4">
      <!-- 1980 -->
      <g transform="translate(255.608097 190.536719)scale(0.15 -0.15)">
       <defs>
        <path id="ArialMT-38" d="M 1131 2484 
Q 781 2613 612 2850 
Q 444 3088 444 3419 
Q 444 3919 803 4259 
Q 1163 4600 1759 4600 
Q 2359 4600 2725 4251 
Q 3091 3903 3091 3403 
Q 3091 3084 2923 2848 
Q 2756 2613 2416 2484 
Q 2838 2347 3058 2040 
Q 3278 1734 3278 1309 
Q 3278 722 2862 322 
Q 2447 -78 1769 -78 
Q 1091 -78 675 323 
Q 259 725 259 1325 
Q 259 1772 486 2073 
Q 713 2375 1131 2484 
z
M 1019 3438 
Q 1019 3113 1228 2906 
Q 1438 2700 1772 2700 
Q 2097 2700 2305 2904 
Q 2513 3109 2513 3406 
Q 2513 3716 2298 3927 
Q 2084 4138 1766 4138 
Q 1444 4138 1231 3931 
Q 1019 3725 1019 3438 
z
M 838 1322 
Q 838 1081 952 856 
Q 1066 631 1291 507 
Q 1516 384 1775 384 
Q 2178 384 2440 643 
Q 2703 903 2703 1303 
Q 2703 1709 2433 1975 
Q 2163 2241 1756 2241 
Q 1359 2241 1098 1978 
Q 838 1716 838 1322 
z
" transform="scale(0.015625)"/>
       </defs>
       <use xlink:href="#ArialMT-31"/>
       <use xlink:href="#ArialMT-39" x="55.615234"/>
       <use xlink:href="#ArialMT-38" x="111.230469"/>
       <use xlink:href="#ArialMT-30" x="166.845703"/>
      </g>
     </g>
    </g>
    <g id="xtick_5">
     <g id="line2d_5">
      <g>
       <use xlink:href="#m2a09fc4230" x="332.135065" y="172.8" style="stroke: #000000"/>
      </g>
     </g>
     <g id="text_5">
      <!-- 2000 -->
      <g transform="translate(315.452252 190.536719)scale(0.15 -0.15)">
       <use xlink:href="#ArialMT-32"/>
       <use xlink:href="#ArialMT-30" x="55.615234"/>
       <use xlink:href="#ArialMT-30" x="111.230469"/>
       <use xlink:href="#ArialMT-30" x="166.845703"/>
      </g>
     </g>
    </g>
    <g id="xtick_6">
     <g id="line2d_6">
      <g>
       <use xlink:href="#m2a09fc4230" x="391.979221" y="172.8" style="stroke: #000000"/>
      </g>
     </g>
     <g id="text_6">
      <!-- 2020 -->
      <g transform="translate(375.296408 190.536719)scale(0.15 -0.15)">
       <use xlink:href="#ArialMT-32"/>
       <use xlink:href="#ArialMT-30" x="55.615234"/>
       <use xlink:href="#ArialMT-32" x="111.230469"/>
       <use xlink:href="#ArialMT-30" x="166.845703"/>
      </g>
     </g>
    </g>
   </g>
   <g id="matplotlib.axis_2">
    <g id="ytick_1">
     <g id="line2d_7">
      <defs>
       <path id="mce1e0f00ed" d="M 0 0 
L 3.5 0 
" style="stroke: #000000"/>
      </defs>
      <g>
       <use xlink:href="#mce1e0f00ed" x="46.08" y="145.362575" style="stroke: #000000"/>
      </g>
     </g>
     <g id="text_7">
      <!-- 10 -->
      <g transform="translate(25.897188 150.730935)scale(0.15 -0.15)">
       <use xlink:href="#ArialMT-31"/>
       <use xlink:href="#ArialMT-30" x="55.615234"/>
      </g>
     </g>
    </g>
    <g id="ytick_2">
     <g id="line2d_8">
      <g>
       <use xlink:href="#mce1e0f00ed" x="46.08" y="99.518925" style="stroke: #000000"/>
      </g>
     </g>
     <g id="text_8">
      <!-- 20 -->
      <g transform="translate(25.897188 104.887284)scale(0.15 -0.15)">
       <use xlink:href="#ArialMT-32"/>
       <use xlink:href="#ArialMT-30" x="55.615234"/>
      </g>
     </g>
    </g>
    <g id="ytick_3">
     <g id="line2d_9">
      <g>
       <use xlink:href="#mce1e0f00ed" x="46.08" y="53.675274" style="stroke: #000000"/>
      </g>
     </g>
     <g id="text_9">
      <!-- 30 -->
      <g transform="translate(25.897188 59.043634)scale(0.15 -0.15)">
       <defs>
        <path id="ArialMT-33" d="M 269 1209 
L 831 1284 
Q 928 806 1161 595 
Q 1394 384 1728 384 
Q 2125 384 2398 659 
Q 2672 934 2672 1341 
Q 2672 1728 2419 1979 
Q 2166 2231 1775 2231 
Q 1616 2231 1378 2169 
L 1441 2663 
Q 1497 2656 1531 2656 
Q 1891 2656 2178 2843 
Q 2466 3031 2466 3422 
Q 2466 3731 2256 3934 
Q 2047 4138 1716 4138 
Q 1388 4138 1169 3931 
Q 950 3725 888 3313 
L 325 3413 
Q 428 3978 793 4289 
Q 1159 4600 1703 4600 
Q 2078 4600 2393 4439 
Q 2709 4278 2876 4000 
Q 3044 3722 3044 3409 
Q 3044 3113 2884 2869 
Q 2725 2625 2413 2481 
Q 2819 2388 3044 2092 
Q 3269 1797 3269 1353 
Q 3269 753 2831 336 
Q 2394 -81 1725 -81 
Q 1122 -81 723 278 
Q 325 638 269 1209 
z
" transform="scale(0.015625)"/>
       </defs>
       <use xlink:href="#ArialMT-33"/>
       <use xlink:href="#ArialMT-30" x="55.615234"/>
      </g>
     </g>
    </g>
    <g id="ytick_4">
     <g id="line2d_10">
      <defs>
       <path id="m414047871e" d="M 0 0 
L 2 0 
" style="stroke: #000000; stroke-width: 0.6"/>
      </defs>
      <g>
       <use xlink:href="#m414047871e" x="46.08" y="163.700035" style="stroke: #000000; stroke-width: 0.6"/>
      </g>
     </g>
    </g>
    <g id="ytick_5">
     <g id="line2d_11">
      <g>
       <use xlink:href="#m414047871e" x="46.08" y="154.531305" style="stroke: #000000; stroke-width: 0.6"/>
      </g>
     </g>
    </g>
    <g id="ytick_6">
     <g id="line2d_12">
      <g>
       <use xlink:href="#m414047871e" x="46.08" y="136.193845" style="stroke: #000000; stroke-width: 0.6"/>
      </g>
     </g>
    </g>
    <g id="ytick_7">
     <g id="line2d_13">
      <g>
       <use xlink:href="#m414047871e" x="46.08" y="127.025115" style="stroke: #000000; stroke-width: 0.6"/>
      </g>
     </g>
    </g>
    <g id="ytick_8">
     <g id="line2d_14">
      <g>
       <use xlink:href="#m414047871e" x="46.08" y="117.856385" style="stroke: #000000; stroke-width: 0.6"/>
      </g>
     </g>
    </g>
    <g id="ytick_9">
     <g id="line2d_15">
      <g>
       <use xlink:href="#m414047871e" x="46.08" y="108.687655" style="stroke: #000000; stroke-width: 0.6"/>
      </g>
     </g>
    </g>
    <g id="ytick_10">
     <g id="line2d_16">
      <g>
       <use xlink:href="#m414047871e" x="46.08" y="90.350195" style="stroke: #000000; stroke-width: 0.6"/>
      </g>
     </g>
    </g>
    <g id="ytick_11">
     <g id="line2d_17">
      <g>
       <use xlink:href="#m414047871e" x="46.08" y="81.181464" style="stroke: #000000; stroke-width: 0.6"/>
      </g>
     </g>
    </g>
    <g id="ytick_12">
     <g id="line2d_18">
      <g>
       <use xlink:href="#m414047871e" x="46.08" y="72.012734" style="stroke: #000000; stroke-width: 0.6"/>
      </g>
     </g>
    </g>
    <g id="ytick_13">
     <g id="line2d_19">
      <g>
       <use xlink:href="#m414047871e" x="46.08" y="62.844004" style="stroke: #000000; stroke-width: 0.6"/>
      </g>
     </g>
    </g>
    <g id="ytick_14">
     <g id="line2d_20">
      <g>
       <use xlink:href="#m414047871e" x="46.08" y="44.506544" style="stroke: #000000; stroke-width: 0.6"/>
      </g>
     </g>
    </g>
   </g>
   <g id="line2d_21">
    <path d="M 62.836364 158.657234 
L 65.828571 72.471171 
L 68.820779 154.531305 
L 71.812987 155.448178 
L 74.805195 156.823488 
L 77.797403 88.974885 
L 80.78961 144.904139 
L 83.781818 133.901663 
L 86.774026 126.108242 
L 89.766234 109.146091 
L 92.758442 135.276972 
L 95.750649 127.941988 
L 98.742857 145.362575 
L 101.735065 95.392996 
L 104.727273 132.067917 
L 107.719481 159.574107 
L 110.711688 122.44075 
L 113.703896 145.821012 
L 116.696104 152.239123 
L 119.688312 138.944464 
L 122.680519 143.070393 
L 125.672727 155.448178 
L 128.664935 136.652282 
L 131.657143 112.813583 
L 134.649351 135.735409 
L 137.641558 72.012734 
L 140.633766 144.445702 
L 143.625974 129.775734 
L 146.618182 130.692607 
L 149.61039 130.692607 
L 152.602597 140.319774 
L 155.594805 147.654758 
L 158.587013 152.697559 
L 161.579221 49.549346 
L 164.571429 151.32225 
L 167.563636 144.904139 
L 170.555844 156.365051 
L 173.548052 110.979837 
L 176.54026 166.909091 
L 179.532468 141.695083 
L 182.524675 110.979837 
L 185.516883 144.904139 
L 188.509091 136.193845 
L 191.501299 121.06544 
L 194.493506 127.941988 
L 197.485714 159.11567 
L 200.477922 51.841528 
L 203.47013 128.858861 
L 206.462338 78.889282 
L 209.454545 144.904139 
L 212.446753 145.821012 
L 215.438961 119.231694 
L 218.431169 138.027591 
L 221.423377 165.533781 
L 224.415584 141.695083 
L 227.407792 156.365051 
L 230.4 101.811107 
L 233.392208 85.76583 
L 236.384416 131.60948 
L 239.376623 143.070393 
L 242.368831 161.407853 
L 245.361039 113.27202 
L 248.353247 115.564202 
L 251.345455 92.642377 
L 254.337662 156.823488 
L 257.32987 49.090909 
L 260.322078 156.823488 
L 263.314286 117.856385 
L 266.306494 163.700035 
L 269.298701 147.654758 
L 272.290909 147.654758 
L 275.283117 149.94694 
L 278.275325 136.193845 
L 281.267532 138.486028 
L 284.25974 129.317297 
L 287.251948 152.239123 
L 290.244156 124.732932 
L 293.236364 106.395472 
L 296.228571 136.193845 
L 299.220779 138.486028 
L 302.212987 163.700035 
L 305.205195 165.992218 
L 308.197403 156.823488 
L 311.18961 129.317297 
L 314.181818 127.025115 
L 317.174026 156.823488 
L 320.166234 83.473647 
L 323.158442 133.901663 
L 326.150649 149.94694 
L 329.142857 122.44075 
L 332.135065 120.148567 
L 335.127273 154.531305 
L 338.119481 154.531305 
L 341.111688 156.823488 
L 344.103896 159.11567 
L 347.096104 138.486028 
L 350.088312 154.531305 
L 353.080519 129.317297 
L 356.072727 161.407853 
L 359.064935 124.732932 
L 362.057143 156.823488 
L 365.049351 145.362575 
L 368.041558 159.11567 
L 371.033766 127.025115 
L 374.025974 129.317297 
L 377.018182 154.531305 
L 380.01039 165.992218 
L 383.002597 161.407853 
L 385.994805 140.77821 
L 388.987013 149.94694 
L 391.979221 149.94694 
L 394.971429 140.77821 
L 397.963636 161.407853 
" clip-path="url(#p02bf21911d)" style="fill: none; stroke: #000000; stroke-linecap: square"/>
    <defs>
     <path id="m2f745443ce" d="M 0 2 
C 0.530406 2 1.03916 1.789267 1.414214 1.414214 
C 1.789267 1.03916 2 0.530406 2 0 
C 2 -0.530406 1.789267 -1.03916 1.414214 -1.414214 
C 1.03916 -1.789267 0.530406 -2 0 -2 
C -0.530406 -2 -1.03916 -1.789267 -1.414214 -1.414214 
C -1.789267 -1.03916 -2 -0.530406 -2 0 
C -2 0.530406 -1.789267 1.03916 -1.414214 1.414214 
C -1.03916 1.789267 -0.530406 2 0 2 
z
" style="stroke: #000000"/>
    </defs>
    <g clip-path="url(#p02bf21911d)">
     <use xlink:href="#m2f745443ce" x="62.836364" y="158.657234" style="stroke: #000000"/>
     <use xlink:href="#m2f745443ce" x="65.828571" y="72.471171" style="stroke: #000000"/>
     <use xlink:href="#m2f745443ce" x="68.820779" y="154.531305" style="stroke: #000000"/>
     <use xlink:href="#m2f745443ce" x="71.812987" y="155.448178" style="stroke: #000000"/>
     <use xlink:href="#m2f745443ce" x="74.805195" y="156.823488" style="stroke: #000000"/>
     <use xlink:href="#m2f745443ce" x="77.797403" y="88.974885" style="stroke: #000000"/>
     <use xlink:href="#m2f745443ce" x="80.78961" y="144.904139" style="stroke: #000000"/>
     <use xlink:href="#m2f745443ce" x="83.781818" y="133.901663" style="stroke: #000000"/>
     <use xlink:href="#m2f745443ce" x="86.774026" y="126.108242" style="stroke: #000000"/>
     <use xlink:href="#m2f745443ce" x="89.766234" y="109.146091" style="stroke: #000000"/>
     <use xlink:href="#m2f745443ce" x="92.758442" y="135.276972" style="stroke: #000000"/>
     <use xlink:href="#m2f745443ce" x="95.750649" y="127.941988" style="stroke: #000000"/>
     <use xlink:href="#m2f745443ce" x="98.742857" y="145.362575" style="stroke: #000000"/>
     <use xlink:href="#m2f745443ce" x="101.735065" y="95.392996" style="stroke: #000000"/>
     <use xlink:href="#m2f745443ce" x="104.727273" y="132.067917" style="stroke: #000000"/>
     <use xlink:href="#m2f745443ce" x="107.719481" y="159.574107" style="stroke: #000000"/>
     <use xlink:href="#m2f745443ce" x="110.711688" y="122.44075" style="stroke: #000000"/>
     <use xlink:href="#m2f745443ce" x="113.703896" y="145.821012" style="stroke: #000000"/>
     <use xlink:href="#m2f745443ce" x="116.696104" y="152.239123" style="stroke: #000000"/>
     <use xlink:href="#m2f745443ce" x="119.688312" y="138.944464" style="stroke: #000000"/>
     <use xlink:href="#m2f745443ce" x="122.680519" y="143.070393" style="stroke: #000000"/>
     <use xlink:href="#m2f745443ce" x="125.672727" y="155.448178" style="stroke: #000000"/>
     <use xlink:href="#m2f745443ce" x="128.664935" y="136.652282" style="stroke: #000000"/>
     <use xlink:href="#m2f745443ce" x="131.657143" y="112.813583" style="stroke: #000000"/>
     <use xlink:href="#m2f745443ce" x="134.649351" y="135.735409" style="stroke: #000000"/>
     <use xlink:href="#m2f745443ce" x="137.641558" y="72.012734" style="stroke: #000000"/>
     <use xlink:href="#m2f745443ce" x="140.633766" y="144.445702" style="stroke: #000000"/>
     <use xlink:href="#m2f745443ce" x="143.625974" y="129.775734" style="stroke: #000000"/>
     <use xlink:href="#m2f745443ce" x="146.618182" y="130.692607" style="stroke: #000000"/>
     <use xlink:href="#m2f745443ce" x="149.61039" y="130.692607" style="stroke: #000000"/>
     <use xlink:href="#m2f745443ce" x="152.602597" y="140.319774" style="stroke: #000000"/>
     <use xlink:href="#m2f745443ce" x="155.594805" y="147.654758" style="stroke: #000000"/>
     <use xlink:href="#m2f745443ce" x="158.587013" y="152.697559" style="stroke: #000000"/>
     <use xlink:href="#m2f745443ce" x="161.579221" y="49.549346" style="stroke: #000000"/>
     <use xlink:href="#m2f745443ce" x="164.571429" y="151.32225" style="stroke: #000000"/>
     <use xlink:href="#m2f745443ce" x="167.563636" y="144.904139" style="stroke: #000000"/>
     <use xlink:href="#m2f745443ce" x="170.555844" y="156.365051" style="stroke: #000000"/>
     <use xlink:href="#m2f745443ce" x="173.548052" y="110.979837" style="stroke: #000000"/>
     <use xlink:href="#m2f745443ce" x="176.54026" y="166.909091" style="stroke: #000000"/>
     <use xlink:href="#m2f745443ce" x="179.532468" y="141.695083" style="stroke: #000000"/>
     <use xlink:href="#m2f745443ce" x="182.524675" y="110.979837" style="stroke: #000000"/>
     <use xlink:href="#m2f745443ce" x="185.516883" y="144.904139" style="stroke: #000000"/>
     <use xlink:href="#m2f745443ce" x="188.509091" y="136.193845" style="stroke: #000000"/>
     <use xlink:href="#m2f745443ce" x="191.501299" y="121.06544" style="stroke: #000000"/>
     <use xlink:href="#m2f745443ce" x="194.493506" y="127.941988" style="stroke: #000000"/>
     <use xlink:href="#m2f745443ce" x="197.485714" y="159.11567" style="stroke: #000000"/>
     <use xlink:href="#m2f745443ce" x="200.477922" y="51.841528" style="stroke: #000000"/>
     <use xlink:href="#m2f745443ce" x="203.47013" y="128.858861" style="stroke: #000000"/>
     <use xlink:href="#m2f745443ce" x="206.462338" y="78.889282" style="stroke: #000000"/>
     <use xlink:href="#m2f745443ce" x="209.454545" y="144.904139" style="stroke: #000000"/>
     <use xlink:href="#m2f745443ce" x="212.446753" y="145.821012" style="stroke: #000000"/>
     <use xlink:href="#m2f745443ce" x="215.438961" y="119.231694" style="stroke: #000000"/>
     <use xlink:href="#m2f745443ce" x="218.431169" y="138.027591" style="stroke: #000000"/>
     <use xlink:href="#m2f745443ce" x="221.423377" y="165.533781" style="stroke: #000000"/>
     <use xlink:href="#m2f745443ce" x="224.415584" y="141.695083" style="stroke: #000000"/>
     <use xlink:href="#m2f745443ce" x="227.407792" y="156.365051" style="stroke: #000000"/>
     <use xlink:href="#m2f745443ce" x="230.4" y="101.811107" style="stroke: #000000"/>
     <use xlink:href="#m2f745443ce" x="233.392208" y="85.76583" style="stroke: #000000"/>
     <use xlink:href="#m2f745443ce" x="236.384416" y="131.60948" style="stroke: #000000"/>
     <use xlink:href="#m2f745443ce" x="239.376623" y="143.070393" style="stroke: #000000"/>
     <use xlink:href="#m2f745443ce" x="242.368831" y="161.407853" style="stroke: #000000"/>
     <use xlink:href="#m2f745443ce" x="245.361039" y="113.27202" style="stroke: #000000"/>
     <use xlink:href="#m2f745443ce" x="248.353247" y="115.564202" style="stroke: #000000"/>
     <use xlink:href="#m2f745443ce" x="251.345455" y="92.642377" style="stroke: #000000"/>
     <use xlink:href="#m2f745443ce" x="254.337662" y="156.823488" style="stroke: #000000"/>
     <use xlink:href="#m2f745443ce" x="257.32987" y="49.090909" style="stroke: #000000"/>
     <use xlink:href="#m2f745443ce" x="260.322078" y="156.823488" style="stroke: #000000"/>
     <use xlink:href="#m2f745443ce" x="263.314286" y="117.856385" style="stroke: #000000"/>
     <use xlink:href="#m2f745443ce" x="266.306494" y="163.700035" style="stroke: #000000"/>
     <use xlink:href="#m2f745443ce" x="269.298701" y="147.654758" style="stroke: #000000"/>
     <use xlink:href="#m2f745443ce" x="272.290909" y="147.654758" style="stroke: #000000"/>
     <use xlink:href="#m2f745443ce" x="275.283117" y="149.94694" style="stroke: #000000"/>
     <use xlink:href="#m2f745443ce" x="278.275325" y="136.193845" style="stroke: #000000"/>
     <use xlink:href="#m2f745443ce" x="281.267532" y="138.486028" style="stroke: #000000"/>
     <use xlink:href="#m2f745443ce" x="284.25974" y="129.317297" style="stroke: #000000"/>
     <use xlink:href="#m2f745443ce" x="287.251948" y="152.239123" style="stroke: #000000"/>
     <use xlink:href="#m2f745443ce" x="290.244156" y="124.732932" style="stroke: #000000"/>
     <use xlink:href="#m2f745443ce" x="293.236364" y="106.395472" style="stroke: #000000"/>
     <use xlink:href="#m2f745443ce" x="296.228571" y="136.193845" style="stroke: #000000"/>
     <use xlink:href="#m2f745443ce" x="299.220779" y="138.486028" style="stroke: #000000"/>
     <use xlink:href="#m2f745443ce" x="302.212987" y="163.700035" style="stroke: #000000"/>
     <use xlink:href="#m2f745443ce" x="305.205195" y="165.992218" style="stroke: #000000"/>
     <use xlink:href="#m2f745443ce" x="308.197403" y="156.823488" style="stroke: #000000"/>
     <use xlink:href="#m2f745443ce" x="311.18961" y="129.317297" style="stroke: #000000"/>
     <use xlink:href="#m2f745443ce" x="314.181818" y="127.025115" style="stroke: #000000"/>
     <use xlink:href="#m2f745443ce" x="317.174026" y="156.823488" style="stroke: #000000"/>
     <use xlink:href="#m2f745443ce" x="320.166234" y="83.473647" style="stroke: #000000"/>
     <use xlink:href="#m2f745443ce" x="323.158442" y="133.901663" style="stroke: #000000"/>
     <use xlink:href="#m2f745443ce" x="326.150649" y="149.94694" style="stroke: #000000"/>
     <use xlink:href="#m2f745443ce" x="329.142857" y="122.44075" style="stroke: #000000"/>
     <use xlink:href="#m2f745443ce" x="332.135065" y="120.148567" style="stroke: #000000"/>
     <use xlink:href="#m2f745443ce" x="335.127273" y="154.531305" style="stroke: #000000"/>
     <use xlink:href="#m2f745443ce" x="338.119481" y="154.531305" style="stroke: #000000"/>
     <use xlink:href="#m2f745443ce" x="341.111688" y="156.823488" style="stroke: #000000"/>
     <use xlink:href="#m2f745443ce" x="344.103896" y="159.11567" style="stroke: #000000"/>
     <use xlink:href="#m2f745443ce" x="347.096104" y="138.486028" style="stroke: #000000"/>
     <use xlink:href="#m2f745443ce" x="350.088312" y="154.531305" style="stroke: #000000"/>
     <use xlink:href="#m2f745443ce" x="353.080519" y="129.317297" style="stroke: #000000"/>
     <use xlink:href="#m2f745443ce" x="356.072727" y="161.407853" style="stroke: #000000"/>
     <use xlink:href="#m2f745443ce" x="359.064935" y="124.732932" style="stroke: #000000"/>
     <use xlink:href="#m2f745443ce" x="362.057143" y="156.823488" style="stroke: #000000"/>
     <use xlink:href="#m2f745443ce" x="365.049351" y="145.362575" style="stroke: #000000"/>
     <use xlink:href="#m2f745443ce" x="368.041558" y="159.11567" style="stroke: #000000"/>
     <use xlink:href="#m2f745443ce" x="371.033766" y="127.025115" style="stroke: #000000"/>
     <use xlink:href="#m2f745443ce" x="374.025974" y="129.317297" style="stroke: #000000"/>
     <use xlink:href="#m2f745443ce" x="377.018182" y="154.531305" style="stroke: #000000"/>
     <use xlink:href="#m2f745443ce" x="380.01039" y="165.992218" style="stroke: #000000"/>
     <use xlink:href="#m2f745443ce" x="383.002597" y="161.407853" style="stroke: #000000"/>
     <use xlink:href="#m2f745443ce" x="385.994805" y="140.77821" style="stroke: #000000"/>
     <use xlink:href="#m2f745443ce" x="388.987013" y="149.94694" style="stroke: #000000"/>
     <use xlink:href="#m2f745443ce" x="391.979221" y="149.94694" style="stroke: #000000"/>
     <use xlink:href="#m2f745443ce" x="394.971429" y="140.77821" style="stroke: #000000"/>
     <use xlink:href="#m2f745443ce" x="397.963636" y="161.407853" style="stroke: #000000"/>
    </g>
   </g>
   <g id="line2d_22">
    <path d="M 62.836364 126.259417 
L 66.221488 126.437492 
L 69.606612 126.615567 
L 72.991736 126.793642 
L 76.37686 126.971717 
L 79.761983 127.149792 
L 83.147107 127.327866 
L 86.532231 127.505941 
L 89.917355 127.684016 
L 93.302479 127.862091 
L 96.687603 128.040166 
L 100.072727 128.218241 
L 103.457851 128.396316 
L 106.842975 128.574391 
L 110.228099 128.752466 
L 113.613223 128.93054 
L 116.998347 129.108615 
L 120.383471 129.28669 
L 123.768595 129.464765 
L 127.153719 129.64284 
L 130.538843 129.820915 
L 133.923967 129.99899 
L 137.309091 130.177065 
L 140.694215 130.35514 
L 144.079339 130.533214 
L 147.464463 130.711289 
L 150.849587 130.889364 
L 154.234711 131.067439 
L 157.619835 131.245514 
L 161.004959 131.423589 
L 164.390083 131.601664 
L 167.775207 131.779739 
L 171.160331 131.957814 
L 174.545455 132.135888 
L 177.930579 132.313963 
L 181.315702 132.492038 
L 184.700826 132.670113 
L 188.08595 132.848188 
L 191.471074 133.026263 
L 194.856198 133.204338 
L 198.241322 133.382413 
L 201.626446 133.560487 
L 205.01157 133.738562 
L 208.396694 133.916637 
L 211.781818 134.094712 
L 215.166942 134.272787 
L 218.552066 134.450862 
L 221.93719 134.628937 
L 225.322314 134.807012 
L 228.707438 134.985087 
L 232.092562 135.163161 
L 235.477686 135.341236 
L 238.86281 135.519311 
L 242.247934 135.697386 
L 245.633058 135.875461 
L 249.018182 136.053536 
L 252.403306 136.231611 
L 255.78843 136.409686 
L 259.173554 136.587761 
L 262.558678 136.765835 
L 265.943802 136.94391 
L 269.328926 137.121985 
L 272.71405 137.30006 
L 276.099174 137.478135 
L 279.484298 137.65621 
L 282.869421 137.834285 
L 286.254545 138.01236 
L 289.639669 138.190435 
L 293.024793 138.368509 
L 296.409917 138.546584 
L 299.795041 138.724659 
L 303.180165 138.902734 
L 306.565289 139.080809 
L 309.950413 139.258884 
L 313.335537 139.436959 
L 316.720661 139.615034 
L 320.105785 139.793109 
L 323.490909 139.971183 
L 326.876033 140.149258 
L 330.261157 140.327333 
L 333.646281 140.505408 
L 337.031405 140.683483 
L 340.416529 140.861558 
L 343.801653 141.039633 
L 347.186777 141.217708 
L 350.571901 141.395783 
L 353.957025 141.573857 
L 357.342149 141.751932 
L 360.727273 141.930007 
L 364.112397 142.108082 
L 367.497521 142.286157 
L 370.882645 142.464232 
L 374.267769 142.642307 
L 377.652893 142.820382 
L 381.038017 142.998457 
L 384.42314 143.176531 
L 387.808264 143.354606 
L 391.193388 143.532681 
L 394.578512 143.710756 
L 397.963636 143.888831 
" clip-path="url(#p02bf21911d)" style="fill: none; stroke: #000000; stroke-width: 1.5; stroke-linecap: square"/>
   </g>
   <g id="patch_3">
    <path d="M 46.08 172.8 
L 46.08 43.2 
" style="fill: none; stroke: #000000; stroke-linejoin: miter; stroke-linecap: square"/>
   </g>
   <g id="patch_4">
    <path d="M 414.72 172.8 
L 414.72 43.2 
" style="fill: none; stroke: #000000; stroke-linejoin: miter; stroke-linecap: square"/>
   </g>
   <g id="patch_5">
    <path d="M 46.08 172.8 
L 414.72 172.8 
" style="fill: none; stroke: #000000; stroke-linejoin: miter; stroke-linecap: square"/>
   </g>
   <g id="patch_6">
    <path d="M 46.08 43.2 
L 414.72 43.2 
" style="fill: none; stroke: #000000; stroke-linejoin: miter; stroke-linecap: square"/>
   </g>
   <g id="text_10">
    <!-- Asahikawa -->
    <g transform="translate(189.9 37.2)scale(0.18 -0.18)">
     <defs>
      <path id="MS-Gothic-41" d="M 700 50 
L 100 50 
L 1350 4925 
L 1850 4925 
L 3100 50 
L 2500 50 
L 2150 1475 
L 1050 1475 
L 700 50 
z
M 1625 3600 
L 1575 3600 
L 1175 1950 
L 2025 1950 
L 1625 3600 
z
" transform="scale(0.015625)"/>
      <path id="MS-Gothic-73" d="M 2175 2450 
Q 2150 2725 2000 2875 
Q 1850 3025 1600 3025 
Q 1275 3025 1150 2900 
Q 1000 2750 1000 2575 
Q 1000 2450 1125 2325 
Q 1300 2150 1875 1950 
Q 2325 1800 2525 1600 
Q 2750 1375 2750 1000 
Q 2750 650 2500 400 
Q 2150 50 1600 50 
Q 1000 50 700 350 
Q 375 675 400 1375 
L 900 1375 
Q 900 825 1050 675 
Q 1225 500 1575 500 
Q 1925 500 2100 675 
Q 2250 825 2250 1025 
Q 2250 1175 2100 1325 
Q 1950 1475 1525 1625 
Q 900 1850 700 2050 
Q 475 2275 475 2600 
Q 475 2925 750 3200 
Q 1025 3475 1600 3475 
Q 2100 3475 2400 3175 
Q 2700 2875 2675 2450 
L 2175 2450 
z
" transform="scale(0.015625)"/>
      <path id="MS-Gothic-61" d="M 2200 1925 
Q 1900 1750 1500 1625 
Q 1200 1525 1025 1350 
Q 900 1225 900 1000 
Q 900 750 1025 625 
Q 1150 500 1425 500 
Q 1875 500 2200 1025 
L 2200 1925 
z
M 2200 425 
Q 1825 50 1275 50 
Q 825 50 550 325 
Q 300 575 300 950 
Q 300 1350 575 1625 
Q 825 1875 1150 1975 
Q 2000 2250 2075 2350 
Q 2200 2500 2200 2650 
Q 2200 2800 2050 2925 
Q 1925 3025 1600 3025 
Q 1350 3025 1200 2875 
Q 1000 2675 975 2350 
L 425 2350 
Q 450 2850 775 3175 
Q 1075 3475 1600 3475 
Q 2200 3475 2450 3225 
Q 2700 2975 2700 2600 
L 2700 625 
Q 2700 325 2900 50 
L 2300 50 
Q 2200 150 2200 425 
z
" transform="scale(0.015625)"/>
      <path id="MS-Gothic-68" d="M 850 2875 
Q 1000 3075 1100 3175 
Q 1400 3475 1900 3475 
Q 2325 3475 2575 3225 
Q 2800 3000 2800 2600 
L 2800 50 
L 2300 50 
L 2300 2425 
Q 2300 2750 2125 2925 
Q 1975 3075 1725 3075 
Q 1475 3075 1200 2800 
Q 850 2450 850 1875 
L 850 50 
L 350 50 
L 350 4925 
L 850 4925 
L 850 2875 
z
" transform="scale(0.015625)"/>
      <path id="MS-Gothic-69" d="M 1825 50 
L 1325 50 
L 1325 3475 
L 1825 3475 
L 1825 50 
z
M 1825 4925 
L 1825 4275 
L 1325 4275 
L 1325 4925 
L 1825 4925 
z
" transform="scale(0.015625)"/>
      <path id="MS-Gothic-6b" d="M 1450 1875 
L 900 1250 
L 900 50 
L 400 50 
L 400 4925 
L 900 4925 
L 900 1925 
L 2150 3475 
L 2775 3475 
L 1800 2275 
L 2950 50 
L 2375 50 
L 1450 1875 
z
" transform="scale(0.015625)"/>
      <path id="MS-Gothic-77" d="M 700 50 
L 50 3475 
L 575 3475 
L 925 1450 
L 975 1450 
L 1300 3475 
L 1850 3475 
L 2175 1450 
L 2225 1450 
L 2575 3475 
L 3100 3475 
L 2450 50 
L 1975 50 
L 1600 2375 
L 1550 2375 
L 1175 50 
L 700 50 
z
" transform="scale(0.015625)"/>
     </defs>
     <use xlink:href="#MS-Gothic-41"/>
     <use xlink:href="#MS-Gothic-73" x="50"/>
     <use xlink:href="#MS-Gothic-61" x="100"/>
     <use xlink:href="#MS-Gothic-68" x="150"/>
     <use xlink:href="#MS-Gothic-69" x="200"/>
     <use xlink:href="#MS-Gothic-6b" x="250"/>
     <use xlink:href="#MS-Gothic-61" x="300"/>
     <use xlink:href="#MS-Gothic-77" x="350"/>
     <use xlink:href="#MS-Gothic-61" x="400"/>
    </g>
   </g>
  </g>
 </g>
 <defs>
  <clipPath id="p02bf21911d">
   <rect x="46.08" y="43.2" width="368.64" height="129.6"/>
  </clipPath>
 </defs>
</svg>
