<?xml version="1.0" encoding="utf-8" standalone="no"?>
<!DOCTYPE svg PUBLIC "-//W3C//DTD SVG 1.1//EN"
  "http://www.w3.org/Graphics/SVG/1.1/DTD/svg11.dtd">
<svg xmlns:xlink="http://www.w3.org/1999/xlink" width="460.8pt" height="432pt" viewBox="0 0 460.8 432" xmlns="http://www.w3.org/2000/svg" version="1.1">
 <metadata>
  <rdf:RDF xmlns:dc="http://purl.org/dc/elements/1.1/" xmlns:cc="http://creativecommons.org/ns#" xmlns:rdf="http://www.w3.org/1999/02/22-rdf-syntax-ns#">
   <cc:Work>
    <dc:type rdf:resource="http://purl.org/dc/dcmitype/StillImage"/>
    <dc:date>2022-08-12T11:38:01.725019</dc:date>
    <dc:format>image/svg+xml</dc:format>
    <dc:creator>
     <cc:Agent>
      <dc:title>Matplotlib v3.5.2, https://matplotlib.org/</dc:title>
     </cc:Agent>
    </dc:creator>
   </cc:Work>
  </rdf:RDF>
 </metadata>
 <defs>
  <style type="text/css">*{stroke-linejoin: round; stroke-linecap: butt}</style>
 </defs>
 <g id="figure_1">
  <g id="patch_1">
   <path d="M 0 432 
L 460.8 432 
L 460.8 0 
L 0 0 
z
" style="fill: #ffffff"/>
  </g>
  <g id="axes_1">
   <g id="patch_2">
    <path d="M 46.08 172.8 
L 414.72 172.8 
L 414.72 43.2 
L 46.08 43.2 
z
" style="fill: #ffffff"/>
   </g>
   <g id="PathCollection_1">
    <defs>
     <path id="mcc8e5b1ec3" style="stroke: #000000; stroke-opacity: 0.8"/>
    </defs>
    <g clip-path="url(#pef569a0332)">
     <use xlink:href="#mcc8e5b1ec3" x="62.836364" y="147.308236" style="fill-opacity: 0.8; stroke: #000000; stroke-opacity: 0.8"/>
     <use xlink:href="#mcc8e5b1ec3" x="65.828571" y="132.501069" style="fill-opacity: 0.8; stroke: #000000; stroke-opacity: 0.8"/>
     <use xlink:href="#mcc8e5b1ec3" x="68.820779" y="128.772645" style="fill-opacity: 0.8; stroke: #000000; stroke-opacity: 0.8"/>
     <use xlink:href="#mcc8e5b1ec3" x="71.812987" y="161.156666" style="fill-opacity: 0.8; stroke: #000000; stroke-opacity: 0.8"/>
     <use xlink:href="#mcc8e5b1ec3" x="74.805195" y="143.686339" style="fill-opacity: 0.8; stroke: #000000; stroke-opacity: 0.8"/>
     <use xlink:href="#mcc8e5b1ec3" x="77.797403" y="142.514549" style="fill-opacity: 0.8; stroke: #000000; stroke-opacity: 0.8"/>
     <use xlink:href="#mcc8e5b1ec3" x="80.78961" y="164.991616" style="fill-opacity: 0.8; stroke: #000000; stroke-opacity: 0.8"/>
     <use xlink:href="#mcc8e5b1ec3" x="83.781818" y="126.429065" style="fill-opacity: 0.8; stroke: #000000; stroke-opacity: 0.8"/>
     <use xlink:href="#mcc8e5b1ec3" x="86.774026" y="138.679599" style="fill-opacity: 0.8; stroke: #000000; stroke-opacity: 0.8"/>
     <use xlink:href="#mcc8e5b1ec3" x="89.766234" y="144.858129" style="fill-opacity: 0.8; stroke: #000000; stroke-opacity: 0.8"/>
     <use xlink:href="#mcc8e5b1ec3" x="92.758442" y="95.429887" style="fill-opacity: 0.8; stroke: #000000; stroke-opacity: 0.8"/>
     <use xlink:href="#mcc8e5b1ec3" x="95.750649" y="123.765905" style="fill-opacity: 0.8; stroke: #000000; stroke-opacity: 0.8"/>
     <use xlink:href="#mcc8e5b1ec3" x="98.742857" y="155.404241" style="fill-opacity: 0.8; stroke: #000000; stroke-opacity: 0.8"/>
     <use xlink:href="#mcc8e5b1ec3" x="101.735065" y="162.541509" style="fill-opacity: 0.8; stroke: #000000; stroke-opacity: 0.8"/>
     <use xlink:href="#mcc8e5b1ec3" x="104.727273" y="157.747822" style="fill-opacity: 0.8; stroke: #000000; stroke-opacity: 0.8"/>
     <use xlink:href="#mcc8e5b1ec3" x="107.719481" y="158.38698" style="fill-opacity: 0.8; stroke: #000000; stroke-opacity: 0.8"/>
     <use xlink:href="#mcc8e5b1ec3" x="110.711688" y="158.706559" style="fill-opacity: 0.8; stroke: #000000; stroke-opacity: 0.8"/>
     <use xlink:href="#mcc8e5b1ec3" x="113.703896" y="159.771823" style="fill-opacity: 0.8; stroke: #000000; stroke-opacity: 0.8"/>
     <use xlink:href="#mcc8e5b1ec3" x="116.696104" y="157.428243" style="fill-opacity: 0.8; stroke: #000000; stroke-opacity: 0.8"/>
     <use xlink:href="#mcc8e5b1ec3" x="119.688312" y="136.549071" style="fill-opacity: 0.8; stroke: #000000; stroke-opacity: 0.8"/>
     <use xlink:href="#mcc8e5b1ec3" x="122.680519" y="165.843827" style="fill-opacity: 0.8; stroke: #000000; stroke-opacity: 0.8"/>
     <use xlink:href="#mcc8e5b1ec3" x="125.672727" y="145.284235" style="fill-opacity: 0.8; stroke: #000000; stroke-opacity: 0.8"/>
     <use xlink:href="#mcc8e5b1ec3" x="128.664935" y="159.878349" style="fill-opacity: 0.8; stroke: #000000; stroke-opacity: 0.8"/>
     <use xlink:href="#mcc8e5b1ec3" x="131.657143" y="151.249712" style="fill-opacity: 0.8; stroke: #000000; stroke-opacity: 0.8"/>
     <use xlink:href="#mcc8e5b1ec3" x="134.649351" y="164.458984" style="fill-opacity: 0.8; stroke: #000000; stroke-opacity: 0.8"/>
     <use xlink:href="#mcc8e5b1ec3" x="137.641558" y="160.517508" style="fill-opacity: 0.8; stroke: #000000; stroke-opacity: 0.8"/>
     <use xlink:href="#mcc8e5b1ec3" x="140.633766" y="149.758343" style="fill-opacity: 0.8; stroke: #000000; stroke-opacity: 0.8"/>
     <use xlink:href="#mcc8e5b1ec3" x="143.625974" y="158.493506" style="fill-opacity: 0.8; stroke: #000000; stroke-opacity: 0.8"/>
     <use xlink:href="#mcc8e5b1ec3" x="146.618182" y="150.290975" style="fill-opacity: 0.8; stroke: #000000; stroke-opacity: 0.8"/>
     <use xlink:href="#mcc8e5b1ec3" x="149.61039" y="113.752425" style="fill-opacity: 0.8; stroke: #000000; stroke-opacity: 0.8"/>
     <use xlink:href="#mcc8e5b1ec3" x="152.602597" y="162.328456" style="fill-opacity: 0.8; stroke: #000000; stroke-opacity: 0.8"/>
     <use xlink:href="#mcc8e5b1ec3" x="155.594805" y="140.277495" style="fill-opacity: 0.8; stroke: #000000; stroke-opacity: 0.8"/>
     <use xlink:href="#mcc8e5b1ec3" x="158.587013" y="155.510768" style="fill-opacity: 0.8; stroke: #000000; stroke-opacity: 0.8"/>
     <use xlink:href="#mcc8e5b1ec3" x="161.579221" y="159.878349" style="fill-opacity: 0.8; stroke: #000000; stroke-opacity: 0.8"/>
     <use xlink:href="#mcc8e5b1ec3" x="164.571429" y="165.737301" style="fill-opacity: 0.8; stroke: #000000; stroke-opacity: 0.8"/>
     <use xlink:href="#mcc8e5b1ec3" x="167.563636" y="166.05688" style="fill-opacity: 0.8; stroke: #000000; stroke-opacity: 0.8"/>
     <use xlink:href="#mcc8e5b1ec3" x="170.555844" y="157.854348" style="fill-opacity: 0.8; stroke: #000000; stroke-opacity: 0.8"/>
     <use xlink:href="#mcc8e5b1ec3" x="173.548052" y="161.156666" style="fill-opacity: 0.8; stroke: #000000; stroke-opacity: 0.8"/>
     <use xlink:href="#mcc8e5b1ec3" x="176.54026" y="116.84169" style="fill-opacity: 0.8; stroke: #000000; stroke-opacity: 0.8"/>
     <use xlink:href="#mcc8e5b1ec3" x="179.532468" y="124.937695" style="fill-opacity: 0.8; stroke: #000000; stroke-opacity: 0.8"/>
     <use xlink:href="#mcc8e5b1ec3" x="182.524675" y="115.243794" style="fill-opacity: 0.8; stroke: #000000; stroke-opacity: 0.8"/>
     <use xlink:href="#mcc8e5b1ec3" x="185.516883" y="165.098142" style="fill-opacity: 0.8; stroke: #000000; stroke-opacity: 0.8"/>
     <use xlink:href="#mcc8e5b1ec3" x="188.509091" y="131.435805" style="fill-opacity: 0.8; stroke: #000000; stroke-opacity: 0.8"/>
     <use xlink:href="#mcc8e5b1ec3" x="191.501299" y="117.906954" style="fill-opacity: 0.8; stroke: #000000; stroke-opacity: 0.8"/>
     <use xlink:href="#mcc8e5b1ec3" x="194.493506" y="152.847608" style="fill-opacity: 0.8; stroke: #000000; stroke-opacity: 0.8"/>
     <use xlink:href="#mcc8e5b1ec3" x="197.485714" y="151.569291" style="fill-opacity: 0.8; stroke: #000000; stroke-opacity: 0.8"/>
     <use xlink:href="#mcc8e5b1ec3" x="200.477922" y="159.665297" style="fill-opacity: 0.8; stroke: #000000; stroke-opacity: 0.8"/>
     <use xlink:href="#mcc8e5b1ec3" x="203.47013" y="166.909091" style="fill-opacity: 0.8; stroke: #000000; stroke-opacity: 0.8"/>
     <use xlink:href="#mcc8e5b1ec3" x="206.462338" y="131.222752" style="fill-opacity: 0.8; stroke: #000000; stroke-opacity: 0.8"/>
     <use xlink:href="#mcc8e5b1ec3" x="209.454545" y="155.510768" style="fill-opacity: 0.8; stroke: #000000; stroke-opacity: 0.8"/>
     <use xlink:href="#mcc8e5b1ec3" x="212.446753" y="135.909913" style="fill-opacity: 0.8; stroke: #000000; stroke-opacity: 0.8"/>
     <use xlink:href="#mcc8e5b1ec3" x="215.438961" y="139.318757" style="fill-opacity: 0.8; stroke: #000000; stroke-opacity: 0.8"/>
     <use xlink:href="#mcc8e5b1ec3" x="218.431169" y="138.253493" style="fill-opacity: 0.8; stroke: #000000; stroke-opacity: 0.8"/>
     <use xlink:href="#mcc8e5b1ec3" x="221.423377" y="136.442545" style="fill-opacity: 0.8; stroke: #000000; stroke-opacity: 0.8"/>
     <use xlink:href="#mcc8e5b1ec3" x="224.415584" y="162.861088" style="fill-opacity: 0.8; stroke: #000000; stroke-opacity: 0.8"/>
     <use xlink:href="#mcc8e5b1ec3" x="227.407792" y="153.912872" style="fill-opacity: 0.8; stroke: #000000; stroke-opacity: 0.8"/>
     <use xlink:href="#mcc8e5b1ec3" x="230.4" y="150.077922" style="fill-opacity: 0.8; stroke: #000000; stroke-opacity: 0.8"/>
     <use xlink:href="#mcc8e5b1ec3" x="233.392208" y="157.108663" style="fill-opacity: 0.8; stroke: #000000; stroke-opacity: 0.8"/>
     <use xlink:href="#mcc8e5b1ec3" x="236.384416" y="164.672037" style="fill-opacity: 0.8; stroke: #000000; stroke-opacity: 0.8"/>
     <use xlink:href="#mcc8e5b1ec3" x="239.376623" y="159.345718" style="fill-opacity: 0.8; stroke: #000000; stroke-opacity: 0.8"/>
     <use xlink:href="#mcc8e5b1ec3" x="242.368831" y="49.090909" style="fill-opacity: 0.8; stroke: #000000; stroke-opacity: 0.8"/>
     <use xlink:href="#mcc8e5b1ec3" x="245.361039" y="133.779385" style="fill-opacity: 0.8; stroke: #000000; stroke-opacity: 0.8"/>
     <use xlink:href="#mcc8e5b1ec3" x="248.353247" y="146.562551" style="fill-opacity: 0.8; stroke: #000000; stroke-opacity: 0.8"/>
     <use xlink:href="#mcc8e5b1ec3" x="251.345455" y="145.497288" style="fill-opacity: 0.8; stroke: #000000; stroke-opacity: 0.8"/>
     <use xlink:href="#mcc8e5b1ec3" x="254.337662" y="163.074141" style="fill-opacity: 0.8; stroke: #000000; stroke-opacity: 0.8"/>
     <use xlink:href="#mcc8e5b1ec3" x="257.32987" y="128.453066" style="fill-opacity: 0.8; stroke: #000000; stroke-opacity: 0.8"/>
     <use xlink:href="#mcc8e5b1ec3" x="260.322078" y="162.008877" style="fill-opacity: 0.8; stroke: #000000; stroke-opacity: 0.8"/>
     <use xlink:href="#mcc8e5b1ec3" x="263.314286" y="162.541509" style="fill-opacity: 0.8; stroke: #000000; stroke-opacity: 0.8"/>
     <use xlink:href="#mcc8e5b1ec3" x="266.306494" y="129.51833" style="fill-opacity: 0.8; stroke: #000000; stroke-opacity: 0.8"/>
     <use xlink:href="#mcc8e5b1ec3" x="269.298701" y="159.345718" style="fill-opacity: 0.8; stroke: #000000; stroke-opacity: 0.8"/>
     <use xlink:href="#mcc8e5b1ec3" x="272.290909" y="149.225711" style="fill-opacity: 0.8; stroke: #000000; stroke-opacity: 0.8"/>
     <use xlink:href="#mcc8e5b1ec3" x="275.283117" y="157.21519" style="fill-opacity: 0.8; stroke: #000000; stroke-opacity: 0.8"/>
     <use xlink:href="#mcc8e5b1ec3" x="278.275325" y="149.758343" style="fill-opacity: 0.8; stroke: #000000; stroke-opacity: 0.8"/>
     <use xlink:href="#mcc8e5b1ec3" x="281.267532" y="160.410981" style="fill-opacity: 0.8; stroke: #000000; stroke-opacity: 0.8"/>
     <use xlink:href="#mcc8e5b1ec3" x="284.25974" y="164.139405" style="fill-opacity: 0.8; stroke: #000000; stroke-opacity: 0.8"/>
     <use xlink:href="#mcc8e5b1ec3" x="287.251948" y="153.486766" style="fill-opacity: 0.8; stroke: #000000; stroke-opacity: 0.8"/>
     <use xlink:href="#mcc8e5b1ec3" x="290.244156" y="157.21519" style="fill-opacity: 0.8; stroke: #000000; stroke-opacity: 0.8"/>
     <use xlink:href="#mcc8e5b1ec3" x="293.236364" y="155.084662" style="fill-opacity: 0.8; stroke: #000000; stroke-opacity: 0.8"/>
     <use xlink:href="#mcc8e5b1ec3" x="296.228571" y="156.149926" style="fill-opacity: 0.8; stroke: #000000; stroke-opacity: 0.8"/>
     <use xlink:href="#mcc8e5b1ec3" x="299.220779" y="161.476245" style="fill-opacity: 0.8; stroke: #000000; stroke-opacity: 0.8"/>
     <use xlink:href="#mcc8e5b1ec3" x="302.212987" y="155.617294" style="fill-opacity: 0.8; stroke: #000000; stroke-opacity: 0.8"/>
     <use xlink:href="#mcc8e5b1ec3" x="305.205195" y="99.15831" style="fill-opacity: 0.8; stroke: #000000; stroke-opacity: 0.8"/>
     <use xlink:href="#mcc8e5b1ec3" x="308.197403" y="158.813086" style="fill-opacity: 0.8; stroke: #000000; stroke-opacity: 0.8"/>
     <use xlink:href="#mcc8e5b1ec3" x="311.18961" y="141.768864" style="fill-opacity: 0.8; stroke: #000000; stroke-opacity: 0.8"/>
     <use xlink:href="#mcc8e5b1ec3" x="314.181818" y="158.280454" style="fill-opacity: 0.8; stroke: #000000; stroke-opacity: 0.8"/>
     <use xlink:href="#mcc8e5b1ec3" x="317.174026" y="131.648857" style="fill-opacity: 0.8; stroke: #000000; stroke-opacity: 0.8"/>
     <use xlink:href="#mcc8e5b1ec3" x="320.166234" y="152.421503" style="fill-opacity: 0.8; stroke: #000000; stroke-opacity: 0.8"/>
     <use xlink:href="#mcc8e5b1ec3" x="323.158442" y="159.345718" style="fill-opacity: 0.8; stroke: #000000; stroke-opacity: 0.8"/>
     <use xlink:href="#mcc8e5b1ec3" x="326.150649" y="123.126747" style="fill-opacity: 0.8; stroke: #000000; stroke-opacity: 0.8"/>
     <use xlink:href="#mcc8e5b1ec3" x="329.142857" y="156.682558" style="fill-opacity: 0.8; stroke: #000000; stroke-opacity: 0.8"/>
     <use xlink:href="#mcc8e5b1ec3" x="332.135065" y="134.844649" style="fill-opacity: 0.8; stroke: #000000; stroke-opacity: 0.8"/>
     <use xlink:href="#mcc8e5b1ec3" x="335.127273" y="152.421503" style="fill-opacity: 0.8; stroke: #000000; stroke-opacity: 0.8"/>
     <use xlink:href="#mcc8e5b1ec3" x="338.119481" y="131.116226" style="fill-opacity: 0.8; stroke: #000000; stroke-opacity: 0.8"/>
     <use xlink:href="#mcc8e5b1ec3" x="341.111688" y="117.267795" style="fill-opacity: 0.8; stroke: #000000; stroke-opacity: 0.8"/>
     <use xlink:href="#mcc8e5b1ec3" x="344.103896" y="135.377281" style="fill-opacity: 0.8; stroke: #000000; stroke-opacity: 0.8"/>
     <use xlink:href="#mcc8e5b1ec3" x="347.096104" y="160.943613" style="fill-opacity: 0.8; stroke: #000000; stroke-opacity: 0.8"/>
     <use xlink:href="#mcc8e5b1ec3" x="350.088312" y="157.21519" style="fill-opacity: 0.8; stroke: #000000; stroke-opacity: 0.8"/>
     <use xlink:href="#mcc8e5b1ec3" x="353.080519" y="104.484629" style="fill-opacity: 0.8; stroke: #000000; stroke-opacity: 0.8"/>
     <use xlink:href="#mcc8e5b1ec3" x="356.072727" y="155.617294" style="fill-opacity: 0.8; stroke: #000000; stroke-opacity: 0.8"/>
     <use xlink:href="#mcc8e5b1ec3" x="359.064935" y="147.627815" style="fill-opacity: 0.8; stroke: #000000; stroke-opacity: 0.8"/>
     <use xlink:href="#mcc8e5b1ec3" x="362.057143" y="144.964656" style="fill-opacity: 0.8; stroke: #000000; stroke-opacity: 0.8"/>
     <use xlink:href="#mcc8e5b1ec3" x="365.049351" y="160.410981" style="fill-opacity: 0.8; stroke: #000000; stroke-opacity: 0.8"/>
     <use xlink:href="#mcc8e5b1ec3" x="368.041558" y="150.823607" style="fill-opacity: 0.8; stroke: #000000; stroke-opacity: 0.8"/>
     <use xlink:href="#mcc8e5b1ec3" x="371.033766" y="147.627815" style="fill-opacity: 0.8; stroke: #000000; stroke-opacity: 0.8"/>
     <use xlink:href="#mcc8e5b1ec3" x="374.025974" y="157.21519" style="fill-opacity: 0.8; stroke: #000000; stroke-opacity: 0.8"/>
     <use xlink:href="#mcc8e5b1ec3" x="377.018182" y="161.476245" style="fill-opacity: 0.8; stroke: #000000; stroke-opacity: 0.8"/>
     <use xlink:href="#mcc8e5b1ec3" x="380.01039" y="155.084662" style="fill-opacity: 0.8; stroke: #000000; stroke-opacity: 0.8"/>
     <use xlink:href="#mcc8e5b1ec3" x="383.002597" y="157.747822" style="fill-opacity: 0.8; stroke: #000000; stroke-opacity: 0.8"/>
     <use xlink:href="#mcc8e5b1ec3" x="385.994805" y="159.345718" style="fill-opacity: 0.8; stroke: #000000; stroke-opacity: 0.8"/>
     <use xlink:href="#mcc8e5b1ec3" x="388.987013" y="163.074141" style="fill-opacity: 0.8; stroke: #000000; stroke-opacity: 0.8"/>
     <use xlink:href="#mcc8e5b1ec3" x="391.979221" y="144.964656" style="fill-opacity: 0.8; stroke: #000000; stroke-opacity: 0.8"/>
     <use xlink:href="#mcc8e5b1ec3" x="394.971429" y="151.356239" style="fill-opacity: 0.8; stroke: #000000; stroke-opacity: 0.8"/>
     <use xlink:href="#mcc8e5b1ec3" x="397.963636" y="126.85517" style="fill-opacity: 0.8; stroke: #000000; stroke-opacity: 0.8"/>
    </g>
   </g>
   <g id="PolyCollection_1">
    <path d="M 62.836364 139.812757 
L 62.836364 152.526283 
L 66.221488 152.429333 
L 69.606612 152.332383 
L 72.991736 152.235433 
L 76.37686 152.138483 
L 79.761983 152.041533 
L 83.147107 151.965885 
L 86.532231 151.923569 
L 89.917355 151.829015 
L 93.302479 151.725819 
L 96.687603 151.653693 
L 100.072727 151.591236 
L 103.457851 151.48995 
L 106.842975 151.413345 
L 110.228099 151.32914 
L 113.613223 151.2887 
L 116.998347 151.281525 
L 120.383471 151.273963 
L 123.768595 151.26626 
L 127.153719 151.174025 
L 130.538843 151.091155 
L 133.923967 151.012432 
L 137.309091 150.951433 
L 140.694215 150.866337 
L 144.079339 150.818938 
L 147.464463 150.780303 
L 150.849587 150.757368 
L 154.234711 150.736613 
L 157.619835 150.714899 
L 161.004959 150.629824 
L 164.390083 150.558275 
L 167.775207 150.577569 
L 171.160331 150.527638 
L 174.545455 150.518947 
L 177.930579 150.534288 
L 181.315702 150.514554 
L 184.700826 150.469233 
L 188.08595 150.447216 
L 191.471074 150.495847 
L 194.856198 150.483455 
L 198.241322 150.455417 
L 201.626446 150.432613 
L 205.01157 150.412826 
L 208.396694 150.407231 
L 211.781818 150.399946 
L 215.166942 150.382141 
L 218.552066 150.370968 
L 221.93719 150.31452 
L 225.322314 150.278234 
L 228.707438 150.248317 
L 232.092562 150.231238 
L 235.477686 150.299836 
L 238.86281 150.346066 
L 242.247934 150.353638 
L 245.633058 150.346676 
L 249.018182 150.341837 
L 252.403306 150.344634 
L 255.78843 150.393325 
L 259.173554 150.382782 
L 262.558678 150.394164 
L 265.943802 150.448129 
L 269.328926 150.503568 
L 272.71405 150.564065 
L 276.099174 150.608182 
L 279.484298 150.654905 
L 282.869421 150.714898 
L 286.254545 150.783865 
L 289.639669 150.868711 
L 293.024793 150.929815 
L 296.409917 150.992987 
L 299.795041 151.071395 
L 303.180165 151.168391 
L 306.565289 151.251808 
L 309.950413 151.341906 
L 313.335537 151.369821 
L 316.720661 151.43714 
L 320.105785 151.502851 
L 323.490909 151.573087 
L 326.876033 151.656798 
L 330.261157 151.725285 
L 333.646281 151.852396 
L 337.031405 151.962925 
L 340.416529 152.057368 
L 343.801653 152.122719 
L 347.186777 152.203806 
L 350.571901 152.252138 
L 353.957025 152.39286 
L 357.342149 152.441739 
L 360.727273 152.497976 
L 364.112397 152.624419 
L 367.497521 152.750758 
L 370.882645 152.900362 
L 374.267769 153.003749 
L 377.652893 153.128186 
L 381.038017 153.236351 
L 384.42314 153.326557 
L 387.808264 153.42058 
L 391.193388 153.509387 
L 394.578512 153.597177 
L 397.963636 153.687383 
L 397.963636 141.554812 
L 397.963636 141.554812 
L 394.578512 141.619591 
L 391.193388 141.68515 
L 387.808264 141.751628 
L 384.42314 141.818406 
L 381.038017 141.885183 
L 377.652893 141.95196 
L 374.267769 142.028032 
L 370.882645 142.162176 
L 367.497521 142.265526 
L 364.112397 142.320916 
L 360.727273 142.438868 
L 357.342149 142.544908 
L 353.957025 142.604111 
L 350.571901 142.663972 
L 347.186777 142.724567 
L 343.801653 142.785315 
L 340.416529 142.846063 
L 337.031405 142.906811 
L 333.646281 142.969669 
L 330.261157 143.002851 
L 326.876033 143.001999 
L 323.490909 143.016872 
L 320.105785 143.091652 
L 316.720661 143.188263 
L 313.335537 143.28917 
L 309.950413 143.312803 
L 306.565289 143.381454 
L 303.180165 143.467919 
L 299.795041 143.462238 
L 296.409917 143.512246 
L 293.024793 143.513882 
L 289.639669 143.592952 
L 286.254545 143.626753 
L 282.869421 143.645511 
L 279.484298 143.660184 
L 276.099174 143.638135 
L 272.71405 143.615587 
L 269.328926 143.598169 
L 265.943802 143.622028 
L 262.558678 143.671333 
L 259.173554 143.748604 
L 255.78843 143.709944 
L 252.403306 143.715977 
L 249.018182 143.716712 
L 245.633058 143.645568 
L 242.247934 143.569148 
L 238.86281 143.566497 
L 235.477686 143.599119 
L 232.092562 143.632918 
L 228.707438 143.632704 
L 225.322314 143.691659 
L 221.93719 143.63746 
L 218.552066 143.600673 
L 215.166942 143.587034 
L 211.781818 143.50609 
L 208.396694 143.487589 
L 205.01157 143.418097 
L 201.626446 143.406182 
L 198.241322 143.399278 
L 194.856198 143.3736 
L 191.471074 143.335146 
L 188.08595 143.232452 
L 184.700826 143.128259 
L 181.315702 143.078187 
L 177.930579 142.961705 
L 174.545455 142.919278 
L 171.160331 142.832967 
L 167.775207 142.732199 
L 164.390083 142.630888 
L 161.004959 142.621175 
L 157.619835 142.540515 
L 154.234711 142.435046 
L 150.849587 142.330354 
L 147.464463 142.232512 
L 144.079339 142.136022 
L 140.694215 142.04094 
L 137.309091 141.944942 
L 133.923967 141.80736 
L 130.538843 141.674747 
L 127.153719 141.54308 
L 123.768595 141.473734 
L 120.383471 141.440032 
L 116.998347 141.362439 
L 113.613223 141.266065 
L 110.228099 141.169691 
L 106.842975 141.073316 
L 103.457851 140.976942 
L 100.072727 140.880664 
L 96.687603 140.784193 
L 93.302479 140.687556 
L 89.917355 140.590093 
L 86.532231 140.489071 
L 83.147107 140.349352 
L 79.761983 140.209633 
L 76.37686 140.107784 
L 72.991736 140.041248 
L 69.606612 139.975194 
L 66.221488 139.909046 
L 62.836364 139.812757 
z
" clip-path="url(#pef569a0332)" style="fill-opacity: 0.15"/>
   </g>
   <g id="matplotlib.axis_1">
    <g id="xtick_1">
     <g id="line2d_1">
      <defs>
       <path id="m87f6aefd93" d="M 0 0 
L 0 3.5 
" style="stroke: #000000"/>
      </defs>
      <g>
       <use xlink:href="#m87f6aefd93" x="92.758442" y="172.8" style="stroke: #000000"/>
      </g>
     </g>
     <g id="text_1">
      <!-- 1920 -->
      <g transform="translate(76.075629 190.536719)scale(0.15 -0.15)">
       <defs>
        <path id="ArialMT-31" d="M 2384 0 
L 1822 0 
L 1822 3584 
Q 1619 3391 1289 3197 
Q 959 3003 697 2906 
L 697 3450 
Q 1169 3672 1522 3987 
Q 1875 4303 2022 4600 
L 2384 4600 
L 2384 0 
z
" transform="scale(0.015625)"/>
        <path id="ArialMT-39" d="M 350 1059 
L 891 1109 
Q 959 728 1153 556 
Q 1347 384 1650 384 
Q 1909 384 2104 503 
Q 2300 622 2425 820 
Q 2550 1019 2634 1356 
Q 2719 1694 2719 2044 
Q 2719 2081 2716 2156 
Q 2547 1888 2255 1720 
Q 1963 1553 1622 1553 
Q 1053 1553 659 1965 
Q 266 2378 266 3053 
Q 266 3750 677 4175 
Q 1088 4600 1706 4600 
Q 2153 4600 2523 4359 
Q 2894 4119 3086 3673 
Q 3278 3228 3278 2384 
Q 3278 1506 3087 986 
Q 2897 466 2520 194 
Q 2144 -78 1638 -78 
Q 1100 -78 759 220 
Q 419 519 350 1059 
z
M 2653 3081 
Q 2653 3566 2395 3850 
Q 2138 4134 1775 4134 
Q 1400 4134 1122 3828 
Q 844 3522 844 3034 
Q 844 2597 1108 2323 
Q 1372 2050 1759 2050 
Q 2150 2050 2401 2323 
Q 2653 2597 2653 3081 
z
" transform="scale(0.015625)"/>
        <path id="ArialMT-32" d="M 3222 541 
L 3222 0 
L 194 0 
Q 188 203 259 391 
Q 375 700 629 1000 
Q 884 1300 1366 1694 
Q 2113 2306 2375 2664 
Q 2638 3022 2638 3341 
Q 2638 3675 2398 3904 
Q 2159 4134 1775 4134 
Q 1369 4134 1125 3890 
Q 881 3647 878 3216 
L 300 3275 
Q 359 3922 746 4261 
Q 1134 4600 1788 4600 
Q 2447 4600 2831 4234 
Q 3216 3869 3216 3328 
Q 3216 3053 3103 2787 
Q 2991 2522 2730 2228 
Q 2469 1934 1863 1422 
Q 1356 997 1212 845 
Q 1069 694 975 541 
L 3222 541 
z
" transform="scale(0.015625)"/>
        <path id="ArialMT-30" d="M 266 2259 
Q 266 3072 433 3567 
Q 600 4063 929 4331 
Q 1259 4600 1759 4600 
Q 2128 4600 2406 4451 
Q 2684 4303 2865 4023 
Q 3047 3744 3150 3342 
Q 3253 2941 3253 2259 
Q 3253 1453 3087 958 
Q 2922 463 2592 192 
Q 2263 -78 1759 -78 
Q 1097 -78 719 397 
Q 266 969 266 2259 
z
M 844 2259 
Q 844 1131 1108 757 
Q 1372 384 1759 384 
Q 2147 384 2411 759 
Q 2675 1134 2675 2259 
Q 2675 3391 2411 3762 
Q 2147 4134 1753 4134 
Q 1366 4134 1134 3806 
Q 844 3388 844 2259 
z
" transform="scale(0.015625)"/>
       </defs>
       <use xlink:href="#ArialMT-31"/>
       <use xlink:href="#ArialMT-39" x="55.615234"/>
       <use xlink:href="#ArialMT-32" x="111.230469"/>
       <use xlink:href="#ArialMT-30" x="166.845703"/>
      </g>
     </g>
    </g>
    <g id="xtick_2">
     <g id="line2d_2">
      <g>
       <use xlink:href="#m87f6aefd93" x="152.602597" y="172.8" style="stroke: #000000"/>
      </g>
     </g>
     <g id="text_2">
      <!-- 1940 -->
      <g transform="translate(135.919785 190.536719)scale(0.15 -0.15)">
       <defs>
        <path id="ArialMT-34" d="M 2069 0 
L 2069 1097 
L 81 1097 
L 81 1613 
L 2172 4581 
L 2631 4581 
L 2631 1613 
L 3250 1613 
L 3250 1097 
L 2631 1097 
L 2631 0 
L 2069 0 
z
M 2069 1613 
L 2069 3678 
L 634 1613 
L 2069 1613 
z
" transform="scale(0.015625)"/>
       </defs>
       <use xlink:href="#ArialMT-31"/>
       <use xlink:href="#ArialMT-39" x="55.615234"/>
       <use xlink:href="#ArialMT-34" x="111.230469"/>
       <use xlink:href="#ArialMT-30" x="166.845703"/>
      </g>
     </g>
    </g>
    <g id="xtick_3">
     <g id="line2d_3">
      <g>
       <use xlink:href="#m87f6aefd93" x="212.446753" y="172.8" style="stroke: #000000"/>
      </g>
     </g>
     <g id="text_3">
      <!-- 1960 -->
      <g transform="translate(195.763941 190.536719)scale(0.15 -0.15)">
       <defs>
        <path id="ArialMT-36" d="M 3184 3459 
L 2625 3416 
Q 2550 3747 2413 3897 
Q 2184 4138 1850 4138 
Q 1581 4138 1378 3988 
Q 1113 3794 959 3422 
Q 806 3050 800 2363 
Q 1003 2672 1297 2822 
Q 1591 2972 1913 2972 
Q 2475 2972 2870 2558 
Q 3266 2144 3266 1488 
Q 3266 1056 3080 686 
Q 2894 316 2569 119 
Q 2244 -78 1831 -78 
Q 1128 -78 684 439 
Q 241 956 241 2144 
Q 241 3472 731 4075 
Q 1159 4600 1884 4600 
Q 2425 4600 2770 4297 
Q 3116 3994 3184 3459 
z
M 888 1484 
Q 888 1194 1011 928 
Q 1134 663 1356 523 
Q 1578 384 1822 384 
Q 2178 384 2434 671 
Q 2691 959 2691 1453 
Q 2691 1928 2437 2201 
Q 2184 2475 1800 2475 
Q 1419 2475 1153 2201 
Q 888 1928 888 1484 
z
" transform="scale(0.015625)"/>
       </defs>
       <use xlink:href="#ArialMT-31"/>
       <use xlink:href="#ArialMT-39" x="55.615234"/>
       <use xlink:href="#ArialMT-36" x="111.230469"/>
       <use xlink:href="#ArialMT-30" x="166.845703"/>
      </g>
     </g>
    </g>
    <g id="xtick_4">
     <g id="line2d_4">
      <g>
       <use xlink:href="#m87f6aefd93" x="272.290909" y="172.8" style="stroke: #000000"/>
      </g>
     </g>
     <g id="text_4">
      <!-- 1980 -->
      <g transform="translate(255.608097 190.536719)scale(0.15 -0.15)">
       <defs>
        <path id="ArialMT-38" d="M 1131 2484 
Q 781 2613 612 2850 
Q 444 3088 444 3419 
Q 444 3919 803 4259 
Q 1163 4600 1759 4600 
Q 2359 4600 2725 4251 
Q 3091 3903 3091 3403 
Q 3091 3084 2923 2848 
Q 2756 2613 2416 2484 
Q 2838 2347 3058 2040 
Q 3278 1734 3278 1309 
Q 3278 722 2862 322 
Q 2447 -78 1769 -78 
Q 1091 -78 675 323 
Q 259 725 259 1325 
Q 259 1772 486 2073 
Q 713 2375 1131 2484 
z
M 1019 3438 
Q 1019 3113 1228 2906 
Q 1438 2700 1772 2700 
Q 2097 2700 2305 2904 
Q 2513 3109 2513 3406 
Q 2513 3716 2298 3927 
Q 2084 4138 1766 4138 
Q 1444 4138 1231 3931 
Q 1019 3725 1019 3438 
z
M 838 1322 
Q 838 1081 952 856 
Q 1066 631 1291 507 
Q 1516 384 1775 384 
Q 2178 384 2440 643 
Q 2703 903 2703 1303 
Q 2703 1709 2433 1975 
Q 2163 2241 1756 2241 
Q 1359 2241 1098 1978 
Q 838 1716 838 1322 
z
" transform="scale(0.015625)"/>
       </defs>
       <use xlink:href="#ArialMT-31"/>
       <use xlink:href="#ArialMT-39" x="55.615234"/>
       <use xlink:href="#ArialMT-38" x="111.230469"/>
       <use xlink:href="#ArialMT-30" x="166.845703"/>
      </g>
     </g>
    </g>
    <g id="xtick_5">
     <g id="line2d_5">
      <g>
       <use xlink:href="#m87f6aefd93" x="332.135065" y="172.8" style="stroke: #000000"/>
      </g>
     </g>
     <g id="text_5">
      <!-- 2000 -->
      <g transform="translate(315.452252 190.536719)scale(0.15 -0.15)">
       <use xlink:href="#ArialMT-32"/>
       <use xlink:href="#ArialMT-30" x="55.615234"/>
       <use xlink:href="#ArialMT-30" x="111.230469"/>
       <use xlink:href="#ArialMT-30" x="166.845703"/>
      </g>
     </g>
    </g>
    <g id="xtick_6">
     <g id="line2d_6">
      <g>
       <use xlink:href="#m87f6aefd93" x="391.979221" y="172.8" style="stroke: #000000"/>
      </g>
     </g>
     <g id="text_6">
      <!-- 2020 -->
      <g transform="translate(375.296408 190.536719)scale(0.15 -0.15)">
       <use xlink:href="#ArialMT-32"/>
       <use xlink:href="#ArialMT-30" x="55.615234"/>
       <use xlink:href="#ArialMT-32" x="111.230469"/>
       <use xlink:href="#ArialMT-30" x="166.845703"/>
      </g>
     </g>
    </g>
   </g>
   <g id="matplotlib.axis_2">
    <g id="ytick_1">
     <g id="line2d_7">
      <defs>
       <path id="mb7b2d5adb9" d="M 0 0 
L 3.5 0 
" style="stroke: #000000"/>
      </defs>
      <g>
       <use xlink:href="#mb7b2d5adb9" x="46.08" y="167.867828" style="stroke: #000000"/>
      </g>
     </g>
     <g id="text_7">
      <!-- 0 -->
      <g transform="translate(34.238594 173.236188)scale(0.15 -0.15)">
       <use xlink:href="#ArialMT-30"/>
      </g>
     </g>
    </g>
    <g id="ytick_2">
     <g id="line2d_8">
      <g>
       <use xlink:href="#mb7b2d5adb9" x="46.08" y="114.604636" style="stroke: #000000"/>
      </g>
     </g>
     <g id="text_8">
      <!-- 50 -->
      <g transform="translate(25.897188 119.972995)scale(0.15 -0.15)">
       <defs>
        <path id="ArialMT-35" d="M 266 1200 
L 856 1250 
Q 922 819 1161 601 
Q 1400 384 1738 384 
Q 2144 384 2425 690 
Q 2706 997 2706 1503 
Q 2706 1984 2436 2262 
Q 2166 2541 1728 2541 
Q 1456 2541 1237 2417 
Q 1019 2294 894 2097 
L 366 2166 
L 809 4519 
L 3088 4519 
L 3088 3981 
L 1259 3981 
L 1013 2750 
Q 1425 3038 1878 3038 
Q 2478 3038 2890 2622 
Q 3303 2206 3303 1553 
Q 3303 931 2941 478 
Q 2500 -78 1738 -78 
Q 1113 -78 717 272 
Q 322 622 266 1200 
z
" transform="scale(0.015625)"/>
       </defs>
       <use xlink:href="#ArialMT-35"/>
       <use xlink:href="#ArialMT-30" x="55.615234"/>
      </g>
     </g>
    </g>
    <g id="ytick_3">
     <g id="line2d_9">
      <g>
       <use xlink:href="#mb7b2d5adb9" x="46.08" y="61.341443" style="stroke: #000000"/>
      </g>
     </g>
     <g id="text_9">
      <!-- 100 -->
      <g transform="translate(17.555781 66.709803)scale(0.15 -0.15)">
       <use xlink:href="#ArialMT-31"/>
       <use xlink:href="#ArialMT-30" x="55.615234"/>
       <use xlink:href="#ArialMT-30" x="111.230469"/>
      </g>
     </g>
    </g>
    <g id="ytick_4">
     <g id="line2d_10">
      <defs>
       <path id="mb0004ef48a" d="M 0 0 
L 2 0 
" style="stroke: #000000; stroke-width: 0.6"/>
      </defs>
      <g>
       <use xlink:href="#mb0004ef48a" x="46.08" y="157.21519" style="stroke: #000000; stroke-width: 0.6"/>
      </g>
     </g>
    </g>
    <g id="ytick_5">
     <g id="line2d_11">
      <g>
       <use xlink:href="#mb0004ef48a" x="46.08" y="146.562551" style="stroke: #000000; stroke-width: 0.6"/>
      </g>
     </g>
    </g>
    <g id="ytick_6">
     <g id="line2d_12">
      <g>
       <use xlink:href="#mb0004ef48a" x="46.08" y="135.909913" style="stroke: #000000; stroke-width: 0.6"/>
      </g>
     </g>
    </g>
    <g id="ytick_7">
     <g id="line2d_13">
      <g>
       <use xlink:href="#mb0004ef48a" x="46.08" y="125.257274" style="stroke: #000000; stroke-width: 0.6"/>
      </g>
     </g>
    </g>
    <g id="ytick_8">
     <g id="line2d_14">
      <g>
       <use xlink:href="#mb0004ef48a" x="46.08" y="103.951997" style="stroke: #000000; stroke-width: 0.6"/>
      </g>
     </g>
    </g>
    <g id="ytick_9">
     <g id="line2d_15">
      <g>
       <use xlink:href="#mb0004ef48a" x="46.08" y="93.299359" style="stroke: #000000; stroke-width: 0.6"/>
      </g>
     </g>
    </g>
    <g id="ytick_10">
     <g id="line2d_16">
      <g>
       <use xlink:href="#mb0004ef48a" x="46.08" y="82.64672" style="stroke: #000000; stroke-width: 0.6"/>
      </g>
     </g>
    </g>
    <g id="ytick_11">
     <g id="line2d_17">
      <g>
       <use xlink:href="#mb0004ef48a" x="46.08" y="71.994082" style="stroke: #000000; stroke-width: 0.6"/>
      </g>
     </g>
    </g>
    <g id="ytick_12">
     <g id="line2d_18">
      <g>
       <use xlink:href="#mb0004ef48a" x="46.08" y="50.688805" style="stroke: #000000; stroke-width: 0.6"/>
      </g>
     </g>
    </g>
   </g>
   <g id="line2d_19">
    <path d="M 62.836364 147.308236 
L 65.828571 132.501069 
L 68.820779 128.772645 
L 71.812987 161.156666 
L 74.805195 143.686339 
L 77.797403 142.514549 
L 80.78961 164.991616 
L 83.781818 126.429065 
L 86.774026 138.679599 
L 89.766234 144.858129 
L 92.758442 95.429887 
L 95.750649 123.765905 
L 98.742857 155.404241 
L 101.735065 162.541509 
L 104.727273 157.747822 
L 107.719481 158.38698 
L 110.711688 158.706559 
L 113.703896 159.771823 
L 116.696104 157.428243 
L 119.688312 136.549071 
L 122.680519 165.843827 
L 125.672727 145.284235 
L 128.664935 159.878349 
L 131.657143 151.249712 
L 134.649351 164.458984 
L 137.641558 160.517508 
L 140.633766 149.758343 
L 143.625974 158.493506 
L 146.618182 150.290975 
L 149.61039 113.752425 
L 152.602597 162.328456 
L 155.594805 140.277495 
L 158.587013 155.510768 
L 161.579221 159.878349 
L 164.571429 165.737301 
L 167.563636 166.05688 
L 170.555844 157.854348 
L 173.548052 161.156666 
L 176.54026 116.84169 
L 179.532468 124.937695 
L 182.524675 115.243794 
L 185.516883 165.098142 
L 188.509091 131.435805 
L 191.501299 117.906954 
L 194.493506 152.847608 
L 197.485714 151.569291 
L 200.477922 159.665297 
L 203.47013 166.909091 
L 206.462338 131.222752 
L 209.454545 155.510768 
L 212.446753 135.909913 
L 215.438961 139.318757 
L 218.431169 138.253493 
L 221.423377 136.442545 
L 224.415584 162.861088 
L 227.407792 153.912872 
L 230.4 150.077922 
L 233.392208 157.108663 
L 236.384416 164.672037 
L 239.376623 159.345718 
L 242.368831 49.090909 
L 245.361039 133.779385 
L 248.353247 146.562551 
L 251.345455 145.497288 
L 254.337662 163.074141 
L 257.32987 128.453066 
L 260.322078 162.008877 
L 263.314286 162.541509 
L 266.306494 129.51833 
L 269.298701 159.345718 
L 272.290909 149.225711 
L 275.283117 157.21519 
L 278.275325 149.758343 
L 281.267532 160.410981 
L 284.25974 164.139405 
L 287.251948 153.486766 
L 290.244156 157.21519 
L 293.236364 155.084662 
L 296.228571 156.149926 
L 299.220779 161.476245 
L 302.212987 155.617294 
L 305.205195 99.15831 
L 308.197403 158.813086 
L 311.18961 141.768864 
L 314.181818 158.280454 
L 317.174026 131.648857 
L 320.166234 152.421503 
L 323.158442 159.345718 
L 326.150649 123.126747 
L 329.142857 156.682558 
L 332.135065 134.844649 
L 335.127273 152.421503 
L 338.119481 131.116226 
L 341.111688 117.267795 
L 344.103896 135.377281 
L 347.096104 160.943613 
L 350.088312 157.21519 
L 353.080519 104.484629 
L 356.072727 155.617294 
L 359.064935 147.627815 
L 362.057143 144.964656 
L 365.049351 160.410981 
L 368.041558 150.823607 
L 371.033766 147.627815 
L 374.025974 157.21519 
L 377.018182 161.476245 
L 380.01039 155.084662 
L 383.002597 157.747822 
L 385.994805 159.345718 
L 388.987013 163.074141 
L 391.979221 144.964656 
L 394.971429 151.356239 
L 397.963636 126.85517 
" clip-path="url(#pef569a0332)" style="fill: none; stroke: #000000; stroke-linecap: square"/>
    <defs>
     <path id="m49d37703f5" d="M 0 2 
C 0.530406 2 1.03916 1.789267 1.414214 1.414214 
C 1.789267 1.03916 2 0.530406 2 0 
C 2 -0.530406 1.789267 -1.03916 1.414214 -1.414214 
C 1.03916 -1.789267 0.530406 -2 0 -2 
C -0.530406 -2 -1.03916 -1.789267 -1.414214 -1.414214 
C -1.789267 -1.03916 -2 -0.530406 -2 0 
C -2 0.530406 -1.789267 1.03916 -1.414214 1.414214 
C -1.03916 1.789267 -0.530406 2 0 2 
z
" style="stroke: #000000"/>
    </defs>
    <g clip-path="url(#pef569a0332)">
     <use xlink:href="#m49d37703f5" x="62.836364" y="147.308236" style="stroke: #000000"/>
     <use xlink:href="#m49d37703f5" x="65.828571" y="132.501069" style="stroke: #000000"/>
     <use xlink:href="#m49d37703f5" x="68.820779" y="128.772645" style="stroke: #000000"/>
     <use xlink:href="#m49d37703f5" x="71.812987" y="161.156666" style="stroke: #000000"/>
     <use xlink:href="#m49d37703f5" x="74.805195" y="143.686339" style="stroke: #000000"/>
     <use xlink:href="#m49d37703f5" x="77.797403" y="142.514549" style="stroke: #000000"/>
     <use xlink:href="#m49d37703f5" x="80.78961" y="164.991616" style="stroke: #000000"/>
     <use xlink:href="#m49d37703f5" x="83.781818" y="126.429065" style="stroke: #000000"/>
     <use xlink:href="#m49d37703f5" x="86.774026" y="138.679599" style="stroke: #000000"/>
     <use xlink:href="#m49d37703f5" x="89.766234" y="144.858129" style="stroke: #000000"/>
     <use xlink:href="#m49d37703f5" x="92.758442" y="95.429887" style="stroke: #000000"/>
     <use xlink:href="#m49d37703f5" x="95.750649" y="123.765905" style="stroke: #000000"/>
     <use xlink:href="#m49d37703f5" x="98.742857" y="155.404241" style="stroke: #000000"/>
     <use xlink:href="#m49d37703f5" x="101.735065" y="162.541509" style="stroke: #000000"/>
     <use xlink:href="#m49d37703f5" x="104.727273" y="157.747822" style="stroke: #000000"/>
     <use xlink:href="#m49d37703f5" x="107.719481" y="158.38698" style="stroke: #000000"/>
     <use xlink:href="#m49d37703f5" x="110.711688" y="158.706559" style="stroke: #000000"/>
     <use xlink:href="#m49d37703f5" x="113.703896" y="159.771823" style="stroke: #000000"/>
     <use xlink:href="#m49d37703f5" x="116.696104" y="157.428243" style="stroke: #000000"/>
     <use xlink:href="#m49d37703f5" x="119.688312" y="136.549071" style="stroke: #000000"/>
     <use xlink:href="#m49d37703f5" x="122.680519" y="165.843827" style="stroke: #000000"/>
     <use xlink:href="#m49d37703f5" x="125.672727" y="145.284235" style="stroke: #000000"/>
     <use xlink:href="#m49d37703f5" x="128.664935" y="159.878349" style="stroke: #000000"/>
     <use xlink:href="#m49d37703f5" x="131.657143" y="151.249712" style="stroke: #000000"/>
     <use xlink:href="#m49d37703f5" x="134.649351" y="164.458984" style="stroke: #000000"/>
     <use xlink:href="#m49d37703f5" x="137.641558" y="160.517508" style="stroke: #000000"/>
     <use xlink:href="#m49d37703f5" x="140.633766" y="149.758343" style="stroke: #000000"/>
     <use xlink:href="#m49d37703f5" x="143.625974" y="158.493506" style="stroke: #000000"/>
     <use xlink:href="#m49d37703f5" x="146.618182" y="150.290975" style="stroke: #000000"/>
     <use xlink:href="#m49d37703f5" x="149.61039" y="113.752425" style="stroke: #000000"/>
     <use xlink:href="#m49d37703f5" x="152.602597" y="162.328456" style="stroke: #000000"/>
     <use xlink:href="#m49d37703f5" x="155.594805" y="140.277495" style="stroke: #000000"/>
     <use xlink:href="#m49d37703f5" x="158.587013" y="155.510768" style="stroke: #000000"/>
     <use xlink:href="#m49d37703f5" x="161.579221" y="159.878349" style="stroke: #000000"/>
     <use xlink:href="#m49d37703f5" x="164.571429" y="165.737301" style="stroke: #000000"/>
     <use xlink:href="#m49d37703f5" x="167.563636" y="166.05688" style="stroke: #000000"/>
     <use xlink:href="#m49d37703f5" x="170.555844" y="157.854348" style="stroke: #000000"/>
     <use xlink:href="#m49d37703f5" x="173.548052" y="161.156666" style="stroke: #000000"/>
     <use xlink:href="#m49d37703f5" x="176.54026" y="116.84169" style="stroke: #000000"/>
     <use xlink:href="#m49d37703f5" x="179.532468" y="124.937695" style="stroke: #000000"/>
     <use xlink:href="#m49d37703f5" x="182.524675" y="115.243794" style="stroke: #000000"/>
     <use xlink:href="#m49d37703f5" x="185.516883" y="165.098142" style="stroke: #000000"/>
     <use xlink:href="#m49d37703f5" x="188.509091" y="131.435805" style="stroke: #000000"/>
     <use xlink:href="#m49d37703f5" x="191.501299" y="117.906954" style="stroke: #000000"/>
     <use xlink:href="#m49d37703f5" x="194.493506" y="152.847608" style="stroke: #000000"/>
     <use xlink:href="#m49d37703f5" x="197.485714" y="151.569291" style="stroke: #000000"/>
     <use xlink:href="#m49d37703f5" x="200.477922" y="159.665297" style="stroke: #000000"/>
     <use xlink:href="#m49d37703f5" x="203.47013" y="166.909091" style="stroke: #000000"/>
     <use xlink:href="#m49d37703f5" x="206.462338" y="131.222752" style="stroke: #000000"/>
     <use xlink:href="#m49d37703f5" x="209.454545" y="155.510768" style="stroke: #000000"/>
     <use xlink:href="#m49d37703f5" x="212.446753" y="135.909913" style="stroke: #000000"/>
     <use xlink:href="#m49d37703f5" x="215.438961" y="139.318757" style="stroke: #000000"/>
     <use xlink:href="#m49d37703f5" x="218.431169" y="138.253493" style="stroke: #000000"/>
     <use xlink:href="#m49d37703f5" x="221.423377" y="136.442545" style="stroke: #000000"/>
     <use xlink:href="#m49d37703f5" x="224.415584" y="162.861088" style="stroke: #000000"/>
     <use xlink:href="#m49d37703f5" x="227.407792" y="153.912872" style="stroke: #000000"/>
     <use xlink:href="#m49d37703f5" x="230.4" y="150.077922" style="stroke: #000000"/>
     <use xlink:href="#m49d37703f5" x="233.392208" y="157.108663" style="stroke: #000000"/>
     <use xlink:href="#m49d37703f5" x="236.384416" y="164.672037" style="stroke: #000000"/>
     <use xlink:href="#m49d37703f5" x="239.376623" y="159.345718" style="stroke: #000000"/>
     <use xlink:href="#m49d37703f5" x="242.368831" y="49.090909" style="stroke: #000000"/>
     <use xlink:href="#m49d37703f5" x="245.361039" y="133.779385" style="stroke: #000000"/>
     <use xlink:href="#m49d37703f5" x="248.353247" y="146.562551" style="stroke: #000000"/>
     <use xlink:href="#m49d37703f5" x="251.345455" y="145.497288" style="stroke: #000000"/>
     <use xlink:href="#m49d37703f5" x="254.337662" y="163.074141" style="stroke: #000000"/>
     <use xlink:href="#m49d37703f5" x="257.32987" y="128.453066" style="stroke: #000000"/>
     <use xlink:href="#m49d37703f5" x="260.322078" y="162.008877" style="stroke: #000000"/>
     <use xlink:href="#m49d37703f5" x="263.314286" y="162.541509" style="stroke: #000000"/>
     <use xlink:href="#m49d37703f5" x="266.306494" y="129.51833" style="stroke: #000000"/>
     <use xlink:href="#m49d37703f5" x="269.298701" y="159.345718" style="stroke: #000000"/>
     <use xlink:href="#m49d37703f5" x="272.290909" y="149.225711" style="stroke: #000000"/>
     <use xlink:href="#m49d37703f5" x="275.283117" y="157.21519" style="stroke: #000000"/>
     <use xlink:href="#m49d37703f5" x="278.275325" y="149.758343" style="stroke: #000000"/>
     <use xlink:href="#m49d37703f5" x="281.267532" y="160.410981" style="stroke: #000000"/>
     <use xlink:href="#m49d37703f5" x="284.25974" y="164.139405" style="stroke: #000000"/>
     <use xlink:href="#m49d37703f5" x="287.251948" y="153.486766" style="stroke: #000000"/>
     <use xlink:href="#m49d37703f5" x="290.244156" y="157.21519" style="stroke: #000000"/>
     <use xlink:href="#m49d37703f5" x="293.236364" y="155.084662" style="stroke: #000000"/>
     <use xlink:href="#m49d37703f5" x="296.228571" y="156.149926" style="stroke: #000000"/>
     <use xlink:href="#m49d37703f5" x="299.220779" y="161.476245" style="stroke: #000000"/>
     <use xlink:href="#m49d37703f5" x="302.212987" y="155.617294" style="stroke: #000000"/>
     <use xlink:href="#m49d37703f5" x="305.205195" y="99.15831" style="stroke: #000000"/>
     <use xlink:href="#m49d37703f5" x="308.197403" y="158.813086" style="stroke: #000000"/>
     <use xlink:href="#m49d37703f5" x="311.18961" y="141.768864" style="stroke: #000000"/>
     <use xlink:href="#m49d37703f5" x="314.181818" y="158.280454" style="stroke: #000000"/>
     <use xlink:href="#m49d37703f5" x="317.174026" y="131.648857" style="stroke: #000000"/>
     <use xlink:href="#m49d37703f5" x="320.166234" y="152.421503" style="stroke: #000000"/>
     <use xlink:href="#m49d37703f5" x="323.158442" y="159.345718" style="stroke: #000000"/>
     <use xlink:href="#m49d37703f5" x="326.150649" y="123.126747" style="stroke: #000000"/>
     <use xlink:href="#m49d37703f5" x="329.142857" y="156.682558" style="stroke: #000000"/>
     <use xlink:href="#m49d37703f5" x="332.135065" y="134.844649" style="stroke: #000000"/>
     <use xlink:href="#m49d37703f5" x="335.127273" y="152.421503" style="stroke: #000000"/>
     <use xlink:href="#m49d37703f5" x="338.119481" y="131.116226" style="stroke: #000000"/>
     <use xlink:href="#m49d37703f5" x="341.111688" y="117.267795" style="stroke: #000000"/>
     <use xlink:href="#m49d37703f5" x="344.103896" y="135.377281" style="stroke: #000000"/>
     <use xlink:href="#m49d37703f5" x="347.096104" y="160.943613" style="stroke: #000000"/>
     <use xlink:href="#m49d37703f5" x="350.088312" y="157.21519" style="stroke: #000000"/>
     <use xlink:href="#m49d37703f5" x="353.080519" y="104.484629" style="stroke: #000000"/>
     <use xlink:href="#m49d37703f5" x="356.072727" y="155.617294" style="stroke: #000000"/>
     <use xlink:href="#m49d37703f5" x="359.064935" y="147.627815" style="stroke: #000000"/>
     <use xlink:href="#m49d37703f5" x="362.057143" y="144.964656" style="stroke: #000000"/>
     <use xlink:href="#m49d37703f5" x="365.049351" y="160.410981" style="stroke: #000000"/>
     <use xlink:href="#m49d37703f5" x="368.041558" y="150.823607" style="stroke: #000000"/>
     <use xlink:href="#m49d37703f5" x="371.033766" y="147.627815" style="stroke: #000000"/>
     <use xlink:href="#m49d37703f5" x="374.025974" y="157.21519" style="stroke: #000000"/>
     <use xlink:href="#m49d37703f5" x="377.018182" y="161.476245" style="stroke: #000000"/>
     <use xlink:href="#m49d37703f5" x="380.01039" y="155.084662" style="stroke: #000000"/>
     <use xlink:href="#m49d37703f5" x="383.002597" y="157.747822" style="stroke: #000000"/>
     <use xlink:href="#m49d37703f5" x="385.994805" y="159.345718" style="stroke: #000000"/>
     <use xlink:href="#m49d37703f5" x="388.987013" y="163.074141" style="stroke: #000000"/>
     <use xlink:href="#m49d37703f5" x="391.979221" y="144.964656" style="stroke: #000000"/>
     <use xlink:href="#m49d37703f5" x="394.971429" y="151.356239" style="stroke: #000000"/>
     <use xlink:href="#m49d37703f5" x="397.963636" y="126.85517" style="stroke: #000000"/>
    </g>
   </g>
   <g id="line2d_20">
    <path d="M 62.836364 146.412908 
L 66.221488 146.42831 
L 69.606612 146.443713 
L 72.991736 146.459115 
L 76.37686 146.474517 
L 79.761983 146.489919 
L 83.147107 146.505321 
L 86.532231 146.520723 
L 89.917355 146.536125 
L 93.302479 146.551528 
L 96.687603 146.56693 
L 100.072727 146.582332 
L 103.457851 146.597734 
L 106.842975 146.613136 
L 110.228099 146.628538 
L 113.613223 146.64394 
L 116.998347 146.659342 
L 120.383471 146.674745 
L 123.768595 146.690147 
L 127.153719 146.705549 
L 130.538843 146.720951 
L 133.923967 146.736353 
L 137.309091 146.751755 
L 140.694215 146.767157 
L 144.079339 146.782559 
L 147.464463 146.797962 
L 150.849587 146.813364 
L 154.234711 146.828766 
L 157.619835 146.844168 
L 161.004959 146.85957 
L 164.390083 146.874972 
L 167.775207 146.890374 
L 171.160331 146.905776 
L 174.545455 146.921179 
L 177.930579 146.936581 
L 181.315702 146.951983 
L 184.700826 146.967385 
L 188.08595 146.982787 
L 191.471074 146.998189 
L 194.856198 147.013591 
L 198.241322 147.028994 
L 201.626446 147.044396 
L 205.01157 147.059798 
L 208.396694 147.0752 
L 211.781818 147.090602 
L 215.166942 147.106004 
L 218.552066 147.121406 
L 221.93719 147.136808 
L 225.322314 147.152211 
L 228.707438 147.167613 
L 232.092562 147.183015 
L 235.477686 147.198417 
L 238.86281 147.213819 
L 242.247934 147.229221 
L 245.633058 147.244623 
L 249.018182 147.260025 
L 252.403306 147.275428 
L 255.78843 147.29083 
L 259.173554 147.306232 
L 262.558678 147.321634 
L 265.943802 147.337036 
L 269.328926 147.352438 
L 272.71405 147.36784 
L 276.099174 147.383243 
L 279.484298 147.398645 
L 282.869421 147.414047 
L 286.254545 147.429449 
L 289.639669 147.444851 
L 293.024793 147.460253 
L 296.409917 147.475655 
L 299.795041 147.491057 
L 303.180165 147.50646 
L 306.565289 147.521862 
L 309.950413 147.537264 
L 313.335537 147.552666 
L 316.720661 147.568068 
L 320.105785 147.58347 
L 323.490909 147.598872 
L 326.876033 147.614274 
L 330.261157 147.629677 
L 333.646281 147.645079 
L 337.031405 147.660481 
L 340.416529 147.675883 
L 343.801653 147.691285 
L 347.186777 147.706687 
L 350.571901 147.722089 
L 353.957025 147.737491 
L 357.342149 147.752894 
L 360.727273 147.768296 
L 364.112397 147.783698 
L 367.497521 147.7991 
L 370.882645 147.814502 
L 374.267769 147.829904 
L 377.652893 147.845306 
L 381.038017 147.860709 
L 384.42314 147.876111 
L 387.808264 147.891513 
L 391.193388 147.906915 
L 394.578512 147.922317 
L 397.963636 147.937719 
" clip-path="url(#pef569a0332)" style="fill: none; stroke: #000000; stroke-width: 1.5; stroke-linecap: square"/>
   </g>
   <g id="patch_3">
    <path d="M 46.08 172.8 
L 46.08 43.2 
" style="fill: none; stroke: #000000; stroke-linejoin: miter; stroke-linecap: square"/>
   </g>
   <g id="patch_4">
    <path d="M 414.72 172.8 
L 414.72 43.2 
" style="fill: none; stroke: #000000; stroke-linejoin: miter; stroke-linecap: square"/>
   </g>
   <g id="patch_5">
    <path d="M 46.08 172.8 
L 414.72 172.8 
" style="fill: none; stroke: #000000; stroke-linejoin: miter; stroke-linecap: square"/>
   </g>
   <g id="patch_6">
    <path d="M 46.08 43.2 
L 414.72 43.2 
" style="fill: none; stroke: #000000; stroke-linejoin: miter; stroke-linecap: square"/>
   </g>
   <g id="text_10">
    <!-- Obihiro -->
    <g transform="translate(198.9 37.2)scale(0.18 -0.18)">
     <defs>
      <path id="MS-Gothic-4f" d="M 2425 4600 
Q 2975 4050 2975 2500 
Q 2975 925 2425 375 
Q 2100 50 1600 50 
Q 1075 50 750 375 
Q 200 925 200 2500 
Q 200 4050 750 4600 
Q 1075 4925 1600 4925 
Q 2100 4925 2425 4600 
z
M 1100 4225 
Q 775 3900 775 2500 
Q 775 1075 1100 750 
Q 1325 525 1600 525 
Q 1850 525 2075 750 
Q 2400 1075 2400 2500 
Q 2400 3900 2075 4225 
Q 1850 4450 1600 4450 
Q 1325 4450 1100 4225 
z
" transform="scale(0.015625)"/>
      <path id="MS-Gothic-62" d="M 825 2925 
Q 1225 3475 1750 3475 
Q 2150 3475 2450 3175 
Q 2850 2775 2850 1825 
Q 2850 825 2450 425 
Q 2075 50 1675 50 
Q 1200 50 825 475 
L 825 50 
L 325 50 
L 325 4925 
L 825 4925 
L 825 2925 
z
M 825 1675 
Q 825 950 1075 700 
Q 1300 475 1550 475 
Q 1850 475 2025 650 
Q 2350 975 2350 1775 
Q 2350 2550 2050 2850 
Q 1875 3025 1600 3025 
Q 1325 3025 1075 2775 
Q 825 2525 825 1675 
z
" transform="scale(0.015625)"/>
      <path id="MS-Gothic-69" d="M 1825 50 
L 1325 50 
L 1325 3475 
L 1825 3475 
L 1825 50 
z
M 1825 4925 
L 1825 4275 
L 1325 4275 
L 1325 4925 
L 1825 4925 
z
" transform="scale(0.015625)"/>
      <path id="MS-Gothic-68" d="M 850 2875 
Q 1000 3075 1100 3175 
Q 1400 3475 1900 3475 
Q 2325 3475 2575 3225 
Q 2800 3000 2800 2600 
L 2800 50 
L 2300 50 
L 2300 2425 
Q 2300 2750 2125 2925 
Q 1975 3075 1725 3075 
Q 1475 3075 1200 2800 
Q 850 2450 850 1875 
L 850 50 
L 350 50 
L 350 4925 
L 850 4925 
L 850 2875 
z
" transform="scale(0.015625)"/>
      <path id="MS-Gothic-72" d="M 1175 2750 
Q 1725 3600 2525 3475 
L 2525 2875 
Q 1600 3050 1175 1900 
L 1175 50 
L 675 50 
L 675 3475 
L 1175 3475 
L 1175 2750 
z
" transform="scale(0.015625)"/>
      <path id="MS-Gothic-6f" d="M 650 3075 
Q 1050 3475 1600 3475 
Q 2125 3475 2525 3075 
Q 2925 2675 2925 1750 
Q 2925 850 2525 450 
Q 2125 50 1600 50 
Q 1050 50 650 450 
Q 250 850 250 1750 
Q 250 2675 650 3075 
z
M 1600 3025 
Q 1300 3025 1075 2800 
Q 800 2525 800 1750 
Q 800 1000 1075 725 
Q 1300 500 1600 500 
Q 1875 500 2100 725 
Q 2375 1000 2375 1750 
Q 2375 2525 2100 2800 
Q 1875 3025 1600 3025 
z
" transform="scale(0.015625)"/>
     </defs>
     <use xlink:href="#MS-Gothic-4f"/>
     <use xlink:href="#MS-Gothic-62" x="50"/>
     <use xlink:href="#MS-Gothic-69" x="100"/>
     <use xlink:href="#MS-Gothic-68" x="150"/>
     <use xlink:href="#MS-Gothic-69" x="200"/>
     <use xlink:href="#MS-Gothic-72" x="250"/>
     <use xlink:href="#MS-Gothic-6f" x="300"/>
    </g>
   </g>
  </g>
 </g>
 <defs>
  <clipPath id="pef569a0332">
   <rect x="46.08" y="43.2" width="368.64" height="129.6"/>
  </clipPath>
 </defs>
</svg>
