<?xml version="1.0" encoding="utf-8" standalone="no"?>
<!DOCTYPE svg PUBLIC "-//W3C//DTD SVG 1.1//EN"
  "http://www.w3.org/Graphics/SVG/1.1/DTD/svg11.dtd">
<svg xmlns:xlink="http://www.w3.org/1999/xlink" width="460.8pt" height="432pt" viewBox="0 0 460.8 432" xmlns="http://www.w3.org/2000/svg" version="1.1">
 <metadata>
  <rdf:RDF xmlns:dc="http://purl.org/dc/elements/1.1/" xmlns:cc="http://creativecommons.org/ns#" xmlns:rdf="http://www.w3.org/1999/02/22-rdf-syntax-ns#">
   <cc:Work>
    <dc:type rdf:resource="http://purl.org/dc/dcmitype/StillImage"/>
    <dc:date>2022-08-12T11:38:01.497905</dc:date>
    <dc:format>image/svg+xml</dc:format>
    <dc:creator>
     <cc:Agent>
      <dc:title>Matplotlib v3.5.2, https://matplotlib.org/</dc:title>
     </cc:Agent>
    </dc:creator>
   </cc:Work>
  </rdf:RDF>
 </metadata>
 <defs>
  <style type="text/css">*{stroke-linejoin: round; stroke-linecap: butt}</style>
 </defs>
 <g id="figure_1">
  <g id="patch_1">
   <path d="M 0 432 
L 460.8 432 
L 460.8 0 
L 0 0 
z
" style="fill: #ffffff"/>
  </g>
  <g id="axes_1">
   <g id="patch_2">
    <path d="M 46.08 172.8 
L 414.72 172.8 
L 414.72 43.2 
L 46.08 43.2 
z
" style="fill: #ffffff"/>
   </g>
   <g id="PathCollection_1">
    <defs>
     <path id="mb5009a4600" style="stroke: #000000; stroke-opacity: 0.8"/>
    </defs>
    <g clip-path="url(#p395b142a37)">
     <use xlink:href="#mb5009a4600" x="62.836364" y="138.804215" style="fill-opacity: 0.8; stroke: #000000; stroke-opacity: 0.8"/>
     <use xlink:href="#mb5009a4600" x="65.828571" y="118.003431" style="fill-opacity: 0.8; stroke: #000000; stroke-opacity: 0.8"/>
     <use xlink:href="#mb5009a4600" x="68.820779" y="140.392061" style="fill-opacity: 0.8; stroke: #000000; stroke-opacity: 0.8"/>
     <use xlink:href="#mb5009a4600" x="71.812987" y="155.476599" style="fill-opacity: 0.8; stroke: #000000; stroke-opacity: 0.8"/>
     <use xlink:href="#mb5009a4600" x="74.805195" y="152.618476" style="fill-opacity: 0.8; stroke: #000000; stroke-opacity: 0.8"/>
     <use xlink:href="#mb5009a4600" x="77.797403" y="139.280568" style="fill-opacity: 0.8; stroke: #000000; stroke-opacity: 0.8"/>
     <use xlink:href="#mb5009a4600" x="80.78961" y="162.145553" style="fill-opacity: 0.8; stroke: #000000; stroke-opacity: 0.8"/>
     <use xlink:href="#mb5009a4600" x="83.781818" y="68.145062" style="fill-opacity: 0.8; stroke: #000000; stroke-opacity: 0.8"/>
     <use xlink:href="#mb5009a4600" x="86.774026" y="142.297476" style="fill-opacity: 0.8; stroke: #000000; stroke-opacity: 0.8"/>
     <use xlink:href="#mb5009a4600" x="89.766234" y="148.648861" style="fill-opacity: 0.8; stroke: #000000; stroke-opacity: 0.8"/>
     <use xlink:href="#mb5009a4600" x="92.758442" y="56.871355" style="fill-opacity: 0.8; stroke: #000000; stroke-opacity: 0.8"/>
     <use xlink:href="#mb5009a4600" x="95.750649" y="102.760108" style="fill-opacity: 0.8; stroke: #000000; stroke-opacity: 0.8"/>
     <use xlink:href="#mb5009a4600" x="98.742857" y="143.885322" style="fill-opacity: 0.8; stroke: #000000; stroke-opacity: 0.8"/>
     <use xlink:href="#mb5009a4600" x="101.735065" y="161.35163" style="fill-opacity: 0.8; stroke: #000000; stroke-opacity: 0.8"/>
     <use xlink:href="#mb5009a4600" x="104.727273" y="139.915707" style="fill-opacity: 0.8; stroke: #000000; stroke-opacity: 0.8"/>
     <use xlink:href="#mb5009a4600" x="107.719481" y="158.811076" style="fill-opacity: 0.8; stroke: #000000; stroke-opacity: 0.8"/>
     <use xlink:href="#mb5009a4600" x="110.711688" y="151.506984" style="fill-opacity: 0.8; stroke: #000000; stroke-opacity: 0.8"/>
     <use xlink:href="#mb5009a4600" x="113.703896" y="149.442784" style="fill-opacity: 0.8; stroke: #000000; stroke-opacity: 0.8"/>
     <use xlink:href="#mb5009a4600" x="116.696104" y="128.483215" style="fill-opacity: 0.8; stroke: #000000; stroke-opacity: 0.8"/>
     <use xlink:href="#mb5009a4600" x="119.688312" y="138.169076" style="fill-opacity: 0.8; stroke: #000000; stroke-opacity: 0.8"/>
     <use xlink:href="#mb5009a4600" x="122.680519" y="163.09826" style="fill-opacity: 0.8; stroke: #000000; stroke-opacity: 0.8"/>
     <use xlink:href="#mb5009a4600" x="125.672727" y="150.077922" style="fill-opacity: 0.8; stroke: #000000; stroke-opacity: 0.8"/>
     <use xlink:href="#mb5009a4600" x="128.664935" y="118.479784" style="fill-opacity: 0.8; stroke: #000000; stroke-opacity: 0.8"/>
     <use xlink:href="#mb5009a4600" x="131.657143" y="125.625092" style="fill-opacity: 0.8; stroke: #000000; stroke-opacity: 0.8"/>
     <use xlink:href="#mb5009a4600" x="134.649351" y="164.050968" style="fill-opacity: 0.8; stroke: #000000; stroke-opacity: 0.8"/>
     <use xlink:href="#mb5009a4600" x="137.641558" y="159.922568" style="fill-opacity: 0.8; stroke: #000000; stroke-opacity: 0.8"/>
     <use xlink:href="#mb5009a4600" x="140.633766" y="149.125214" style="fill-opacity: 0.8; stroke: #000000; stroke-opacity: 0.8"/>
     <use xlink:href="#mb5009a4600" x="143.625974" y="153.253614" style="fill-opacity: 0.8; stroke: #000000; stroke-opacity: 0.8"/>
     <use xlink:href="#mb5009a4600" x="146.618182" y="147.854938" style="fill-opacity: 0.8; stroke: #000000; stroke-opacity: 0.8"/>
     <use xlink:href="#mb5009a4600" x="149.61039" y="95.6148" style="fill-opacity: 0.8; stroke: #000000; stroke-opacity: 0.8"/>
     <use xlink:href="#mb5009a4600" x="152.602597" y="158.652291" style="fill-opacity: 0.8; stroke: #000000; stroke-opacity: 0.8"/>
     <use xlink:href="#mb5009a4600" x="155.594805" y="145.473168" style="fill-opacity: 0.8; stroke: #000000; stroke-opacity: 0.8"/>
     <use xlink:href="#mb5009a4600" x="158.587013" y="129.118353" style="fill-opacity: 0.8; stroke: #000000; stroke-opacity: 0.8"/>
     <use xlink:href="#mb5009a4600" x="161.579221" y="105.141877" style="fill-opacity: 0.8; stroke: #000000; stroke-opacity: 0.8"/>
     <use xlink:href="#mb5009a4600" x="164.571429" y="143.567753" style="fill-opacity: 0.8; stroke: #000000; stroke-opacity: 0.8"/>
     <use xlink:href="#mb5009a4600" x="167.563636" y="160.557706" style="fill-opacity: 0.8; stroke: #000000; stroke-opacity: 0.8"/>
     <use xlink:href="#mb5009a4600" x="170.555844" y="143.885322" style="fill-opacity: 0.8; stroke: #000000; stroke-opacity: 0.8"/>
     <use xlink:href="#mb5009a4600" x="173.548052" y="148.807645" style="fill-opacity: 0.8; stroke: #000000; stroke-opacity: 0.8"/>
     <use xlink:href="#mb5009a4600" x="176.54026" y="138.64543" style="fill-opacity: 0.8; stroke: #000000; stroke-opacity: 0.8"/>
     <use xlink:href="#mb5009a4600" x="179.532468" y="88.945847" style="fill-opacity: 0.8; stroke: #000000; stroke-opacity: 0.8"/>
     <use xlink:href="#mb5009a4600" x="182.524675" y="97.520216" style="fill-opacity: 0.8; stroke: #000000; stroke-opacity: 0.8"/>
     <use xlink:href="#mb5009a4600" x="185.516883" y="133.881892" style="fill-opacity: 0.8; stroke: #000000; stroke-opacity: 0.8"/>
     <use xlink:href="#mb5009a4600" x="188.509091" y="128.483215" style="fill-opacity: 0.8; stroke: #000000; stroke-opacity: 0.8"/>
     <use xlink:href="#mb5009a4600" x="191.501299" y="49.090909" style="fill-opacity: 0.8; stroke: #000000; stroke-opacity: 0.8"/>
     <use xlink:href="#mb5009a4600" x="194.493506" y="151.506984" style="fill-opacity: 0.8; stroke: #000000; stroke-opacity: 0.8"/>
     <use xlink:href="#mb5009a4600" x="197.485714" y="141.821122" style="fill-opacity: 0.8; stroke: #000000; stroke-opacity: 0.8"/>
     <use xlink:href="#mb5009a4600" x="200.477922" y="130.864984" style="fill-opacity: 0.8; stroke: #000000; stroke-opacity: 0.8"/>
     <use xlink:href="#mb5009a4600" x="203.47013" y="153.412399" style="fill-opacity: 0.8; stroke: #000000; stroke-opacity: 0.8"/>
     <use xlink:href="#mb5009a4600" x="206.462338" y="134.358246" style="fill-opacity: 0.8; stroke: #000000; stroke-opacity: 0.8"/>
     <use xlink:href="#mb5009a4600" x="209.454545" y="158.175937" style="fill-opacity: 0.8; stroke: #000000; stroke-opacity: 0.8"/>
     <use xlink:href="#mb5009a4600" x="212.446753" y="64.175447" style="fill-opacity: 0.8; stroke: #000000; stroke-opacity: 0.8"/>
     <use xlink:href="#mb5009a4600" x="215.438961" y="110.0642" style="fill-opacity: 0.8; stroke: #000000; stroke-opacity: 0.8"/>
     <use xlink:href="#mb5009a4600" x="218.431169" y="103.712815" style="fill-opacity: 0.8; stroke: #000000; stroke-opacity: 0.8"/>
     <use xlink:href="#mb5009a4600" x="221.423377" y="146.108307" style="fill-opacity: 0.8; stroke: #000000; stroke-opacity: 0.8"/>
     <use xlink:href="#mb5009a4600" x="224.415584" y="160.557706" style="fill-opacity: 0.8; stroke: #000000; stroke-opacity: 0.8"/>
     <use xlink:href="#mb5009a4600" x="227.407792" y="115.145308" style="fill-opacity: 0.8; stroke: #000000; stroke-opacity: 0.8"/>
     <use xlink:href="#mb5009a4600" x="230.4" y="139.280568" style="fill-opacity: 0.8; stroke: #000000; stroke-opacity: 0.8"/>
     <use xlink:href="#mb5009a4600" x="233.392208" y="161.669199" style="fill-opacity: 0.8; stroke: #000000; stroke-opacity: 0.8"/>
     <use xlink:href="#mb5009a4600" x="236.384416" y="161.35163" style="fill-opacity: 0.8; stroke: #000000; stroke-opacity: 0.8"/>
     <use xlink:href="#mb5009a4600" x="239.376623" y="160.557706" style="fill-opacity: 0.8; stroke: #000000; stroke-opacity: 0.8"/>
     <use xlink:href="#mb5009a4600" x="242.368831" y="90.692477" style="fill-opacity: 0.8; stroke: #000000; stroke-opacity: 0.8"/>
     <use xlink:href="#mb5009a4600" x="245.361039" y="116.098015" style="fill-opacity: 0.8; stroke: #000000; stroke-opacity: 0.8"/>
     <use xlink:href="#mb5009a4600" x="248.353247" y="135.152169" style="fill-opacity: 0.8; stroke: #000000; stroke-opacity: 0.8"/>
     <use xlink:href="#mb5009a4600" x="251.345455" y="137.533938" style="fill-opacity: 0.8; stroke: #000000; stroke-opacity: 0.8"/>
     <use xlink:href="#mb5009a4600" x="254.337662" y="152.618476" style="fill-opacity: 0.8; stroke: #000000; stroke-opacity: 0.8"/>
     <use xlink:href="#mb5009a4600" x="257.32987" y="54.96594" style="fill-opacity: 0.8; stroke: #000000; stroke-opacity: 0.8"/>
     <use xlink:href="#mb5009a4600" x="260.322078" y="162.939476" style="fill-opacity: 0.8; stroke: #000000; stroke-opacity: 0.8"/>
     <use xlink:href="#mb5009a4600" x="263.314286" y="158.175937" style="fill-opacity: 0.8; stroke: #000000; stroke-opacity: 0.8"/>
     <use xlink:href="#mb5009a4600" x="266.306494" y="117.685861" style="fill-opacity: 0.8; stroke: #000000; stroke-opacity: 0.8"/>
     <use xlink:href="#mb5009a4600" x="269.298701" y="160.557706" style="fill-opacity: 0.8; stroke: #000000; stroke-opacity: 0.8"/>
     <use xlink:href="#mb5009a4600" x="272.290909" y="142.297476" style="fill-opacity: 0.8; stroke: #000000; stroke-opacity: 0.8"/>
     <use xlink:href="#mb5009a4600" x="275.283117" y="141.503553" style="fill-opacity: 0.8; stroke: #000000; stroke-opacity: 0.8"/>
     <use xlink:href="#mb5009a4600" x="278.275325" y="140.70963" style="fill-opacity: 0.8; stroke: #000000; stroke-opacity: 0.8"/>
     <use xlink:href="#mb5009a4600" x="281.267532" y="149.442784" style="fill-opacity: 0.8; stroke: #000000; stroke-opacity: 0.8"/>
     <use xlink:href="#mb5009a4600" x="284.25974" y="155.000245" style="fill-opacity: 0.8; stroke: #000000; stroke-opacity: 0.8"/>
     <use xlink:href="#mb5009a4600" x="287.251948" y="147.854938" style="fill-opacity: 0.8; stroke: #000000; stroke-opacity: 0.8"/>
     <use xlink:href="#mb5009a4600" x="290.244156" y="139.915707" style="fill-opacity: 0.8; stroke: #000000; stroke-opacity: 0.8"/>
     <use xlink:href="#mb5009a4600" x="293.236364" y="129.594707" style="fill-opacity: 0.8; stroke: #000000; stroke-opacity: 0.8"/>
     <use xlink:href="#mb5009a4600" x="296.228571" y="149.442784" style="fill-opacity: 0.8; stroke: #000000; stroke-opacity: 0.8"/>
     <use xlink:href="#mb5009a4600" x="299.220779" y="156.588091" style="fill-opacity: 0.8; stroke: #000000; stroke-opacity: 0.8"/>
     <use xlink:href="#mb5009a4600" x="302.212987" y="151.824553" style="fill-opacity: 0.8; stroke: #000000; stroke-opacity: 0.8"/>
     <use xlink:href="#mb5009a4600" x="305.205195" y="127.212938" style="fill-opacity: 0.8; stroke: #000000; stroke-opacity: 0.8"/>
     <use xlink:href="#mb5009a4600" x="308.197403" y="146.267091" style="fill-opacity: 0.8; stroke: #000000; stroke-opacity: 0.8"/>
     <use xlink:href="#mb5009a4600" x="311.18961" y="115.304092" style="fill-opacity: 0.8; stroke: #000000; stroke-opacity: 0.8"/>
     <use xlink:href="#mb5009a4600" x="314.181818" y="157.382014" style="fill-opacity: 0.8; stroke: #000000; stroke-opacity: 0.8"/>
     <use xlink:href="#mb5009a4600" x="317.174026" y="143.091399" style="fill-opacity: 0.8; stroke: #000000; stroke-opacity: 0.8"/>
     <use xlink:href="#mb5009a4600" x="320.166234" y="150.236707" style="fill-opacity: 0.8; stroke: #000000; stroke-opacity: 0.8"/>
     <use xlink:href="#mb5009a4600" x="323.158442" y="137.533938" style="fill-opacity: 0.8; stroke: #000000; stroke-opacity: 0.8"/>
     <use xlink:href="#mb5009a4600" x="326.150649" y="123.243323" style="fill-opacity: 0.8; stroke: #000000; stroke-opacity: 0.8"/>
     <use xlink:href="#mb5009a4600" x="329.142857" y="151.824553" style="fill-opacity: 0.8; stroke: #000000; stroke-opacity: 0.8"/>
     <use xlink:href="#mb5009a4600" x="332.135065" y="89.898554" style="fill-opacity: 0.8; stroke: #000000; stroke-opacity: 0.8"/>
     <use xlink:href="#mb5009a4600" x="335.127273" y="139.915707" style="fill-opacity: 0.8; stroke: #000000; stroke-opacity: 0.8"/>
     <use xlink:href="#mb5009a4600" x="338.119481" y="112.922323" style="fill-opacity: 0.8; stroke: #000000; stroke-opacity: 0.8"/>
     <use xlink:href="#mb5009a4600" x="341.111688" y="98.631708" style="fill-opacity: 0.8; stroke: #000000; stroke-opacity: 0.8"/>
     <use xlink:href="#mb5009a4600" x="344.103896" y="122.4494" style="fill-opacity: 0.8; stroke: #000000; stroke-opacity: 0.8"/>
     <use xlink:href="#mb5009a4600" x="347.096104" y="163.733399" style="fill-opacity: 0.8; stroke: #000000; stroke-opacity: 0.8"/>
     <use xlink:href="#mb5009a4600" x="350.088312" y="150.236707" style="fill-opacity: 0.8; stroke: #000000; stroke-opacity: 0.8"/>
     <use xlink:href="#mb5009a4600" x="353.080519" y="108.158785" style="fill-opacity: 0.8; stroke: #000000; stroke-opacity: 0.8"/>
     <use xlink:href="#mb5009a4600" x="356.072727" y="158.175937" style="fill-opacity: 0.8; stroke: #000000; stroke-opacity: 0.8"/>
     <use xlink:href="#mb5009a4600" x="359.064935" y="136.740015" style="fill-opacity: 0.8; stroke: #000000; stroke-opacity: 0.8"/>
     <use xlink:href="#mb5009a4600" x="362.057143" y="142.297476" style="fill-opacity: 0.8; stroke: #000000; stroke-opacity: 0.8"/>
     <use xlink:href="#mb5009a4600" x="365.049351" y="166.909091" style="fill-opacity: 0.8; stroke: #000000; stroke-opacity: 0.8"/>
     <use xlink:href="#mb5009a4600" x="368.041558" y="128.006861" style="fill-opacity: 0.8; stroke: #000000; stroke-opacity: 0.8"/>
     <use xlink:href="#mb5009a4600" x="371.033766" y="151.03063" style="fill-opacity: 0.8; stroke: #000000; stroke-opacity: 0.8"/>
     <use xlink:href="#mb5009a4600" x="374.025974" y="154.206322" style="fill-opacity: 0.8; stroke: #000000; stroke-opacity: 0.8"/>
     <use xlink:href="#mb5009a4600" x="377.018182" y="154.206322" style="fill-opacity: 0.8; stroke: #000000; stroke-opacity: 0.8"/>
     <use xlink:href="#mb5009a4600" x="380.01039" y="131.182553" style="fill-opacity: 0.8; stroke: #000000; stroke-opacity: 0.8"/>
     <use xlink:href="#mb5009a4600" x="383.002597" y="158.175937" style="fill-opacity: 0.8; stroke: #000000; stroke-opacity: 0.8"/>
     <use xlink:href="#mb5009a4600" x="385.994805" y="163.733399" style="fill-opacity: 0.8; stroke: #000000; stroke-opacity: 0.8"/>
     <use xlink:href="#mb5009a4600" x="388.987013" y="157.382014" style="fill-opacity: 0.8; stroke: #000000; stroke-opacity: 0.8"/>
     <use xlink:href="#mb5009a4600" x="391.979221" y="136.740015" style="fill-opacity: 0.8; stroke: #000000; stroke-opacity: 0.8"/>
     <use xlink:href="#mb5009a4600" x="394.971429" y="142.297476" style="fill-opacity: 0.8; stroke: #000000; stroke-opacity: 0.8"/>
     <use xlink:href="#mb5009a4600" x="397.963636" y="130.38863" style="fill-opacity: 0.8; stroke: #000000; stroke-opacity: 0.8"/>
    </g>
   </g>
   <g id="PolyCollection_1">
    <path d="M 62.836364 122.240848 
L 62.836364 141.32478 
L 66.221488 141.320525 
L 69.606612 141.316269 
L 72.991736 141.311956 
L 76.37686 141.307192 
L 79.761983 141.302428 
L 83.147107 141.297205 
L 86.532231 141.277431 
L 89.917355 141.24429 
L 93.302479 141.22827 
L 96.687603 141.18512 
L 100.072727 141.10139 
L 103.457851 141.038623 
L 106.842975 141.033816 
L 110.228099 140.954221 
L 113.613223 140.924211 
L 116.998347 140.861716 
L 120.383471 140.888988 
L 123.768595 140.793506 
L 127.153719 140.834671 
L 130.538843 140.875836 
L 133.923967 140.891279 
L 137.309091 140.886925 
L 140.694215 140.881795 
L 144.079339 140.875813 
L 147.464463 140.869432 
L 150.849587 140.81598 
L 154.234711 140.723134 
L 157.619835 140.652511 
L 161.004959 140.698299 
L 164.390083 140.743944 
L 167.775207 140.789169 
L 171.160331 140.767159 
L 174.545455 140.702401 
L 177.930579 140.721105 
L 181.315702 140.699301 
L 184.700826 140.675475 
L 188.08595 140.631108 
L 191.471074 140.630272 
L 194.856198 140.666745 
L 198.241322 140.724962 
L 201.626446 140.794602 
L 205.01157 140.819517 
L 208.396694 140.768892 
L 211.781818 140.778723 
L 215.166942 140.800239 
L 218.552066 140.821497 
L 221.93719 140.873053 
L 225.322314 140.911478 
L 228.707438 140.944266 
L 232.092562 140.972279 
L 235.477686 141.004211 
L 238.86281 141.036143 
L 242.247934 141.073819 
L 245.633058 141.145035 
L 249.018182 141.194888 
L 252.403306 141.290986 
L 255.78843 141.300738 
L 259.173554 141.381319 
L 262.558678 141.533135 
L 265.943802 141.581203 
L 269.328926 141.739389 
L 272.71405 141.854074 
L 276.099174 141.908326 
L 279.484298 141.991769 
L 282.869421 142.077263 
L 286.254545 142.161732 
L 289.639669 142.256919 
L 293.024793 142.331123 
L 296.409917 142.416755 
L 299.795041 142.613918 
L 303.180165 142.706231 
L 306.565289 142.79487 
L 309.950413 142.886797 
L 313.335537 143.058843 
L 316.720661 143.230889 
L 320.105785 143.403246 
L 323.490909 143.584089 
L 326.876033 143.747027 
L 330.261157 143.916526 
L 333.646281 144.114499 
L 337.031405 144.333454 
L 340.416529 144.541311 
L 343.801653 144.716844 
L 347.186777 144.971168 
L 350.571901 145.191133 
L 353.957025 145.418439 
L 357.342149 145.648591 
L 360.727273 145.867971 
L 364.112397 146.086127 
L 367.497521 146.305365 
L 370.882645 146.465845 
L 374.267769 146.66448 
L 377.652893 146.812021 
L 381.038017 146.993198 
L 384.42314 147.14846 
L 387.808264 147.353426 
L 391.193388 147.535041 
L 394.578512 147.716632 
L 397.963636 147.8989 
L 397.963636 132.502676 
L 397.963636 132.502676 
L 394.578512 132.528442 
L 391.193388 132.511047 
L 387.808264 132.546946 
L 384.42314 132.5778 
L 381.038017 132.615912 
L 377.652893 132.619436 
L 374.267769 132.610014 
L 370.882645 132.602087 
L 367.497521 132.59454 
L 364.112397 132.643285 
L 360.727273 132.663444 
L 357.342149 132.720992 
L 353.957025 132.827757 
L 350.571901 132.89271 
L 347.186777 132.788569 
L 343.801653 132.839602 
L 340.416529 132.891234 
L 337.031405 132.936351 
L 333.646281 132.876986 
L 330.261157 132.820635 
L 326.876033 132.89716 
L 323.490909 132.820418 
L 320.105785 132.852193 
L 316.720661 132.873677 
L 313.335537 132.7922 
L 309.950413 132.710723 
L 306.565289 132.712102 
L 303.180165 132.752169 
L 299.795041 132.770426 
L 296.409917 132.7204 
L 293.024793 132.728719 
L 289.639669 132.727216 
L 286.254545 132.729816 
L 282.869421 132.708392 
L 279.484298 132.58236 
L 276.099174 132.517544 
L 272.71405 132.425516 
L 269.328926 132.342234 
L 265.943802 132.283051 
L 262.558678 132.266582 
L 259.173554 132.203224 
L 255.78843 132.022824 
L 252.403306 132.048733 
L 249.018182 131.985062 
L 245.633058 131.781923 
L 242.247934 131.702661 
L 238.86281 131.653719 
L 235.477686 131.55906 
L 232.092562 131.449251 
L 228.707438 131.382348 
L 225.322314 131.257507 
L 221.93719 131.090202 
L 218.552066 130.949819 
L 215.166942 130.897131 
L 211.781818 130.776133 
L 208.396694 130.617988 
L 205.01157 130.34829 
L 201.626446 130.141771 
L 198.241322 129.981451 
L 194.856198 129.838037 
L 191.471074 129.72433 
L 188.08595 129.610624 
L 184.700826 129.499582 
L 181.315702 129.339382 
L 177.930579 129.131519 
L 174.545455 128.924736 
L 171.160331 128.774928 
L 167.775207 128.595162 
L 164.390083 128.367553 
L 161.004959 128.220432 
L 157.619835 128.122945 
L 154.234711 127.88382 
L 150.849587 127.682302 
L 147.464463 127.548517 
L 144.079339 127.394684 
L 140.694215 127.229961 
L 137.309091 127.065532 
L 133.923967 126.902929 
L 130.538843 126.740327 
L 127.153719 126.486354 
L 123.768595 126.199303 
L 120.383471 125.912252 
L 116.998347 125.625202 
L 113.613223 125.338151 
L 110.228099 125.052549 
L 106.842975 124.841266 
L 103.457851 124.536326 
L 100.072727 124.370411 
L 96.687603 124.206137 
L 93.302479 124.042695 
L 89.917355 123.906898 
L 86.532231 123.712478 
L 83.147107 123.516853 
L 79.761983 123.285854 
L 76.37686 123.055867 
L 72.991736 122.825879 
L 69.606612 122.610723 
L 66.221488 122.425785 
L 62.836364 122.240848 
z
" clip-path="url(#p395b142a37)" style="fill-opacity: 0.15"/>
   </g>
   <g id="matplotlib.axis_1">
    <g id="xtick_1">
     <g id="line2d_1">
      <defs>
       <path id="m0b63948bdd" d="M 0 0 
L 0 3.5 
" style="stroke: #000000"/>
      </defs>
      <g>
       <use xlink:href="#m0b63948bdd" x="92.758442" y="172.8" style="stroke: #000000"/>
      </g>
     </g>
     <g id="text_1">
      <!-- 1920 -->
      <g transform="translate(76.075629 190.536719)scale(0.15 -0.15)">
       <defs>
        <path id="ArialMT-31" d="M 2384 0 
L 1822 0 
L 1822 3584 
Q 1619 3391 1289 3197 
Q 959 3003 697 2906 
L 697 3450 
Q 1169 3672 1522 3987 
Q 1875 4303 2022 4600 
L 2384 4600 
L 2384 0 
z
" transform="scale(0.015625)"/>
        <path id="ArialMT-39" d="M 350 1059 
L 891 1109 
Q 959 728 1153 556 
Q 1347 384 1650 384 
Q 1909 384 2104 503 
Q 2300 622 2425 820 
Q 2550 1019 2634 1356 
Q 2719 1694 2719 2044 
Q 2719 2081 2716 2156 
Q 2547 1888 2255 1720 
Q 1963 1553 1622 1553 
Q 1053 1553 659 1965 
Q 266 2378 266 3053 
Q 266 3750 677 4175 
Q 1088 4600 1706 4600 
Q 2153 4600 2523 4359 
Q 2894 4119 3086 3673 
Q 3278 3228 3278 2384 
Q 3278 1506 3087 986 
Q 2897 466 2520 194 
Q 2144 -78 1638 -78 
Q 1100 -78 759 220 
Q 419 519 350 1059 
z
M 2653 3081 
Q 2653 3566 2395 3850 
Q 2138 4134 1775 4134 
Q 1400 4134 1122 3828 
Q 844 3522 844 3034 
Q 844 2597 1108 2323 
Q 1372 2050 1759 2050 
Q 2150 2050 2401 2323 
Q 2653 2597 2653 3081 
z
" transform="scale(0.015625)"/>
        <path id="ArialMT-32" d="M 3222 541 
L 3222 0 
L 194 0 
Q 188 203 259 391 
Q 375 700 629 1000 
Q 884 1300 1366 1694 
Q 2113 2306 2375 2664 
Q 2638 3022 2638 3341 
Q 2638 3675 2398 3904 
Q 2159 4134 1775 4134 
Q 1369 4134 1125 3890 
Q 881 3647 878 3216 
L 300 3275 
Q 359 3922 746 4261 
Q 1134 4600 1788 4600 
Q 2447 4600 2831 4234 
Q 3216 3869 3216 3328 
Q 3216 3053 3103 2787 
Q 2991 2522 2730 2228 
Q 2469 1934 1863 1422 
Q 1356 997 1212 845 
Q 1069 694 975 541 
L 3222 541 
z
" transform="scale(0.015625)"/>
        <path id="ArialMT-30" d="M 266 2259 
Q 266 3072 433 3567 
Q 600 4063 929 4331 
Q 1259 4600 1759 4600 
Q 2128 4600 2406 4451 
Q 2684 4303 2865 4023 
Q 3047 3744 3150 3342 
Q 3253 2941 3253 2259 
Q 3253 1453 3087 958 
Q 2922 463 2592 192 
Q 2263 -78 1759 -78 
Q 1097 -78 719 397 
Q 266 969 266 2259 
z
M 844 2259 
Q 844 1131 1108 757 
Q 1372 384 1759 384 
Q 2147 384 2411 759 
Q 2675 1134 2675 2259 
Q 2675 3391 2411 3762 
Q 2147 4134 1753 4134 
Q 1366 4134 1134 3806 
Q 844 3388 844 2259 
z
" transform="scale(0.015625)"/>
       </defs>
       <use xlink:href="#ArialMT-31"/>
       <use xlink:href="#ArialMT-39" x="55.615234"/>
       <use xlink:href="#ArialMT-32" x="111.230469"/>
       <use xlink:href="#ArialMT-30" x="166.845703"/>
      </g>
     </g>
    </g>
    <g id="xtick_2">
     <g id="line2d_2">
      <g>
       <use xlink:href="#m0b63948bdd" x="152.602597" y="172.8" style="stroke: #000000"/>
      </g>
     </g>
     <g id="text_2">
      <!-- 1940 -->
      <g transform="translate(135.919785 190.536719)scale(0.15 -0.15)">
       <defs>
        <path id="ArialMT-34" d="M 2069 0 
L 2069 1097 
L 81 1097 
L 81 1613 
L 2172 4581 
L 2631 4581 
L 2631 1613 
L 3250 1613 
L 3250 1097 
L 2631 1097 
L 2631 0 
L 2069 0 
z
M 2069 1613 
L 2069 3678 
L 634 1613 
L 2069 1613 
z
" transform="scale(0.015625)"/>
       </defs>
       <use xlink:href="#ArialMT-31"/>
       <use xlink:href="#ArialMT-39" x="55.615234"/>
       <use xlink:href="#ArialMT-34" x="111.230469"/>
       <use xlink:href="#ArialMT-30" x="166.845703"/>
      </g>
     </g>
    </g>
    <g id="xtick_3">
     <g id="line2d_3">
      <g>
       <use xlink:href="#m0b63948bdd" x="212.446753" y="172.8" style="stroke: #000000"/>
      </g>
     </g>
     <g id="text_3">
      <!-- 1960 -->
      <g transform="translate(195.763941 190.536719)scale(0.15 -0.15)">
       <defs>
        <path id="ArialMT-36" d="M 3184 3459 
L 2625 3416 
Q 2550 3747 2413 3897 
Q 2184 4138 1850 4138 
Q 1581 4138 1378 3988 
Q 1113 3794 959 3422 
Q 806 3050 800 2363 
Q 1003 2672 1297 2822 
Q 1591 2972 1913 2972 
Q 2475 2972 2870 2558 
Q 3266 2144 3266 1488 
Q 3266 1056 3080 686 
Q 2894 316 2569 119 
Q 2244 -78 1831 -78 
Q 1128 -78 684 439 
Q 241 956 241 2144 
Q 241 3472 731 4075 
Q 1159 4600 1884 4600 
Q 2425 4600 2770 4297 
Q 3116 3994 3184 3459 
z
M 888 1484 
Q 888 1194 1011 928 
Q 1134 663 1356 523 
Q 1578 384 1822 384 
Q 2178 384 2434 671 
Q 2691 959 2691 1453 
Q 2691 1928 2437 2201 
Q 2184 2475 1800 2475 
Q 1419 2475 1153 2201 
Q 888 1928 888 1484 
z
" transform="scale(0.015625)"/>
       </defs>
       <use xlink:href="#ArialMT-31"/>
       <use xlink:href="#ArialMT-39" x="55.615234"/>
       <use xlink:href="#ArialMT-36" x="111.230469"/>
       <use xlink:href="#ArialMT-30" x="166.845703"/>
      </g>
     </g>
    </g>
    <g id="xtick_4">
     <g id="line2d_4">
      <g>
       <use xlink:href="#m0b63948bdd" x="272.290909" y="172.8" style="stroke: #000000"/>
      </g>
     </g>
     <g id="text_4">
      <!-- 1980 -->
      <g transform="translate(255.608097 190.536719)scale(0.15 -0.15)">
       <defs>
        <path id="ArialMT-38" d="M 1131 2484 
Q 781 2613 612 2850 
Q 444 3088 444 3419 
Q 444 3919 803 4259 
Q 1163 4600 1759 4600 
Q 2359 4600 2725 4251 
Q 3091 3903 3091 3403 
Q 3091 3084 2923 2848 
Q 2756 2613 2416 2484 
Q 2838 2347 3058 2040 
Q 3278 1734 3278 1309 
Q 3278 722 2862 322 
Q 2447 -78 1769 -78 
Q 1091 -78 675 323 
Q 259 725 259 1325 
Q 259 1772 486 2073 
Q 713 2375 1131 2484 
z
M 1019 3438 
Q 1019 3113 1228 2906 
Q 1438 2700 1772 2700 
Q 2097 2700 2305 2904 
Q 2513 3109 2513 3406 
Q 2513 3716 2298 3927 
Q 2084 4138 1766 4138 
Q 1444 4138 1231 3931 
Q 1019 3725 1019 3438 
z
M 838 1322 
Q 838 1081 952 856 
Q 1066 631 1291 507 
Q 1516 384 1775 384 
Q 2178 384 2440 643 
Q 2703 903 2703 1303 
Q 2703 1709 2433 1975 
Q 2163 2241 1756 2241 
Q 1359 2241 1098 1978 
Q 838 1716 838 1322 
z
" transform="scale(0.015625)"/>
       </defs>
       <use xlink:href="#ArialMT-31"/>
       <use xlink:href="#ArialMT-39" x="55.615234"/>
       <use xlink:href="#ArialMT-38" x="111.230469"/>
       <use xlink:href="#ArialMT-30" x="166.845703"/>
      </g>
     </g>
    </g>
    <g id="xtick_5">
     <g id="line2d_5">
      <g>
       <use xlink:href="#m0b63948bdd" x="332.135065" y="172.8" style="stroke: #000000"/>
      </g>
     </g>
     <g id="text_5">
      <!-- 2000 -->
      <g transform="translate(315.452252 190.536719)scale(0.15 -0.15)">
       <use xlink:href="#ArialMT-32"/>
       <use xlink:href="#ArialMT-30" x="55.615234"/>
       <use xlink:href="#ArialMT-30" x="111.230469"/>
       <use xlink:href="#ArialMT-30" x="166.845703"/>
      </g>
     </g>
    </g>
    <g id="xtick_6">
     <g id="line2d_6">
      <g>
       <use xlink:href="#m0b63948bdd" x="391.979221" y="172.8" style="stroke: #000000"/>
      </g>
     </g>
     <g id="text_6">
      <!-- 2020 -->
      <g transform="translate(375.296408 190.536719)scale(0.15 -0.15)">
       <use xlink:href="#ArialMT-32"/>
       <use xlink:href="#ArialMT-30" x="55.615234"/>
       <use xlink:href="#ArialMT-32" x="111.230469"/>
       <use xlink:href="#ArialMT-30" x="166.845703"/>
      </g>
     </g>
    </g>
   </g>
   <g id="matplotlib.axis_2">
    <g id="ytick_1">
     <g id="line2d_7">
      <defs>
       <path id="m48769d9a84" d="M 0 0 
L 3.5 0 
" style="stroke: #000000"/>
      </defs>
      <g>
       <use xlink:href="#m48769d9a84" x="46.08" y="169.29086" style="stroke: #000000"/>
      </g>
     </g>
     <g id="text_7">
      <!-- 0 -->
      <g transform="translate(34.238594 174.659219)scale(0.15 -0.15)">
       <use xlink:href="#ArialMT-30"/>
      </g>
     </g>
    </g>
    <g id="ytick_2">
     <g id="line2d_8">
      <g>
       <use xlink:href="#m48769d9a84" x="46.08" y="129.594707" style="stroke: #000000"/>
      </g>
     </g>
     <g id="text_8">
      <!-- 25 -->
      <g transform="translate(25.897188 134.963067)scale(0.15 -0.15)">
       <defs>
        <path id="ArialMT-35" d="M 266 1200 
L 856 1250 
Q 922 819 1161 601 
Q 1400 384 1738 384 
Q 2144 384 2425 690 
Q 2706 997 2706 1503 
Q 2706 1984 2436 2262 
Q 2166 2541 1728 2541 
Q 1456 2541 1237 2417 
Q 1019 2294 894 2097 
L 366 2166 
L 809 4519 
L 3088 4519 
L 3088 3981 
L 1259 3981 
L 1013 2750 
Q 1425 3038 1878 3038 
Q 2478 3038 2890 2622 
Q 3303 2206 3303 1553 
Q 3303 931 2941 478 
Q 2500 -78 1738 -78 
Q 1113 -78 717 272 
Q 322 622 266 1200 
z
" transform="scale(0.015625)"/>
       </defs>
       <use xlink:href="#ArialMT-32"/>
       <use xlink:href="#ArialMT-35" x="55.615234"/>
      </g>
     </g>
    </g>
    <g id="ytick_3">
     <g id="line2d_9">
      <g>
       <use xlink:href="#m48769d9a84" x="46.08" y="89.898554" style="stroke: #000000"/>
      </g>
     </g>
     <g id="text_9">
      <!-- 50 -->
      <g transform="translate(25.897188 95.266914)scale(0.15 -0.15)">
       <use xlink:href="#ArialMT-35"/>
       <use xlink:href="#ArialMT-30" x="55.615234"/>
      </g>
     </g>
    </g>
    <g id="ytick_4">
     <g id="line2d_10">
      <g>
       <use xlink:href="#m48769d9a84" x="46.08" y="50.202401" style="stroke: #000000"/>
      </g>
     </g>
     <g id="text_10">
      <!-- 75 -->
      <g transform="translate(25.897188 55.570761)scale(0.15 -0.15)">
       <defs>
        <path id="ArialMT-37" d="M 303 3981 
L 303 4522 
L 3269 4522 
L 3269 4084 
Q 2831 3619 2401 2847 
Q 1972 2075 1738 1259 
Q 1569 684 1522 0 
L 944 0 
Q 953 541 1156 1306 
Q 1359 2072 1739 2783 
Q 2119 3494 2547 3981 
L 303 3981 
z
" transform="scale(0.015625)"/>
       </defs>
       <use xlink:href="#ArialMT-37"/>
       <use xlink:href="#ArialMT-35" x="55.615234"/>
      </g>
     </g>
    </g>
    <g id="ytick_5">
     <g id="line2d_11">
      <defs>
       <path id="m2d59235cd8" d="M 0 0 
L 2 0 
" style="stroke: #000000; stroke-width: 0.6"/>
      </defs>
      <g>
       <use xlink:href="#m2d59235cd8" x="46.08" y="161.35163" style="stroke: #000000; stroke-width: 0.6"/>
      </g>
     </g>
    </g>
    <g id="ytick_6">
     <g id="line2d_12">
      <g>
       <use xlink:href="#m2d59235cd8" x="46.08" y="153.412399" style="stroke: #000000; stroke-width: 0.6"/>
      </g>
     </g>
    </g>
    <g id="ytick_7">
     <g id="line2d_13">
      <g>
       <use xlink:href="#m2d59235cd8" x="46.08" y="145.473168" style="stroke: #000000; stroke-width: 0.6"/>
      </g>
     </g>
    </g>
    <g id="ytick_8">
     <g id="line2d_14">
      <g>
       <use xlink:href="#m2d59235cd8" x="46.08" y="137.533938" style="stroke: #000000; stroke-width: 0.6"/>
      </g>
     </g>
    </g>
    <g id="ytick_9">
     <g id="line2d_15">
      <g>
       <use xlink:href="#m2d59235cd8" x="46.08" y="121.655477" style="stroke: #000000; stroke-width: 0.6"/>
      </g>
     </g>
    </g>
    <g id="ytick_10">
     <g id="line2d_16">
      <g>
       <use xlink:href="#m2d59235cd8" x="46.08" y="113.716246" style="stroke: #000000; stroke-width: 0.6"/>
      </g>
     </g>
    </g>
    <g id="ytick_11">
     <g id="line2d_17">
      <g>
       <use xlink:href="#m2d59235cd8" x="46.08" y="105.777015" style="stroke: #000000; stroke-width: 0.6"/>
      </g>
     </g>
    </g>
    <g id="ytick_12">
     <g id="line2d_18">
      <g>
       <use xlink:href="#m2d59235cd8" x="46.08" y="97.837785" style="stroke: #000000; stroke-width: 0.6"/>
      </g>
     </g>
    </g>
    <g id="ytick_13">
     <g id="line2d_19">
      <g>
       <use xlink:href="#m2d59235cd8" x="46.08" y="81.959324" style="stroke: #000000; stroke-width: 0.6"/>
      </g>
     </g>
    </g>
    <g id="ytick_14">
     <g id="line2d_20">
      <g>
       <use xlink:href="#m2d59235cd8" x="46.08" y="74.020093" style="stroke: #000000; stroke-width: 0.6"/>
      </g>
     </g>
    </g>
    <g id="ytick_15">
     <g id="line2d_21">
      <g>
       <use xlink:href="#m2d59235cd8" x="46.08" y="66.080863" style="stroke: #000000; stroke-width: 0.6"/>
      </g>
     </g>
    </g>
    <g id="ytick_16">
     <g id="line2d_22">
      <g>
       <use xlink:href="#m2d59235cd8" x="46.08" y="58.141632" style="stroke: #000000; stroke-width: 0.6"/>
      </g>
     </g>
    </g>
   </g>
   <g id="line2d_23">
    <path d="M 62.836364 138.804215 
L 65.828571 118.003431 
L 68.820779 140.392061 
L 71.812987 155.476599 
L 74.805195 152.618476 
L 77.797403 139.280568 
L 80.78961 162.145553 
L 83.781818 68.145062 
L 86.774026 142.297476 
L 89.766234 148.648861 
L 92.758442 56.871355 
L 95.750649 102.760108 
L 98.742857 143.885322 
L 101.735065 161.35163 
L 104.727273 139.915707 
L 107.719481 158.811076 
L 110.711688 151.506984 
L 113.703896 149.442784 
L 116.696104 128.483215 
L 119.688312 138.169076 
L 122.680519 163.09826 
L 125.672727 150.077922 
L 128.664935 118.479784 
L 131.657143 125.625092 
L 134.649351 164.050968 
L 137.641558 159.922568 
L 140.633766 149.125214 
L 143.625974 153.253614 
L 146.618182 147.854938 
L 149.61039 95.6148 
L 152.602597 158.652291 
L 155.594805 145.473168 
L 158.587013 129.118353 
L 161.579221 105.141877 
L 164.571429 143.567753 
L 167.563636 160.557706 
L 170.555844 143.885322 
L 173.548052 148.807645 
L 176.54026 138.64543 
L 179.532468 88.945847 
L 182.524675 97.520216 
L 185.516883 133.881892 
L 188.509091 128.483215 
L 191.501299 49.090909 
L 194.493506 151.506984 
L 197.485714 141.821122 
L 200.477922 130.864984 
L 203.47013 153.412399 
L 206.462338 134.358246 
L 209.454545 158.175937 
L 212.446753 64.175447 
L 215.438961 110.0642 
L 218.431169 103.712815 
L 221.423377 146.108307 
L 224.415584 160.557706 
L 227.407792 115.145308 
L 230.4 139.280568 
L 233.392208 161.669199 
L 236.384416 161.35163 
L 239.376623 160.557706 
L 242.368831 90.692477 
L 245.361039 116.098015 
L 248.353247 135.152169 
L 251.345455 137.533938 
L 254.337662 152.618476 
L 257.32987 54.96594 
L 260.322078 162.939476 
L 263.314286 158.175937 
L 266.306494 117.685861 
L 269.298701 160.557706 
L 272.290909 142.297476 
L 275.283117 141.503553 
L 278.275325 140.70963 
L 281.267532 149.442784 
L 284.25974 155.000245 
L 287.251948 147.854938 
L 290.244156 139.915707 
L 293.236364 129.594707 
L 296.228571 149.442784 
L 299.220779 156.588091 
L 302.212987 151.824553 
L 305.205195 127.212938 
L 308.197403 146.267091 
L 311.18961 115.304092 
L 314.181818 157.382014 
L 317.174026 143.091399 
L 320.166234 150.236707 
L 323.158442 137.533938 
L 326.150649 123.243323 
L 329.142857 151.824553 
L 332.135065 89.898554 
L 335.127273 139.915707 
L 338.119481 112.922323 
L 341.111688 98.631708 
L 344.103896 122.4494 
L 347.096104 163.733399 
L 350.088312 150.236707 
L 353.080519 108.158785 
L 356.072727 158.175937 
L 359.064935 136.740015 
L 362.057143 142.297476 
L 365.049351 166.909091 
L 368.041558 128.006861 
L 371.033766 151.03063 
L 374.025974 154.206322 
L 377.018182 154.206322 
L 380.01039 131.182553 
L 383.002597 158.175937 
L 385.994805 163.733399 
L 388.987013 157.382014 
L 391.979221 136.740015 
L 394.971429 142.297476 
L 397.963636 130.38863 
" clip-path="url(#p395b142a37)" style="fill: none; stroke: #000000; stroke-linecap: square"/>
    <defs>
     <path id="m78ab6a1601" d="M 0 2 
C 0.530406 2 1.03916 1.789267 1.414214 1.414214 
C 1.789267 1.03916 2 0.530406 2 0 
C 2 -0.530406 1.789267 -1.03916 1.414214 -1.414214 
C 1.03916 -1.789267 0.530406 -2 0 -2 
C -0.530406 -2 -1.03916 -1.789267 -1.414214 -1.414214 
C -1.789267 -1.03916 -2 -0.530406 -2 0 
C -2 0.530406 -1.789267 1.03916 -1.414214 1.414214 
C -1.03916 1.789267 -0.530406 2 0 2 
z
" style="stroke: #000000"/>
    </defs>
    <g clip-path="url(#p395b142a37)">
     <use xlink:href="#m78ab6a1601" x="62.836364" y="138.804215" style="stroke: #000000"/>
     <use xlink:href="#m78ab6a1601" x="65.828571" y="118.003431" style="stroke: #000000"/>
     <use xlink:href="#m78ab6a1601" x="68.820779" y="140.392061" style="stroke: #000000"/>
     <use xlink:href="#m78ab6a1601" x="71.812987" y="155.476599" style="stroke: #000000"/>
     <use xlink:href="#m78ab6a1601" x="74.805195" y="152.618476" style="stroke: #000000"/>
     <use xlink:href="#m78ab6a1601" x="77.797403" y="139.280568" style="stroke: #000000"/>
     <use xlink:href="#m78ab6a1601" x="80.78961" y="162.145553" style="stroke: #000000"/>
     <use xlink:href="#m78ab6a1601" x="83.781818" y="68.145062" style="stroke: #000000"/>
     <use xlink:href="#m78ab6a1601" x="86.774026" y="142.297476" style="stroke: #000000"/>
     <use xlink:href="#m78ab6a1601" x="89.766234" y="148.648861" style="stroke: #000000"/>
     <use xlink:href="#m78ab6a1601" x="92.758442" y="56.871355" style="stroke: #000000"/>
     <use xlink:href="#m78ab6a1601" x="95.750649" y="102.760108" style="stroke: #000000"/>
     <use xlink:href="#m78ab6a1601" x="98.742857" y="143.885322" style="stroke: #000000"/>
     <use xlink:href="#m78ab6a1601" x="101.735065" y="161.35163" style="stroke: #000000"/>
     <use xlink:href="#m78ab6a1601" x="104.727273" y="139.915707" style="stroke: #000000"/>
     <use xlink:href="#m78ab6a1601" x="107.719481" y="158.811076" style="stroke: #000000"/>
     <use xlink:href="#m78ab6a1601" x="110.711688" y="151.506984" style="stroke: #000000"/>
     <use xlink:href="#m78ab6a1601" x="113.703896" y="149.442784" style="stroke: #000000"/>
     <use xlink:href="#m78ab6a1601" x="116.696104" y="128.483215" style="stroke: #000000"/>
     <use xlink:href="#m78ab6a1601" x="119.688312" y="138.169076" style="stroke: #000000"/>
     <use xlink:href="#m78ab6a1601" x="122.680519" y="163.09826" style="stroke: #000000"/>
     <use xlink:href="#m78ab6a1601" x="125.672727" y="150.077922" style="stroke: #000000"/>
     <use xlink:href="#m78ab6a1601" x="128.664935" y="118.479784" style="stroke: #000000"/>
     <use xlink:href="#m78ab6a1601" x="131.657143" y="125.625092" style="stroke: #000000"/>
     <use xlink:href="#m78ab6a1601" x="134.649351" y="164.050968" style="stroke: #000000"/>
     <use xlink:href="#m78ab6a1601" x="137.641558" y="159.922568" style="stroke: #000000"/>
     <use xlink:href="#m78ab6a1601" x="140.633766" y="149.125214" style="stroke: #000000"/>
     <use xlink:href="#m78ab6a1601" x="143.625974" y="153.253614" style="stroke: #000000"/>
     <use xlink:href="#m78ab6a1601" x="146.618182" y="147.854938" style="stroke: #000000"/>
     <use xlink:href="#m78ab6a1601" x="149.61039" y="95.6148" style="stroke: #000000"/>
     <use xlink:href="#m78ab6a1601" x="152.602597" y="158.652291" style="stroke: #000000"/>
     <use xlink:href="#m78ab6a1601" x="155.594805" y="145.473168" style="stroke: #000000"/>
     <use xlink:href="#m78ab6a1601" x="158.587013" y="129.118353" style="stroke: #000000"/>
     <use xlink:href="#m78ab6a1601" x="161.579221" y="105.141877" style="stroke: #000000"/>
     <use xlink:href="#m78ab6a1601" x="164.571429" y="143.567753" style="stroke: #000000"/>
     <use xlink:href="#m78ab6a1601" x="167.563636" y="160.557706" style="stroke: #000000"/>
     <use xlink:href="#m78ab6a1601" x="170.555844" y="143.885322" style="stroke: #000000"/>
     <use xlink:href="#m78ab6a1601" x="173.548052" y="148.807645" style="stroke: #000000"/>
     <use xlink:href="#m78ab6a1601" x="176.54026" y="138.64543" style="stroke: #000000"/>
     <use xlink:href="#m78ab6a1601" x="179.532468" y="88.945847" style="stroke: #000000"/>
     <use xlink:href="#m78ab6a1601" x="182.524675" y="97.520216" style="stroke: #000000"/>
     <use xlink:href="#m78ab6a1601" x="185.516883" y="133.881892" style="stroke: #000000"/>
     <use xlink:href="#m78ab6a1601" x="188.509091" y="128.483215" style="stroke: #000000"/>
     <use xlink:href="#m78ab6a1601" x="191.501299" y="49.090909" style="stroke: #000000"/>
     <use xlink:href="#m78ab6a1601" x="194.493506" y="151.506984" style="stroke: #000000"/>
     <use xlink:href="#m78ab6a1601" x="197.485714" y="141.821122" style="stroke: #000000"/>
     <use xlink:href="#m78ab6a1601" x="200.477922" y="130.864984" style="stroke: #000000"/>
     <use xlink:href="#m78ab6a1601" x="203.47013" y="153.412399" style="stroke: #000000"/>
     <use xlink:href="#m78ab6a1601" x="206.462338" y="134.358246" style="stroke: #000000"/>
     <use xlink:href="#m78ab6a1601" x="209.454545" y="158.175937" style="stroke: #000000"/>
     <use xlink:href="#m78ab6a1601" x="212.446753" y="64.175447" style="stroke: #000000"/>
     <use xlink:href="#m78ab6a1601" x="215.438961" y="110.0642" style="stroke: #000000"/>
     <use xlink:href="#m78ab6a1601" x="218.431169" y="103.712815" style="stroke: #000000"/>
     <use xlink:href="#m78ab6a1601" x="221.423377" y="146.108307" style="stroke: #000000"/>
     <use xlink:href="#m78ab6a1601" x="224.415584" y="160.557706" style="stroke: #000000"/>
     <use xlink:href="#m78ab6a1601" x="227.407792" y="115.145308" style="stroke: #000000"/>
     <use xlink:href="#m78ab6a1601" x="230.4" y="139.280568" style="stroke: #000000"/>
     <use xlink:href="#m78ab6a1601" x="233.392208" y="161.669199" style="stroke: #000000"/>
     <use xlink:href="#m78ab6a1601" x="236.384416" y="161.35163" style="stroke: #000000"/>
     <use xlink:href="#m78ab6a1601" x="239.376623" y="160.557706" style="stroke: #000000"/>
     <use xlink:href="#m78ab6a1601" x="242.368831" y="90.692477" style="stroke: #000000"/>
     <use xlink:href="#m78ab6a1601" x="245.361039" y="116.098015" style="stroke: #000000"/>
     <use xlink:href="#m78ab6a1601" x="248.353247" y="135.152169" style="stroke: #000000"/>
     <use xlink:href="#m78ab6a1601" x="251.345455" y="137.533938" style="stroke: #000000"/>
     <use xlink:href="#m78ab6a1601" x="254.337662" y="152.618476" style="stroke: #000000"/>
     <use xlink:href="#m78ab6a1601" x="257.32987" y="54.96594" style="stroke: #000000"/>
     <use xlink:href="#m78ab6a1601" x="260.322078" y="162.939476" style="stroke: #000000"/>
     <use xlink:href="#m78ab6a1601" x="263.314286" y="158.175937" style="stroke: #000000"/>
     <use xlink:href="#m78ab6a1601" x="266.306494" y="117.685861" style="stroke: #000000"/>
     <use xlink:href="#m78ab6a1601" x="269.298701" y="160.557706" style="stroke: #000000"/>
     <use xlink:href="#m78ab6a1601" x="272.290909" y="142.297476" style="stroke: #000000"/>
     <use xlink:href="#m78ab6a1601" x="275.283117" y="141.503553" style="stroke: #000000"/>
     <use xlink:href="#m78ab6a1601" x="278.275325" y="140.70963" style="stroke: #000000"/>
     <use xlink:href="#m78ab6a1601" x="281.267532" y="149.442784" style="stroke: #000000"/>
     <use xlink:href="#m78ab6a1601" x="284.25974" y="155.000245" style="stroke: #000000"/>
     <use xlink:href="#m78ab6a1601" x="287.251948" y="147.854938" style="stroke: #000000"/>
     <use xlink:href="#m78ab6a1601" x="290.244156" y="139.915707" style="stroke: #000000"/>
     <use xlink:href="#m78ab6a1601" x="293.236364" y="129.594707" style="stroke: #000000"/>
     <use xlink:href="#m78ab6a1601" x="296.228571" y="149.442784" style="stroke: #000000"/>
     <use xlink:href="#m78ab6a1601" x="299.220779" y="156.588091" style="stroke: #000000"/>
     <use xlink:href="#m78ab6a1601" x="302.212987" y="151.824553" style="stroke: #000000"/>
     <use xlink:href="#m78ab6a1601" x="305.205195" y="127.212938" style="stroke: #000000"/>
     <use xlink:href="#m78ab6a1601" x="308.197403" y="146.267091" style="stroke: #000000"/>
     <use xlink:href="#m78ab6a1601" x="311.18961" y="115.304092" style="stroke: #000000"/>
     <use xlink:href="#m78ab6a1601" x="314.181818" y="157.382014" style="stroke: #000000"/>
     <use xlink:href="#m78ab6a1601" x="317.174026" y="143.091399" style="stroke: #000000"/>
     <use xlink:href="#m78ab6a1601" x="320.166234" y="150.236707" style="stroke: #000000"/>
     <use xlink:href="#m78ab6a1601" x="323.158442" y="137.533938" style="stroke: #000000"/>
     <use xlink:href="#m78ab6a1601" x="326.150649" y="123.243323" style="stroke: #000000"/>
     <use xlink:href="#m78ab6a1601" x="329.142857" y="151.824553" style="stroke: #000000"/>
     <use xlink:href="#m78ab6a1601" x="332.135065" y="89.898554" style="stroke: #000000"/>
     <use xlink:href="#m78ab6a1601" x="335.127273" y="139.915707" style="stroke: #000000"/>
     <use xlink:href="#m78ab6a1601" x="338.119481" y="112.922323" style="stroke: #000000"/>
     <use xlink:href="#m78ab6a1601" x="341.111688" y="98.631708" style="stroke: #000000"/>
     <use xlink:href="#m78ab6a1601" x="344.103896" y="122.4494" style="stroke: #000000"/>
     <use xlink:href="#m78ab6a1601" x="347.096104" y="163.733399" style="stroke: #000000"/>
     <use xlink:href="#m78ab6a1601" x="350.088312" y="150.236707" style="stroke: #000000"/>
     <use xlink:href="#m78ab6a1601" x="353.080519" y="108.158785" style="stroke: #000000"/>
     <use xlink:href="#m78ab6a1601" x="356.072727" y="158.175937" style="stroke: #000000"/>
     <use xlink:href="#m78ab6a1601" x="359.064935" y="136.740015" style="stroke: #000000"/>
     <use xlink:href="#m78ab6a1601" x="362.057143" y="142.297476" style="stroke: #000000"/>
     <use xlink:href="#m78ab6a1601" x="365.049351" y="166.909091" style="stroke: #000000"/>
     <use xlink:href="#m78ab6a1601" x="368.041558" y="128.006861" style="stroke: #000000"/>
     <use xlink:href="#m78ab6a1601" x="371.033766" y="151.03063" style="stroke: #000000"/>
     <use xlink:href="#m78ab6a1601" x="374.025974" y="154.206322" style="stroke: #000000"/>
     <use xlink:href="#m78ab6a1601" x="377.018182" y="154.206322" style="stroke: #000000"/>
     <use xlink:href="#m78ab6a1601" x="380.01039" y="131.182553" style="stroke: #000000"/>
     <use xlink:href="#m78ab6a1601" x="383.002597" y="158.175937" style="stroke: #000000"/>
     <use xlink:href="#m78ab6a1601" x="385.994805" y="163.733399" style="stroke: #000000"/>
     <use xlink:href="#m78ab6a1601" x="388.987013" y="157.382014" style="stroke: #000000"/>
     <use xlink:href="#m78ab6a1601" x="391.979221" y="136.740015" style="stroke: #000000"/>
     <use xlink:href="#m78ab6a1601" x="394.971429" y="142.297476" style="stroke: #000000"/>
     <use xlink:href="#m78ab6a1601" x="397.963636" y="130.38863" style="stroke: #000000"/>
    </g>
   </g>
   <g id="line2d_24">
    <path d="M 62.836364 132.684092 
L 66.221488 132.761942 
L 69.606612 132.839792 
L 72.991736 132.917642 
L 76.37686 132.995492 
L 79.761983 133.073342 
L 83.147107 133.151192 
L 86.532231 133.229043 
L 89.917355 133.306893 
L 93.302479 133.384743 
L 96.687603 133.462593 
L 100.072727 133.540443 
L 103.457851 133.618293 
L 106.842975 133.696143 
L 110.228099 133.773993 
L 113.613223 133.851843 
L 116.998347 133.929693 
L 120.383471 134.007543 
L 123.768595 134.085393 
L 127.153719 134.163243 
L 130.538843 134.241093 
L 133.923967 134.318943 
L 137.309091 134.396793 
L 140.694215 134.474643 
L 144.079339 134.552493 
L 147.464463 134.630343 
L 150.849587 134.708194 
L 154.234711 134.786044 
L 157.619835 134.863894 
L 161.004959 134.941744 
L 164.390083 135.019594 
L 167.775207 135.097444 
L 171.160331 135.175294 
L 174.545455 135.253144 
L 177.930579 135.330994 
L 181.315702 135.408844 
L 184.700826 135.486694 
L 188.08595 135.564544 
L 191.471074 135.642394 
L 194.856198 135.720244 
L 198.241322 135.798094 
L 201.626446 135.875944 
L 205.01157 135.953794 
L 208.396694 136.031644 
L 211.781818 136.109494 
L 215.166942 136.187344 
L 218.552066 136.265195 
L 221.93719 136.343045 
L 225.322314 136.420895 
L 228.707438 136.498745 
L 232.092562 136.576595 
L 235.477686 136.654445 
L 238.86281 136.732295 
L 242.247934 136.810145 
L 245.633058 136.887995 
L 249.018182 136.965845 
L 252.403306 137.043695 
L 255.78843 137.121545 
L 259.173554 137.199395 
L 262.558678 137.277245 
L 265.943802 137.355095 
L 269.328926 137.432945 
L 272.71405 137.510795 
L 276.099174 137.588645 
L 279.484298 137.666495 
L 282.869421 137.744346 
L 286.254545 137.822196 
L 289.639669 137.900046 
L 293.024793 137.977896 
L 296.409917 138.055746 
L 299.795041 138.133596 
L 303.180165 138.211446 
L 306.565289 138.289296 
L 309.950413 138.367146 
L 313.335537 138.444996 
L 316.720661 138.522846 
L 320.105785 138.600696 
L 323.490909 138.678546 
L 326.876033 138.756396 
L 330.261157 138.834246 
L 333.646281 138.912096 
L 337.031405 138.989946 
L 340.416529 139.067796 
L 343.801653 139.145646 
L 347.186777 139.223496 
L 350.571901 139.301347 
L 353.957025 139.379197 
L 357.342149 139.457047 
L 360.727273 139.534897 
L 364.112397 139.612747 
L 367.497521 139.690597 
L 370.882645 139.768447 
L 374.267769 139.846297 
L 377.652893 139.924147 
L 381.038017 140.001997 
L 384.42314 140.079847 
L 387.808264 140.157697 
L 391.193388 140.235547 
L 394.578512 140.313397 
L 397.963636 140.391247 
" clip-path="url(#p395b142a37)" style="fill: none; stroke: #000000; stroke-width: 1.5; stroke-linecap: square"/>
   </g>
   <g id="patch_3">
    <path d="M 46.08 172.8 
L 46.08 43.2 
" style="fill: none; stroke: #000000; stroke-linejoin: miter; stroke-linecap: square"/>
   </g>
   <g id="patch_4">
    <path d="M 414.72 172.8 
L 414.72 43.2 
" style="fill: none; stroke: #000000; stroke-linejoin: miter; stroke-linecap: square"/>
   </g>
   <g id="patch_5">
    <path d="M 46.08 172.8 
L 414.72 172.8 
" style="fill: none; stroke: #000000; stroke-linejoin: miter; stroke-linecap: square"/>
   </g>
   <g id="patch_6">
    <path d="M 46.08 43.2 
L 414.72 43.2 
" style="fill: none; stroke: #000000; stroke-linejoin: miter; stroke-linecap: square"/>
   </g>
   <g id="text_11">
    <!-- Kushiro -->
    <g transform="translate(198.9 37.2)scale(0.18 -0.18)">
     <defs>
      <path id="MS-Gothic-4b" d="M 300 50 
L 300 4925 
L 875 4925 
L 875 2875 
L 2300 4925 
L 2975 4925 
L 1650 3000 
L 3075 50 
L 2425 50 
L 1275 2525 
L 875 1975 
L 875 50 
L 300 50 
z
" transform="scale(0.015625)"/>
      <path id="MS-Gothic-75" d="M 2275 550 
Q 1875 50 1250 50 
Q 825 50 600 275 
Q 350 525 350 900 
L 350 3475 
L 850 3475 
L 850 1025 
Q 850 725 975 600 
Q 1100 475 1400 475 
Q 1750 475 2000 725 
Q 2275 1000 2275 1425 
L 2275 3475 
L 2775 3475 
L 2775 50 
L 2275 50 
L 2275 550 
z
" transform="scale(0.015625)"/>
      <path id="MS-Gothic-73" d="M 2175 2450 
Q 2150 2725 2000 2875 
Q 1850 3025 1600 3025 
Q 1275 3025 1150 2900 
Q 1000 2750 1000 2575 
Q 1000 2450 1125 2325 
Q 1300 2150 1875 1950 
Q 2325 1800 2525 1600 
Q 2750 1375 2750 1000 
Q 2750 650 2500 400 
Q 2150 50 1600 50 
Q 1000 50 700 350 
Q 375 675 400 1375 
L 900 1375 
Q 900 825 1050 675 
Q 1225 500 1575 500 
Q 1925 500 2100 675 
Q 2250 825 2250 1025 
Q 2250 1175 2100 1325 
Q 1950 1475 1525 1625 
Q 900 1850 700 2050 
Q 475 2275 475 2600 
Q 475 2925 750 3200 
Q 1025 3475 1600 3475 
Q 2100 3475 2400 3175 
Q 2700 2875 2675 2450 
L 2175 2450 
z
" transform="scale(0.015625)"/>
      <path id="MS-Gothic-68" d="M 850 2875 
Q 1000 3075 1100 3175 
Q 1400 3475 1900 3475 
Q 2325 3475 2575 3225 
Q 2800 3000 2800 2600 
L 2800 50 
L 2300 50 
L 2300 2425 
Q 2300 2750 2125 2925 
Q 1975 3075 1725 3075 
Q 1475 3075 1200 2800 
Q 850 2450 850 1875 
L 850 50 
L 350 50 
L 350 4925 
L 850 4925 
L 850 2875 
z
" transform="scale(0.015625)"/>
      <path id="MS-Gothic-69" d="M 1825 50 
L 1325 50 
L 1325 3475 
L 1825 3475 
L 1825 50 
z
M 1825 4925 
L 1825 4275 
L 1325 4275 
L 1325 4925 
L 1825 4925 
z
" transform="scale(0.015625)"/>
      <path id="MS-Gothic-72" d="M 1175 2750 
Q 1725 3600 2525 3475 
L 2525 2875 
Q 1600 3050 1175 1900 
L 1175 50 
L 675 50 
L 675 3475 
L 1175 3475 
L 1175 2750 
z
" transform="scale(0.015625)"/>
      <path id="MS-Gothic-6f" d="M 650 3075 
Q 1050 3475 1600 3475 
Q 2125 3475 2525 3075 
Q 2925 2675 2925 1750 
Q 2925 850 2525 450 
Q 2125 50 1600 50 
Q 1050 50 650 450 
Q 250 850 250 1750 
Q 250 2675 650 3075 
z
M 1600 3025 
Q 1300 3025 1075 2800 
Q 800 2525 800 1750 
Q 800 1000 1075 725 
Q 1300 500 1600 500 
Q 1875 500 2100 725 
Q 2375 1000 2375 1750 
Q 2375 2525 2100 2800 
Q 1875 3025 1600 3025 
z
" transform="scale(0.015625)"/>
     </defs>
     <use xlink:href="#MS-Gothic-4b"/>
     <use xlink:href="#MS-Gothic-75" x="50"/>
     <use xlink:href="#MS-Gothic-73" x="100"/>
     <use xlink:href="#MS-Gothic-68" x="150"/>
     <use xlink:href="#MS-Gothic-69" x="200"/>
     <use xlink:href="#MS-Gothic-72" x="250"/>
     <use xlink:href="#MS-Gothic-6f" x="300"/>
    </g>
   </g>
  </g>
 </g>
 <defs>
  <clipPath id="p395b142a37">
   <rect x="46.08" y="43.2" width="368.64" height="129.6"/>
  </clipPath>
 </defs>
</svg>
