<?xml version="1.0" encoding="utf-8" standalone="no"?>
<!DOCTYPE svg PUBLIC "-//W3C//DTD SVG 1.1//EN"
  "http://www.w3.org/Graphics/SVG/1.1/DTD/svg11.dtd">
<svg xmlns:xlink="http://www.w3.org/1999/xlink" width="460.8pt" height="432pt" viewBox="0 0 460.8 432" xmlns="http://www.w3.org/2000/svg" version="1.1">
 <metadata>
  <rdf:RDF xmlns:dc="http://purl.org/dc/elements/1.1/" xmlns:cc="http://creativecommons.org/ns#" xmlns:rdf="http://www.w3.org/1999/02/22-rdf-syntax-ns#">
   <cc:Work>
    <dc:type rdf:resource="http://purl.org/dc/dcmitype/StillImage"/>
    <dc:date>2022-08-12T11:38:00.918906</dc:date>
    <dc:format>image/svg+xml</dc:format>
    <dc:creator>
     <cc:Agent>
      <dc:title>Matplotlib v3.5.2, https://matplotlib.org/</dc:title>
     </cc:Agent>
    </dc:creator>
   </cc:Work>
  </rdf:RDF>
 </metadata>
 <defs>
  <style type="text/css">*{stroke-linejoin: round; stroke-linecap: butt}</style>
 </defs>
 <g id="figure_1">
  <g id="patch_1">
   <path d="M 0 432 
L 460.8 432 
L 460.8 0 
L 0 0 
z
" style="fill: #ffffff"/>
  </g>
  <g id="axes_1">
   <g id="patch_2">
    <path d="M 46.08 172.8 
L 414.72 172.8 
L 414.72 43.2 
L 46.08 43.2 
z
" style="fill: #ffffff"/>
   </g>
   <g id="PathCollection_1">
    <defs>
     <path id="m602a9ce41a" style="stroke: #000000; stroke-opacity: 0.8"/>
    </defs>
    <g clip-path="url(#p7b0a9a2a02)">
     <use xlink:href="#m602a9ce41a" x="62.836364" y="157.366185" style="fill-opacity: 0.8; stroke: #000000; stroke-opacity: 0.8"/>
     <use xlink:href="#m602a9ce41a" x="65.828571" y="166.909091" style="fill-opacity: 0.8; stroke: #000000; stroke-opacity: 0.8"/>
     <use xlink:href="#m602a9ce41a" x="68.820779" y="133.875956" style="fill-opacity: 0.8; stroke: #000000; stroke-opacity: 0.8"/>
     <use xlink:href="#m602a9ce41a" x="71.812987" y="156.265081" style="fill-opacity: 0.8; stroke: #000000; stroke-opacity: 0.8"/>
     <use xlink:href="#m602a9ce41a" x="74.805195" y="99.741716" style="fill-opacity: 0.8; stroke: #000000; stroke-opacity: 0.8"/>
     <use xlink:href="#m602a9ce41a" x="77.797403" y="138.647409" style="fill-opacity: 0.8; stroke: #000000; stroke-opacity: 0.8"/>
     <use xlink:href="#m602a9ce41a" x="80.78961" y="150.392523" style="fill-opacity: 0.8; stroke: #000000; stroke-opacity: 0.8"/>
     <use xlink:href="#m602a9ce41a" x="83.781818" y="99.191164" style="fill-opacity: 0.8; stroke: #000000; stroke-opacity: 0.8"/>
     <use xlink:href="#m602a9ce41a" x="86.774026" y="49.090909" style="fill-opacity: 0.8; stroke: #000000; stroke-opacity: 0.8"/>
     <use xlink:href="#m602a9ce41a" x="89.766234" y="150.943076" style="fill-opacity: 0.8; stroke: #000000; stroke-opacity: 0.8"/>
     <use xlink:href="#m602a9ce41a" x="92.758442" y="104.146134" style="fill-opacity: 0.8; stroke: #000000; stroke-opacity: 0.8"/>
     <use xlink:href="#m602a9ce41a" x="95.750649" y="101.393373" style="fill-opacity: 0.8; stroke: #000000; stroke-opacity: 0.8"/>
     <use xlink:href="#m602a9ce41a" x="98.742857" y="144.336449" style="fill-opacity: 0.8; stroke: #000000; stroke-opacity: 0.8"/>
     <use xlink:href="#m602a9ce41a" x="101.735065" y="153.512319" style="fill-opacity: 0.8; stroke: #000000; stroke-opacity: 0.8"/>
     <use xlink:href="#m602a9ce41a" x="104.727273" y="156.448598" style="fill-opacity: 0.8; stroke: #000000; stroke-opacity: 0.8"/>
     <use xlink:href="#m602a9ce41a" x="107.719481" y="159.384877" style="fill-opacity: 0.8; stroke: #000000; stroke-opacity: 0.8"/>
     <use xlink:href="#m602a9ce41a" x="110.711688" y="147.08921" style="fill-opacity: 0.8; stroke: #000000; stroke-opacity: 0.8"/>
     <use xlink:href="#m602a9ce41a" x="113.703896" y="163.238743" style="fill-opacity: 0.8; stroke: #000000; stroke-opacity: 0.8"/>
     <use xlink:href="#m602a9ce41a" x="116.696104" y="125.984707" style="fill-opacity: 0.8; stroke: #000000; stroke-opacity: 0.8"/>
     <use xlink:href="#m602a9ce41a" x="119.688312" y="114.42311" style="fill-opacity: 0.8; stroke: #000000; stroke-opacity: 0.8"/>
     <use xlink:href="#m602a9ce41a" x="122.680519" y="141.216653" style="fill-opacity: 0.8; stroke: #000000; stroke-opacity: 0.8"/>
     <use xlink:href="#m602a9ce41a" x="125.672727" y="131.490229" style="fill-opacity: 0.8; stroke: #000000; stroke-opacity: 0.8"/>
     <use xlink:href="#m602a9ce41a" x="128.664935" y="157.549703" style="fill-opacity: 0.8; stroke: #000000; stroke-opacity: 0.8"/>
     <use xlink:href="#m602a9ce41a" x="131.657143" y="150.025489" style="fill-opacity: 0.8; stroke: #000000; stroke-opacity: 0.8"/>
     <use xlink:href="#m602a9ce41a" x="134.649351" y="151.493628" style="fill-opacity: 0.8; stroke: #000000; stroke-opacity: 0.8"/>
     <use xlink:href="#m602a9ce41a" x="137.641558" y="155.163976" style="fill-opacity: 0.8; stroke: #000000; stroke-opacity: 0.8"/>
     <use xlink:href="#m602a9ce41a" x="140.633766" y="129.655055" style="fill-opacity: 0.8; stroke: #000000; stroke-opacity: 0.8"/>
     <use xlink:href="#m602a9ce41a" x="143.625974" y="144.336449" style="fill-opacity: 0.8; stroke: #000000; stroke-opacity: 0.8"/>
     <use xlink:href="#m602a9ce41a" x="146.618182" y="152.04418" style="fill-opacity: 0.8; stroke: #000000; stroke-opacity: 0.8"/>
     <use xlink:href="#m602a9ce41a" x="149.61039" y="85.794393" style="fill-opacity: 0.8; stroke: #000000; stroke-opacity: 0.8"/>
     <use xlink:href="#m602a9ce41a" x="152.602597" y="136.261682" style="fill-opacity: 0.8; stroke: #000000; stroke-opacity: 0.8"/>
     <use xlink:href="#m602a9ce41a" x="155.594805" y="137.362787" style="fill-opacity: 0.8; stroke: #000000; stroke-opacity: 0.8"/>
     <use xlink:href="#m602a9ce41a" x="158.587013" y="145.070518" style="fill-opacity: 0.8; stroke: #000000; stroke-opacity: 0.8"/>
     <use xlink:href="#m602a9ce41a" x="161.579221" y="156.632116" style="fill-opacity: 0.8; stroke: #000000; stroke-opacity: 0.8"/>
     <use xlink:href="#m602a9ce41a" x="164.571429" y="144.336449" style="fill-opacity: 0.8; stroke: #000000; stroke-opacity: 0.8"/>
     <use xlink:href="#m602a9ce41a" x="167.563636" y="144.519966" style="fill-opacity: 0.8; stroke: #000000; stroke-opacity: 0.8"/>
     <use xlink:href="#m602a9ce41a" x="170.555844" y="117.542906" style="fill-opacity: 0.8; stroke: #000000; stroke-opacity: 0.8"/>
     <use xlink:href="#m602a9ce41a" x="173.548052" y="119.011045" style="fill-opacity: 0.8; stroke: #000000; stroke-opacity: 0.8"/>
     <use xlink:href="#m602a9ce41a" x="176.54026" y="140.849618" style="fill-opacity: 0.8; stroke: #000000; stroke-opacity: 0.8"/>
     <use xlink:href="#m602a9ce41a" x="179.532468" y="128.370433" style="fill-opacity: 0.8; stroke: #000000; stroke-opacity: 0.8"/>
     <use xlink:href="#m602a9ce41a" x="182.524675" y="138.463891" style="fill-opacity: 0.8; stroke: #000000; stroke-opacity: 0.8"/>
     <use xlink:href="#m602a9ce41a" x="185.516883" y="146.538658" style="fill-opacity: 0.8; stroke: #000000; stroke-opacity: 0.8"/>
     <use xlink:href="#m602a9ce41a" x="188.509091" y="129.28802" style="fill-opacity: 0.8; stroke: #000000; stroke-opacity: 0.8"/>
     <use xlink:href="#m602a9ce41a" x="191.501299" y="148.924384" style="fill-opacity: 0.8; stroke: #000000; stroke-opacity: 0.8"/>
     <use xlink:href="#m602a9ce41a" x="194.493506" y="119.194562" style="fill-opacity: 0.8; stroke: #000000; stroke-opacity: 0.8"/>
     <use xlink:href="#m602a9ce41a" x="197.485714" y="106.715378" style="fill-opacity: 0.8; stroke: #000000; stroke-opacity: 0.8"/>
     <use xlink:href="#m602a9ce41a" x="200.477922" y="144.519966" style="fill-opacity: 0.8; stroke: #000000; stroke-opacity: 0.8"/>
     <use xlink:href="#m602a9ce41a" x="203.47013" y="152.77825" style="fill-opacity: 0.8; stroke: #000000; stroke-opacity: 0.8"/>
     <use xlink:href="#m602a9ce41a" x="206.462338" y="135.160578" style="fill-opacity: 0.8; stroke: #000000; stroke-opacity: 0.8"/>
     <use xlink:href="#m602a9ce41a" x="209.454545" y="128.737468" style="fill-opacity: 0.8; stroke: #000000; stroke-opacity: 0.8"/>
     <use xlink:href="#m602a9ce41a" x="212.446753" y="143.602379" style="fill-opacity: 0.8; stroke: #000000; stroke-opacity: 0.8"/>
     <use xlink:href="#m602a9ce41a" x="215.438961" y="149.107901" style="fill-opacity: 0.8; stroke: #000000; stroke-opacity: 0.8"/>
     <use xlink:href="#m602a9ce41a" x="218.431169" y="120.295667" style="fill-opacity: 0.8; stroke: #000000; stroke-opacity: 0.8"/>
     <use xlink:href="#m602a9ce41a" x="221.423377" y="159.935429" style="fill-opacity: 0.8; stroke: #000000; stroke-opacity: 0.8"/>
     <use xlink:href="#m602a9ce41a" x="224.415584" y="137.546304" style="fill-opacity: 0.8; stroke: #000000; stroke-opacity: 0.8"/>
     <use xlink:href="#m602a9ce41a" x="227.407792" y="148.006797" style="fill-opacity: 0.8; stroke: #000000; stroke-opacity: 0.8"/>
     <use xlink:href="#m602a9ce41a" x="230.4" y="119.194562" style="fill-opacity: 0.8; stroke: #000000; stroke-opacity: 0.8"/>
     <use xlink:href="#m602a9ce41a" x="233.392208" y="139.197961" style="fill-opacity: 0.8; stroke: #000000; stroke-opacity: 0.8"/>
     <use xlink:href="#m602a9ce41a" x="236.384416" y="146.538658" style="fill-opacity: 0.8; stroke: #000000; stroke-opacity: 0.8"/>
     <use xlink:href="#m602a9ce41a" x="239.376623" y="154.796941" style="fill-opacity: 0.8; stroke: #000000; stroke-opacity: 0.8"/>
     <use xlink:href="#m602a9ce41a" x="242.368831" y="69.461342" style="fill-opacity: 0.8; stroke: #000000; stroke-opacity: 0.8"/>
     <use xlink:href="#m602a9ce41a" x="245.361039" y="153.879354" style="fill-opacity: 0.8; stroke: #000000; stroke-opacity: 0.8"/>
     <use xlink:href="#m602a9ce41a" x="248.353247" y="148.373832" style="fill-opacity: 0.8; stroke: #000000; stroke-opacity: 0.8"/>
     <use xlink:href="#m602a9ce41a" x="251.345455" y="141.950722" style="fill-opacity: 0.8; stroke: #000000; stroke-opacity: 0.8"/>
     <use xlink:href="#m602a9ce41a" x="254.337662" y="152.04418" style="fill-opacity: 0.8; stroke: #000000; stroke-opacity: 0.8"/>
     <use xlink:href="#m602a9ce41a" x="257.32987" y="148.373832" style="fill-opacity: 0.8; stroke: #000000; stroke-opacity: 0.8"/>
     <use xlink:href="#m602a9ce41a" x="260.322078" y="140.115548" style="fill-opacity: 0.8; stroke: #000000; stroke-opacity: 0.8"/>
     <use xlink:href="#m602a9ce41a" x="263.314286" y="152.04418" style="fill-opacity: 0.8; stroke: #000000; stroke-opacity: 0.8"/>
     <use xlink:href="#m602a9ce41a" x="266.306494" y="127.269329" style="fill-opacity: 0.8; stroke: #000000; stroke-opacity: 0.8"/>
     <use xlink:href="#m602a9ce41a" x="269.298701" y="153.879354" style="fill-opacity: 0.8; stroke: #000000; stroke-opacity: 0.8"/>
     <use xlink:href="#m602a9ce41a" x="272.290909" y="153.879354" style="fill-opacity: 0.8; stroke: #000000; stroke-opacity: 0.8"/>
     <use xlink:href="#m602a9ce41a" x="275.283117" y="138.280374" style="fill-opacity: 0.8; stroke: #000000; stroke-opacity: 0.8"/>
     <use xlink:href="#m602a9ce41a" x="278.275325" y="157.549703" style="fill-opacity: 0.8; stroke: #000000; stroke-opacity: 0.8"/>
     <use xlink:href="#m602a9ce41a" x="281.267532" y="161.220051" style="fill-opacity: 0.8; stroke: #000000; stroke-opacity: 0.8"/>
     <use xlink:href="#m602a9ce41a" x="284.25974" y="138.280374" style="fill-opacity: 0.8; stroke: #000000; stroke-opacity: 0.8"/>
     <use xlink:href="#m602a9ce41a" x="287.251948" y="130.02209" style="fill-opacity: 0.8; stroke: #000000; stroke-opacity: 0.8"/>
     <use xlink:href="#m602a9ce41a" x="290.244156" y="144.703483" style="fill-opacity: 0.8; stroke: #000000; stroke-opacity: 0.8"/>
     <use xlink:href="#m602a9ce41a" x="293.236364" y="146.538658" style="fill-opacity: 0.8; stroke: #000000; stroke-opacity: 0.8"/>
     <use xlink:href="#m602a9ce41a" x="296.228571" y="144.703483" style="fill-opacity: 0.8; stroke: #000000; stroke-opacity: 0.8"/>
     <use xlink:href="#m602a9ce41a" x="299.220779" y="147.456245" style="fill-opacity: 0.8; stroke: #000000; stroke-opacity: 0.8"/>
     <use xlink:href="#m602a9ce41a" x="302.212987" y="122.681393" style="fill-opacity: 0.8; stroke: #000000; stroke-opacity: 0.8"/>
     <use xlink:href="#m602a9ce41a" x="305.205195" y="130.939677" style="fill-opacity: 0.8; stroke: #000000; stroke-opacity: 0.8"/>
     <use xlink:href="#m602a9ce41a" x="308.197403" y="158.46729" style="fill-opacity: 0.8; stroke: #000000; stroke-opacity: 0.8"/>
     <use xlink:href="#m602a9ce41a" x="311.18961" y="148.373832" style="fill-opacity: 0.8; stroke: #000000; stroke-opacity: 0.8"/>
     <use xlink:href="#m602a9ce41a" x="314.181818" y="131.857264" style="fill-opacity: 0.8; stroke: #000000; stroke-opacity: 0.8"/>
     <use xlink:href="#m602a9ce41a" x="317.174026" y="152.961767" style="fill-opacity: 0.8; stroke: #000000; stroke-opacity: 0.8"/>
     <use xlink:href="#m602a9ce41a" x="320.166234" y="134.610025" style="fill-opacity: 0.8; stroke: #000000; stroke-opacity: 0.8"/>
     <use xlink:href="#m602a9ce41a" x="323.158442" y="143.785896" style="fill-opacity: 0.8; stroke: #000000; stroke-opacity: 0.8"/>
     <use xlink:href="#m602a9ce41a" x="326.150649" y="148.373832" style="fill-opacity: 0.8; stroke: #000000; stroke-opacity: 0.8"/>
     <use xlink:href="#m602a9ce41a" x="329.142857" y="151.126593" style="fill-opacity: 0.8; stroke: #000000; stroke-opacity: 0.8"/>
     <use xlink:href="#m602a9ce41a" x="332.135065" y="143.785896" style="fill-opacity: 0.8; stroke: #000000; stroke-opacity: 0.8"/>
     <use xlink:href="#m602a9ce41a" x="335.127273" y="163.055225" style="fill-opacity: 0.8; stroke: #000000; stroke-opacity: 0.8"/>
     <use xlink:href="#m602a9ce41a" x="338.119481" y="80.472387" style="fill-opacity: 0.8; stroke: #000000; stroke-opacity: 0.8"/>
     <use xlink:href="#m602a9ce41a" x="341.111688" y="149.291419" style="fill-opacity: 0.8; stroke: #000000; stroke-opacity: 0.8"/>
     <use xlink:href="#m602a9ce41a" x="344.103896" y="122.681393" style="fill-opacity: 0.8; stroke: #000000; stroke-opacity: 0.8"/>
     <use xlink:href="#m602a9ce41a" x="347.096104" y="143.785896" style="fill-opacity: 0.8; stroke: #000000; stroke-opacity: 0.8"/>
     <use xlink:href="#m602a9ce41a" x="350.088312" y="153.879354" style="fill-opacity: 0.8; stroke: #000000; stroke-opacity: 0.8"/>
     <use xlink:href="#m602a9ce41a" x="353.080519" y="141.033135" style="fill-opacity: 0.8; stroke: #000000; stroke-opacity: 0.8"/>
     <use xlink:href="#m602a9ce41a" x="356.072727" y="134.610025" style="fill-opacity: 0.8; stroke: #000000; stroke-opacity: 0.8"/>
     <use xlink:href="#m602a9ce41a" x="359.064935" y="130.02209" style="fill-opacity: 0.8; stroke: #000000; stroke-opacity: 0.8"/>
     <use xlink:href="#m602a9ce41a" x="362.057143" y="124.516568" style="fill-opacity: 0.8; stroke: #000000; stroke-opacity: 0.8"/>
     <use xlink:href="#m602a9ce41a" x="365.049351" y="142.868309" style="fill-opacity: 0.8; stroke: #000000; stroke-opacity: 0.8"/>
     <use xlink:href="#m602a9ce41a" x="368.041558" y="157.549703" style="fill-opacity: 0.8; stroke: #000000; stroke-opacity: 0.8"/>
     <use xlink:href="#m602a9ce41a" x="371.033766" y="145.621071" style="fill-opacity: 0.8; stroke: #000000; stroke-opacity: 0.8"/>
     <use xlink:href="#m602a9ce41a" x="374.025974" y="146.538658" style="fill-opacity: 0.8; stroke: #000000; stroke-opacity: 0.8"/>
     <use xlink:href="#m602a9ce41a" x="377.018182" y="138.280374" style="fill-opacity: 0.8; stroke: #000000; stroke-opacity: 0.8"/>
     <use xlink:href="#m602a9ce41a" x="380.01039" y="156.632116" style="fill-opacity: 0.8; stroke: #000000; stroke-opacity: 0.8"/>
     <use xlink:href="#m602a9ce41a" x="383.002597" y="163.055225" style="fill-opacity: 0.8; stroke: #000000; stroke-opacity: 0.8"/>
     <use xlink:href="#m602a9ce41a" x="385.994805" y="156.632116" style="fill-opacity: 0.8; stroke: #000000; stroke-opacity: 0.8"/>
     <use xlink:href="#m602a9ce41a" x="388.987013" y="151.126593" style="fill-opacity: 0.8; stroke: #000000; stroke-opacity: 0.8"/>
     <use xlink:href="#m602a9ce41a" x="391.979221" y="152.961767" style="fill-opacity: 0.8; stroke: #000000; stroke-opacity: 0.8"/>
     <use xlink:href="#m602a9ce41a" x="394.971429" y="155.714528" style="fill-opacity: 0.8; stroke: #000000; stroke-opacity: 0.8"/>
     <use xlink:href="#m602a9ce41a" x="397.963636" y="132.774851" style="fill-opacity: 0.8; stroke: #000000; stroke-opacity: 0.8"/>
    </g>
   </g>
   <g id="PolyCollection_1">
    <path d="M 62.836364 124.443881 
L 62.836364 141.5727 
L 66.221488 141.576824 
L 69.606612 141.580424 
L 72.991736 141.584024 
L 76.37686 141.587624 
L 79.761983 141.591223 
L 83.147107 141.597545 
L 86.532231 141.600219 
L 89.917355 141.605242 
L 93.302479 141.629546 
L 96.687603 141.65337 
L 100.072727 141.676643 
L 103.457851 141.684345 
L 106.842975 141.671896 
L 110.228099 141.659543 
L 113.613223 141.677201 
L 116.998347 141.725701 
L 120.383471 141.769868 
L 123.768595 141.801795 
L 127.153719 141.847248 
L 130.538843 141.848516 
L 133.923967 141.836634 
L 137.309091 141.857875 
L 140.694215 141.84171 
L 144.079339 141.819057 
L 147.464463 141.811115 
L 150.849587 141.802881 
L 154.234711 141.829265 
L 157.619835 141.869142 
L 161.004959 141.931541 
L 164.390083 142.001503 
L 167.775207 141.988693 
L 171.160331 142.028444 
L 174.545455 142.068071 
L 177.930579 142.107945 
L 181.315702 142.157865 
L 184.700826 142.190221 
L 188.08595 142.260434 
L 191.471074 142.316145 
L 194.856198 142.331474 
L 198.241322 142.352316 
L 201.626446 142.379023 
L 205.01157 142.426135 
L 208.396694 142.425162 
L 211.781818 142.445211 
L 215.166942 142.517127 
L 218.552066 142.596125 
L 221.93719 142.608378 
L 225.322314 142.683594 
L 228.707438 142.757251 
L 232.092562 142.856936 
L 235.477686 142.915434 
L 238.86281 143.009658 
L 242.247934 143.082074 
L 245.633058 143.150362 
L 249.018182 143.247204 
L 252.403306 143.370061 
L 255.78843 143.499715 
L 259.173554 143.625967 
L 262.558678 143.751545 
L 265.943802 143.839613 
L 269.328926 143.972996 
L 272.71405 144.093103 
L 276.099174 144.182745 
L 279.484298 144.303393 
L 282.869421 144.443584 
L 286.254545 144.564138 
L 289.639669 144.760314 
L 293.024793 144.843825 
L 296.409917 145.054939 
L 299.795041 145.25012 
L 303.180165 145.401756 
L 306.565289 145.546752 
L 309.950413 145.698821 
L 313.335537 145.917439 
L 316.720661 146.05808 
L 320.105785 146.238239 
L 323.490909 146.456898 
L 326.876033 146.662221 
L 330.261157 146.832691 
L 333.646281 147.019139 
L 337.031405 147.225734 
L 340.416529 147.400894 
L 343.801653 147.576054 
L 347.186777 147.815169 
L 350.571901 148.068753 
L 353.957025 148.310295 
L 357.342149 148.493635 
L 360.727273 148.678166 
L 364.112397 148.917093 
L 367.497521 149.211681 
L 370.882645 149.469929 
L 374.267769 149.643359 
L 377.652893 149.839762 
L 381.038017 150.08869 
L 384.42314 150.360422 
L 387.808264 150.566967 
L 391.193388 150.810766 
L 394.578512 151.049949 
L 397.963636 151.297819 
L 397.963636 139.210172 
L 397.963636 139.210172 
L 394.578512 139.199692 
L 391.193388 139.189211 
L 387.808264 139.177943 
L 384.42314 139.167781 
L 381.038017 139.167906 
L 377.652893 139.175193 
L 374.267769 139.179768 
L 370.882645 139.161153 
L 367.497521 139.142805 
L 364.112397 139.124781 
L 360.727273 139.106757 
L 357.342149 139.088734 
L 353.957025 139.069299 
L 350.571901 139.012811 
L 347.186777 138.977128 
L 343.801653 138.92569 
L 340.416529 138.85662 
L 337.031405 138.86394 
L 333.646281 138.886411 
L 330.261157 138.908374 
L 326.876033 138.92343 
L 323.490909 138.905196 
L 320.105785 138.844854 
L 316.720661 138.804242 
L 313.335537 138.701614 
L 309.950413 138.572041 
L 306.565289 138.46794 
L 303.180165 138.364071 
L 299.795041 138.277794 
L 296.409917 138.184844 
L 293.024793 138.131539 
L 289.639669 138.042527 
L 286.254545 138.005465 
L 282.869421 137.946733 
L 279.484298 137.870383 
L 276.099174 137.761387 
L 272.71405 137.614937 
L 269.328926 137.505473 
L 265.943802 137.33576 
L 262.558678 137.241134 
L 259.173554 137.132584 
L 255.78843 136.928885 
L 252.403306 136.856357 
L 249.018182 136.66615 
L 245.633058 136.462969 
L 242.247934 136.325761 
L 238.86281 136.125242 
L 235.477686 135.9805 
L 232.092562 135.899086 
L 228.707438 135.674093 
L 225.322314 135.52485 
L 221.93719 135.377874 
L 218.552066 135.218869 
L 215.166942 135.026747 
L 211.781818 134.770923 
L 208.396694 134.549001 
L 205.01157 134.324692 
L 201.626446 134.233086 
L 198.241322 134.006013 
L 194.856198 133.746929 
L 191.471074 133.581809 
L 188.08595 133.373556 
L 184.700826 133.129057 
L 181.315702 132.903963 
L 177.930579 132.640178 
L 174.545455 132.364445 
L 171.160331 132.097737 
L 167.775207 131.832716 
L 164.390083 131.64957 
L 161.004959 131.478573 
L 157.619835 131.25876 
L 154.234711 131.019704 
L 150.849587 130.775337 
L 147.464463 130.550633 
L 144.079339 130.31305 
L 140.694215 130.075467 
L 137.309091 129.857269 
L 133.923967 129.62891 
L 130.538843 129.363419 
L 127.153719 129.125134 
L 123.768595 128.887764 
L 120.383471 128.636882 
L 116.998347 128.412385 
L 113.613223 128.174802 
L 110.228099 127.924698 
L 106.842975 127.656461 
L 103.457851 127.401864 
L 100.072727 127.188857 
L 96.687603 126.975849 
L 93.302479 126.749967 
L 89.917355 126.509916 
L 86.532231 126.213857 
L 83.147107 125.922642 
L 79.761983 125.690893 
L 76.37686 125.441149 
L 72.991736 125.224841 
L 69.606612 124.970987 
L 66.221488 124.707354 
L 62.836364 124.443881 
z
" clip-path="url(#p7b0a9a2a02)" style="fill-opacity: 0.15"/>
   </g>
   <g id="matplotlib.axis_1">
    <g id="xtick_1">
     <g id="line2d_1">
      <defs>
       <path id="mb9fc767f9a" d="M 0 0 
L 0 3.5 
" style="stroke: #000000"/>
      </defs>
      <g>
       <use xlink:href="#mb9fc767f9a" x="92.758442" y="172.8" style="stroke: #000000"/>
      </g>
     </g>
     <g id="text_1">
      <!-- 1920 -->
      <g transform="translate(76.075629 190.536719)scale(0.15 -0.15)">
       <defs>
        <path id="ArialMT-31" d="M 2384 0 
L 1822 0 
L 1822 3584 
Q 1619 3391 1289 3197 
Q 959 3003 697 2906 
L 697 3450 
Q 1169 3672 1522 3987 
Q 1875 4303 2022 4600 
L 2384 4600 
L 2384 0 
z
" transform="scale(0.015625)"/>
        <path id="ArialMT-39" d="M 350 1059 
L 891 1109 
Q 959 728 1153 556 
Q 1347 384 1650 384 
Q 1909 384 2104 503 
Q 2300 622 2425 820 
Q 2550 1019 2634 1356 
Q 2719 1694 2719 2044 
Q 2719 2081 2716 2156 
Q 2547 1888 2255 1720 
Q 1963 1553 1622 1553 
Q 1053 1553 659 1965 
Q 266 2378 266 3053 
Q 266 3750 677 4175 
Q 1088 4600 1706 4600 
Q 2153 4600 2523 4359 
Q 2894 4119 3086 3673 
Q 3278 3228 3278 2384 
Q 3278 1506 3087 986 
Q 2897 466 2520 194 
Q 2144 -78 1638 -78 
Q 1100 -78 759 220 
Q 419 519 350 1059 
z
M 2653 3081 
Q 2653 3566 2395 3850 
Q 2138 4134 1775 4134 
Q 1400 4134 1122 3828 
Q 844 3522 844 3034 
Q 844 2597 1108 2323 
Q 1372 2050 1759 2050 
Q 2150 2050 2401 2323 
Q 2653 2597 2653 3081 
z
" transform="scale(0.015625)"/>
        <path id="ArialMT-32" d="M 3222 541 
L 3222 0 
L 194 0 
Q 188 203 259 391 
Q 375 700 629 1000 
Q 884 1300 1366 1694 
Q 2113 2306 2375 2664 
Q 2638 3022 2638 3341 
Q 2638 3675 2398 3904 
Q 2159 4134 1775 4134 
Q 1369 4134 1125 3890 
Q 881 3647 878 3216 
L 300 3275 
Q 359 3922 746 4261 
Q 1134 4600 1788 4600 
Q 2447 4600 2831 4234 
Q 3216 3869 3216 3328 
Q 3216 3053 3103 2787 
Q 2991 2522 2730 2228 
Q 2469 1934 1863 1422 
Q 1356 997 1212 845 
Q 1069 694 975 541 
L 3222 541 
z
" transform="scale(0.015625)"/>
        <path id="ArialMT-30" d="M 266 2259 
Q 266 3072 433 3567 
Q 600 4063 929 4331 
Q 1259 4600 1759 4600 
Q 2128 4600 2406 4451 
Q 2684 4303 2865 4023 
Q 3047 3744 3150 3342 
Q 3253 2941 3253 2259 
Q 3253 1453 3087 958 
Q 2922 463 2592 192 
Q 2263 -78 1759 -78 
Q 1097 -78 719 397 
Q 266 969 266 2259 
z
M 844 2259 
Q 844 1131 1108 757 
Q 1372 384 1759 384 
Q 2147 384 2411 759 
Q 2675 1134 2675 2259 
Q 2675 3391 2411 3762 
Q 2147 4134 1753 4134 
Q 1366 4134 1134 3806 
Q 844 3388 844 2259 
z
" transform="scale(0.015625)"/>
       </defs>
       <use xlink:href="#ArialMT-31"/>
       <use xlink:href="#ArialMT-39" x="55.615234"/>
       <use xlink:href="#ArialMT-32" x="111.230469"/>
       <use xlink:href="#ArialMT-30" x="166.845703"/>
      </g>
     </g>
    </g>
    <g id="xtick_2">
     <g id="line2d_2">
      <g>
       <use xlink:href="#mb9fc767f9a" x="152.602597" y="172.8" style="stroke: #000000"/>
      </g>
     </g>
     <g id="text_2">
      <!-- 1940 -->
      <g transform="translate(135.919785 190.536719)scale(0.15 -0.15)">
       <defs>
        <path id="ArialMT-34" d="M 2069 0 
L 2069 1097 
L 81 1097 
L 81 1613 
L 2172 4581 
L 2631 4581 
L 2631 1613 
L 3250 1613 
L 3250 1097 
L 2631 1097 
L 2631 0 
L 2069 0 
z
M 2069 1613 
L 2069 3678 
L 634 1613 
L 2069 1613 
z
" transform="scale(0.015625)"/>
       </defs>
       <use xlink:href="#ArialMT-31"/>
       <use xlink:href="#ArialMT-39" x="55.615234"/>
       <use xlink:href="#ArialMT-34" x="111.230469"/>
       <use xlink:href="#ArialMT-30" x="166.845703"/>
      </g>
     </g>
    </g>
    <g id="xtick_3">
     <g id="line2d_3">
      <g>
       <use xlink:href="#mb9fc767f9a" x="212.446753" y="172.8" style="stroke: #000000"/>
      </g>
     </g>
     <g id="text_3">
      <!-- 1960 -->
      <g transform="translate(195.763941 190.536719)scale(0.15 -0.15)">
       <defs>
        <path id="ArialMT-36" d="M 3184 3459 
L 2625 3416 
Q 2550 3747 2413 3897 
Q 2184 4138 1850 4138 
Q 1581 4138 1378 3988 
Q 1113 3794 959 3422 
Q 806 3050 800 2363 
Q 1003 2672 1297 2822 
Q 1591 2972 1913 2972 
Q 2475 2972 2870 2558 
Q 3266 2144 3266 1488 
Q 3266 1056 3080 686 
Q 2894 316 2569 119 
Q 2244 -78 1831 -78 
Q 1128 -78 684 439 
Q 241 956 241 2144 
Q 241 3472 731 4075 
Q 1159 4600 1884 4600 
Q 2425 4600 2770 4297 
Q 3116 3994 3184 3459 
z
M 888 1484 
Q 888 1194 1011 928 
Q 1134 663 1356 523 
Q 1578 384 1822 384 
Q 2178 384 2434 671 
Q 2691 959 2691 1453 
Q 2691 1928 2437 2201 
Q 2184 2475 1800 2475 
Q 1419 2475 1153 2201 
Q 888 1928 888 1484 
z
" transform="scale(0.015625)"/>
       </defs>
       <use xlink:href="#ArialMT-31"/>
       <use xlink:href="#ArialMT-39" x="55.615234"/>
       <use xlink:href="#ArialMT-36" x="111.230469"/>
       <use xlink:href="#ArialMT-30" x="166.845703"/>
      </g>
     </g>
    </g>
    <g id="xtick_4">
     <g id="line2d_4">
      <g>
       <use xlink:href="#mb9fc767f9a" x="272.290909" y="172.8" style="stroke: #000000"/>
      </g>
     </g>
     <g id="text_4">
      <!-- 1980 -->
      <g transform="translate(255.608097 190.536719)scale(0.15 -0.15)">
       <defs>
        <path id="ArialMT-38" d="M 1131 2484 
Q 781 2613 612 2850 
Q 444 3088 444 3419 
Q 444 3919 803 4259 
Q 1163 4600 1759 4600 
Q 2359 4600 2725 4251 
Q 3091 3903 3091 3403 
Q 3091 3084 2923 2848 
Q 2756 2613 2416 2484 
Q 2838 2347 3058 2040 
Q 3278 1734 3278 1309 
Q 3278 722 2862 322 
Q 2447 -78 1769 -78 
Q 1091 -78 675 323 
Q 259 725 259 1325 
Q 259 1772 486 2073 
Q 713 2375 1131 2484 
z
M 1019 3438 
Q 1019 3113 1228 2906 
Q 1438 2700 1772 2700 
Q 2097 2700 2305 2904 
Q 2513 3109 2513 3406 
Q 2513 3716 2298 3927 
Q 2084 4138 1766 4138 
Q 1444 4138 1231 3931 
Q 1019 3725 1019 3438 
z
M 838 1322 
Q 838 1081 952 856 
Q 1066 631 1291 507 
Q 1516 384 1775 384 
Q 2178 384 2440 643 
Q 2703 903 2703 1303 
Q 2703 1709 2433 1975 
Q 2163 2241 1756 2241 
Q 1359 2241 1098 1978 
Q 838 1716 838 1322 
z
" transform="scale(0.015625)"/>
       </defs>
       <use xlink:href="#ArialMT-31"/>
       <use xlink:href="#ArialMT-39" x="55.615234"/>
       <use xlink:href="#ArialMT-38" x="111.230469"/>
       <use xlink:href="#ArialMT-30" x="166.845703"/>
      </g>
     </g>
    </g>
    <g id="xtick_5">
     <g id="line2d_5">
      <g>
       <use xlink:href="#mb9fc767f9a" x="332.135065" y="172.8" style="stroke: #000000"/>
      </g>
     </g>
     <g id="text_5">
      <!-- 2000 -->
      <g transform="translate(315.452252 190.536719)scale(0.15 -0.15)">
       <use xlink:href="#ArialMT-32"/>
       <use xlink:href="#ArialMT-30" x="55.615234"/>
       <use xlink:href="#ArialMT-30" x="111.230469"/>
       <use xlink:href="#ArialMT-30" x="166.845703"/>
      </g>
     </g>
    </g>
    <g id="xtick_6">
     <g id="line2d_6">
      <g>
       <use xlink:href="#mb9fc767f9a" x="391.979221" y="172.8" style="stroke: #000000"/>
      </g>
     </g>
     <g id="text_6">
      <!-- 2020 -->
      <g transform="translate(375.296408 190.536719)scale(0.15 -0.15)">
       <use xlink:href="#ArialMT-32"/>
       <use xlink:href="#ArialMT-30" x="55.615234"/>
       <use xlink:href="#ArialMT-32" x="111.230469"/>
       <use xlink:href="#ArialMT-30" x="166.845703"/>
      </g>
     </g>
    </g>
   </g>
   <g id="matplotlib.axis_2">
    <g id="ytick_1">
     <g id="line2d_7">
      <defs>
       <path id="m3e60b5257c" d="M 0 0 
L 3.5 0 
" style="stroke: #000000"/>
      </defs>
      <g>
       <use xlink:href="#m3e60b5257c" x="46.08" y="141.950722" style="stroke: #000000"/>
      </g>
     </g>
     <g id="text_7">
      <!-- 20 -->
      <g transform="translate(25.897188 147.319082)scale(0.15 -0.15)">
       <use xlink:href="#ArialMT-32"/>
       <use xlink:href="#ArialMT-30" x="55.615234"/>
      </g>
     </g>
    </g>
    <g id="ytick_2">
     <g id="line2d_8">
      <g>
       <use xlink:href="#m3e60b5257c" x="46.08" y="105.247239" style="stroke: #000000"/>
      </g>
     </g>
     <g id="text_8">
      <!-- 40 -->
      <g transform="translate(25.897188 110.615598)scale(0.15 -0.15)">
       <use xlink:href="#ArialMT-34"/>
       <use xlink:href="#ArialMT-30" x="55.615234"/>
      </g>
     </g>
    </g>
    <g id="ytick_3">
     <g id="line2d_9">
      <g>
       <use xlink:href="#m3e60b5257c" x="46.08" y="68.543755" style="stroke: #000000"/>
      </g>
     </g>
     <g id="text_9">
      <!-- 60 -->
      <g transform="translate(25.897188 73.912115)scale(0.15 -0.15)">
       <use xlink:href="#ArialMT-36"/>
       <use xlink:href="#ArialMT-30" x="55.615234"/>
      </g>
     </g>
    </g>
    <g id="ytick_4">
     <g id="line2d_10">
      <defs>
       <path id="mebf5abead2" d="M 0 0 
L 2 0 
" style="stroke: #000000; stroke-width: 0.6"/>
      </defs>
      <g>
       <use xlink:href="#mebf5abead2" x="46.08" y="169.478335" style="stroke: #000000; stroke-width: 0.6"/>
      </g>
     </g>
    </g>
    <g id="ytick_5">
     <g id="line2d_11">
      <g>
       <use xlink:href="#mebf5abead2" x="46.08" y="160.302464" style="stroke: #000000; stroke-width: 0.6"/>
      </g>
     </g>
    </g>
    <g id="ytick_6">
     <g id="line2d_12">
      <g>
       <use xlink:href="#mebf5abead2" x="46.08" y="151.126593" style="stroke: #000000; stroke-width: 0.6"/>
      </g>
     </g>
    </g>
    <g id="ytick_7">
     <g id="line2d_13">
      <g>
       <use xlink:href="#mebf5abead2" x="46.08" y="132.774851" style="stroke: #000000; stroke-width: 0.6"/>
      </g>
     </g>
    </g>
    <g id="ytick_8">
     <g id="line2d_14">
      <g>
       <use xlink:href="#mebf5abead2" x="46.08" y="123.59898" style="stroke: #000000; stroke-width: 0.6"/>
      </g>
     </g>
    </g>
    <g id="ytick_9">
     <g id="line2d_15">
      <g>
       <use xlink:href="#mebf5abead2" x="46.08" y="114.42311" style="stroke: #000000; stroke-width: 0.6"/>
      </g>
     </g>
    </g>
    <g id="ytick_10">
     <g id="line2d_16">
      <g>
       <use xlink:href="#mebf5abead2" x="46.08" y="96.071368" style="stroke: #000000; stroke-width: 0.6"/>
      </g>
     </g>
    </g>
    <g id="ytick_11">
     <g id="line2d_17">
      <g>
       <use xlink:href="#mebf5abead2" x="46.08" y="86.895497" style="stroke: #000000; stroke-width: 0.6"/>
      </g>
     </g>
    </g>
    <g id="ytick_12">
     <g id="line2d_18">
      <g>
       <use xlink:href="#mebf5abead2" x="46.08" y="77.719626" style="stroke: #000000; stroke-width: 0.6"/>
      </g>
     </g>
    </g>
    <g id="ytick_13">
     <g id="line2d_19">
      <g>
       <use xlink:href="#mebf5abead2" x="46.08" y="59.367884" style="stroke: #000000; stroke-width: 0.6"/>
      </g>
     </g>
    </g>
    <g id="ytick_14">
     <g id="line2d_20">
      <g>
       <use xlink:href="#mebf5abead2" x="46.08" y="50.192014" style="stroke: #000000; stroke-width: 0.6"/>
      </g>
     </g>
    </g>
   </g>
   <g id="line2d_21">
    <path d="M 62.836364 157.366185 
L 65.828571 166.909091 
L 68.820779 133.875956 
L 71.812987 156.265081 
L 74.805195 99.741716 
L 77.797403 138.647409 
L 80.78961 150.392523 
L 83.781818 99.191164 
L 86.774026 49.090909 
L 89.766234 150.943076 
L 92.758442 104.146134 
L 95.750649 101.393373 
L 98.742857 144.336449 
L 101.735065 153.512319 
L 104.727273 156.448598 
L 107.719481 159.384877 
L 110.711688 147.08921 
L 113.703896 163.238743 
L 116.696104 125.984707 
L 119.688312 114.42311 
L 122.680519 141.216653 
L 125.672727 131.490229 
L 128.664935 157.549703 
L 131.657143 150.025489 
L 134.649351 151.493628 
L 137.641558 155.163976 
L 140.633766 129.655055 
L 143.625974 144.336449 
L 146.618182 152.04418 
L 149.61039 85.794393 
L 152.602597 136.261682 
L 155.594805 137.362787 
L 158.587013 145.070518 
L 161.579221 156.632116 
L 164.571429 144.336449 
L 167.563636 144.519966 
L 170.555844 117.542906 
L 173.548052 119.011045 
L 176.54026 140.849618 
L 179.532468 128.370433 
L 182.524675 138.463891 
L 185.516883 146.538658 
L 188.509091 129.28802 
L 191.501299 148.924384 
L 194.493506 119.194562 
L 197.485714 106.715378 
L 200.477922 144.519966 
L 203.47013 152.77825 
L 206.462338 135.160578 
L 209.454545 128.737468 
L 212.446753 143.602379 
L 215.438961 149.107901 
L 218.431169 120.295667 
L 221.423377 159.935429 
L 224.415584 137.546304 
L 227.407792 148.006797 
L 230.4 119.194562 
L 233.392208 139.197961 
L 236.384416 146.538658 
L 239.376623 154.796941 
L 242.368831 69.461342 
L 245.361039 153.879354 
L 248.353247 148.373832 
L 251.345455 141.950722 
L 254.337662 152.04418 
L 257.32987 148.373832 
L 260.322078 140.115548 
L 263.314286 152.04418 
L 266.306494 127.269329 
L 269.298701 153.879354 
L 272.290909 153.879354 
L 275.283117 138.280374 
L 278.275325 157.549703 
L 281.267532 161.220051 
L 284.25974 138.280374 
L 287.251948 130.02209 
L 290.244156 144.703483 
L 293.236364 146.538658 
L 296.228571 144.703483 
L 299.220779 147.456245 
L 302.212987 122.681393 
L 305.205195 130.939677 
L 308.197403 158.46729 
L 311.18961 148.373832 
L 314.181818 131.857264 
L 317.174026 152.961767 
L 320.166234 134.610025 
L 323.158442 143.785896 
L 326.150649 148.373832 
L 329.142857 151.126593 
L 332.135065 143.785896 
L 335.127273 163.055225 
L 338.119481 80.472387 
L 341.111688 149.291419 
L 344.103896 122.681393 
L 347.096104 143.785896 
L 350.088312 153.879354 
L 353.080519 141.033135 
L 356.072727 134.610025 
L 359.064935 130.02209 
L 362.057143 124.516568 
L 365.049351 142.868309 
L 368.041558 157.549703 
L 371.033766 145.621071 
L 374.025974 146.538658 
L 377.018182 138.280374 
L 380.01039 156.632116 
L 383.002597 163.055225 
L 385.994805 156.632116 
L 388.987013 151.126593 
L 391.979221 152.961767 
L 394.971429 155.714528 
L 397.963636 132.774851 
" clip-path="url(#p7b0a9a2a02)" style="fill: none; stroke: #000000; stroke-linecap: square"/>
    <defs>
     <path id="m884016d38b" d="M 0 2 
C 0.530406 2 1.03916 1.789267 1.414214 1.414214 
C 1.789267 1.03916 2 0.530406 2 0 
C 2 -0.530406 1.789267 -1.03916 1.414214 -1.414214 
C 1.03916 -1.789267 0.530406 -2 0 -2 
C -0.530406 -2 -1.03916 -1.789267 -1.414214 -1.414214 
C -1.789267 -1.03916 -2 -0.530406 -2 0 
C -2 0.530406 -1.789267 1.03916 -1.414214 1.414214 
C -1.03916 1.789267 -0.530406 2 0 2 
z
" style="stroke: #000000"/>
    </defs>
    <g clip-path="url(#p7b0a9a2a02)">
     <use xlink:href="#m884016d38b" x="62.836364" y="157.366185" style="stroke: #000000"/>
     <use xlink:href="#m884016d38b" x="65.828571" y="166.909091" style="stroke: #000000"/>
     <use xlink:href="#m884016d38b" x="68.820779" y="133.875956" style="stroke: #000000"/>
     <use xlink:href="#m884016d38b" x="71.812987" y="156.265081" style="stroke: #000000"/>
     <use xlink:href="#m884016d38b" x="74.805195" y="99.741716" style="stroke: #000000"/>
     <use xlink:href="#m884016d38b" x="77.797403" y="138.647409" style="stroke: #000000"/>
     <use xlink:href="#m884016d38b" x="80.78961" y="150.392523" style="stroke: #000000"/>
     <use xlink:href="#m884016d38b" x="83.781818" y="99.191164" style="stroke: #000000"/>
     <use xlink:href="#m884016d38b" x="86.774026" y="49.090909" style="stroke: #000000"/>
     <use xlink:href="#m884016d38b" x="89.766234" y="150.943076" style="stroke: #000000"/>
     <use xlink:href="#m884016d38b" x="92.758442" y="104.146134" style="stroke: #000000"/>
     <use xlink:href="#m884016d38b" x="95.750649" y="101.393373" style="stroke: #000000"/>
     <use xlink:href="#m884016d38b" x="98.742857" y="144.336449" style="stroke: #000000"/>
     <use xlink:href="#m884016d38b" x="101.735065" y="153.512319" style="stroke: #000000"/>
     <use xlink:href="#m884016d38b" x="104.727273" y="156.448598" style="stroke: #000000"/>
     <use xlink:href="#m884016d38b" x="107.719481" y="159.384877" style="stroke: #000000"/>
     <use xlink:href="#m884016d38b" x="110.711688" y="147.08921" style="stroke: #000000"/>
     <use xlink:href="#m884016d38b" x="113.703896" y="163.238743" style="stroke: #000000"/>
     <use xlink:href="#m884016d38b" x="116.696104" y="125.984707" style="stroke: #000000"/>
     <use xlink:href="#m884016d38b" x="119.688312" y="114.42311" style="stroke: #000000"/>
     <use xlink:href="#m884016d38b" x="122.680519" y="141.216653" style="stroke: #000000"/>
     <use xlink:href="#m884016d38b" x="125.672727" y="131.490229" style="stroke: #000000"/>
     <use xlink:href="#m884016d38b" x="128.664935" y="157.549703" style="stroke: #000000"/>
     <use xlink:href="#m884016d38b" x="131.657143" y="150.025489" style="stroke: #000000"/>
     <use xlink:href="#m884016d38b" x="134.649351" y="151.493628" style="stroke: #000000"/>
     <use xlink:href="#m884016d38b" x="137.641558" y="155.163976" style="stroke: #000000"/>
     <use xlink:href="#m884016d38b" x="140.633766" y="129.655055" style="stroke: #000000"/>
     <use xlink:href="#m884016d38b" x="143.625974" y="144.336449" style="stroke: #000000"/>
     <use xlink:href="#m884016d38b" x="146.618182" y="152.04418" style="stroke: #000000"/>
     <use xlink:href="#m884016d38b" x="149.61039" y="85.794393" style="stroke: #000000"/>
     <use xlink:href="#m884016d38b" x="152.602597" y="136.261682" style="stroke: #000000"/>
     <use xlink:href="#m884016d38b" x="155.594805" y="137.362787" style="stroke: #000000"/>
     <use xlink:href="#m884016d38b" x="158.587013" y="145.070518" style="stroke: #000000"/>
     <use xlink:href="#m884016d38b" x="161.579221" y="156.632116" style="stroke: #000000"/>
     <use xlink:href="#m884016d38b" x="164.571429" y="144.336449" style="stroke: #000000"/>
     <use xlink:href="#m884016d38b" x="167.563636" y="144.519966" style="stroke: #000000"/>
     <use xlink:href="#m884016d38b" x="170.555844" y="117.542906" style="stroke: #000000"/>
     <use xlink:href="#m884016d38b" x="173.548052" y="119.011045" style="stroke: #000000"/>
     <use xlink:href="#m884016d38b" x="176.54026" y="140.849618" style="stroke: #000000"/>
     <use xlink:href="#m884016d38b" x="179.532468" y="128.370433" style="stroke: #000000"/>
     <use xlink:href="#m884016d38b" x="182.524675" y="138.463891" style="stroke: #000000"/>
     <use xlink:href="#m884016d38b" x="185.516883" y="146.538658" style="stroke: #000000"/>
     <use xlink:href="#m884016d38b" x="188.509091" y="129.28802" style="stroke: #000000"/>
     <use xlink:href="#m884016d38b" x="191.501299" y="148.924384" style="stroke: #000000"/>
     <use xlink:href="#m884016d38b" x="194.493506" y="119.194562" style="stroke: #000000"/>
     <use xlink:href="#m884016d38b" x="197.485714" y="106.715378" style="stroke: #000000"/>
     <use xlink:href="#m884016d38b" x="200.477922" y="144.519966" style="stroke: #000000"/>
     <use xlink:href="#m884016d38b" x="203.47013" y="152.77825" style="stroke: #000000"/>
     <use xlink:href="#m884016d38b" x="206.462338" y="135.160578" style="stroke: #000000"/>
     <use xlink:href="#m884016d38b" x="209.454545" y="128.737468" style="stroke: #000000"/>
     <use xlink:href="#m884016d38b" x="212.446753" y="143.602379" style="stroke: #000000"/>
     <use xlink:href="#m884016d38b" x="215.438961" y="149.107901" style="stroke: #000000"/>
     <use xlink:href="#m884016d38b" x="218.431169" y="120.295667" style="stroke: #000000"/>
     <use xlink:href="#m884016d38b" x="221.423377" y="159.935429" style="stroke: #000000"/>
     <use xlink:href="#m884016d38b" x="224.415584" y="137.546304" style="stroke: #000000"/>
     <use xlink:href="#m884016d38b" x="227.407792" y="148.006797" style="stroke: #000000"/>
     <use xlink:href="#m884016d38b" x="230.4" y="119.194562" style="stroke: #000000"/>
     <use xlink:href="#m884016d38b" x="233.392208" y="139.197961" style="stroke: #000000"/>
     <use xlink:href="#m884016d38b" x="236.384416" y="146.538658" style="stroke: #000000"/>
     <use xlink:href="#m884016d38b" x="239.376623" y="154.796941" style="stroke: #000000"/>
     <use xlink:href="#m884016d38b" x="242.368831" y="69.461342" style="stroke: #000000"/>
     <use xlink:href="#m884016d38b" x="245.361039" y="153.879354" style="stroke: #000000"/>
     <use xlink:href="#m884016d38b" x="248.353247" y="148.373832" style="stroke: #000000"/>
     <use xlink:href="#m884016d38b" x="251.345455" y="141.950722" style="stroke: #000000"/>
     <use xlink:href="#m884016d38b" x="254.337662" y="152.04418" style="stroke: #000000"/>
     <use xlink:href="#m884016d38b" x="257.32987" y="148.373832" style="stroke: #000000"/>
     <use xlink:href="#m884016d38b" x="260.322078" y="140.115548" style="stroke: #000000"/>
     <use xlink:href="#m884016d38b" x="263.314286" y="152.04418" style="stroke: #000000"/>
     <use xlink:href="#m884016d38b" x="266.306494" y="127.269329" style="stroke: #000000"/>
     <use xlink:href="#m884016d38b" x="269.298701" y="153.879354" style="stroke: #000000"/>
     <use xlink:href="#m884016d38b" x="272.290909" y="153.879354" style="stroke: #000000"/>
     <use xlink:href="#m884016d38b" x="275.283117" y="138.280374" style="stroke: #000000"/>
     <use xlink:href="#m884016d38b" x="278.275325" y="157.549703" style="stroke: #000000"/>
     <use xlink:href="#m884016d38b" x="281.267532" y="161.220051" style="stroke: #000000"/>
     <use xlink:href="#m884016d38b" x="284.25974" y="138.280374" style="stroke: #000000"/>
     <use xlink:href="#m884016d38b" x="287.251948" y="130.02209" style="stroke: #000000"/>
     <use xlink:href="#m884016d38b" x="290.244156" y="144.703483" style="stroke: #000000"/>
     <use xlink:href="#m884016d38b" x="293.236364" y="146.538658" style="stroke: #000000"/>
     <use xlink:href="#m884016d38b" x="296.228571" y="144.703483" style="stroke: #000000"/>
     <use xlink:href="#m884016d38b" x="299.220779" y="147.456245" style="stroke: #000000"/>
     <use xlink:href="#m884016d38b" x="302.212987" y="122.681393" style="stroke: #000000"/>
     <use xlink:href="#m884016d38b" x="305.205195" y="130.939677" style="stroke: #000000"/>
     <use xlink:href="#m884016d38b" x="308.197403" y="158.46729" style="stroke: #000000"/>
     <use xlink:href="#m884016d38b" x="311.18961" y="148.373832" style="stroke: #000000"/>
     <use xlink:href="#m884016d38b" x="314.181818" y="131.857264" style="stroke: #000000"/>
     <use xlink:href="#m884016d38b" x="317.174026" y="152.961767" style="stroke: #000000"/>
     <use xlink:href="#m884016d38b" x="320.166234" y="134.610025" style="stroke: #000000"/>
     <use xlink:href="#m884016d38b" x="323.158442" y="143.785896" style="stroke: #000000"/>
     <use xlink:href="#m884016d38b" x="326.150649" y="148.373832" style="stroke: #000000"/>
     <use xlink:href="#m884016d38b" x="329.142857" y="151.126593" style="stroke: #000000"/>
     <use xlink:href="#m884016d38b" x="332.135065" y="143.785896" style="stroke: #000000"/>
     <use xlink:href="#m884016d38b" x="335.127273" y="163.055225" style="stroke: #000000"/>
     <use xlink:href="#m884016d38b" x="338.119481" y="80.472387" style="stroke: #000000"/>
     <use xlink:href="#m884016d38b" x="341.111688" y="149.291419" style="stroke: #000000"/>
     <use xlink:href="#m884016d38b" x="344.103896" y="122.681393" style="stroke: #000000"/>
     <use xlink:href="#m884016d38b" x="347.096104" y="143.785896" style="stroke: #000000"/>
     <use xlink:href="#m884016d38b" x="350.088312" y="153.879354" style="stroke: #000000"/>
     <use xlink:href="#m884016d38b" x="353.080519" y="141.033135" style="stroke: #000000"/>
     <use xlink:href="#m884016d38b" x="356.072727" y="134.610025" style="stroke: #000000"/>
     <use xlink:href="#m884016d38b" x="359.064935" y="130.02209" style="stroke: #000000"/>
     <use xlink:href="#m884016d38b" x="362.057143" y="124.516568" style="stroke: #000000"/>
     <use xlink:href="#m884016d38b" x="365.049351" y="142.868309" style="stroke: #000000"/>
     <use xlink:href="#m884016d38b" x="368.041558" y="157.549703" style="stroke: #000000"/>
     <use xlink:href="#m884016d38b" x="371.033766" y="145.621071" style="stroke: #000000"/>
     <use xlink:href="#m884016d38b" x="374.025974" y="146.538658" style="stroke: #000000"/>
     <use xlink:href="#m884016d38b" x="377.018182" y="138.280374" style="stroke: #000000"/>
     <use xlink:href="#m884016d38b" x="380.01039" y="156.632116" style="stroke: #000000"/>
     <use xlink:href="#m884016d38b" x="383.002597" y="163.055225" style="stroke: #000000"/>
     <use xlink:href="#m884016d38b" x="385.994805" y="156.632116" style="stroke: #000000"/>
     <use xlink:href="#m884016d38b" x="388.987013" y="151.126593" style="stroke: #000000"/>
     <use xlink:href="#m884016d38b" x="391.979221" y="152.961767" style="stroke: #000000"/>
     <use xlink:href="#m884016d38b" x="394.971429" y="155.714528" style="stroke: #000000"/>
     <use xlink:href="#m884016d38b" x="397.963636" y="132.774851" style="stroke: #000000"/>
    </g>
   </g>
   <g id="line2d_22">
    <path d="M 62.836364 133.600466 
L 66.221488 133.720765 
L 69.606612 133.841063 
L 72.991736 133.961362 
L 76.37686 134.081661 
L 79.761983 134.201959 
L 83.147107 134.322258 
L 86.532231 134.442557 
L 89.917355 134.562856 
L 93.302479 134.683154 
L 96.687603 134.803453 
L 100.072727 134.923752 
L 103.457851 135.04405 
L 106.842975 135.164349 
L 110.228099 135.284648 
L 113.613223 135.404946 
L 116.998347 135.525245 
L 120.383471 135.645544 
L 123.768595 135.765843 
L 127.153719 135.886141 
L 130.538843 136.00644 
L 133.923967 136.126739 
L 137.309091 136.247037 
L 140.694215 136.367336 
L 144.079339 136.487635 
L 147.464463 136.607933 
L 150.849587 136.728232 
L 154.234711 136.848531 
L 157.619835 136.968829 
L 161.004959 137.089128 
L 164.390083 137.209427 
L 167.775207 137.329726 
L 171.160331 137.450024 
L 174.545455 137.570323 
L 177.930579 137.690622 
L 181.315702 137.81092 
L 184.700826 137.931219 
L 188.08595 138.051518 
L 191.471074 138.171816 
L 194.856198 138.292115 
L 198.241322 138.412414 
L 201.626446 138.532713 
L 205.01157 138.653011 
L 208.396694 138.77331 
L 211.781818 138.893609 
L 215.166942 139.013907 
L 218.552066 139.134206 
L 221.93719 139.254505 
L 225.322314 139.374803 
L 228.707438 139.495102 
L 232.092562 139.615401 
L 235.477686 139.7357 
L 238.86281 139.855998 
L 242.247934 139.976297 
L 245.633058 140.096596 
L 249.018182 140.216894 
L 252.403306 140.337193 
L 255.78843 140.457492 
L 259.173554 140.57779 
L 262.558678 140.698089 
L 265.943802 140.818388 
L 269.328926 140.938686 
L 272.71405 141.058985 
L 276.099174 141.179284 
L 279.484298 141.299583 
L 282.869421 141.419881 
L 286.254545 141.54018 
L 289.639669 141.660479 
L 293.024793 141.780777 
L 296.409917 141.901076 
L 299.795041 142.021375 
L 303.180165 142.141673 
L 306.565289 142.261972 
L 309.950413 142.382271 
L 313.335537 142.50257 
L 316.720661 142.622868 
L 320.105785 142.743167 
L 323.490909 142.863466 
L 326.876033 142.983764 
L 330.261157 143.104063 
L 333.646281 143.224362 
L 337.031405 143.34466 
L 340.416529 143.464959 
L 343.801653 143.585258 
L 347.186777 143.705556 
L 350.571901 143.825855 
L 353.957025 143.946154 
L 357.342149 144.066453 
L 360.727273 144.186751 
L 364.112397 144.30705 
L 367.497521 144.427349 
L 370.882645 144.547647 
L 374.267769 144.667946 
L 377.652893 144.788245 
L 381.038017 144.908543 
L 384.42314 145.028842 
L 387.808264 145.149141 
L 391.193388 145.26944 
L 394.578512 145.389738 
L 397.963636 145.510037 
" clip-path="url(#p7b0a9a2a02)" style="fill: none; stroke: #000000; stroke-width: 1.5; stroke-linecap: square"/>
   </g>
   <g id="patch_3">
    <path d="M 46.08 172.8 
L 46.08 43.2 
" style="fill: none; stroke: #000000; stroke-linejoin: miter; stroke-linecap: square"/>
   </g>
   <g id="patch_4">
    <path d="M 414.72 172.8 
L 414.72 43.2 
" style="fill: none; stroke: #000000; stroke-linejoin: miter; stroke-linecap: square"/>
   </g>
   <g id="patch_5">
    <path d="M 46.08 172.8 
L 414.72 172.8 
" style="fill: none; stroke: #000000; stroke-linejoin: miter; stroke-linecap: square"/>
   </g>
   <g id="patch_6">
    <path d="M 46.08 43.2 
L 414.72 43.2 
" style="fill: none; stroke: #000000; stroke-linejoin: miter; stroke-linecap: square"/>
   </g>
   <g id="text_10">
    <!--  -->
    <g transform="translate(212.4 37.2)scale(0.18 -0.18)">
     <defs>
      <path id="MS-Gothic-672d" d="M 2250 -475 
L 1750 -475 
L 1750 2000 
Q 1575 1450 775 650 
L 425 1200 
Q 1275 1825 1750 3275 
L 675 3275 
L 675 3825 
L 1750 3825 
L 1750 5050 
L 2225 5050 
Q 2475 5000 2250 4850 
L 2250 3825 
L 3375 3825 
L 3375 3275 
L 2250 3275 
L 2250 2675 
Q 2975 2300 3425 1950 
L 3150 1350 
Q 2700 1775 2250 2075 
L 2250 -475 
z
M 6075 825 
L 5925 175 
Q 5800 -375 5175 -375 
L 4325 -375 
Q 3875 -375 3875 100 
L 3875 4925 
L 4425 4925 
Q 4675 4875 4450 4725 
L 4450 375 
Q 4450 175 4625 175 
L 5075 175 
Q 5325 175 5375 400 
L 5500 1050 
L 6075 825 
z
" transform="scale(0.015625)"/>
      <path id="MS-Gothic-5e4c" d="M 4450 1450 
L 3875 1450 
L 3875 775 
Q 3875 -250 2325 -650 
L 2175 -150 
Q 3450 100 3450 850 
L 3450 1450 
L 2625 1450 
L 2625 1850 
L 4050 1850 
L 4050 2950 
L 3475 2950 
L 2925 2950 
L 2925 5000 
L 5650 5000 
L 5650 2950 
L 4475 2950 
L 4475 1850 
L 6075 1850 
L 6075 1450 
L 4875 1450 
L 4875 125 
Q 4875 -50 5050 -50 
L 5375 -50 
Q 5525 -50 5575 150 
L 5650 475 
L 6125 375 
L 6000 -175 
Q 5900 -450 5675 -450 
L 4900 -450 
Q 4450 -450 4450 0 
L 4450 1450 
z
M 5525 2525 
Q 5425 2250 5250 1975 
L 4850 2150 
Q 5025 2450 5175 2825 
L 5600 2650 
Q 5700 2550 5525 2525 
z
M 3350 2825 
Q 3575 2575 3750 2225 
L 3350 1975 
Q 3175 2350 2975 2575 
L 3350 2825 
z
M 3350 4600 
L 3350 4175 
L 5225 4175 
L 5225 4600 
L 3350 4600 
z
M 5225 3775 
L 3350 3775 
L 3350 3350 
L 5225 3350 
L 5225 3775 
z
M 2450 3975 
L 2450 1275 
Q 2450 900 2175 900 
L 1850 900 
L 1800 1300 
L 1925 1300 
Q 2025 1300 2025 1400 
L 2025 3575 
L 1675 3575 
L 1675 -575 
L 1250 -575 
L 1250 3575 
L 925 3575 
L 925 875 
L 500 875 
L 500 3975 
L 1250 3975 
L 1250 5150 
L 1650 5150 
Q 1850 5125 1675 5000 
L 1675 3975 
L 2450 3975 
z
" transform="scale(0.015625)"/>
     </defs>
     <use xlink:href="#MS-Gothic-672d"/>
     <use xlink:href="#MS-Gothic-5e4c" x="100"/>
    </g>
   </g>
  </g>
 </g>
 <defs>
  <clipPath id="p7b0a9a2a02">
   <rect x="46.08" y="43.2" width="368.64" height="129.6"/>
  </clipPath>
 </defs>
</svg>
