<?xml version="1.0" encoding="utf-8" standalone="no"?>
<!DOCTYPE svg PUBLIC "-//W3C//DTD SVG 1.1//EN"
  "http://www.w3.org/Graphics/SVG/1.1/DTD/svg11.dtd">
<svg xmlns:xlink="http://www.w3.org/1999/xlink" width="460.8pt" height="432pt" viewBox="0 0 460.8 432" xmlns="http://www.w3.org/2000/svg" version="1.1">
 <metadata>
  <rdf:RDF xmlns:dc="http://purl.org/dc/elements/1.1/" xmlns:cc="http://creativecommons.org/ns#" xmlns:rdf="http://www.w3.org/1999/02/22-rdf-syntax-ns#">
   <cc:Work>
    <dc:type rdf:resource="http://purl.org/dc/dcmitype/StillImage"/>
    <dc:date>2022-08-12T11:38:01.973302</dc:date>
    <dc:format>image/svg+xml</dc:format>
    <dc:creator>
     <cc:Agent>
      <dc:title>Matplotlib v3.5.2, https://matplotlib.org/</dc:title>
     </cc:Agent>
    </dc:creator>
   </cc:Work>
  </rdf:RDF>
 </metadata>
 <defs>
  <style type="text/css">*{stroke-linejoin: round; stroke-linecap: butt}</style>
 </defs>
 <g id="figure_1">
  <g id="patch_1">
   <path d="M 0 432 
L 460.8 432 
L 460.8 0 
L 0 0 
z
" style="fill: #ffffff"/>
  </g>
  <g id="axes_1">
   <g id="patch_2">
    <path d="M 46.08 172.8 
L 414.72 172.8 
L 414.72 43.2 
L 46.08 43.2 
z
" style="fill: #ffffff"/>
   </g>
   <g id="PathCollection_1">
    <defs>
     <path id="mbbbb7e0141" style="stroke: #000000; stroke-opacity: 0.8"/>
    </defs>
    <g clip-path="url(#p25ab84cdfe)">
     <use xlink:href="#mbbbb7e0141" x="62.836364" y="136.403808" style="fill-opacity: 0.8; stroke: #000000; stroke-opacity: 0.8"/>
     <use xlink:href="#mbbbb7e0141" x="65.828571" y="157.011821" style="fill-opacity: 0.8; stroke: #000000; stroke-opacity: 0.8"/>
     <use xlink:href="#mbbbb7e0141" x="68.820779" y="159.587823" style="fill-opacity: 0.8; stroke: #000000; stroke-opacity: 0.8"/>
     <use xlink:href="#mbbbb7e0141" x="71.812987" y="155.249294" style="fill-opacity: 0.8; stroke: #000000; stroke-opacity: 0.8"/>
     <use xlink:href="#mbbbb7e0141" x="74.805195" y="90.849252" style="fill-opacity: 0.8; stroke: #000000; stroke-opacity: 0.8"/>
     <use xlink:href="#mbbbb7e0141" x="77.797403" y="150.368449" style="fill-opacity: 0.8; stroke: #000000; stroke-opacity: 0.8"/>
     <use xlink:href="#mbbbb7e0141" x="80.78961" y="153.215608" style="fill-opacity: 0.8; stroke: #000000; stroke-opacity: 0.8"/>
     <use xlink:href="#mbbbb7e0141" x="83.781818" y="151.995397" style="fill-opacity: 0.8; stroke: #000000; stroke-opacity: 0.8"/>
     <use xlink:href="#mbbbb7e0141" x="86.774026" y="136.810545" style="fill-opacity: 0.8; stroke: #000000; stroke-opacity: 0.8"/>
     <use xlink:href="#mbbbb7e0141" x="89.766234" y="139.793284" style="fill-opacity: 0.8; stroke: #000000; stroke-opacity: 0.8"/>
     <use xlink:href="#mbbbb7e0141" x="92.758442" y="105.627367" style="fill-opacity: 0.8; stroke: #000000; stroke-opacity: 0.8"/>
     <use xlink:href="#mbbbb7e0141" x="95.750649" y="145.080866" style="fill-opacity: 0.8; stroke: #000000; stroke-opacity: 0.8"/>
     <use xlink:href="#mbbbb7e0141" x="98.742857" y="158.774349" style="fill-opacity: 0.8; stroke: #000000; stroke-opacity: 0.8"/>
     <use xlink:href="#mbbbb7e0141" x="101.735065" y="154.842557" style="fill-opacity: 0.8; stroke: #000000; stroke-opacity: 0.8"/>
     <use xlink:href="#mbbbb7e0141" x="104.727273" y="155.249294" style="fill-opacity: 0.8; stroke: #000000; stroke-opacity: 0.8"/>
     <use xlink:href="#mbbbb7e0141" x="107.719481" y="165.010984" style="fill-opacity: 0.8; stroke: #000000; stroke-opacity: 0.8"/>
     <use xlink:href="#mbbbb7e0141" x="110.711688" y="140.3356" style="fill-opacity: 0.8; stroke: #000000; stroke-opacity: 0.8"/>
     <use xlink:href="#mbbbb7e0141" x="113.703896" y="157.689716" style="fill-opacity: 0.8; stroke: #000000; stroke-opacity: 0.8"/>
     <use xlink:href="#mbbbb7e0141" x="116.696104" y="156.469505" style="fill-opacity: 0.8; stroke: #000000; stroke-opacity: 0.8"/>
     <use xlink:href="#mbbbb7e0141" x="119.688312" y="133.827806" style="fill-opacity: 0.8; stroke: #000000; stroke-opacity: 0.8"/>
     <use xlink:href="#mbbbb7e0141" x="122.680519" y="162.028246" style="fill-opacity: 0.8; stroke: #000000; stroke-opacity: 0.8"/>
     <use xlink:href="#mbbbb7e0141" x="125.672727" y="135.997071" style="fill-opacity: 0.8; stroke: #000000; stroke-opacity: 0.8"/>
     <use xlink:href="#mbbbb7e0141" x="128.664935" y="130.845067" style="fill-opacity: 0.8; stroke: #000000; stroke-opacity: 0.8"/>
     <use xlink:href="#mbbbb7e0141" x="131.657143" y="145.89434" style="fill-opacity: 0.8; stroke: #000000; stroke-opacity: 0.8"/>
     <use xlink:href="#mbbbb7e0141" x="134.649351" y="132.743174" style="fill-opacity: 0.8; stroke: #000000; stroke-opacity: 0.8"/>
     <use xlink:href="#mbbbb7e0141" x="137.641558" y="143.725076" style="fill-opacity: 0.8; stroke: #000000; stroke-opacity: 0.8"/>
     <use xlink:href="#mbbbb7e0141" x="140.633766" y="140.742337" style="fill-opacity: 0.8; stroke: #000000; stroke-opacity: 0.8"/>
     <use xlink:href="#mbbbb7e0141" x="143.625974" y="163.655194" style="fill-opacity: 0.8; stroke: #000000; stroke-opacity: 0.8"/>
     <use xlink:href="#mbbbb7e0141" x="146.618182" y="154.978136" style="fill-opacity: 0.8; stroke: #000000; stroke-opacity: 0.8"/>
     <use xlink:href="#mbbbb7e0141" x="149.61039" y="136.674966" style="fill-opacity: 0.8; stroke: #000000; stroke-opacity: 0.8"/>
     <use xlink:href="#mbbbb7e0141" x="152.602597" y="153.757924" style="fill-opacity: 0.8; stroke: #000000; stroke-opacity: 0.8"/>
     <use xlink:href="#mbbbb7e0141" x="155.594805" y="151.58866" style="fill-opacity: 0.8; stroke: #000000; stroke-opacity: 0.8"/>
     <use xlink:href="#mbbbb7e0141" x="158.587013" y="131.251805" style="fill-opacity: 0.8; stroke: #000000; stroke-opacity: 0.8"/>
     <use xlink:href="#mbbbb7e0141" x="161.579221" y="143.996234" style="fill-opacity: 0.8; stroke: #000000; stroke-opacity: 0.8"/>
     <use xlink:href="#mbbbb7e0141" x="164.571429" y="162.299404" style="fill-opacity: 0.8; stroke: #000000; stroke-opacity: 0.8"/>
     <use xlink:href="#mbbbb7e0141" x="167.563636" y="159.316665" style="fill-opacity: 0.8; stroke: #000000; stroke-opacity: 0.8"/>
     <use xlink:href="#mbbbb7e0141" x="170.555844" y="156.740663" style="fill-opacity: 0.8; stroke: #000000; stroke-opacity: 0.8"/>
     <use xlink:href="#mbbbb7e0141" x="173.548052" y="147.250131" style="fill-opacity: 0.8; stroke: #000000; stroke-opacity: 0.8"/>
     <use xlink:href="#mbbbb7e0141" x="176.54026" y="143.047181" style="fill-opacity: 0.8; stroke: #000000; stroke-opacity: 0.8"/>
     <use xlink:href="#mbbbb7e0141" x="179.532468" y="106.169683" style="fill-opacity: 0.8; stroke: #000000; stroke-opacity: 0.8"/>
     <use xlink:href="#mbbbb7e0141" x="182.524675" y="140.877916" style="fill-opacity: 0.8; stroke: #000000; stroke-opacity: 0.8"/>
     <use xlink:href="#mbbbb7e0141" x="185.516883" y="165.010984" style="fill-opacity: 0.8; stroke: #000000; stroke-opacity: 0.8"/>
     <use xlink:href="#mbbbb7e0141" x="188.509091" y="157.1474" style="fill-opacity: 0.8; stroke: #000000; stroke-opacity: 0.8"/>
     <use xlink:href="#mbbbb7e0141" x="191.501299" y="151.046344" style="fill-opacity: 0.8; stroke: #000000; stroke-opacity: 0.8"/>
     <use xlink:href="#mbbbb7e0141" x="194.493506" y="153.486766" style="fill-opacity: 0.8; stroke: #000000; stroke-opacity: 0.8"/>
     <use xlink:href="#mbbbb7e0141" x="197.485714" y="126.642117" style="fill-opacity: 0.8; stroke: #000000; stroke-opacity: 0.8"/>
     <use xlink:href="#mbbbb7e0141" x="200.477922" y="155.249294" style="fill-opacity: 0.8; stroke: #000000; stroke-opacity: 0.8"/>
     <use xlink:href="#mbbbb7e0141" x="203.47013" y="147.656868" style="fill-opacity: 0.8; stroke: #000000; stroke-opacity: 0.8"/>
     <use xlink:href="#mbbbb7e0141" x="206.462338" y="120.269903" style="fill-opacity: 0.8; stroke: #000000; stroke-opacity: 0.8"/>
     <use xlink:href="#mbbbb7e0141" x="209.454545" y="151.995397" style="fill-opacity: 0.8; stroke: #000000; stroke-opacity: 0.8"/>
     <use xlink:href="#mbbbb7e0141" x="212.446753" y="159.045507" style="fill-opacity: 0.8; stroke: #000000; stroke-opacity: 0.8"/>
     <use xlink:href="#mbbbb7e0141" x="215.438961" y="135.183597" style="fill-opacity: 0.8; stroke: #000000; stroke-opacity: 0.8"/>
     <use xlink:href="#mbbbb7e0141" x="218.431169" y="161.35035" style="fill-opacity: 0.8; stroke: #000000; stroke-opacity: 0.8"/>
     <use xlink:href="#mbbbb7e0141" x="221.423377" y="157.960875" style="fill-opacity: 0.8; stroke: #000000; stroke-opacity: 0.8"/>
     <use xlink:href="#mbbbb7e0141" x="224.415584" y="166.909091" style="fill-opacity: 0.8; stroke: #000000; stroke-opacity: 0.8"/>
     <use xlink:href="#mbbbb7e0141" x="227.407792" y="87.866513" style="fill-opacity: 0.8; stroke: #000000; stroke-opacity: 0.8"/>
     <use xlink:href="#mbbbb7e0141" x="230.4" y="154.978136" style="fill-opacity: 0.8; stroke: #000000; stroke-opacity: 0.8"/>
     <use xlink:href="#mbbbb7e0141" x="233.392208" y="160.265718" style="fill-opacity: 0.8; stroke: #000000; stroke-opacity: 0.8"/>
     <use xlink:href="#mbbbb7e0141" x="236.384416" y="157.554137" style="fill-opacity: 0.8; stroke: #000000; stroke-opacity: 0.8"/>
     <use xlink:href="#mbbbb7e0141" x="239.376623" y="156.876242" style="fill-opacity: 0.8; stroke: #000000; stroke-opacity: 0.8"/>
     <use xlink:href="#mbbbb7e0141" x="242.368831" y="49.090909" style="fill-opacity: 0.8; stroke: #000000; stroke-opacity: 0.8"/>
     <use xlink:href="#mbbbb7e0141" x="245.361039" y="154.842557" style="fill-opacity: 0.8; stroke: #000000; stroke-opacity: 0.8"/>
     <use xlink:href="#mbbbb7e0141" x="248.353247" y="139.928863" style="fill-opacity: 0.8; stroke: #000000; stroke-opacity: 0.8"/>
     <use xlink:href="#mbbbb7e0141" x="251.345455" y="152.808871" style="fill-opacity: 0.8; stroke: #000000; stroke-opacity: 0.8"/>
     <use xlink:href="#mbbbb7e0141" x="254.337662" y="157.554137" style="fill-opacity: 0.8; stroke: #000000; stroke-opacity: 0.8"/>
     <use xlink:href="#mbbbb7e0141" x="257.32987" y="153.486766" style="fill-opacity: 0.8; stroke: #000000; stroke-opacity: 0.8"/>
     <use xlink:href="#mbbbb7e0141" x="260.322078" y="153.486766" style="fill-opacity: 0.8; stroke: #000000; stroke-opacity: 0.8"/>
     <use xlink:href="#mbbbb7e0141" x="263.314286" y="160.943613" style="fill-opacity: 0.8; stroke: #000000; stroke-opacity: 0.8"/>
     <use xlink:href="#mbbbb7e0141" x="266.306494" y="154.164662" style="fill-opacity: 0.8; stroke: #000000; stroke-opacity: 0.8"/>
     <use xlink:href="#mbbbb7e0141" x="269.298701" y="148.7415" style="fill-opacity: 0.8; stroke: #000000; stroke-opacity: 0.8"/>
     <use xlink:href="#mbbbb7e0141" x="272.290909" y="139.250968" style="fill-opacity: 0.8; stroke: #000000; stroke-opacity: 0.8"/>
     <use xlink:href="#mbbbb7e0141" x="275.283117" y="108.745685" style="fill-opacity: 0.8; stroke: #000000; stroke-opacity: 0.8"/>
     <use xlink:href="#mbbbb7e0141" x="278.275325" y="150.097291" style="fill-opacity: 0.8; stroke: #000000; stroke-opacity: 0.8"/>
     <use xlink:href="#mbbbb7e0141" x="281.267532" y="158.909928" style="fill-opacity: 0.8; stroke: #000000; stroke-opacity: 0.8"/>
     <use xlink:href="#mbbbb7e0141" x="284.25974" y="158.232033" style="fill-opacity: 0.8; stroke: #000000; stroke-opacity: 0.8"/>
     <use xlink:href="#mbbbb7e0141" x="287.251948" y="156.198347" style="fill-opacity: 0.8; stroke: #000000; stroke-opacity: 0.8"/>
     <use xlink:href="#mbbbb7e0141" x="290.244156" y="160.943613" style="fill-opacity: 0.8; stroke: #000000; stroke-opacity: 0.8"/>
     <use xlink:href="#mbbbb7e0141" x="293.236364" y="160.265718" style="fill-opacity: 0.8; stroke: #000000; stroke-opacity: 0.8"/>
     <use xlink:href="#mbbbb7e0141" x="296.228571" y="162.299404" style="fill-opacity: 0.8; stroke: #000000; stroke-opacity: 0.8"/>
     <use xlink:href="#mbbbb7e0141" x="299.220779" y="158.232033" style="fill-opacity: 0.8; stroke: #000000; stroke-opacity: 0.8"/>
     <use xlink:href="#mbbbb7e0141" x="302.212987" y="133.827806" style="fill-opacity: 0.8; stroke: #000000; stroke-opacity: 0.8"/>
     <use xlink:href="#mbbbb7e0141" x="305.205195" y="152.130976" style="fill-opacity: 0.8; stroke: #000000; stroke-opacity: 0.8"/>
     <use xlink:href="#mbbbb7e0141" x="308.197403" y="156.198347" style="fill-opacity: 0.8; stroke: #000000; stroke-opacity: 0.8"/>
     <use xlink:href="#mbbbb7e0141" x="311.18961" y="129.760435" style="fill-opacity: 0.8; stroke: #000000; stroke-opacity: 0.8"/>
     <use xlink:href="#mbbbb7e0141" x="314.181818" y="160.943613" style="fill-opacity: 0.8; stroke: #000000; stroke-opacity: 0.8"/>
     <use xlink:href="#mbbbb7e0141" x="317.174026" y="149.419395" style="fill-opacity: 0.8; stroke: #000000; stroke-opacity: 0.8"/>
     <use xlink:href="#mbbbb7e0141" x="320.166234" y="157.554137" style="fill-opacity: 0.8; stroke: #000000; stroke-opacity: 0.8"/>
     <use xlink:href="#mbbbb7e0141" x="323.158442" y="154.842557" style="fill-opacity: 0.8; stroke: #000000; stroke-opacity: 0.8"/>
     <use xlink:href="#mbbbb7e0141" x="326.150649" y="141.962548" style="fill-opacity: 0.8; stroke: #000000; stroke-opacity: 0.8"/>
     <use xlink:href="#mbbbb7e0141" x="329.142857" y="160.265718" style="fill-opacity: 0.8; stroke: #000000; stroke-opacity: 0.8"/>
     <use xlink:href="#mbbbb7e0141" x="332.135065" y="91.798305" style="fill-opacity: 0.8; stroke: #000000; stroke-opacity: 0.8"/>
     <use xlink:href="#mbbbb7e0141" x="335.127273" y="158.232033" style="fill-opacity: 0.8; stroke: #000000; stroke-opacity: 0.8"/>
     <use xlink:href="#mbbbb7e0141" x="338.119481" y="118.236217" style="fill-opacity: 0.8; stroke: #000000; stroke-opacity: 0.8"/>
     <use xlink:href="#mbbbb7e0141" x="341.111688" y="136.539387" style="fill-opacity: 0.8; stroke: #000000; stroke-opacity: 0.8"/>
     <use xlink:href="#mbbbb7e0141" x="344.103896" y="141.284653" style="fill-opacity: 0.8; stroke: #000000; stroke-opacity: 0.8"/>
     <use xlink:href="#mbbbb7e0141" x="347.096104" y="139.928863" style="fill-opacity: 0.8; stroke: #000000; stroke-opacity: 0.8"/>
     <use xlink:href="#mbbbb7e0141" x="350.088312" y="156.198347" style="fill-opacity: 0.8; stroke: #000000; stroke-opacity: 0.8"/>
     <use xlink:href="#mbbbb7e0141" x="353.080519" y="116.880427" style="fill-opacity: 0.8; stroke: #000000; stroke-opacity: 0.8"/>
     <use xlink:href="#mbbbb7e0141" x="356.072727" y="151.453081" style="fill-opacity: 0.8; stroke: #000000; stroke-opacity: 0.8"/>
     <use xlink:href="#mbbbb7e0141" x="359.064935" y="130.43833" style="fill-opacity: 0.8; stroke: #000000; stroke-opacity: 0.8"/>
     <use xlink:href="#mbbbb7e0141" x="362.057143" y="153.486766" style="fill-opacity: 0.8; stroke: #000000; stroke-opacity: 0.8"/>
     <use xlink:href="#mbbbb7e0141" x="365.049351" y="159.587823" style="fill-opacity: 0.8; stroke: #000000; stroke-opacity: 0.8"/>
     <use xlink:href="#mbbbb7e0141" x="368.041558" y="148.7415" style="fill-opacity: 0.8; stroke: #000000; stroke-opacity: 0.8"/>
     <use xlink:href="#mbbbb7e0141" x="371.033766" y="156.198347" style="fill-opacity: 0.8; stroke: #000000; stroke-opacity: 0.8"/>
     <use xlink:href="#mbbbb7e0141" x="374.025974" y="141.962548" style="fill-opacity: 0.8; stroke: #000000; stroke-opacity: 0.8"/>
     <use xlink:href="#mbbbb7e0141" x="377.018182" y="158.909928" style="fill-opacity: 0.8; stroke: #000000; stroke-opacity: 0.8"/>
     <use xlink:href="#mbbbb7e0141" x="380.01039" y="144.674129" style="fill-opacity: 0.8; stroke: #000000; stroke-opacity: 0.8"/>
     <use xlink:href="#mbbbb7e0141" x="383.002597" y="141.284653" style="fill-opacity: 0.8; stroke: #000000; stroke-opacity: 0.8"/>
     <use xlink:href="#mbbbb7e0141" x="385.994805" y="129.760435" style="fill-opacity: 0.8; stroke: #000000; stroke-opacity: 0.8"/>
     <use xlink:href="#mbbbb7e0141" x="388.987013" y="156.198347" style="fill-opacity: 0.8; stroke: #000000; stroke-opacity: 0.8"/>
     <use xlink:href="#mbbbb7e0141" x="391.979221" y="152.130976" style="fill-opacity: 0.8; stroke: #000000; stroke-opacity: 0.8"/>
     <use xlink:href="#mbbbb7e0141" x="394.971429" y="145.352024" style="fill-opacity: 0.8; stroke: #000000; stroke-opacity: 0.8"/>
     <use xlink:href="#mbbbb7e0141" x="397.963636" y="137.217282" style="fill-opacity: 0.8; stroke: #000000; stroke-opacity: 0.8"/>
    </g>
   </g>
   <g id="PolyCollection_1">
    <path d="M 62.836364 139.271404 
L 62.836364 151.382748 
L 66.221488 151.295349 
L 69.606612 151.207951 
L 72.991736 151.148625 
L 76.37686 151.132068 
L 79.761983 151.115511 
L 83.147107 151.067719 
L 86.532231 151.00722 
L 89.917355 150.928832 
L 93.302479 150.880972 
L 96.687603 150.825023 
L 100.072727 150.765128 
L 103.457851 150.705175 
L 106.842975 150.643189 
L 110.228099 150.576911 
L 113.613223 150.516105 
L 116.998347 150.425695 
L 120.383471 150.33408 
L 123.768595 150.243018 
L 127.153719 150.15152 
L 130.538843 150.099667 
L 133.923967 150.008188 
L 137.309091 149.947147 
L 140.694215 149.895064 
L 144.079339 149.826026 
L 147.464463 149.79238 
L 150.849587 149.742148 
L 154.234711 149.691915 
L 157.619835 149.656896 
L 161.004959 149.587915 
L 164.390083 149.537275 
L 167.775207 149.503937 
L 171.160331 149.484801 
L 174.545455 149.437314 
L 177.930579 149.360756 
L 181.315702 149.309225 
L 184.700826 149.291984 
L 188.08595 149.212017 
L 191.471074 149.155589 
L 194.856198 149.124426 
L 198.241322 149.136298 
L 201.626446 149.086603 
L 205.01157 149.042717 
L 208.396694 148.970774 
L 211.781818 148.925848 
L 215.166942 148.935916 
L 218.552066 148.945984 
L 221.93719 148.955242 
L 225.322314 148.933297 
L 228.707438 148.942682 
L 232.092562 148.919229 
L 235.477686 148.943936 
L 238.86281 148.946908 
L 242.247934 148.984448 
L 245.633058 149.022027 
L 249.018182 149.032264 
L 252.403306 149.018687 
L 255.78843 149.017071 
L 259.173554 149.009215 
L 262.558678 149.067665 
L 265.943802 149.126361 
L 269.328926 149.188135 
L 272.71405 149.218261 
L 276.099174 149.259365 
L 279.484298 149.351433 
L 282.869421 149.424298 
L 286.254545 149.438053 
L 289.639669 149.466398 
L 293.024793 149.524158 
L 296.409917 149.574017 
L 299.795041 149.599588 
L 303.180165 149.628316 
L 306.565289 149.718867 
L 309.950413 149.760791 
L 313.335537 149.810327 
L 316.720661 149.872862 
L 320.105785 149.993445 
L 323.490909 150.052626 
L 326.876033 150.101848 
L 330.261157 150.170271 
L 333.646281 150.228906 
L 337.031405 150.287561 
L 340.416529 150.35509 
L 343.801653 150.435708 
L 347.186777 150.515769 
L 350.571901 150.609642 
L 353.957025 150.677749 
L 357.342149 150.755468 
L 360.727273 150.866197 
L 364.112397 150.961058 
L 367.497521 151.055414 
L 370.882645 151.138263 
L 374.267769 151.156636 
L 377.652893 151.257083 
L 381.038017 151.375931 
L 384.42314 151.444265 
L 387.808264 151.511856 
L 391.193388 151.579124 
L 394.578512 151.646389 
L 397.963636 151.716903 
L 397.963636 140.14035 
L 397.963636 140.14035 
L 394.578512 140.204208 
L 391.193388 140.271715 
L 387.808264 140.34233 
L 384.42314 140.412946 
L 381.038017 140.483561 
L 377.652893 140.555331 
L 374.267769 140.631248 
L 370.882645 140.741731 
L 367.497521 140.799115 
L 364.112397 140.839919 
L 360.727273 140.898802 
L 357.342149 140.981404 
L 353.957025 141.053123 
L 350.571901 141.124386 
L 347.186777 141.199639 
L 343.801653 141.266104 
L 340.416529 141.296718 
L 337.031405 141.311431 
L 333.646281 141.390344 
L 330.261157 141.479872 
L 326.876033 141.557909 
L 323.490909 141.570913 
L 320.105785 141.620091 
L 316.720661 141.692675 
L 313.335537 141.724428 
L 309.950413 141.750529 
L 306.565289 141.842299 
L 303.180165 141.869431 
L 299.795041 141.915237 
L 296.409917 141.920274 
L 293.024793 141.945749 
L 289.639669 141.993343 
L 286.254545 142.051825 
L 282.869421 142.110432 
L 279.484298 142.170228 
L 276.099174 142.205244 
L 272.71405 142.187723 
L 269.328926 142.186541 
L 265.943802 142.1714 
L 262.558678 142.235842 
L 259.173554 142.211289 
L 255.78843 142.233443 
L 252.403306 142.198502 
L 249.018182 142.242499 
L 245.633058 142.299676 
L 242.247934 142.315449 
L 238.86281 142.243382 
L 235.477686 142.190383 
L 232.092562 142.196846 
L 228.707438 142.137094 
L 225.322314 142.111098 
L 221.93719 142.071227 
L 218.552066 142.092241 
L 215.166942 142.026205 
L 211.781818 142.039272 
L 208.396694 142.125305 
L 205.01157 142.184904 
L 201.626446 142.033751 
L 198.241322 141.956996 
L 194.856198 141.951403 
L 191.471074 141.945809 
L 188.08595 141.951232 
L 184.700826 141.95233 
L 181.315702 141.926619 
L 177.930579 141.898339 
L 174.545455 141.852151 
L 171.160331 141.848464 
L 167.775207 141.756964 
L 164.390083 141.681487 
L 161.004959 141.579246 
L 157.619835 141.536638 
L 154.234711 141.51735 
L 150.849587 141.47346 
L 147.464463 141.413924 
L 144.079339 141.385154 
L 140.694215 141.297589 
L 137.309091 141.209494 
L 133.923967 141.121399 
L 130.538843 141.033304 
L 127.153719 140.945314 
L 123.768595 140.874043 
L 120.383471 140.771168 
L 116.998347 140.724095 
L 113.613223 140.677021 
L 110.228099 140.560386 
L 106.842975 140.496122 
L 103.457851 140.459718 
L 100.072727 140.423507 
L 96.687603 140.322332 
L 93.302479 140.203262 
L 89.917355 140.084191 
L 86.532231 139.965121 
L 83.147107 139.850095 
L 79.761983 139.766802 
L 76.37686 139.683977 
L 72.991736 139.581257 
L 69.606612 139.448327 
L 66.221488 139.359499 
L 62.836364 139.271404 
z
" clip-path="url(#p25ab84cdfe)" style="fill-opacity: 0.15"/>
   </g>
   <g id="matplotlib.axis_1">
    <g id="xtick_1">
     <g id="line2d_1">
      <defs>
       <path id="mb1fa177706" d="M 0 0 
L 0 3.5 
" style="stroke: #000000"/>
      </defs>
      <g>
       <use xlink:href="#mb1fa177706" x="92.758442" y="172.8" style="stroke: #000000"/>
      </g>
     </g>
     <g id="text_1">
      <!-- 1920 -->
      <g transform="translate(76.075629 190.536719)scale(0.15 -0.15)">
       <defs>
        <path id="ArialMT-31" d="M 2384 0 
L 1822 0 
L 1822 3584 
Q 1619 3391 1289 3197 
Q 959 3003 697 2906 
L 697 3450 
Q 1169 3672 1522 3987 
Q 1875 4303 2022 4600 
L 2384 4600 
L 2384 0 
z
" transform="scale(0.015625)"/>
        <path id="ArialMT-39" d="M 350 1059 
L 891 1109 
Q 959 728 1153 556 
Q 1347 384 1650 384 
Q 1909 384 2104 503 
Q 2300 622 2425 820 
Q 2550 1019 2634 1356 
Q 2719 1694 2719 2044 
Q 2719 2081 2716 2156 
Q 2547 1888 2255 1720 
Q 1963 1553 1622 1553 
Q 1053 1553 659 1965 
Q 266 2378 266 3053 
Q 266 3750 677 4175 
Q 1088 4600 1706 4600 
Q 2153 4600 2523 4359 
Q 2894 4119 3086 3673 
Q 3278 3228 3278 2384 
Q 3278 1506 3087 986 
Q 2897 466 2520 194 
Q 2144 -78 1638 -78 
Q 1100 -78 759 220 
Q 419 519 350 1059 
z
M 2653 3081 
Q 2653 3566 2395 3850 
Q 2138 4134 1775 4134 
Q 1400 4134 1122 3828 
Q 844 3522 844 3034 
Q 844 2597 1108 2323 
Q 1372 2050 1759 2050 
Q 2150 2050 2401 2323 
Q 2653 2597 2653 3081 
z
" transform="scale(0.015625)"/>
        <path id="ArialMT-32" d="M 3222 541 
L 3222 0 
L 194 0 
Q 188 203 259 391 
Q 375 700 629 1000 
Q 884 1300 1366 1694 
Q 2113 2306 2375 2664 
Q 2638 3022 2638 3341 
Q 2638 3675 2398 3904 
Q 2159 4134 1775 4134 
Q 1369 4134 1125 3890 
Q 881 3647 878 3216 
L 300 3275 
Q 359 3922 746 4261 
Q 1134 4600 1788 4600 
Q 2447 4600 2831 4234 
Q 3216 3869 3216 3328 
Q 3216 3053 3103 2787 
Q 2991 2522 2730 2228 
Q 2469 1934 1863 1422 
Q 1356 997 1212 845 
Q 1069 694 975 541 
L 3222 541 
z
" transform="scale(0.015625)"/>
        <path id="ArialMT-30" d="M 266 2259 
Q 266 3072 433 3567 
Q 600 4063 929 4331 
Q 1259 4600 1759 4600 
Q 2128 4600 2406 4451 
Q 2684 4303 2865 4023 
Q 3047 3744 3150 3342 
Q 3253 2941 3253 2259 
Q 3253 1453 3087 958 
Q 2922 463 2592 192 
Q 2263 -78 1759 -78 
Q 1097 -78 719 397 
Q 266 969 266 2259 
z
M 844 2259 
Q 844 1131 1108 757 
Q 1372 384 1759 384 
Q 2147 384 2411 759 
Q 2675 1134 2675 2259 
Q 2675 3391 2411 3762 
Q 2147 4134 1753 4134 
Q 1366 4134 1134 3806 
Q 844 3388 844 2259 
z
" transform="scale(0.015625)"/>
       </defs>
       <use xlink:href="#ArialMT-31"/>
       <use xlink:href="#ArialMT-39" x="55.615234"/>
       <use xlink:href="#ArialMT-32" x="111.230469"/>
       <use xlink:href="#ArialMT-30" x="166.845703"/>
      </g>
     </g>
    </g>
    <g id="xtick_2">
     <g id="line2d_2">
      <g>
       <use xlink:href="#mb1fa177706" x="152.602597" y="172.8" style="stroke: #000000"/>
      </g>
     </g>
     <g id="text_2">
      <!-- 1940 -->
      <g transform="translate(135.919785 190.536719)scale(0.15 -0.15)">
       <defs>
        <path id="ArialMT-34" d="M 2069 0 
L 2069 1097 
L 81 1097 
L 81 1613 
L 2172 4581 
L 2631 4581 
L 2631 1613 
L 3250 1613 
L 3250 1097 
L 2631 1097 
L 2631 0 
L 2069 0 
z
M 2069 1613 
L 2069 3678 
L 634 1613 
L 2069 1613 
z
" transform="scale(0.015625)"/>
       </defs>
       <use xlink:href="#ArialMT-31"/>
       <use xlink:href="#ArialMT-39" x="55.615234"/>
       <use xlink:href="#ArialMT-34" x="111.230469"/>
       <use xlink:href="#ArialMT-30" x="166.845703"/>
      </g>
     </g>
    </g>
    <g id="xtick_3">
     <g id="line2d_3">
      <g>
       <use xlink:href="#mb1fa177706" x="212.446753" y="172.8" style="stroke: #000000"/>
      </g>
     </g>
     <g id="text_3">
      <!-- 1960 -->
      <g transform="translate(195.763941 190.536719)scale(0.15 -0.15)">
       <defs>
        <path id="ArialMT-36" d="M 3184 3459 
L 2625 3416 
Q 2550 3747 2413 3897 
Q 2184 4138 1850 4138 
Q 1581 4138 1378 3988 
Q 1113 3794 959 3422 
Q 806 3050 800 2363 
Q 1003 2672 1297 2822 
Q 1591 2972 1913 2972 
Q 2475 2972 2870 2558 
Q 3266 2144 3266 1488 
Q 3266 1056 3080 686 
Q 2894 316 2569 119 
Q 2244 -78 1831 -78 
Q 1128 -78 684 439 
Q 241 956 241 2144 
Q 241 3472 731 4075 
Q 1159 4600 1884 4600 
Q 2425 4600 2770 4297 
Q 3116 3994 3184 3459 
z
M 888 1484 
Q 888 1194 1011 928 
Q 1134 663 1356 523 
Q 1578 384 1822 384 
Q 2178 384 2434 671 
Q 2691 959 2691 1453 
Q 2691 1928 2437 2201 
Q 2184 2475 1800 2475 
Q 1419 2475 1153 2201 
Q 888 1928 888 1484 
z
" transform="scale(0.015625)"/>
       </defs>
       <use xlink:href="#ArialMT-31"/>
       <use xlink:href="#ArialMT-39" x="55.615234"/>
       <use xlink:href="#ArialMT-36" x="111.230469"/>
       <use xlink:href="#ArialMT-30" x="166.845703"/>
      </g>
     </g>
    </g>
    <g id="xtick_4">
     <g id="line2d_4">
      <g>
       <use xlink:href="#mb1fa177706" x="272.290909" y="172.8" style="stroke: #000000"/>
      </g>
     </g>
     <g id="text_4">
      <!-- 1980 -->
      <g transform="translate(255.608097 190.536719)scale(0.15 -0.15)">
       <defs>
        <path id="ArialMT-38" d="M 1131 2484 
Q 781 2613 612 2850 
Q 444 3088 444 3419 
Q 444 3919 803 4259 
Q 1163 4600 1759 4600 
Q 2359 4600 2725 4251 
Q 3091 3903 3091 3403 
Q 3091 3084 2923 2848 
Q 2756 2613 2416 2484 
Q 2838 2347 3058 2040 
Q 3278 1734 3278 1309 
Q 3278 722 2862 322 
Q 2447 -78 1769 -78 
Q 1091 -78 675 323 
Q 259 725 259 1325 
Q 259 1772 486 2073 
Q 713 2375 1131 2484 
z
M 1019 3438 
Q 1019 3113 1228 2906 
Q 1438 2700 1772 2700 
Q 2097 2700 2305 2904 
Q 2513 3109 2513 3406 
Q 2513 3716 2298 3927 
Q 2084 4138 1766 4138 
Q 1444 4138 1231 3931 
Q 1019 3725 1019 3438 
z
M 838 1322 
Q 838 1081 952 856 
Q 1066 631 1291 507 
Q 1516 384 1775 384 
Q 2178 384 2440 643 
Q 2703 903 2703 1303 
Q 2703 1709 2433 1975 
Q 2163 2241 1756 2241 
Q 1359 2241 1098 1978 
Q 838 1716 838 1322 
z
" transform="scale(0.015625)"/>
       </defs>
       <use xlink:href="#ArialMT-31"/>
       <use xlink:href="#ArialMT-39" x="55.615234"/>
       <use xlink:href="#ArialMT-38" x="111.230469"/>
       <use xlink:href="#ArialMT-30" x="166.845703"/>
      </g>
     </g>
    </g>
    <g id="xtick_5">
     <g id="line2d_5">
      <g>
       <use xlink:href="#mb1fa177706" x="332.135065" y="172.8" style="stroke: #000000"/>
      </g>
     </g>
     <g id="text_5">
      <!-- 2000 -->
      <g transform="translate(315.452252 190.536719)scale(0.15 -0.15)">
       <use xlink:href="#ArialMT-32"/>
       <use xlink:href="#ArialMT-30" x="55.615234"/>
       <use xlink:href="#ArialMT-30" x="111.230469"/>
       <use xlink:href="#ArialMT-30" x="166.845703"/>
      </g>
     </g>
    </g>
    <g id="xtick_6">
     <g id="line2d_6">
      <g>
       <use xlink:href="#mb1fa177706" x="391.979221" y="172.8" style="stroke: #000000"/>
      </g>
     </g>
     <g id="text_6">
      <!-- 2020 -->
      <g transform="translate(375.296408 190.536719)scale(0.15 -0.15)">
       <use xlink:href="#ArialMT-32"/>
       <use xlink:href="#ArialMT-30" x="55.615234"/>
       <use xlink:href="#ArialMT-32" x="111.230469"/>
       <use xlink:href="#ArialMT-30" x="166.845703"/>
      </g>
     </g>
    </g>
   </g>
   <g id="matplotlib.axis_2">
    <g id="ytick_1">
     <g id="line2d_7">
      <defs>
       <path id="m52ba88ca81" d="M 0 0 
L 3.5 0 
" style="stroke: #000000"/>
      </defs>
      <g>
       <use xlink:href="#m52ba88ca81" x="46.08" y="171.112041" style="stroke: #000000"/>
      </g>
     </g>
     <g id="text_7">
      <!-- 0 -->
      <g transform="translate(34.238594 176.4804)scale(0.15 -0.15)">
       <use xlink:href="#ArialMT-30"/>
      </g>
     </g>
    </g>
    <g id="ytick_2">
     <g id="line2d_8">
      <g>
       <use xlink:href="#m52ba88ca81" x="46.08" y="137.217282" style="stroke: #000000"/>
      </g>
     </g>
     <g id="text_8">
      <!-- 25 -->
      <g transform="translate(25.897188 142.585642)scale(0.15 -0.15)">
       <defs>
        <path id="ArialMT-35" d="M 266 1200 
L 856 1250 
Q 922 819 1161 601 
Q 1400 384 1738 384 
Q 2144 384 2425 690 
Q 2706 997 2706 1503 
Q 2706 1984 2436 2262 
Q 2166 2541 1728 2541 
Q 1456 2541 1237 2417 
Q 1019 2294 894 2097 
L 366 2166 
L 809 4519 
L 3088 4519 
L 3088 3981 
L 1259 3981 
L 1013 2750 
Q 1425 3038 1878 3038 
Q 2478 3038 2890 2622 
Q 3303 2206 3303 1553 
Q 3303 931 2941 478 
Q 2500 -78 1738 -78 
Q 1113 -78 717 272 
Q 322 622 266 1200 
z
" transform="scale(0.015625)"/>
       </defs>
       <use xlink:href="#ArialMT-32"/>
       <use xlink:href="#ArialMT-35" x="55.615234"/>
      </g>
     </g>
    </g>
    <g id="ytick_3">
     <g id="line2d_9">
      <g>
       <use xlink:href="#m52ba88ca81" x="46.08" y="103.322523" style="stroke: #000000"/>
      </g>
     </g>
     <g id="text_9">
      <!-- 50 -->
      <g transform="translate(25.897188 108.690883)scale(0.15 -0.15)">
       <use xlink:href="#ArialMT-35"/>
       <use xlink:href="#ArialMT-30" x="55.615234"/>
      </g>
     </g>
    </g>
    <g id="ytick_4">
     <g id="line2d_10">
      <g>
       <use xlink:href="#m52ba88ca81" x="46.08" y="69.427764" style="stroke: #000000"/>
      </g>
     </g>
     <g id="text_10">
      <!-- 75 -->
      <g transform="translate(25.897188 74.796124)scale(0.15 -0.15)">
       <defs>
        <path id="ArialMT-37" d="M 303 3981 
L 303 4522 
L 3269 4522 
L 3269 4084 
Q 2831 3619 2401 2847 
Q 1972 2075 1738 1259 
Q 1569 684 1522 0 
L 944 0 
Q 953 541 1156 1306 
Q 1359 2072 1739 2783 
Q 2119 3494 2547 3981 
L 303 3981 
z
" transform="scale(0.015625)"/>
       </defs>
       <use xlink:href="#ArialMT-37"/>
       <use xlink:href="#ArialMT-35" x="55.615234"/>
      </g>
     </g>
    </g>
    <g id="ytick_5">
     <g id="line2d_11">
      <defs>
       <path id="me312258187" d="M 0 0 
L 2 0 
" style="stroke: #000000; stroke-width: 0.6"/>
      </defs>
      <g>
       <use xlink:href="#me312258187" x="46.08" y="164.333089" style="stroke: #000000; stroke-width: 0.6"/>
      </g>
     </g>
    </g>
    <g id="ytick_6">
     <g id="line2d_12">
      <g>
       <use xlink:href="#me312258187" x="46.08" y="157.554137" style="stroke: #000000; stroke-width: 0.6"/>
      </g>
     </g>
    </g>
    <g id="ytick_7">
     <g id="line2d_13">
      <g>
       <use xlink:href="#me312258187" x="46.08" y="150.775186" style="stroke: #000000; stroke-width: 0.6"/>
      </g>
     </g>
    </g>
    <g id="ytick_8">
     <g id="line2d_14">
      <g>
       <use xlink:href="#me312258187" x="46.08" y="143.996234" style="stroke: #000000; stroke-width: 0.6"/>
      </g>
     </g>
    </g>
    <g id="ytick_9">
     <g id="line2d_15">
      <g>
       <use xlink:href="#me312258187" x="46.08" y="130.43833" style="stroke: #000000; stroke-width: 0.6"/>
      </g>
     </g>
    </g>
    <g id="ytick_10">
     <g id="line2d_16">
      <g>
       <use xlink:href="#me312258187" x="46.08" y="123.659379" style="stroke: #000000; stroke-width: 0.6"/>
      </g>
     </g>
    </g>
    <g id="ytick_11">
     <g id="line2d_17">
      <g>
       <use xlink:href="#me312258187" x="46.08" y="116.880427" style="stroke: #000000; stroke-width: 0.6"/>
      </g>
     </g>
    </g>
    <g id="ytick_12">
     <g id="line2d_18">
      <g>
       <use xlink:href="#me312258187" x="46.08" y="110.101475" style="stroke: #000000; stroke-width: 0.6"/>
      </g>
     </g>
    </g>
    <g id="ytick_13">
     <g id="line2d_19">
      <g>
       <use xlink:href="#me312258187" x="46.08" y="96.543572" style="stroke: #000000; stroke-width: 0.6"/>
      </g>
     </g>
    </g>
    <g id="ytick_14">
     <g id="line2d_20">
      <g>
       <use xlink:href="#me312258187" x="46.08" y="89.76462" style="stroke: #000000; stroke-width: 0.6"/>
      </g>
     </g>
    </g>
    <g id="ytick_15">
     <g id="line2d_21">
      <g>
       <use xlink:href="#me312258187" x="46.08" y="82.985668" style="stroke: #000000; stroke-width: 0.6"/>
      </g>
     </g>
    </g>
    <g id="ytick_16">
     <g id="line2d_22">
      <g>
       <use xlink:href="#me312258187" x="46.08" y="76.206716" style="stroke: #000000; stroke-width: 0.6"/>
      </g>
     </g>
    </g>
    <g id="ytick_17">
     <g id="line2d_23">
      <g>
       <use xlink:href="#me312258187" x="46.08" y="62.648813" style="stroke: #000000; stroke-width: 0.6"/>
      </g>
     </g>
    </g>
    <g id="ytick_18">
     <g id="line2d_24">
      <g>
       <use xlink:href="#me312258187" x="46.08" y="55.869861" style="stroke: #000000; stroke-width: 0.6"/>
      </g>
     </g>
    </g>
    <g id="ytick_19">
     <g id="line2d_25">
      <g>
       <use xlink:href="#me312258187" x="46.08" y="49.090909" style="stroke: #000000; stroke-width: 0.6"/>
      </g>
     </g>
    </g>
   </g>
   <g id="line2d_26">
    <path d="M 62.836364 136.403808 
L 65.828571 157.011821 
L 68.820779 159.587823 
L 71.812987 155.249294 
L 74.805195 90.849252 
L 77.797403 150.368449 
L 80.78961 153.215608 
L 83.781818 151.995397 
L 86.774026 136.810545 
L 89.766234 139.793284 
L 92.758442 105.627367 
L 95.750649 145.080866 
L 98.742857 158.774349 
L 101.735065 154.842557 
L 104.727273 155.249294 
L 107.719481 165.010984 
L 110.711688 140.3356 
L 113.703896 157.689716 
L 116.696104 156.469505 
L 119.688312 133.827806 
L 122.680519 162.028246 
L 125.672727 135.997071 
L 128.664935 130.845067 
L 131.657143 145.89434 
L 134.649351 132.743174 
L 137.641558 143.725076 
L 140.633766 140.742337 
L 143.625974 163.655194 
L 146.618182 154.978136 
L 149.61039 136.674966 
L 152.602597 153.757924 
L 155.594805 151.58866 
L 158.587013 131.251805 
L 161.579221 143.996234 
L 164.571429 162.299404 
L 167.563636 159.316665 
L 170.555844 156.740663 
L 173.548052 147.250131 
L 176.54026 143.047181 
L 179.532468 106.169683 
L 182.524675 140.877916 
L 185.516883 165.010984 
L 188.509091 157.1474 
L 191.501299 151.046344 
L 194.493506 153.486766 
L 197.485714 126.642117 
L 200.477922 155.249294 
L 203.47013 147.656868 
L 206.462338 120.269903 
L 209.454545 151.995397 
L 212.446753 159.045507 
L 215.438961 135.183597 
L 218.431169 161.35035 
L 221.423377 157.960875 
L 224.415584 166.909091 
L 227.407792 87.866513 
L 230.4 154.978136 
L 233.392208 160.265718 
L 236.384416 157.554137 
L 239.376623 156.876242 
L 242.368831 49.090909 
L 245.361039 154.842557 
L 248.353247 139.928863 
L 251.345455 152.808871 
L 254.337662 157.554137 
L 257.32987 153.486766 
L 260.322078 153.486766 
L 263.314286 160.943613 
L 266.306494 154.164662 
L 269.298701 148.7415 
L 272.290909 139.250968 
L 275.283117 108.745685 
L 278.275325 150.097291 
L 281.267532 158.909928 
L 284.25974 158.232033 
L 287.251948 156.198347 
L 290.244156 160.943613 
L 293.236364 160.265718 
L 296.228571 162.299404 
L 299.220779 158.232033 
L 302.212987 133.827806 
L 305.205195 152.130976 
L 308.197403 156.198347 
L 311.18961 129.760435 
L 314.181818 160.943613 
L 317.174026 149.419395 
L 320.166234 157.554137 
L 323.158442 154.842557 
L 326.150649 141.962548 
L 329.142857 160.265718 
L 332.135065 91.798305 
L 335.127273 158.232033 
L 338.119481 118.236217 
L 341.111688 136.539387 
L 344.103896 141.284653 
L 347.096104 139.928863 
L 350.088312 156.198347 
L 353.080519 116.880427 
L 356.072727 151.453081 
L 359.064935 130.43833 
L 362.057143 153.486766 
L 365.049351 159.587823 
L 368.041558 148.7415 
L 371.033766 156.198347 
L 374.025974 141.962548 
L 377.018182 158.909928 
L 380.01039 144.674129 
L 383.002597 141.284653 
L 385.994805 129.760435 
L 388.987013 156.198347 
L 391.979221 152.130976 
L 394.971429 145.352024 
L 397.963636 137.217282 
" clip-path="url(#p25ab84cdfe)" style="fill: none; stroke: #000000; stroke-linecap: square"/>
    <defs>
     <path id="m7c48679945" d="M 0 2 
C 0.530406 2 1.03916 1.789267 1.414214 1.414214 
C 1.789267 1.03916 2 0.530406 2 0 
C 2 -0.530406 1.789267 -1.03916 1.414214 -1.414214 
C 1.03916 -1.789267 0.530406 -2 0 -2 
C -0.530406 -2 -1.03916 -1.789267 -1.414214 -1.414214 
C -1.789267 -1.03916 -2 -0.530406 -2 0 
C -2 0.530406 -1.789267 1.03916 -1.414214 1.414214 
C -1.03916 1.789267 -0.530406 2 0 2 
z
" style="stroke: #000000"/>
    </defs>
    <g clip-path="url(#p25ab84cdfe)">
     <use xlink:href="#m7c48679945" x="62.836364" y="136.403808" style="stroke: #000000"/>
     <use xlink:href="#m7c48679945" x="65.828571" y="157.011821" style="stroke: #000000"/>
     <use xlink:href="#m7c48679945" x="68.820779" y="159.587823" style="stroke: #000000"/>
     <use xlink:href="#m7c48679945" x="71.812987" y="155.249294" style="stroke: #000000"/>
     <use xlink:href="#m7c48679945" x="74.805195" y="90.849252" style="stroke: #000000"/>
     <use xlink:href="#m7c48679945" x="77.797403" y="150.368449" style="stroke: #000000"/>
     <use xlink:href="#m7c48679945" x="80.78961" y="153.215608" style="stroke: #000000"/>
     <use xlink:href="#m7c48679945" x="83.781818" y="151.995397" style="stroke: #000000"/>
     <use xlink:href="#m7c48679945" x="86.774026" y="136.810545" style="stroke: #000000"/>
     <use xlink:href="#m7c48679945" x="89.766234" y="139.793284" style="stroke: #000000"/>
     <use xlink:href="#m7c48679945" x="92.758442" y="105.627367" style="stroke: #000000"/>
     <use xlink:href="#m7c48679945" x="95.750649" y="145.080866" style="stroke: #000000"/>
     <use xlink:href="#m7c48679945" x="98.742857" y="158.774349" style="stroke: #000000"/>
     <use xlink:href="#m7c48679945" x="101.735065" y="154.842557" style="stroke: #000000"/>
     <use xlink:href="#m7c48679945" x="104.727273" y="155.249294" style="stroke: #000000"/>
     <use xlink:href="#m7c48679945" x="107.719481" y="165.010984" style="stroke: #000000"/>
     <use xlink:href="#m7c48679945" x="110.711688" y="140.3356" style="stroke: #000000"/>
     <use xlink:href="#m7c48679945" x="113.703896" y="157.689716" style="stroke: #000000"/>
     <use xlink:href="#m7c48679945" x="116.696104" y="156.469505" style="stroke: #000000"/>
     <use xlink:href="#m7c48679945" x="119.688312" y="133.827806" style="stroke: #000000"/>
     <use xlink:href="#m7c48679945" x="122.680519" y="162.028246" style="stroke: #000000"/>
     <use xlink:href="#m7c48679945" x="125.672727" y="135.997071" style="stroke: #000000"/>
     <use xlink:href="#m7c48679945" x="128.664935" y="130.845067" style="stroke: #000000"/>
     <use xlink:href="#m7c48679945" x="131.657143" y="145.89434" style="stroke: #000000"/>
     <use xlink:href="#m7c48679945" x="134.649351" y="132.743174" style="stroke: #000000"/>
     <use xlink:href="#m7c48679945" x="137.641558" y="143.725076" style="stroke: #000000"/>
     <use xlink:href="#m7c48679945" x="140.633766" y="140.742337" style="stroke: #000000"/>
     <use xlink:href="#m7c48679945" x="143.625974" y="163.655194" style="stroke: #000000"/>
     <use xlink:href="#m7c48679945" x="146.618182" y="154.978136" style="stroke: #000000"/>
     <use xlink:href="#m7c48679945" x="149.61039" y="136.674966" style="stroke: #000000"/>
     <use xlink:href="#m7c48679945" x="152.602597" y="153.757924" style="stroke: #000000"/>
     <use xlink:href="#m7c48679945" x="155.594805" y="151.58866" style="stroke: #000000"/>
     <use xlink:href="#m7c48679945" x="158.587013" y="131.251805" style="stroke: #000000"/>
     <use xlink:href="#m7c48679945" x="161.579221" y="143.996234" style="stroke: #000000"/>
     <use xlink:href="#m7c48679945" x="164.571429" y="162.299404" style="stroke: #000000"/>
     <use xlink:href="#m7c48679945" x="167.563636" y="159.316665" style="stroke: #000000"/>
     <use xlink:href="#m7c48679945" x="170.555844" y="156.740663" style="stroke: #000000"/>
     <use xlink:href="#m7c48679945" x="173.548052" y="147.250131" style="stroke: #000000"/>
     <use xlink:href="#m7c48679945" x="176.54026" y="143.047181" style="stroke: #000000"/>
     <use xlink:href="#m7c48679945" x="179.532468" y="106.169683" style="stroke: #000000"/>
     <use xlink:href="#m7c48679945" x="182.524675" y="140.877916" style="stroke: #000000"/>
     <use xlink:href="#m7c48679945" x="185.516883" y="165.010984" style="stroke: #000000"/>
     <use xlink:href="#m7c48679945" x="188.509091" y="157.1474" style="stroke: #000000"/>
     <use xlink:href="#m7c48679945" x="191.501299" y="151.046344" style="stroke: #000000"/>
     <use xlink:href="#m7c48679945" x="194.493506" y="153.486766" style="stroke: #000000"/>
     <use xlink:href="#m7c48679945" x="197.485714" y="126.642117" style="stroke: #000000"/>
     <use xlink:href="#m7c48679945" x="200.477922" y="155.249294" style="stroke: #000000"/>
     <use xlink:href="#m7c48679945" x="203.47013" y="147.656868" style="stroke: #000000"/>
     <use xlink:href="#m7c48679945" x="206.462338" y="120.269903" style="stroke: #000000"/>
     <use xlink:href="#m7c48679945" x="209.454545" y="151.995397" style="stroke: #000000"/>
     <use xlink:href="#m7c48679945" x="212.446753" y="159.045507" style="stroke: #000000"/>
     <use xlink:href="#m7c48679945" x="215.438961" y="135.183597" style="stroke: #000000"/>
     <use xlink:href="#m7c48679945" x="218.431169" y="161.35035" style="stroke: #000000"/>
     <use xlink:href="#m7c48679945" x="221.423377" y="157.960875" style="stroke: #000000"/>
     <use xlink:href="#m7c48679945" x="224.415584" y="166.909091" style="stroke: #000000"/>
     <use xlink:href="#m7c48679945" x="227.407792" y="87.866513" style="stroke: #000000"/>
     <use xlink:href="#m7c48679945" x="230.4" y="154.978136" style="stroke: #000000"/>
     <use xlink:href="#m7c48679945" x="233.392208" y="160.265718" style="stroke: #000000"/>
     <use xlink:href="#m7c48679945" x="236.384416" y="157.554137" style="stroke: #000000"/>
     <use xlink:href="#m7c48679945" x="239.376623" y="156.876242" style="stroke: #000000"/>
     <use xlink:href="#m7c48679945" x="242.368831" y="49.090909" style="stroke: #000000"/>
     <use xlink:href="#m7c48679945" x="245.361039" y="154.842557" style="stroke: #000000"/>
     <use xlink:href="#m7c48679945" x="248.353247" y="139.928863" style="stroke: #000000"/>
     <use xlink:href="#m7c48679945" x="251.345455" y="152.808871" style="stroke: #000000"/>
     <use xlink:href="#m7c48679945" x="254.337662" y="157.554137" style="stroke: #000000"/>
     <use xlink:href="#m7c48679945" x="257.32987" y="153.486766" style="stroke: #000000"/>
     <use xlink:href="#m7c48679945" x="260.322078" y="153.486766" style="stroke: #000000"/>
     <use xlink:href="#m7c48679945" x="263.314286" y="160.943613" style="stroke: #000000"/>
     <use xlink:href="#m7c48679945" x="266.306494" y="154.164662" style="stroke: #000000"/>
     <use xlink:href="#m7c48679945" x="269.298701" y="148.7415" style="stroke: #000000"/>
     <use xlink:href="#m7c48679945" x="272.290909" y="139.250968" style="stroke: #000000"/>
     <use xlink:href="#m7c48679945" x="275.283117" y="108.745685" style="stroke: #000000"/>
     <use xlink:href="#m7c48679945" x="278.275325" y="150.097291" style="stroke: #000000"/>
     <use xlink:href="#m7c48679945" x="281.267532" y="158.909928" style="stroke: #000000"/>
     <use xlink:href="#m7c48679945" x="284.25974" y="158.232033" style="stroke: #000000"/>
     <use xlink:href="#m7c48679945" x="287.251948" y="156.198347" style="stroke: #000000"/>
     <use xlink:href="#m7c48679945" x="290.244156" y="160.943613" style="stroke: #000000"/>
     <use xlink:href="#m7c48679945" x="293.236364" y="160.265718" style="stroke: #000000"/>
     <use xlink:href="#m7c48679945" x="296.228571" y="162.299404" style="stroke: #000000"/>
     <use xlink:href="#m7c48679945" x="299.220779" y="158.232033" style="stroke: #000000"/>
     <use xlink:href="#m7c48679945" x="302.212987" y="133.827806" style="stroke: #000000"/>
     <use xlink:href="#m7c48679945" x="305.205195" y="152.130976" style="stroke: #000000"/>
     <use xlink:href="#m7c48679945" x="308.197403" y="156.198347" style="stroke: #000000"/>
     <use xlink:href="#m7c48679945" x="311.18961" y="129.760435" style="stroke: #000000"/>
     <use xlink:href="#m7c48679945" x="314.181818" y="160.943613" style="stroke: #000000"/>
     <use xlink:href="#m7c48679945" x="317.174026" y="149.419395" style="stroke: #000000"/>
     <use xlink:href="#m7c48679945" x="320.166234" y="157.554137" style="stroke: #000000"/>
     <use xlink:href="#m7c48679945" x="323.158442" y="154.842557" style="stroke: #000000"/>
     <use xlink:href="#m7c48679945" x="326.150649" y="141.962548" style="stroke: #000000"/>
     <use xlink:href="#m7c48679945" x="329.142857" y="160.265718" style="stroke: #000000"/>
     <use xlink:href="#m7c48679945" x="332.135065" y="91.798305" style="stroke: #000000"/>
     <use xlink:href="#m7c48679945" x="335.127273" y="158.232033" style="stroke: #000000"/>
     <use xlink:href="#m7c48679945" x="338.119481" y="118.236217" style="stroke: #000000"/>
     <use xlink:href="#m7c48679945" x="341.111688" y="136.539387" style="stroke: #000000"/>
     <use xlink:href="#m7c48679945" x="344.103896" y="141.284653" style="stroke: #000000"/>
     <use xlink:href="#m7c48679945" x="347.096104" y="139.928863" style="stroke: #000000"/>
     <use xlink:href="#m7c48679945" x="350.088312" y="156.198347" style="stroke: #000000"/>
     <use xlink:href="#m7c48679945" x="353.080519" y="116.880427" style="stroke: #000000"/>
     <use xlink:href="#m7c48679945" x="356.072727" y="151.453081" style="stroke: #000000"/>
     <use xlink:href="#m7c48679945" x="359.064935" y="130.43833" style="stroke: #000000"/>
     <use xlink:href="#m7c48679945" x="362.057143" y="153.486766" style="stroke: #000000"/>
     <use xlink:href="#m7c48679945" x="365.049351" y="159.587823" style="stroke: #000000"/>
     <use xlink:href="#m7c48679945" x="368.041558" y="148.7415" style="stroke: #000000"/>
     <use xlink:href="#m7c48679945" x="371.033766" y="156.198347" style="stroke: #000000"/>
     <use xlink:href="#m7c48679945" x="374.025974" y="141.962548" style="stroke: #000000"/>
     <use xlink:href="#m7c48679945" x="377.018182" y="158.909928" style="stroke: #000000"/>
     <use xlink:href="#m7c48679945" x="380.01039" y="144.674129" style="stroke: #000000"/>
     <use xlink:href="#m7c48679945" x="383.002597" y="141.284653" style="stroke: #000000"/>
     <use xlink:href="#m7c48679945" x="385.994805" y="129.760435" style="stroke: #000000"/>
     <use xlink:href="#m7c48679945" x="388.987013" y="156.198347" style="stroke: #000000"/>
     <use xlink:href="#m7c48679945" x="391.979221" y="152.130976" style="stroke: #000000"/>
     <use xlink:href="#m7c48679945" x="394.971429" y="145.352024" style="stroke: #000000"/>
     <use xlink:href="#m7c48679945" x="397.963636" y="137.217282" style="stroke: #000000"/>
    </g>
   </g>
   <g id="line2d_27">
    <path d="M 62.836364 145.557129 
L 66.221488 145.562124 
L 69.606612 145.567118 
L 72.991736 145.572113 
L 76.37686 145.577107 
L 79.761983 145.582102 
L 83.147107 145.587096 
L 86.532231 145.59209 
L 89.917355 145.597085 
L 93.302479 145.602079 
L 96.687603 145.607074 
L 100.072727 145.612068 
L 103.457851 145.617063 
L 106.842975 145.622057 
L 110.228099 145.627052 
L 113.613223 145.632046 
L 116.998347 145.63704 
L 120.383471 145.642035 
L 123.768595 145.647029 
L 127.153719 145.652024 
L 130.538843 145.657018 
L 133.923967 145.662013 
L 137.309091 145.667007 
L 140.694215 145.672002 
L 144.079339 145.676996 
L 147.464463 145.68199 
L 150.849587 145.686985 
L 154.234711 145.691979 
L 157.619835 145.696974 
L 161.004959 145.701968 
L 164.390083 145.706963 
L 167.775207 145.711957 
L 171.160331 145.716952 
L 174.545455 145.721946 
L 177.930579 145.72694 
L 181.315702 145.731935 
L 184.700826 145.736929 
L 188.08595 145.741924 
L 191.471074 145.746918 
L 194.856198 145.751913 
L 198.241322 145.756907 
L 201.626446 145.761902 
L 205.01157 145.766896 
L 208.396694 145.77189 
L 211.781818 145.776885 
L 215.166942 145.781879 
L 218.552066 145.786874 
L 221.93719 145.791868 
L 225.322314 145.796863 
L 228.707438 145.801857 
L 232.092562 145.806852 
L 235.477686 145.811846 
L 238.86281 145.81684 
L 242.247934 145.821835 
L 245.633058 145.826829 
L 249.018182 145.831824 
L 252.403306 145.836818 
L 255.78843 145.841813 
L 259.173554 145.846807 
L 262.558678 145.851802 
L 265.943802 145.856796 
L 269.328926 145.86179 
L 272.71405 145.866785 
L 276.099174 145.871779 
L 279.484298 145.876774 
L 282.869421 145.881768 
L 286.254545 145.886763 
L 289.639669 145.891757 
L 293.024793 145.896752 
L 296.409917 145.901746 
L 299.795041 145.90674 
L 303.180165 145.911735 
L 306.565289 145.916729 
L 309.950413 145.921724 
L 313.335537 145.926718 
L 316.720661 145.931713 
L 320.105785 145.936707 
L 323.490909 145.941702 
L 326.876033 145.946696 
L 330.261157 145.95169 
L 333.646281 145.956685 
L 337.031405 145.961679 
L 340.416529 145.966674 
L 343.801653 145.971668 
L 347.186777 145.976663 
L 350.571901 145.981657 
L 353.957025 145.986651 
L 357.342149 145.991646 
L 360.727273 145.99664 
L 364.112397 146.001635 
L 367.497521 146.006629 
L 370.882645 146.011624 
L 374.267769 146.016618 
L 377.652893 146.021613 
L 381.038017 146.026607 
L 384.42314 146.031601 
L 387.808264 146.036596 
L 391.193388 146.04159 
L 394.578512 146.046585 
L 397.963636 146.051579 
" clip-path="url(#p25ab84cdfe)" style="fill: none; stroke: #000000; stroke-width: 1.5; stroke-linecap: square"/>
   </g>
   <g id="patch_3">
    <path d="M 46.08 172.8 
L 46.08 43.2 
" style="fill: none; stroke: #000000; stroke-linejoin: miter; stroke-linecap: square"/>
   </g>
   <g id="patch_4">
    <path d="M 414.72 172.8 
L 414.72 43.2 
" style="fill: none; stroke: #000000; stroke-linejoin: miter; stroke-linecap: square"/>
   </g>
   <g id="patch_5">
    <path d="M 46.08 172.8 
L 414.72 172.8 
" style="fill: none; stroke: #000000; stroke-linejoin: miter; stroke-linecap: square"/>
   </g>
   <g id="patch_6">
    <path d="M 46.08 43.2 
L 414.72 43.2 
" style="fill: none; stroke: #000000; stroke-linejoin: miter; stroke-linecap: square"/>
   </g>
   <g id="text_11">
    <!-- Hakodate -->
    <g transform="translate(194.4 37.2)scale(0.18 -0.18)">
     <defs>
      <path id="MS-Gothic-48" d="M 300 50 
L 300 4925 
L 875 4925 
L 875 2975 
L 2300 2975 
L 2300 4925 
L 2875 4925 
L 2875 50 
L 2300 50 
L 2300 1275 
L 2300 2500 
L 875 2500 
L 875 50 
L 300 50 
z
" transform="scale(0.015625)"/>
      <path id="MS-Gothic-61" d="M 2200 1925 
Q 1900 1750 1500 1625 
Q 1200 1525 1025 1350 
Q 900 1225 900 1000 
Q 900 750 1025 625 
Q 1150 500 1425 500 
Q 1875 500 2200 1025 
L 2200 1925 
z
M 2200 425 
Q 1825 50 1275 50 
Q 825 50 550 325 
Q 300 575 300 950 
Q 300 1350 575 1625 
Q 825 1875 1150 1975 
Q 2000 2250 2075 2350 
Q 2200 2500 2200 2650 
Q 2200 2800 2050 2925 
Q 1925 3025 1600 3025 
Q 1350 3025 1200 2875 
Q 1000 2675 975 2350 
L 425 2350 
Q 450 2850 775 3175 
Q 1075 3475 1600 3475 
Q 2200 3475 2450 3225 
Q 2700 2975 2700 2600 
L 2700 625 
Q 2700 325 2900 50 
L 2300 50 
Q 2200 150 2200 425 
z
" transform="scale(0.015625)"/>
      <path id="MS-Gothic-6b" d="M 1450 1875 
L 900 1250 
L 900 50 
L 400 50 
L 400 4925 
L 900 4925 
L 900 1925 
L 2150 3475 
L 2775 3475 
L 1800 2275 
L 2950 50 
L 2375 50 
L 1450 1875 
z
" transform="scale(0.015625)"/>
      <path id="MS-Gothic-6f" d="M 650 3075 
Q 1050 3475 1600 3475 
Q 2125 3475 2525 3075 
Q 2925 2675 2925 1750 
Q 2925 850 2525 450 
Q 2125 50 1600 50 
Q 1050 50 650 450 
Q 250 850 250 1750 
Q 250 2675 650 3075 
z
M 1600 3025 
Q 1300 3025 1075 2800 
Q 800 2525 800 1750 
Q 800 1000 1075 725 
Q 1300 500 1600 500 
Q 1875 500 2100 725 
Q 2375 1000 2375 1750 
Q 2375 2525 2100 2800 
Q 1875 3025 1600 3025 
z
" transform="scale(0.015625)"/>
      <path id="MS-Gothic-64" d="M 2300 550 
Q 1900 50 1400 50 
Q 1025 50 675 400 
Q 250 825 250 1825 
Q 250 2650 725 3125 
Q 1075 3475 1500 3475 
Q 1950 3475 2300 3100 
L 2300 4925 
L 2800 4925 
L 2800 50 
L 2300 50 
L 2300 550 
z
M 1550 3025 
Q 1325 3025 1125 2825 
Q 800 2500 800 1775 
Q 800 950 1075 675 
Q 1250 500 1525 500 
Q 1750 500 1975 725 
Q 2300 1050 2300 1825 
Q 2300 2525 1975 2850 
Q 1800 3025 1550 3025 
z
" transform="scale(0.015625)"/>
      <path id="MS-Gothic-74" d="M 1050 3075 
L 250 3075 
L 250 3475 
L 1050 3475 
L 1050 4575 
L 1550 4575 
L 1550 3475 
L 2675 3475 
L 2675 3075 
L 1550 3075 
L 1550 800 
Q 1550 525 1950 525 
Q 2375 525 2825 725 
L 2825 200 
Q 2200 50 1875 50 
Q 1050 50 1050 700 
L 1050 3075 
z
" transform="scale(0.015625)"/>
      <path id="MS-Gothic-65" d="M 2875 1225 
Q 2800 675 2500 375 
Q 2175 50 1675 50 
Q 1125 50 800 375 
Q 325 850 325 1750 
Q 325 2675 750 3100 
Q 1125 3475 1650 3475 
Q 2075 3475 2425 3175 
Q 2875 2800 2850 1750 
L 875 1750 
Q 875 925 1175 700 
Q 1350 525 1675 525 
Q 1950 525 2125 700 
Q 2275 850 2300 1225 
L 2875 1225 
z
M 2275 2150 
Q 2300 2650 2050 2875 
Q 1825 3075 1600 3050 
Q 1350 3025 1125 2800 
Q 925 2600 875 2150 
L 2275 2150 
z
" transform="scale(0.015625)"/>
     </defs>
     <use xlink:href="#MS-Gothic-48"/>
     <use xlink:href="#MS-Gothic-61" x="50"/>
     <use xlink:href="#MS-Gothic-6b" x="100"/>
     <use xlink:href="#MS-Gothic-6f" x="150"/>
     <use xlink:href="#MS-Gothic-64" x="200"/>
     <use xlink:href="#MS-Gothic-61" x="250"/>
     <use xlink:href="#MS-Gothic-74" x="300"/>
     <use xlink:href="#MS-Gothic-65" x="350"/>
    </g>
   </g>
  </g>
 </g>
 <defs>
  <clipPath id="p25ab84cdfe">
   <rect x="46.08" y="43.2" width="368.64" height="129.6"/>
  </clipPath>
 </defs>
</svg>
