<?xml version="1.0" encoding="utf-8" standalone="no"?>
<!DOCTYPE svg PUBLIC "-//W3C//DTD SVG 1.1//EN"
  "http://www.w3.org/Graphics/SVG/1.1/DTD/svg11.dtd">
<svg xmlns:xlink="http://www.w3.org/1999/xlink" width="460.8pt" height="432pt" viewBox="0 0 460.8 432" xmlns="http://www.w3.org/2000/svg" version="1.1">
 <metadata>
  <rdf:RDF xmlns:dc="http://purl.org/dc/elements/1.1/" xmlns:cc="http://creativecommons.org/ns#" xmlns:rdf="http://www.w3.org/1999/02/22-rdf-syntax-ns#">
   <cc:Work>
    <dc:type rdf:resource="http://purl.org/dc/dcmitype/StillImage"/>
    <dc:date>2022-08-12T11:38:02.232329</dc:date>
    <dc:format>image/svg+xml</dc:format>
    <dc:creator>
     <cc:Agent>
      <dc:title>Matplotlib v3.5.2, https://matplotlib.org/</dc:title>
     </cc:Agent>
    </dc:creator>
   </cc:Work>
  </rdf:RDF>
 </metadata>
 <defs>
  <style type="text/css">*{stroke-linejoin: round; stroke-linecap: butt}</style>
 </defs>
 <g id="figure_1">
  <g id="patch_1">
   <path d="M 0 432 
L 460.8 432 
L 460.8 0 
L 0 0 
z
" style="fill: #ffffff"/>
  </g>
  <g id="axes_1">
   <g id="patch_2">
    <path d="M 46.08 172.8 
L 414.72 172.8 
L 414.72 43.2 
L 46.08 43.2 
z
" style="fill: #ffffff"/>
   </g>
   <g id="PathCollection_1">
    <defs>
     <path id="m863871b7b2" style="stroke: #000000; stroke-opacity: 0.8"/>
    </defs>
    <g clip-path="url(#pe3c199ae9a)">
     <use xlink:href="#m863871b7b2" x="62.836364" y="166.211116" style="fill-opacity: 0.8; stroke: #000000; stroke-opacity: 0.8"/>
     <use xlink:href="#m863871b7b2" x="66.028052" y="100.46187" style="fill-opacity: 0.8; stroke: #000000; stroke-opacity: 0.8"/>
     <use xlink:href="#m863871b7b2" x="69.21974" y="92.784145" style="fill-opacity: 0.8; stroke: #000000; stroke-opacity: 0.8"/>
     <use xlink:href="#m863871b7b2" x="72.411429" y="132.84791" style="fill-opacity: 0.8; stroke: #000000; stroke-opacity: 0.8"/>
     <use xlink:href="#m863871b7b2" x="75.603117" y="125.30978" style="fill-opacity: 0.8; stroke: #000000; stroke-opacity: 0.8"/>
     <use xlink:href="#m863871b7b2" x="78.794805" y="148.761741" style="fill-opacity: 0.8; stroke: #000000; stroke-opacity: 0.8"/>
     <use xlink:href="#m863871b7b2" x="81.986494" y="148.063766" style="fill-opacity: 0.8; stroke: #000000; stroke-opacity: 0.8"/>
     <use xlink:href="#m863871b7b2" x="85.178182" y="142.898751" style="fill-opacity: 0.8; stroke: #000000; stroke-opacity: 0.8"/>
     <use xlink:href="#m863871b7b2" x="88.36987" y="141.084016" style="fill-opacity: 0.8; stroke: #000000; stroke-opacity: 0.8"/>
     <use xlink:href="#m863871b7b2" x="91.561558" y="159.231366" style="fill-opacity: 0.8; stroke: #000000; stroke-opacity: 0.8"/>
     <use xlink:href="#m863871b7b2" x="94.753247" y="150.716071" style="fill-opacity: 0.8; stroke: #000000; stroke-opacity: 0.8"/>
     <use xlink:href="#m863871b7b2" x="97.944935" y="151.832831" style="fill-opacity: 0.8; stroke: #000000; stroke-opacity: 0.8"/>
     <use xlink:href="#m863871b7b2" x="101.136623" y="157.835416" style="fill-opacity: 0.8; stroke: #000000; stroke-opacity: 0.8"/>
     <use xlink:href="#m863871b7b2" x="104.328312" y="144.015511" style="fill-opacity: 0.8; stroke: #000000; stroke-opacity: 0.8"/>
     <use xlink:href="#m863871b7b2" x="107.52" y="136.058595" style="fill-opacity: 0.8; stroke: #000000; stroke-opacity: 0.8"/>
     <use xlink:href="#m863871b7b2" x="110.711688" y="100.322275" style="fill-opacity: 0.8; stroke: #000000; stroke-opacity: 0.8"/>
     <use xlink:href="#m863871b7b2" x="113.903377" y="140.10685" style="fill-opacity: 0.8; stroke: #000000; stroke-opacity: 0.8"/>
     <use xlink:href="#m863871b7b2" x="117.095065" y="159.929341" style="fill-opacity: 0.8; stroke: #000000; stroke-opacity: 0.8"/>
     <use xlink:href="#m863871b7b2" x="120.286753" y="49.090909" style="fill-opacity: 0.8; stroke: #000000; stroke-opacity: 0.8"/>
     <use xlink:href="#m863871b7b2" x="123.478442" y="109.11676" style="fill-opacity: 0.8; stroke: #000000; stroke-opacity: 0.8"/>
     <use xlink:href="#m863871b7b2" x="126.67013" y="156.718656" style="fill-opacity: 0.8; stroke: #000000; stroke-opacity: 0.8"/>
     <use xlink:href="#m863871b7b2" x="129.861818" y="131.45196" style="fill-opacity: 0.8; stroke: #000000; stroke-opacity: 0.8"/>
     <use xlink:href="#m863871b7b2" x="133.053506" y="128.799655" style="fill-opacity: 0.8; stroke: #000000; stroke-opacity: 0.8"/>
     <use xlink:href="#m863871b7b2" x="136.245195" y="147.505386" style="fill-opacity: 0.8; stroke: #000000; stroke-opacity: 0.8"/>
     <use xlink:href="#m863871b7b2" x="139.436883" y="133.825075" style="fill-opacity: 0.8; stroke: #000000; stroke-opacity: 0.8"/>
     <use xlink:href="#m863871b7b2" x="142.628571" y="150.018096" style="fill-opacity: 0.8; stroke: #000000; stroke-opacity: 0.8"/>
     <use xlink:href="#m863871b7b2" x="145.82026" y="135.221025" style="fill-opacity: 0.8; stroke: #000000; stroke-opacity: 0.8"/>
     <use xlink:href="#m863871b7b2" x="149.011948" y="159.091771" style="fill-opacity: 0.8; stroke: #000000; stroke-opacity: 0.8"/>
     <use xlink:href="#m863871b7b2" x="152.203636" y="151.134856" style="fill-opacity: 0.8; stroke: #000000; stroke-opacity: 0.8"/>
     <use xlink:href="#m863871b7b2" x="155.395325" y="137.87333" style="fill-opacity: 0.8; stroke: #000000; stroke-opacity: 0.8"/>
     <use xlink:href="#m863871b7b2" x="158.587013" y="157.695821" style="fill-opacity: 0.8; stroke: #000000; stroke-opacity: 0.8"/>
     <use xlink:href="#m863871b7b2" x="161.778701" y="142.479966" style="fill-opacity: 0.8; stroke: #000000; stroke-opacity: 0.8"/>
     <use xlink:href="#m863871b7b2" x="164.97039" y="134.104265" style="fill-opacity: 0.8; stroke: #000000; stroke-opacity: 0.8"/>
     <use xlink:href="#m863871b7b2" x="168.162078" y="151.414046" style="fill-opacity: 0.8; stroke: #000000; stroke-opacity: 0.8"/>
     <use xlink:href="#m863871b7b2" x="171.353766" y="157.277036" style="fill-opacity: 0.8; stroke: #000000; stroke-opacity: 0.8"/>
     <use xlink:href="#m863871b7b2" x="174.545455" y="162.302456" style="fill-opacity: 0.8; stroke: #000000; stroke-opacity: 0.8"/>
     <use xlink:href="#m863871b7b2" x="177.737143" y="160.208531" style="fill-opacity: 0.8; stroke: #000000; stroke-opacity: 0.8"/>
     <use xlink:href="#m863871b7b2" x="180.928831" y="164.396381" style="fill-opacity: 0.8; stroke: #000000; stroke-opacity: 0.8"/>
     <use xlink:href="#m863871b7b2" x="184.120519" y="150.576476" style="fill-opacity: 0.8; stroke: #000000; stroke-opacity: 0.8"/>
     <use xlink:href="#m863871b7b2" x="187.312208" y="158.672986" style="fill-opacity: 0.8; stroke: #000000; stroke-opacity: 0.8"/>
     <use xlink:href="#m863871b7b2" x="190.503896" y="160.487721" style="fill-opacity: 0.8; stroke: #000000; stroke-opacity: 0.8"/>
     <use xlink:href="#m863871b7b2" x="193.695584" y="158.114606" style="fill-opacity: 0.8; stroke: #000000; stroke-opacity: 0.8"/>
     <use xlink:href="#m863871b7b2" x="196.887273" y="150.995261" style="fill-opacity: 0.8; stroke: #000000; stroke-opacity: 0.8"/>
     <use xlink:href="#m863871b7b2" x="200.078961" y="149.040931" style="fill-opacity: 0.8; stroke: #000000; stroke-opacity: 0.8"/>
     <use xlink:href="#m863871b7b2" x="203.270649" y="145.132271" style="fill-opacity: 0.8; stroke: #000000; stroke-opacity: 0.8"/>
     <use xlink:href="#m863871b7b2" x="206.462338" y="160.627316" style="fill-opacity: 0.8; stroke: #000000; stroke-opacity: 0.8"/>
     <use xlink:href="#m863871b7b2" x="209.654026" y="146.947006" style="fill-opacity: 0.8; stroke: #000000; stroke-opacity: 0.8"/>
     <use xlink:href="#m863871b7b2" x="212.845714" y="159.091771" style="fill-opacity: 0.8; stroke: #000000; stroke-opacity: 0.8"/>
     <use xlink:href="#m863871b7b2" x="216.037403" y="153.926756" style="fill-opacity: 0.8; stroke: #000000; stroke-opacity: 0.8"/>
     <use xlink:href="#m863871b7b2" x="219.229091" y="147.365791" style="fill-opacity: 0.8; stroke: #000000; stroke-opacity: 0.8"/>
     <use xlink:href="#m863871b7b2" x="222.420779" y="127.682895" style="fill-opacity: 0.8; stroke: #000000; stroke-opacity: 0.8"/>
     <use xlink:href="#m863871b7b2" x="225.612468" y="153.647566" style="fill-opacity: 0.8; stroke: #000000; stroke-opacity: 0.8"/>
     <use xlink:href="#m863871b7b2" x="228.804156" y="135.221025" style="fill-opacity: 0.8; stroke: #000000; stroke-opacity: 0.8"/>
     <use xlink:href="#m863871b7b2" x="231.995844" y="106.04567" style="fill-opacity: 0.8; stroke: #000000; stroke-opacity: 0.8"/>
     <use xlink:href="#m863871b7b2" x="235.187532" y="160.068936" style="fill-opacity: 0.8; stroke: #000000; stroke-opacity: 0.8"/>
     <use xlink:href="#m863871b7b2" x="238.379221" y="137.87333" style="fill-opacity: 0.8; stroke: #000000; stroke-opacity: 0.8"/>
     <use xlink:href="#m863871b7b2" x="241.570909" y="145.411461" style="fill-opacity: 0.8; stroke: #000000; stroke-opacity: 0.8"/>
     <use xlink:href="#m863871b7b2" x="244.762597" y="159.650151" style="fill-opacity: 0.8; stroke: #000000; stroke-opacity: 0.8"/>
     <use xlink:href="#m863871b7b2" x="247.954286" y="162.721241" style="fill-opacity: 0.8; stroke: #000000; stroke-opacity: 0.8"/>
     <use xlink:href="#m863871b7b2" x="251.145974" y="160.627316" style="fill-opacity: 0.8; stroke: #000000; stroke-opacity: 0.8"/>
     <use xlink:href="#m863871b7b2" x="254.337662" y="144.573891" style="fill-opacity: 0.8; stroke: #000000; stroke-opacity: 0.8"/>
     <use xlink:href="#m863871b7b2" x="257.529351" y="124.332615" style="fill-opacity: 0.8; stroke: #000000; stroke-opacity: 0.8"/>
     <use xlink:href="#m863871b7b2" x="260.721039" y="138.292115" style="fill-opacity: 0.8; stroke: #000000; stroke-opacity: 0.8"/>
     <use xlink:href="#m863871b7b2" x="263.912727" y="147.365791" style="fill-opacity: 0.8; stroke: #000000; stroke-opacity: 0.8"/>
     <use xlink:href="#m863871b7b2" x="267.104416" y="127.82249" style="fill-opacity: 0.8; stroke: #000000; stroke-opacity: 0.8"/>
     <use xlink:href="#m863871b7b2" x="270.296104" y="116.65489" style="fill-opacity: 0.8; stroke: #000000; stroke-opacity: 0.8"/>
     <use xlink:href="#m863871b7b2" x="273.487792" y="150.157691" style="fill-opacity: 0.8; stroke: #000000; stroke-opacity: 0.8"/>
     <use xlink:href="#m863871b7b2" x="276.679481" y="152.949591" style="fill-opacity: 0.8; stroke: #000000; stroke-opacity: 0.8"/>
     <use xlink:href="#m863871b7b2" x="279.871169" y="143.875916" style="fill-opacity: 0.8; stroke: #000000; stroke-opacity: 0.8"/>
     <use xlink:href="#m863871b7b2" x="283.062857" y="164.117191" style="fill-opacity: 0.8; stroke: #000000; stroke-opacity: 0.8"/>
     <use xlink:href="#m863871b7b2" x="286.254545" y="148.761741" style="fill-opacity: 0.8; stroke: #000000; stroke-opacity: 0.8"/>
     <use xlink:href="#m863871b7b2" x="289.446234" y="148.761741" style="fill-opacity: 0.8; stroke: #000000; stroke-opacity: 0.8"/>
     <use xlink:href="#m863871b7b2" x="292.637922" y="152.949591" style="fill-opacity: 0.8; stroke: #000000; stroke-opacity: 0.8"/>
     <use xlink:href="#m863871b7b2" x="295.82961" y="159.929341" style="fill-opacity: 0.8; stroke: #000000; stroke-opacity: 0.8"/>
     <use xlink:href="#m863871b7b2" x="299.021299" y="157.835416" style="fill-opacity: 0.8; stroke: #000000; stroke-opacity: 0.8"/>
     <use xlink:href="#m863871b7b2" x="302.212987" y="143.875916" style="fill-opacity: 0.8; stroke: #000000; stroke-opacity: 0.8"/>
     <use xlink:href="#m863871b7b2" x="305.404675" y="146.667816" style="fill-opacity: 0.8; stroke: #000000; stroke-opacity: 0.8"/>
     <use xlink:href="#m863871b7b2" x="308.596364" y="155.043516" style="fill-opacity: 0.8; stroke: #000000; stroke-opacity: 0.8"/>
     <use xlink:href="#m863871b7b2" x="311.788052" y="157.137441" style="fill-opacity: 0.8; stroke: #000000; stroke-opacity: 0.8"/>
     <use xlink:href="#m863871b7b2" x="314.97974" y="150.855666" style="fill-opacity: 0.8; stroke: #000000; stroke-opacity: 0.8"/>
     <use xlink:href="#m863871b7b2" x="318.171429" y="139.688065" style="fill-opacity: 0.8; stroke: #000000; stroke-opacity: 0.8"/>
     <use xlink:href="#m863871b7b2" x="321.363117" y="152.949591" style="fill-opacity: 0.8; stroke: #000000; stroke-opacity: 0.8"/>
     <use xlink:href="#m863871b7b2" x="324.554805" y="155.741491" style="fill-opacity: 0.8; stroke: #000000; stroke-opacity: 0.8"/>
     <use xlink:href="#m863871b7b2" x="327.746494" y="145.271866" style="fill-opacity: 0.8; stroke: #000000; stroke-opacity: 0.8"/>
     <use xlink:href="#m863871b7b2" x="330.938182" y="160.627316" style="fill-opacity: 0.8; stroke: #000000; stroke-opacity: 0.8"/>
     <use xlink:href="#m863871b7b2" x="334.12987" y="142.479966" style="fill-opacity: 0.8; stroke: #000000; stroke-opacity: 0.8"/>
     <use xlink:href="#m863871b7b2" x="337.321558" y="166.909091" style="fill-opacity: 0.8; stroke: #000000; stroke-opacity: 0.8"/>
     <use xlink:href="#m863871b7b2" x="340.513247" y="157.835416" style="fill-opacity: 0.8; stroke: #000000; stroke-opacity: 0.8"/>
     <use xlink:href="#m863871b7b2" x="343.704935" y="164.815166" style="fill-opacity: 0.8; stroke: #000000; stroke-opacity: 0.8"/>
     <use xlink:href="#m863871b7b2" x="346.896623" y="155.043516" style="fill-opacity: 0.8; stroke: #000000; stroke-opacity: 0.8"/>
     <use xlink:href="#m863871b7b2" x="350.088312" y="144.573891" style="fill-opacity: 0.8; stroke: #000000; stroke-opacity: 0.8"/>
     <use xlink:href="#m863871b7b2" x="353.28" y="165.513141" style="fill-opacity: 0.8; stroke: #000000; stroke-opacity: 0.8"/>
     <use xlink:href="#m863871b7b2" x="356.471688" y="127.124515" style="fill-opacity: 0.8; stroke: #000000; stroke-opacity: 0.8"/>
     <use xlink:href="#m863871b7b2" x="359.663377" y="154.345541" style="fill-opacity: 0.8; stroke: #000000; stroke-opacity: 0.8"/>
     <use xlink:href="#m863871b7b2" x="362.855065" y="120.144765" style="fill-opacity: 0.8; stroke: #000000; stroke-opacity: 0.8"/>
     <use xlink:href="#m863871b7b2" x="366.046753" y="153.647566" style="fill-opacity: 0.8; stroke: #000000; stroke-opacity: 0.8"/>
     <use xlink:href="#m863871b7b2" x="369.238442" y="136.896165" style="fill-opacity: 0.8; stroke: #000000; stroke-opacity: 0.8"/>
     <use xlink:href="#m863871b7b2" x="372.43013" y="146.667816" style="fill-opacity: 0.8; stroke: #000000; stroke-opacity: 0.8"/>
     <use xlink:href="#m863871b7b2" x="375.621818" y="157.835416" style="fill-opacity: 0.8; stroke: #000000; stroke-opacity: 0.8"/>
     <use xlink:href="#m863871b7b2" x="378.813506" y="161.325291" style="fill-opacity: 0.8; stroke: #000000; stroke-opacity: 0.8"/>
     <use xlink:href="#m863871b7b2" x="382.005195" y="150.855666" style="fill-opacity: 0.8; stroke: #000000; stroke-opacity: 0.8"/>
     <use xlink:href="#m863871b7b2" x="385.196883" y="160.627316" style="fill-opacity: 0.8; stroke: #000000; stroke-opacity: 0.8"/>
     <use xlink:href="#m863871b7b2" x="388.388571" y="155.741491" style="fill-opacity: 0.8; stroke: #000000; stroke-opacity: 0.8"/>
     <use xlink:href="#m863871b7b2" x="391.58026" y="153.647566" style="fill-opacity: 0.8; stroke: #000000; stroke-opacity: 0.8"/>
     <use xlink:href="#m863871b7b2" x="394.771948" y="158.533391" style="fill-opacity: 0.8; stroke: #000000; stroke-opacity: 0.8"/>
     <use xlink:href="#m863871b7b2" x="397.963636" y="139.688065" style="fill-opacity: 0.8; stroke: #000000; stroke-opacity: 0.8"/>
    </g>
   </g>
   <g id="PolyCollection_1">
    <path d="M 62.836364 128.967096 
L 62.836364 144.94241 
L 66.221488 145.004321 
L 69.606612 145.066233 
L 72.991736 145.128145 
L 76.37686 145.190056 
L 79.761983 145.271658 
L 83.147107 145.359682 
L 86.532231 145.447707 
L 89.917355 145.535731 
L 93.302479 145.623756 
L 96.687603 145.71178 
L 100.072727 145.799805 
L 103.457851 145.887829 
L 106.842975 145.975854 
L 110.228099 146.05869 
L 113.613223 146.135638 
L 116.998347 146.212586 
L 120.383471 146.289534 
L 123.768595 146.365609 
L 127.153719 146.430597 
L 130.538843 146.451399 
L 133.923967 146.516484 
L 137.309091 146.580962 
L 140.694215 146.676839 
L 144.079339 146.770715 
L 147.464463 146.855808 
L 150.849587 146.940901 
L 154.234711 147.025853 
L 157.619835 147.110463 
L 161.004959 147.194876 
L 164.390083 147.279682 
L 167.775207 147.359478 
L 171.160331 147.406336 
L 174.545455 147.515157 
L 177.930579 147.592357 
L 181.315702 147.668595 
L 184.700826 147.733348 
L 188.08595 147.788029 
L 191.471074 147.841758 
L 194.856198 147.895969 
L 198.241322 147.950275 
L 201.626446 148.021619 
L 205.01157 148.133502 
L 208.396694 148.258171 
L 211.781818 148.359237 
L 215.166942 148.43587 
L 218.552066 148.478194 
L 221.93719 148.552468 
L 225.322314 148.654549 
L 228.707438 148.749262 
L 232.092562 148.84674 
L 235.477686 148.970675 
L 238.86281 149.04901 
L 242.247934 149.223554 
L 245.633058 149.334442 
L 249.018182 149.465516 
L 252.403306 149.590198 
L 255.78843 149.688893 
L 259.173554 149.886536 
L 262.558678 150.039444 
L 265.943802 150.171086 
L 269.328926 150.269996 
L 272.71405 150.421137 
L 276.099174 150.559076 
L 279.484298 150.77188 
L 282.869421 150.981815 
L 286.254545 151.200451 
L 289.639669 151.424001 
L 293.024793 151.637546 
L 296.409917 151.854292 
L 299.795041 152.086527 
L 303.180165 152.287784 
L 306.565289 152.530034 
L 309.950413 152.749377 
L 313.335537 152.938023 
L 316.720661 153.175657 
L 320.105785 153.412264 
L 323.490909 153.699137 
L 326.876033 153.912084 
L 330.261157 154.19438 
L 333.646281 154.414377 
L 337.031405 154.617634 
L 340.416529 154.861815 
L 343.801653 155.093692 
L 347.186777 155.417058 
L 350.571901 155.686963 
L 353.957025 155.956868 
L 357.342149 156.22562 
L 360.727273 156.492605 
L 364.112397 156.804578 
L 367.497521 157.028084 
L 370.882645 157.297167 
L 374.267769 157.56534 
L 377.652893 157.855402 
L 381.038017 158.158209 
L 384.42314 158.439065 
L 387.808264 158.718102 
L 391.193388 158.953392 
L 394.578512 159.188679 
L 397.963636 159.441605 
L 397.963636 149.344623 
L 397.963636 149.344623 
L 394.578512 149.246357 
L 391.193388 149.146998 
L 387.808264 149.047968 
L 384.42314 148.962599 
L 381.038017 148.910142 
L 377.652893 148.897242 
L 374.267769 148.808076 
L 370.882645 148.752882 
L 367.497521 148.679661 
L 364.112397 148.648229 
L 360.727273 148.610189 
L 357.342149 148.543872 
L 353.957025 148.491223 
L 350.571901 148.433477 
L 347.186777 148.337991 
L 343.801653 148.248758 
L 340.416529 148.164749 
L 337.031405 148.070386 
L 333.646281 148.023586 
L 330.261157 147.891516 
L 326.876033 147.744388 
L 323.490909 147.624935 
L 320.105785 147.561839 
L 316.720661 147.466393 
L 313.335537 147.376765 
L 309.950413 147.292453 
L 306.565289 147.166877 
L 303.180165 147.015271 
L 299.795041 146.861792 
L 296.409917 146.695091 
L 293.024793 146.557714 
L 289.639669 146.406762 
L 286.254545 146.204127 
L 282.869421 146.032926 
L 279.484298 145.901036 
L 276.099174 145.728687 
L 272.71405 145.561553 
L 269.328926 145.390451 
L 265.943802 145.172785 
L 262.558678 144.924625 
L 259.173554 144.676962 
L 255.78843 144.410088 
L 252.403306 144.181502 
L 249.018182 143.946256 
L 245.633058 143.759136 
L 242.247934 143.523268 
L 238.86281 143.275403 
L 235.477686 143.055996 
L 232.092562 142.818166 
L 228.707438 142.56031 
L 225.322314 142.302169 
L 221.93719 142.044286 
L 218.552066 141.815768 
L 215.166942 141.546243 
L 211.781818 141.276558 
L 208.396694 141.0115 
L 205.01157 140.729369 
L 201.626446 140.464651 
L 198.241322 140.214152 
L 194.856198 139.93436 
L 191.471074 139.657212 
L 188.08595 139.430492 
L 184.700826 139.133162 
L 181.315702 138.908449 
L 177.930579 138.639224 
L 174.545455 138.319971 
L 171.160331 138.036989 
L 167.775207 137.767271 
L 164.390083 137.477056 
L 161.004959 137.21686 
L 157.619835 136.95895 
L 154.234711 136.687602 
L 150.849587 136.416143 
L 147.464463 136.144684 
L 144.079339 135.874565 
L 140.694215 135.604569 
L 137.309091 135.306253 
L 133.923967 134.986555 
L 130.538843 134.666856 
L 127.153719 134.349523 
L 123.768595 134.074803 
L 120.383471 133.800083 
L 116.998347 133.526883 
L 113.613223 133.253999 
L 110.228099 132.981116 
L 106.842975 132.708233 
L 103.457851 132.454988 
L 100.072727 132.206909 
L 96.687603 131.95883 
L 93.302479 131.710751 
L 89.917355 131.408311 
L 86.532231 131.101932 
L 83.147107 130.795553 
L 79.761983 130.519288 
L 76.37686 130.24491 
L 72.991736 129.950752 
L 69.606612 129.622856 
L 66.221488 129.29496 
L 62.836364 128.967096 
z
" clip-path="url(#pe3c199ae9a)" style="fill-opacity: 0.15"/>
   </g>
   <g id="matplotlib.axis_1">
    <g id="xtick_1">
     <g id="line2d_1">
      <defs>
       <path id="m6e15aab7f9" d="M 0 0 
L 0 3.5 
" style="stroke: #000000"/>
      </defs>
      <g>
       <use xlink:href="#m6e15aab7f9" x="94.753247" y="172.8" style="stroke: #000000"/>
      </g>
     </g>
     <g id="text_1">
      <!-- 1920 -->
      <g transform="translate(78.070434 190.536719)scale(0.15 -0.15)">
       <defs>
        <path id="ArialMT-31" d="M 2384 0 
L 1822 0 
L 1822 3584 
Q 1619 3391 1289 3197 
Q 959 3003 697 2906 
L 697 3450 
Q 1169 3672 1522 3987 
Q 1875 4303 2022 4600 
L 2384 4600 
L 2384 0 
z
" transform="scale(0.015625)"/>
        <path id="ArialMT-39" d="M 350 1059 
L 891 1109 
Q 959 728 1153 556 
Q 1347 384 1650 384 
Q 1909 384 2104 503 
Q 2300 622 2425 820 
Q 2550 1019 2634 1356 
Q 2719 1694 2719 2044 
Q 2719 2081 2716 2156 
Q 2547 1888 2255 1720 
Q 1963 1553 1622 1553 
Q 1053 1553 659 1965 
Q 266 2378 266 3053 
Q 266 3750 677 4175 
Q 1088 4600 1706 4600 
Q 2153 4600 2523 4359 
Q 2894 4119 3086 3673 
Q 3278 3228 3278 2384 
Q 3278 1506 3087 986 
Q 2897 466 2520 194 
Q 2144 -78 1638 -78 
Q 1100 -78 759 220 
Q 419 519 350 1059 
z
M 2653 3081 
Q 2653 3566 2395 3850 
Q 2138 4134 1775 4134 
Q 1400 4134 1122 3828 
Q 844 3522 844 3034 
Q 844 2597 1108 2323 
Q 1372 2050 1759 2050 
Q 2150 2050 2401 2323 
Q 2653 2597 2653 3081 
z
" transform="scale(0.015625)"/>
        <path id="ArialMT-32" d="M 3222 541 
L 3222 0 
L 194 0 
Q 188 203 259 391 
Q 375 700 629 1000 
Q 884 1300 1366 1694 
Q 2113 2306 2375 2664 
Q 2638 3022 2638 3341 
Q 2638 3675 2398 3904 
Q 2159 4134 1775 4134 
Q 1369 4134 1125 3890 
Q 881 3647 878 3216 
L 300 3275 
Q 359 3922 746 4261 
Q 1134 4600 1788 4600 
Q 2447 4600 2831 4234 
Q 3216 3869 3216 3328 
Q 3216 3053 3103 2787 
Q 2991 2522 2730 2228 
Q 2469 1934 1863 1422 
Q 1356 997 1212 845 
Q 1069 694 975 541 
L 3222 541 
z
" transform="scale(0.015625)"/>
        <path id="ArialMT-30" d="M 266 2259 
Q 266 3072 433 3567 
Q 600 4063 929 4331 
Q 1259 4600 1759 4600 
Q 2128 4600 2406 4451 
Q 2684 4303 2865 4023 
Q 3047 3744 3150 3342 
Q 3253 2941 3253 2259 
Q 3253 1453 3087 958 
Q 2922 463 2592 192 
Q 2263 -78 1759 -78 
Q 1097 -78 719 397 
Q 266 969 266 2259 
z
M 844 2259 
Q 844 1131 1108 757 
Q 1372 384 1759 384 
Q 2147 384 2411 759 
Q 2675 1134 2675 2259 
Q 2675 3391 2411 3762 
Q 2147 4134 1753 4134 
Q 1366 4134 1134 3806 
Q 844 3388 844 2259 
z
" transform="scale(0.015625)"/>
       </defs>
       <use xlink:href="#ArialMT-31"/>
       <use xlink:href="#ArialMT-39" x="55.615234"/>
       <use xlink:href="#ArialMT-32" x="111.230469"/>
       <use xlink:href="#ArialMT-30" x="166.845703"/>
      </g>
     </g>
    </g>
    <g id="xtick_2">
     <g id="line2d_2">
      <g>
       <use xlink:href="#m6e15aab7f9" x="158.587013" y="172.8" style="stroke: #000000"/>
      </g>
     </g>
     <g id="text_2">
      <!-- 1940 -->
      <g transform="translate(141.9042 190.536719)scale(0.15 -0.15)">
       <defs>
        <path id="ArialMT-34" d="M 2069 0 
L 2069 1097 
L 81 1097 
L 81 1613 
L 2172 4581 
L 2631 4581 
L 2631 1613 
L 3250 1613 
L 3250 1097 
L 2631 1097 
L 2631 0 
L 2069 0 
z
M 2069 1613 
L 2069 3678 
L 634 1613 
L 2069 1613 
z
" transform="scale(0.015625)"/>
       </defs>
       <use xlink:href="#ArialMT-31"/>
       <use xlink:href="#ArialMT-39" x="55.615234"/>
       <use xlink:href="#ArialMT-34" x="111.230469"/>
       <use xlink:href="#ArialMT-30" x="166.845703"/>
      </g>
     </g>
    </g>
    <g id="xtick_3">
     <g id="line2d_3">
      <g>
       <use xlink:href="#m6e15aab7f9" x="222.420779" y="172.8" style="stroke: #000000"/>
      </g>
     </g>
     <g id="text_3">
      <!-- 1960 -->
      <g transform="translate(205.737967 190.536719)scale(0.15 -0.15)">
       <defs>
        <path id="ArialMT-36" d="M 3184 3459 
L 2625 3416 
Q 2550 3747 2413 3897 
Q 2184 4138 1850 4138 
Q 1581 4138 1378 3988 
Q 1113 3794 959 3422 
Q 806 3050 800 2363 
Q 1003 2672 1297 2822 
Q 1591 2972 1913 2972 
Q 2475 2972 2870 2558 
Q 3266 2144 3266 1488 
Q 3266 1056 3080 686 
Q 2894 316 2569 119 
Q 2244 -78 1831 -78 
Q 1128 -78 684 439 
Q 241 956 241 2144 
Q 241 3472 731 4075 
Q 1159 4600 1884 4600 
Q 2425 4600 2770 4297 
Q 3116 3994 3184 3459 
z
M 888 1484 
Q 888 1194 1011 928 
Q 1134 663 1356 523 
Q 1578 384 1822 384 
Q 2178 384 2434 671 
Q 2691 959 2691 1453 
Q 2691 1928 2437 2201 
Q 2184 2475 1800 2475 
Q 1419 2475 1153 2201 
Q 888 1928 888 1484 
z
" transform="scale(0.015625)"/>
       </defs>
       <use xlink:href="#ArialMT-31"/>
       <use xlink:href="#ArialMT-39" x="55.615234"/>
       <use xlink:href="#ArialMT-36" x="111.230469"/>
       <use xlink:href="#ArialMT-30" x="166.845703"/>
      </g>
     </g>
    </g>
    <g id="xtick_4">
     <g id="line2d_4">
      <g>
       <use xlink:href="#m6e15aab7f9" x="286.254545" y="172.8" style="stroke: #000000"/>
      </g>
     </g>
     <g id="text_4">
      <!-- 1980 -->
      <g transform="translate(269.571733 190.536719)scale(0.15 -0.15)">
       <defs>
        <path id="ArialMT-38" d="M 1131 2484 
Q 781 2613 612 2850 
Q 444 3088 444 3419 
Q 444 3919 803 4259 
Q 1163 4600 1759 4600 
Q 2359 4600 2725 4251 
Q 3091 3903 3091 3403 
Q 3091 3084 2923 2848 
Q 2756 2613 2416 2484 
Q 2838 2347 3058 2040 
Q 3278 1734 3278 1309 
Q 3278 722 2862 322 
Q 2447 -78 1769 -78 
Q 1091 -78 675 323 
Q 259 725 259 1325 
Q 259 1772 486 2073 
Q 713 2375 1131 2484 
z
M 1019 3438 
Q 1019 3113 1228 2906 
Q 1438 2700 1772 2700 
Q 2097 2700 2305 2904 
Q 2513 3109 2513 3406 
Q 2513 3716 2298 3927 
Q 2084 4138 1766 4138 
Q 1444 4138 1231 3931 
Q 1019 3725 1019 3438 
z
M 838 1322 
Q 838 1081 952 856 
Q 1066 631 1291 507 
Q 1516 384 1775 384 
Q 2178 384 2440 643 
Q 2703 903 2703 1303 
Q 2703 1709 2433 1975 
Q 2163 2241 1756 2241 
Q 1359 2241 1098 1978 
Q 838 1716 838 1322 
z
" transform="scale(0.015625)"/>
       </defs>
       <use xlink:href="#ArialMT-31"/>
       <use xlink:href="#ArialMT-39" x="55.615234"/>
       <use xlink:href="#ArialMT-38" x="111.230469"/>
       <use xlink:href="#ArialMT-30" x="166.845703"/>
      </g>
     </g>
    </g>
    <g id="xtick_5">
     <g id="line2d_5">
      <g>
       <use xlink:href="#m6e15aab7f9" x="350.088312" y="172.8" style="stroke: #000000"/>
      </g>
     </g>
     <g id="text_5">
      <!-- 2000 -->
      <g transform="translate(333.405499 190.536719)scale(0.15 -0.15)">
       <use xlink:href="#ArialMT-32"/>
       <use xlink:href="#ArialMT-30" x="55.615234"/>
       <use xlink:href="#ArialMT-30" x="111.230469"/>
       <use xlink:href="#ArialMT-30" x="166.845703"/>
      </g>
     </g>
    </g>
    <g id="xtick_6">
     <g id="line2d_6">
      <g>
       <use xlink:href="#m6e15aab7f9" x="413.922078" y="172.8" style="stroke: #000000"/>
      </g>
     </g>
     <g id="text_6">
      <!-- 2020 -->
      <g transform="translate(397.239265 190.536719)scale(0.15 -0.15)">
       <use xlink:href="#ArialMT-32"/>
       <use xlink:href="#ArialMT-30" x="55.615234"/>
       <use xlink:href="#ArialMT-32" x="111.230469"/>
       <use xlink:href="#ArialMT-30" x="166.845703"/>
      </g>
     </g>
    </g>
   </g>
   <g id="matplotlib.axis_2">
    <g id="ytick_1">
     <g id="line2d_7">
      <defs>
       <path id="m98cf714cdb" d="M 0 0 
L 3.5 0 
" style="stroke: #000000"/>
      </defs>
      <g>
       <use xlink:href="#m98cf714cdb" x="46.08" y="171.096941" style="stroke: #000000"/>
      </g>
     </g>
     <g id="text_7">
      <!-- 0 -->
      <g transform="translate(34.238594 176.4653)scale(0.15 -0.15)">
       <use xlink:href="#ArialMT-30"/>
      </g>
     </g>
    </g>
    <g id="ytick_2">
     <g id="line2d_8">
      <g>
       <use xlink:href="#m98cf714cdb" x="46.08" y="136.19819" style="stroke: #000000"/>
      </g>
     </g>
     <g id="text_8">
      <!-- 25 -->
      <g transform="translate(25.897188 141.56655)scale(0.15 -0.15)">
       <defs>
        <path id="ArialMT-35" d="M 266 1200 
L 856 1250 
Q 922 819 1161 601 
Q 1400 384 1738 384 
Q 2144 384 2425 690 
Q 2706 997 2706 1503 
Q 2706 1984 2436 2262 
Q 2166 2541 1728 2541 
Q 1456 2541 1237 2417 
Q 1019 2294 894 2097 
L 366 2166 
L 809 4519 
L 3088 4519 
L 3088 3981 
L 1259 3981 
L 1013 2750 
Q 1425 3038 1878 3038 
Q 2478 3038 2890 2622 
Q 3303 2206 3303 1553 
Q 3303 931 2941 478 
Q 2500 -78 1738 -78 
Q 1113 -78 717 272 
Q 322 622 266 1200 
z
" transform="scale(0.015625)"/>
       </defs>
       <use xlink:href="#ArialMT-32"/>
       <use xlink:href="#ArialMT-35" x="55.615234"/>
      </g>
     </g>
    </g>
    <g id="ytick_3">
     <g id="line2d_9">
      <g>
       <use xlink:href="#m98cf714cdb" x="46.08" y="101.29944" style="stroke: #000000"/>
      </g>
     </g>
     <g id="text_9">
      <!-- 50 -->
      <g transform="translate(25.897188 106.667799)scale(0.15 -0.15)">
       <use xlink:href="#ArialMT-35"/>
       <use xlink:href="#ArialMT-30" x="55.615234"/>
      </g>
     </g>
    </g>
    <g id="ytick_4">
     <g id="line2d_10">
      <g>
       <use xlink:href="#m98cf714cdb" x="46.08" y="66.400689" style="stroke: #000000"/>
      </g>
     </g>
     <g id="text_10">
      <!-- 75 -->
      <g transform="translate(25.897188 71.769049)scale(0.15 -0.15)">
       <defs>
        <path id="ArialMT-37" d="M 303 3981 
L 303 4522 
L 3269 4522 
L 3269 4084 
Q 2831 3619 2401 2847 
Q 1972 2075 1738 1259 
Q 1569 684 1522 0 
L 944 0 
Q 953 541 1156 1306 
Q 1359 2072 1739 2783 
Q 2119 3494 2547 3981 
L 303 3981 
z
" transform="scale(0.015625)"/>
       </defs>
       <use xlink:href="#ArialMT-37"/>
       <use xlink:href="#ArialMT-35" x="55.615234"/>
      </g>
     </g>
    </g>
    <g id="ytick_5">
     <g id="line2d_11">
      <defs>
       <path id="m3138ac0ee4" d="M 0 0 
L 2 0 
" style="stroke: #000000; stroke-width: 0.6"/>
      </defs>
      <g>
       <use xlink:href="#m3138ac0ee4" x="46.08" y="164.117191" style="stroke: #000000; stroke-width: 0.6"/>
      </g>
     </g>
    </g>
    <g id="ytick_6">
     <g id="line2d_12">
      <g>
       <use xlink:href="#m3138ac0ee4" x="46.08" y="157.137441" style="stroke: #000000; stroke-width: 0.6"/>
      </g>
     </g>
    </g>
    <g id="ytick_7">
     <g id="line2d_13">
      <g>
       <use xlink:href="#m3138ac0ee4" x="46.08" y="150.157691" style="stroke: #000000; stroke-width: 0.6"/>
      </g>
     </g>
    </g>
    <g id="ytick_8">
     <g id="line2d_14">
      <g>
       <use xlink:href="#m3138ac0ee4" x="46.08" y="143.177941" style="stroke: #000000; stroke-width: 0.6"/>
      </g>
     </g>
    </g>
    <g id="ytick_9">
     <g id="line2d_15">
      <g>
       <use xlink:href="#m3138ac0ee4" x="46.08" y="129.21844" style="stroke: #000000; stroke-width: 0.6"/>
      </g>
     </g>
    </g>
    <g id="ytick_10">
     <g id="line2d_16">
      <g>
       <use xlink:href="#m3138ac0ee4" x="46.08" y="122.23869" style="stroke: #000000; stroke-width: 0.6"/>
      </g>
     </g>
    </g>
    <g id="ytick_11">
     <g id="line2d_17">
      <g>
       <use xlink:href="#m3138ac0ee4" x="46.08" y="115.25894" style="stroke: #000000; stroke-width: 0.6"/>
      </g>
     </g>
    </g>
    <g id="ytick_12">
     <g id="line2d_18">
      <g>
       <use xlink:href="#m3138ac0ee4" x="46.08" y="108.27919" style="stroke: #000000; stroke-width: 0.6"/>
      </g>
     </g>
    </g>
    <g id="ytick_13">
     <g id="line2d_19">
      <g>
       <use xlink:href="#m3138ac0ee4" x="46.08" y="94.31969" style="stroke: #000000; stroke-width: 0.6"/>
      </g>
     </g>
    </g>
    <g id="ytick_14">
     <g id="line2d_20">
      <g>
       <use xlink:href="#m3138ac0ee4" x="46.08" y="87.33994" style="stroke: #000000; stroke-width: 0.6"/>
      </g>
     </g>
    </g>
    <g id="ytick_15">
     <g id="line2d_21">
      <g>
       <use xlink:href="#m3138ac0ee4" x="46.08" y="80.36019" style="stroke: #000000; stroke-width: 0.6"/>
      </g>
     </g>
    </g>
    <g id="ytick_16">
     <g id="line2d_22">
      <g>
       <use xlink:href="#m3138ac0ee4" x="46.08" y="73.380439" style="stroke: #000000; stroke-width: 0.6"/>
      </g>
     </g>
    </g>
    <g id="ytick_17">
     <g id="line2d_23">
      <g>
       <use xlink:href="#m3138ac0ee4" x="46.08" y="59.420939" style="stroke: #000000; stroke-width: 0.6"/>
      </g>
     </g>
    </g>
    <g id="ytick_18">
     <g id="line2d_24">
      <g>
       <use xlink:href="#m3138ac0ee4" x="46.08" y="52.441189" style="stroke: #000000; stroke-width: 0.6"/>
      </g>
     </g>
    </g>
    <g id="ytick_19">
     <g id="line2d_25">
      <g>
       <use xlink:href="#m3138ac0ee4" x="46.08" y="45.461439" style="stroke: #000000; stroke-width: 0.6"/>
      </g>
     </g>
    </g>
   </g>
   <g id="line2d_26">
    <path d="M 62.836364 166.211116 
L 66.028052 100.46187 
L 69.21974 92.784145 
L 72.411429 132.84791 
L 75.603117 125.30978 
L 78.794805 148.761741 
L 81.986494 148.063766 
L 85.178182 142.898751 
L 88.36987 141.084016 
L 91.561558 159.231366 
L 94.753247 150.716071 
L 97.944935 151.832831 
L 101.136623 157.835416 
L 104.328312 144.015511 
L 107.52 136.058595 
L 110.711688 100.322275 
L 113.903377 140.10685 
L 117.095065 159.929341 
L 120.286753 49.090909 
L 123.478442 109.11676 
L 126.67013 156.718656 
L 129.861818 131.45196 
L 133.053506 128.799655 
L 136.245195 147.505386 
L 139.436883 133.825075 
L 142.628571 150.018096 
L 145.82026 135.221025 
L 149.011948 159.091771 
L 152.203636 151.134856 
L 155.395325 137.87333 
L 158.587013 157.695821 
L 161.778701 142.479966 
L 164.97039 134.104265 
L 168.162078 151.414046 
L 171.353766 157.277036 
L 174.545455 162.302456 
L 177.737143 160.208531 
L 180.928831 164.396381 
L 184.120519 150.576476 
L 187.312208 158.672986 
L 190.503896 160.487721 
L 193.695584 158.114606 
L 196.887273 150.995261 
L 200.078961 149.040931 
L 203.270649 145.132271 
L 206.462338 160.627316 
L 209.654026 146.947006 
L 212.845714 159.091771 
L 216.037403 153.926756 
L 219.229091 147.365791 
L 222.420779 127.682895 
L 225.612468 153.647566 
L 228.804156 135.221025 
L 231.995844 106.04567 
L 235.187532 160.068936 
L 238.379221 137.87333 
L 241.570909 145.411461 
L 244.762597 159.650151 
L 247.954286 162.721241 
L 251.145974 160.627316 
L 254.337662 144.573891 
L 257.529351 124.332615 
L 260.721039 138.292115 
L 263.912727 147.365791 
L 267.104416 127.82249 
L 270.296104 116.65489 
L 273.487792 150.157691 
L 276.679481 152.949591 
L 279.871169 143.875916 
L 283.062857 164.117191 
L 286.254545 148.761741 
L 289.446234 148.761741 
L 292.637922 152.949591 
L 295.82961 159.929341 
L 299.021299 157.835416 
L 302.212987 143.875916 
L 305.404675 146.667816 
L 308.596364 155.043516 
L 311.788052 157.137441 
L 314.97974 150.855666 
L 318.171429 139.688065 
L 321.363117 152.949591 
L 324.554805 155.741491 
L 327.746494 145.271866 
L 330.938182 160.627316 
L 334.12987 142.479966 
L 337.321558 166.909091 
L 340.513247 157.835416 
L 343.704935 164.815166 
L 346.896623 155.043516 
L 350.088312 144.573891 
L 353.28 165.513141 
L 356.471688 127.124515 
L 359.663377 154.345541 
L 362.855065 120.144765 
L 366.046753 153.647566 
L 369.238442 136.896165 
L 372.43013 146.667816 
L 375.621818 157.835416 
L 378.813506 161.325291 
L 382.005195 150.855666 
L 385.196883 160.627316 
L 388.388571 155.741491 
L 391.58026 153.647566 
L 394.771948 158.533391 
L 397.963636 139.688065 
" clip-path="url(#pe3c199ae9a)" style="fill: none; stroke: #000000; stroke-linecap: square"/>
    <defs>
     <path id="ma01204c451" d="M 0 2 
C 0.530406 2 1.03916 1.789267 1.414214 1.414214 
C 1.789267 1.03916 2 0.530406 2 0 
C 2 -0.530406 1.789267 -1.03916 1.414214 -1.414214 
C 1.03916 -1.789267 0.530406 -2 0 -2 
C -0.530406 -2 -1.03916 -1.789267 -1.414214 -1.414214 
C -1.789267 -1.03916 -2 -0.530406 -2 0 
C -2 0.530406 -1.789267 1.03916 -1.414214 1.414214 
C -1.03916 1.789267 -0.530406 2 0 2 
z
" style="stroke: #000000"/>
    </defs>
    <g clip-path="url(#pe3c199ae9a)">
     <use xlink:href="#ma01204c451" x="62.836364" y="166.211116" style="stroke: #000000"/>
     <use xlink:href="#ma01204c451" x="66.028052" y="100.46187" style="stroke: #000000"/>
     <use xlink:href="#ma01204c451" x="69.21974" y="92.784145" style="stroke: #000000"/>
     <use xlink:href="#ma01204c451" x="72.411429" y="132.84791" style="stroke: #000000"/>
     <use xlink:href="#ma01204c451" x="75.603117" y="125.30978" style="stroke: #000000"/>
     <use xlink:href="#ma01204c451" x="78.794805" y="148.761741" style="stroke: #000000"/>
     <use xlink:href="#ma01204c451" x="81.986494" y="148.063766" style="stroke: #000000"/>
     <use xlink:href="#ma01204c451" x="85.178182" y="142.898751" style="stroke: #000000"/>
     <use xlink:href="#ma01204c451" x="88.36987" y="141.084016" style="stroke: #000000"/>
     <use xlink:href="#ma01204c451" x="91.561558" y="159.231366" style="stroke: #000000"/>
     <use xlink:href="#ma01204c451" x="94.753247" y="150.716071" style="stroke: #000000"/>
     <use xlink:href="#ma01204c451" x="97.944935" y="151.832831" style="stroke: #000000"/>
     <use xlink:href="#ma01204c451" x="101.136623" y="157.835416" style="stroke: #000000"/>
     <use xlink:href="#ma01204c451" x="104.328312" y="144.015511" style="stroke: #000000"/>
     <use xlink:href="#ma01204c451" x="107.52" y="136.058595" style="stroke: #000000"/>
     <use xlink:href="#ma01204c451" x="110.711688" y="100.322275" style="stroke: #000000"/>
     <use xlink:href="#ma01204c451" x="113.903377" y="140.10685" style="stroke: #000000"/>
     <use xlink:href="#ma01204c451" x="117.095065" y="159.929341" style="stroke: #000000"/>
     <use xlink:href="#ma01204c451" x="120.286753" y="49.090909" style="stroke: #000000"/>
     <use xlink:href="#ma01204c451" x="123.478442" y="109.11676" style="stroke: #000000"/>
     <use xlink:href="#ma01204c451" x="126.67013" y="156.718656" style="stroke: #000000"/>
     <use xlink:href="#ma01204c451" x="129.861818" y="131.45196" style="stroke: #000000"/>
     <use xlink:href="#ma01204c451" x="133.053506" y="128.799655" style="stroke: #000000"/>
     <use xlink:href="#ma01204c451" x="136.245195" y="147.505386" style="stroke: #000000"/>
     <use xlink:href="#ma01204c451" x="139.436883" y="133.825075" style="stroke: #000000"/>
     <use xlink:href="#ma01204c451" x="142.628571" y="150.018096" style="stroke: #000000"/>
     <use xlink:href="#ma01204c451" x="145.82026" y="135.221025" style="stroke: #000000"/>
     <use xlink:href="#ma01204c451" x="149.011948" y="159.091771" style="stroke: #000000"/>
     <use xlink:href="#ma01204c451" x="152.203636" y="151.134856" style="stroke: #000000"/>
     <use xlink:href="#ma01204c451" x="155.395325" y="137.87333" style="stroke: #000000"/>
     <use xlink:href="#ma01204c451" x="158.587013" y="157.695821" style="stroke: #000000"/>
     <use xlink:href="#ma01204c451" x="161.778701" y="142.479966" style="stroke: #000000"/>
     <use xlink:href="#ma01204c451" x="164.97039" y="134.104265" style="stroke: #000000"/>
     <use xlink:href="#ma01204c451" x="168.162078" y="151.414046" style="stroke: #000000"/>
     <use xlink:href="#ma01204c451" x="171.353766" y="157.277036" style="stroke: #000000"/>
     <use xlink:href="#ma01204c451" x="174.545455" y="162.302456" style="stroke: #000000"/>
     <use xlink:href="#ma01204c451" x="177.737143" y="160.208531" style="stroke: #000000"/>
     <use xlink:href="#ma01204c451" x="180.928831" y="164.396381" style="stroke: #000000"/>
     <use xlink:href="#ma01204c451" x="184.120519" y="150.576476" style="stroke: #000000"/>
     <use xlink:href="#ma01204c451" x="187.312208" y="158.672986" style="stroke: #000000"/>
     <use xlink:href="#ma01204c451" x="190.503896" y="160.487721" style="stroke: #000000"/>
     <use xlink:href="#ma01204c451" x="193.695584" y="158.114606" style="stroke: #000000"/>
     <use xlink:href="#ma01204c451" x="196.887273" y="150.995261" style="stroke: #000000"/>
     <use xlink:href="#ma01204c451" x="200.078961" y="149.040931" style="stroke: #000000"/>
     <use xlink:href="#ma01204c451" x="203.270649" y="145.132271" style="stroke: #000000"/>
     <use xlink:href="#ma01204c451" x="206.462338" y="160.627316" style="stroke: #000000"/>
     <use xlink:href="#ma01204c451" x="209.654026" y="146.947006" style="stroke: #000000"/>
     <use xlink:href="#ma01204c451" x="212.845714" y="159.091771" style="stroke: #000000"/>
     <use xlink:href="#ma01204c451" x="216.037403" y="153.926756" style="stroke: #000000"/>
     <use xlink:href="#ma01204c451" x="219.229091" y="147.365791" style="stroke: #000000"/>
     <use xlink:href="#ma01204c451" x="222.420779" y="127.682895" style="stroke: #000000"/>
     <use xlink:href="#ma01204c451" x="225.612468" y="153.647566" style="stroke: #000000"/>
     <use xlink:href="#ma01204c451" x="228.804156" y="135.221025" style="stroke: #000000"/>
     <use xlink:href="#ma01204c451" x="231.995844" y="106.04567" style="stroke: #000000"/>
     <use xlink:href="#ma01204c451" x="235.187532" y="160.068936" style="stroke: #000000"/>
     <use xlink:href="#ma01204c451" x="238.379221" y="137.87333" style="stroke: #000000"/>
     <use xlink:href="#ma01204c451" x="241.570909" y="145.411461" style="stroke: #000000"/>
     <use xlink:href="#ma01204c451" x="244.762597" y="159.650151" style="stroke: #000000"/>
     <use xlink:href="#ma01204c451" x="247.954286" y="162.721241" style="stroke: #000000"/>
     <use xlink:href="#ma01204c451" x="251.145974" y="160.627316" style="stroke: #000000"/>
     <use xlink:href="#ma01204c451" x="254.337662" y="144.573891" style="stroke: #000000"/>
     <use xlink:href="#ma01204c451" x="257.529351" y="124.332615" style="stroke: #000000"/>
     <use xlink:href="#ma01204c451" x="260.721039" y="138.292115" style="stroke: #000000"/>
     <use xlink:href="#ma01204c451" x="263.912727" y="147.365791" style="stroke: #000000"/>
     <use xlink:href="#ma01204c451" x="267.104416" y="127.82249" style="stroke: #000000"/>
     <use xlink:href="#ma01204c451" x="270.296104" y="116.65489" style="stroke: #000000"/>
     <use xlink:href="#ma01204c451" x="273.487792" y="150.157691" style="stroke: #000000"/>
     <use xlink:href="#ma01204c451" x="276.679481" y="152.949591" style="stroke: #000000"/>
     <use xlink:href="#ma01204c451" x="279.871169" y="143.875916" style="stroke: #000000"/>
     <use xlink:href="#ma01204c451" x="283.062857" y="164.117191" style="stroke: #000000"/>
     <use xlink:href="#ma01204c451" x="286.254545" y="148.761741" style="stroke: #000000"/>
     <use xlink:href="#ma01204c451" x="289.446234" y="148.761741" style="stroke: #000000"/>
     <use xlink:href="#ma01204c451" x="292.637922" y="152.949591" style="stroke: #000000"/>
     <use xlink:href="#ma01204c451" x="295.82961" y="159.929341" style="stroke: #000000"/>
     <use xlink:href="#ma01204c451" x="299.021299" y="157.835416" style="stroke: #000000"/>
     <use xlink:href="#ma01204c451" x="302.212987" y="143.875916" style="stroke: #000000"/>
     <use xlink:href="#ma01204c451" x="305.404675" y="146.667816" style="stroke: #000000"/>
     <use xlink:href="#ma01204c451" x="308.596364" y="155.043516" style="stroke: #000000"/>
     <use xlink:href="#ma01204c451" x="311.788052" y="157.137441" style="stroke: #000000"/>
     <use xlink:href="#ma01204c451" x="314.97974" y="150.855666" style="stroke: #000000"/>
     <use xlink:href="#ma01204c451" x="318.171429" y="139.688065" style="stroke: #000000"/>
     <use xlink:href="#ma01204c451" x="321.363117" y="152.949591" style="stroke: #000000"/>
     <use xlink:href="#ma01204c451" x="324.554805" y="155.741491" style="stroke: #000000"/>
     <use xlink:href="#ma01204c451" x="327.746494" y="145.271866" style="stroke: #000000"/>
     <use xlink:href="#ma01204c451" x="330.938182" y="160.627316" style="stroke: #000000"/>
     <use xlink:href="#ma01204c451" x="334.12987" y="142.479966" style="stroke: #000000"/>
     <use xlink:href="#ma01204c451" x="337.321558" y="166.909091" style="stroke: #000000"/>
     <use xlink:href="#ma01204c451" x="340.513247" y="157.835416" style="stroke: #000000"/>
     <use xlink:href="#ma01204c451" x="343.704935" y="164.815166" style="stroke: #000000"/>
     <use xlink:href="#ma01204c451" x="346.896623" y="155.043516" style="stroke: #000000"/>
     <use xlink:href="#ma01204c451" x="350.088312" y="144.573891" style="stroke: #000000"/>
     <use xlink:href="#ma01204c451" x="353.28" y="165.513141" style="stroke: #000000"/>
     <use xlink:href="#ma01204c451" x="356.471688" y="127.124515" style="stroke: #000000"/>
     <use xlink:href="#ma01204c451" x="359.663377" y="154.345541" style="stroke: #000000"/>
     <use xlink:href="#ma01204c451" x="362.855065" y="120.144765" style="stroke: #000000"/>
     <use xlink:href="#ma01204c451" x="366.046753" y="153.647566" style="stroke: #000000"/>
     <use xlink:href="#ma01204c451" x="369.238442" y="136.896165" style="stroke: #000000"/>
     <use xlink:href="#ma01204c451" x="372.43013" y="146.667816" style="stroke: #000000"/>
     <use xlink:href="#ma01204c451" x="375.621818" y="157.835416" style="stroke: #000000"/>
     <use xlink:href="#ma01204c451" x="378.813506" y="161.325291" style="stroke: #000000"/>
     <use xlink:href="#ma01204c451" x="382.005195" y="150.855666" style="stroke: #000000"/>
     <use xlink:href="#ma01204c451" x="385.196883" y="160.627316" style="stroke: #000000"/>
     <use xlink:href="#ma01204c451" x="388.388571" y="155.741491" style="stroke: #000000"/>
     <use xlink:href="#ma01204c451" x="391.58026" y="153.647566" style="stroke: #000000"/>
     <use xlink:href="#ma01204c451" x="394.771948" y="158.533391" style="stroke: #000000"/>
     <use xlink:href="#ma01204c451" x="397.963636" y="139.688065" style="stroke: #000000"/>
    </g>
   </g>
   <g id="line2d_27">
    <path d="M 62.836364 137.368096 
L 66.221488 137.54107 
L 69.606612 137.714044 
L 72.991736 137.887019 
L 76.37686 138.059993 
L 79.761983 138.232968 
L 83.147107 138.405942 
L 86.532231 138.578917 
L 89.917355 138.751891 
L 93.302479 138.924866 
L 96.687603 139.09784 
L 100.072727 139.270815 
L 103.457851 139.443789 
L 106.842975 139.616764 
L 110.228099 139.789738 
L 113.613223 139.962713 
L 116.998347 140.135687 
L 120.383471 140.308662 
L 123.768595 140.481636 
L 127.153719 140.654611 
L 130.538843 140.827585 
L 133.923967 141.00056 
L 137.309091 141.173534 
L 140.694215 141.346509 
L 144.079339 141.519483 
L 147.464463 141.692458 
L 150.849587 141.865432 
L 154.234711 142.038407 
L 157.619835 142.211381 
L 161.004959 142.384356 
L 164.390083 142.55733 
L 167.775207 142.730305 
L 171.160331 142.903279 
L 174.545455 143.076254 
L 177.930579 143.249228 
L 181.315702 143.422203 
L 184.700826 143.595177 
L 188.08595 143.768151 
L 191.471074 143.941126 
L 194.856198 144.1141 
L 198.241322 144.287075 
L 201.626446 144.460049 
L 205.01157 144.633024 
L 208.396694 144.805998 
L 211.781818 144.978973 
L 215.166942 145.151947 
L 218.552066 145.324922 
L 221.93719 145.497896 
L 225.322314 145.670871 
L 228.707438 145.843845 
L 232.092562 146.01682 
L 235.477686 146.189794 
L 238.86281 146.362769 
L 242.247934 146.535743 
L 245.633058 146.708718 
L 249.018182 146.881692 
L 252.403306 147.054667 
L 255.78843 147.227641 
L 259.173554 147.400616 
L 262.558678 147.57359 
L 265.943802 147.746565 
L 269.328926 147.919539 
L 272.71405 148.092514 
L 276.099174 148.265488 
L 279.484298 148.438463 
L 282.869421 148.611437 
L 286.254545 148.784412 
L 289.639669 148.957386 
L 293.024793 149.130361 
L 296.409917 149.303335 
L 299.795041 149.47631 
L 303.180165 149.649284 
L 306.565289 149.822259 
L 309.950413 149.995233 
L 313.335537 150.168207 
L 316.720661 150.341182 
L 320.105785 150.514156 
L 323.490909 150.687131 
L 326.876033 150.860105 
L 330.261157 151.03308 
L 333.646281 151.206054 
L 337.031405 151.379029 
L 340.416529 151.552003 
L 343.801653 151.724978 
L 347.186777 151.897952 
L 350.571901 152.070927 
L 353.957025 152.243901 
L 357.342149 152.416876 
L 360.727273 152.58985 
L 364.112397 152.762825 
L 367.497521 152.935799 
L 370.882645 153.108774 
L 374.267769 153.281748 
L 377.652893 153.454723 
L 381.038017 153.627697 
L 384.42314 153.800672 
L 387.808264 153.973646 
L 391.193388 154.146621 
L 394.578512 154.319595 
L 397.963636 154.49257 
" clip-path="url(#pe3c199ae9a)" style="fill: none; stroke: #000000; stroke-width: 1.5; stroke-linecap: square"/>
   </g>
   <g id="patch_3">
    <path d="M 46.08 172.8 
L 46.08 43.2 
" style="fill: none; stroke: #000000; stroke-linejoin: miter; stroke-linecap: square"/>
   </g>
   <g id="patch_4">
    <path d="M 414.72 172.8 
L 414.72 43.2 
" style="fill: none; stroke: #000000; stroke-linejoin: miter; stroke-linecap: square"/>
   </g>
   <g id="patch_5">
    <path d="M 46.08 172.8 
L 414.72 172.8 
" style="fill: none; stroke: #000000; stroke-linejoin: miter; stroke-linecap: square"/>
   </g>
   <g id="patch_6">
    <path d="M 46.08 43.2 
L 414.72 43.2 
" style="fill: none; stroke: #000000; stroke-linejoin: miter; stroke-linecap: square"/>
   </g>
   <g id="text_11">
    <!-- Abashiri -->
    <g transform="translate(194.4 37.2)scale(0.18 -0.18)">
     <defs>
      <path id="MS-Gothic-41" d="M 700 50 
L 100 50 
L 1350 4925 
L 1850 4925 
L 3100 50 
L 2500 50 
L 2150 1475 
L 1050 1475 
L 700 50 
z
M 1625 3600 
L 1575 3600 
L 1175 1950 
L 2025 1950 
L 1625 3600 
z
" transform="scale(0.015625)"/>
      <path id="MS-Gothic-62" d="M 825 2925 
Q 1225 3475 1750 3475 
Q 2150 3475 2450 3175 
Q 2850 2775 2850 1825 
Q 2850 825 2450 425 
Q 2075 50 1675 50 
Q 1200 50 825 475 
L 825 50 
L 325 50 
L 325 4925 
L 825 4925 
L 825 2925 
z
M 825 1675 
Q 825 950 1075 700 
Q 1300 475 1550 475 
Q 1850 475 2025 650 
Q 2350 975 2350 1775 
Q 2350 2550 2050 2850 
Q 1875 3025 1600 3025 
Q 1325 3025 1075 2775 
Q 825 2525 825 1675 
z
" transform="scale(0.015625)"/>
      <path id="MS-Gothic-61" d="M 2200 1925 
Q 1900 1750 1500 1625 
Q 1200 1525 1025 1350 
Q 900 1225 900 1000 
Q 900 750 1025 625 
Q 1150 500 1425 500 
Q 1875 500 2200 1025 
L 2200 1925 
z
M 2200 425 
Q 1825 50 1275 50 
Q 825 50 550 325 
Q 300 575 300 950 
Q 300 1350 575 1625 
Q 825 1875 1150 1975 
Q 2000 2250 2075 2350 
Q 2200 2500 2200 2650 
Q 2200 2800 2050 2925 
Q 1925 3025 1600 3025 
Q 1350 3025 1200 2875 
Q 1000 2675 975 2350 
L 425 2350 
Q 450 2850 775 3175 
Q 1075 3475 1600 3475 
Q 2200 3475 2450 3225 
Q 2700 2975 2700 2600 
L 2700 625 
Q 2700 325 2900 50 
L 2300 50 
Q 2200 150 2200 425 
z
" transform="scale(0.015625)"/>
      <path id="MS-Gothic-73" d="M 2175 2450 
Q 2150 2725 2000 2875 
Q 1850 3025 1600 3025 
Q 1275 3025 1150 2900 
Q 1000 2750 1000 2575 
Q 1000 2450 1125 2325 
Q 1300 2150 1875 1950 
Q 2325 1800 2525 1600 
Q 2750 1375 2750 1000 
Q 2750 650 2500 400 
Q 2150 50 1600 50 
Q 1000 50 700 350 
Q 375 675 400 1375 
L 900 1375 
Q 900 825 1050 675 
Q 1225 500 1575 500 
Q 1925 500 2100 675 
Q 2250 825 2250 1025 
Q 2250 1175 2100 1325 
Q 1950 1475 1525 1625 
Q 900 1850 700 2050 
Q 475 2275 475 2600 
Q 475 2925 750 3200 
Q 1025 3475 1600 3475 
Q 2100 3475 2400 3175 
Q 2700 2875 2675 2450 
L 2175 2450 
z
" transform="scale(0.015625)"/>
      <path id="MS-Gothic-68" d="M 850 2875 
Q 1000 3075 1100 3175 
Q 1400 3475 1900 3475 
Q 2325 3475 2575 3225 
Q 2800 3000 2800 2600 
L 2800 50 
L 2300 50 
L 2300 2425 
Q 2300 2750 2125 2925 
Q 1975 3075 1725 3075 
Q 1475 3075 1200 2800 
Q 850 2450 850 1875 
L 850 50 
L 350 50 
L 350 4925 
L 850 4925 
L 850 2875 
z
" transform="scale(0.015625)"/>
      <path id="MS-Gothic-69" d="M 1825 50 
L 1325 50 
L 1325 3475 
L 1825 3475 
L 1825 50 
z
M 1825 4925 
L 1825 4275 
L 1325 4275 
L 1325 4925 
L 1825 4925 
z
" transform="scale(0.015625)"/>
      <path id="MS-Gothic-72" d="M 1175 2750 
Q 1725 3600 2525 3475 
L 2525 2875 
Q 1600 3050 1175 1900 
L 1175 50 
L 675 50 
L 675 3475 
L 1175 3475 
L 1175 2750 
z
" transform="scale(0.015625)"/>
     </defs>
     <use xlink:href="#MS-Gothic-41"/>
     <use xlink:href="#MS-Gothic-62" x="50"/>
     <use xlink:href="#MS-Gothic-61" x="100"/>
     <use xlink:href="#MS-Gothic-73" x="150"/>
     <use xlink:href="#MS-Gothic-68" x="200"/>
     <use xlink:href="#MS-Gothic-69" x="250"/>
     <use xlink:href="#MS-Gothic-72" x="300"/>
     <use xlink:href="#MS-Gothic-69" x="350"/>
    </g>
   </g>
  </g>
 </g>
 <defs>
  <clipPath id="pe3c199ae9a">
   <rect x="46.08" y="43.2" width="368.64" height="129.6"/>
  </clipPath>
 </defs>
</svg>
